<?xml version="1.0" encoding="UTF-8"?>
<svg viewBox="0 0 1052.3622 744.09448" xmlns="http://www.w3.org/2000/svg">
 <path d="m220.23 279.24 85.389 119.15 15.886-7.9431-93.332-123.12-7.9431 11.915z" fill="#bcccdc" fill-rule="evenodd" stroke="#000" stroke-width="3.7671"/>
 <path d="m663.06 314.98-39.716-15.886s15.886-7.9431 33.758-7.9431 33.758 1.9858 33.758 1.9858l29.787 7.9431-57.588 13.9z" fill="#ebf3ff" fill-rule="evenodd" stroke="#000" stroke-width="3.7671"/>
 <path d="m236.11 418.24s25.815-13.9 49.645-23.829 45.673-17.872 45.673-17.872l25.815-47.659s-111.2-35.744-176.73-59.573-150.92-59.573-150.92-59.573-5.9574-1.9858 1.9858-7.9431 95.318-7.9431 95.318-7.9431l369.36 119.15s25.815 3.9716 41.701 9.9289 29.787 11.915 29.787 11.915 41.701-3.9716 67.517-11.915 95.318-31.773 107.23-39.716 73.474-113.19 73.474-113.19l45.673-3.9716-37.73 133.05v21.844s-9.9289-1.9858 0 0 123.12 37.73 123.12 37.73l-47.659 11.915-148.93-27.801 39.716 7.9431-55.602 21.844s291.91 59.573 289.92 63.545-13.9 11.915-39.716 19.858-57.588 9.9289-57.588 9.9289l-266.09-59.573-139 63.545 27.801 51.63s15.886-11.915 31.773-13.9 29.787 1.9858 29.787 1.9858-1.9858 29.787-25.815 43.687-39.716 11.915-47.659 1.9858 1.9858-25.815 1.9858-25.815l-37.73-53.616-71.488 23.829s-23.829 7.9431-55.602 11.915-33.758 1.9858-33.758 1.9858l-25.957-0.08532s19.858 1.9858 21.844 5.9574 5.9573 19.858-1.9858 23.829-19.858 13.9-33.758 15.886-31.772 0-33.758-5.9573 1.9858-17.872 9.9289-23.829 19.858-9.9289 19.858-9.9289l25.957-5.872s-45.673-13.9-59.573-25.815-19.858-15.886-25.815-35.744-1.9858-33.758-1.9858-33.758z" fill="#ebf3ff" fill-rule="evenodd" stroke="#000" stroke-width="4.238"/>
 <path d="m462.1 306.44c1.2224-3.6672 53.785 8.5567 68.454 13.446s36.672 17.113 36.672 17.113l3e-5 3.6672-105.13-34.227z" fill-opacity=".36216" fill-rule="evenodd"/>
 <path d="m339.37 374.55s33.758 7.9431 47.659 13.9 31.772 15.886 31.772 15.886l31.773 1.9858 7.9431-45.673s-7.9431 3.9716-11.915-3.9716 9.9289-15.886 9.9289-15.886l-85.389-25.815-31.772 59.573z" fill="#000035" fill-opacity=".60541" fill-rule="evenodd" stroke="#000" stroke-width="2.3544"/>
 <path d="m458.52 360.65 202.55 45.673" fill="none" stroke="#000" stroke-width="2.3544"/>
 <path d="m464.48 402.35 5.9574-37.73 57.588 11.915v15.886l-63.545 9.9289z" fill="#5d6085" fill-rule="evenodd" stroke="#000" stroke-width="2.3544"/>
 <path d="m537.95 380.51 3.9716 9.9289 17.872-5.9574-21.844-3.9716z" fill="#5d6085" fill-rule="evenodd" stroke="#000" stroke-width="2.3544"/>
 <path d="m240.09 424.2s5.9574-1.9858 25.815 5.9573 27.801 15.886 27.801 15.886 9.9289 7.9431 0 7.9431-9.9289 3.9716-27.801-3.9716-25.815-9.9289-25.815-17.872v-7.9431z" fill-opacity=".52432" fill-rule="evenodd" stroke="#000" stroke-width="2.3544"/>
 <path d="m311.75 505.69s12.643 2.2965 15.088-5.0379 21.584-9.6308 21.584-9.6308 19.558 2.4448 85.567-12.224 222.77-83.864 218.45-71.763l-131.84 62.403c-21.609 4.3218-82.58 24.3-123.28 38.697-35.511 2.2965-50.773 3.7286-67.886 3.8769-17.114-2.4448-17.681-6.3217-17.681-6.3217z" fill-opacity=".15135" fill-rule="evenodd"/>
 <path d="m441.32 493.47 187.38-92.754 15.533 2.2965-176.02 83.123-26.893 7.3344z" fill="#f4fbfe" fill-rule="evenodd" stroke="#000" stroke-width="2.8253"/>
 <path d="m632.01 322.69 176.02-14.669s-14.669-19.558-41.561-19.558-33.019-2.0871-59.912 12.582-74.551 21.645-74.551 21.645z" fill-opacity=".03784" fill-rule="evenodd"/>
 <path d="m748.48 286.54 71.062-112.62 35.091-3.3092c-4.3218 7.7792-15.262 7.6564-31.93 22.151-24.448 31.782-74.223 93.781-74.223 93.781z" fill-opacity=".1027" fill-rule="evenodd"/>
 <path d="m421.76 410.35-112.46 44.006s9.7791 7.3343 9.7791 24.448 9.7791 19.558 9.7791 19.558-7.3344-26.893-2.4448-34.227 95.347-53.785 95.347-53.785z" fill-opacity=".1027" fill-rule="evenodd"/>
 <path d="m757.02 338.29 60.505-15.558 65.691 19.88s-42.354-12.965-63.098-12.101-63.098 7.7792-63.098 7.7792z" fill-opacity=".17838" fill-rule="evenodd"/>
 <path d="m922.11 413.13s-320.68-59.641-400.2-87.301-364.61-120.24-364.61-120.24 262.86 93.648 377.53 130.22c109.77 34.13 387.28 77.322 387.28 77.322z" fill="#b8b8b8" fill-rule="evenodd"/>
 <path d="m927.83 460.46s0-6.112 9.7791-12.224 14.669-11.002 36.672-12.224 34.227 0 34.227 0-15.891 0-39.117 4.8896-30.56 8.5568-34.227 13.446-7.3343 6.112-7.3343 6.112z" fill-opacity=".25946" fill-rule="evenodd"/>
 <path d="m450.52 361.29-87.261-31.925s-3.1925 0 0-6.3849 7.4491-8.5132 7.4491-8.5132l85.132 26.604s-4.2566 0-7.4491 5.3208-4.2566 6.3849-2.1283 10.642 4.2566 4.2566 4.2566 4.2566z" fill-opacity=".52973" fill-rule="evenodd"/>
 <path d="m280.51 555.36c15.892-4.9857 35.876-13.393 45.224-19.314 6.8553-6.5437 2.8514-17.162 8.1722-16.098s5.1854 14.334 2.6396 18.02c-3.169 5.8676-25.692 18.584-37.322 18.637-12.252 0.05292-15.598 1.558-18.714-1.2464z" fill-opacity=".2" fill-rule="evenodd"/>
 <path d="m542.04 530.49s1.0641 8.5132 5.3208 8.5132 11.706 3.1925 27.668-2.1283 30.86-19.155 30.86-19.155-2.1283 10.642-4.2566 15.962-14.898 18.091-21.283 21.283-18.091 11.706-29.796 6.3849-13.834-4.2566-13.834-11.706 5.3208-19.155 5.3208-19.155z" fill-opacity=".15135" fill-rule="evenodd"/>
 <path d="m542.04 530.49 8.5132-6.385s11.706-8.5132 11.706-5.3208-4.2566 8.5132-8.5132 10.642-11.706 1.0642-11.706 1.0642z" fill-opacity=".09189" fill-rule="evenodd"/>
 <path d="m781.48 351.71-53.208 21.283-17.026-3.1924s51.079-18.091 59.593-19.155 10.642 1.0642 10.642 1.0642z" fill-opacity=".17297" fill-rule="evenodd"/>
 <path d="m320.58 512.8h21.069" fill="none" stroke="#000" stroke-width="2.3544"/>
 <path d="m540.3 533.87z" fill="none" stroke="#000" stroke-width="2.3544"/>
 <path d="m537.29 530.86 18.059-12.04" fill="none" stroke="#000" stroke-opacity=".42162" stroke-width="2.3544"/>
 <path transform="matrix(1.7966 .80067 -.17741 2.1956 -22.161 -531.8)" d="m194.32 372.08c0.57687 0.6196-0.5506 1.0833-1.0298 0.95879-1.2986-0.33739-1.4492-2.0216-0.88777-3.0184 1.0042-1.7831 3.4512-1.9088 5.007-0.81674 2.2833 1.6026 2.3828 4.9004 0.74572 6.9956-2.182 2.7925-6.3568 2.863-8.9842 0.6747-3.3064-2.7538-3.3464-7.8164-0.60367-10.973 3.3218-3.8229 9.278-3.8317 12.961-0.53265 4.3409 3.8879 4.3182 10.741 0.46162 14.95-4.4526 4.8599-12.204 4.8054-16.939 0.3906-5.3796-5.0164-5.2932-13.668-0.31958-18.927 5.5797-5.8998 15.133-5.7814 20.916-0.24855 6.4204 6.1425 6.2699 16.598 0.17754 22.904-6.7051 6.9412-18.063 6.7586-24.893 0.10651-7.4623-7.2674-7.2475-19.528-0.03549-26.882 7.8294-7.9835 20.993-7.7366 28.87 0.03553 8.5049 8.3914 8.2257 22.459-0.10656 30.859-8.9532 9.0263-23.924 8.715-32.847-0.17759-9.5479-9.5149-9.2043-25.39 0.24861-34.836 10.077-10.07 26.855-9.6937 36.825 0.31963 10.591 10.638 10.183 28.321-0.39066 38.813-11.2 11.113-29.787 10.673-40.802-0.46167-11.635-11.761-11.162-31.253 0.5327-42.791 12.322-12.157 32.719-11.652 44.779 0.60373 12.679 12.884 12.141 34.185-0.67474 46.768-13.445 13.201-35.651 12.631-48.756-0.74577-13.723-14.006-13.121-37.117 0.81679-50.745 14.568-14.245 38.583-13.61 52.734 0.88781 14.767 15.129 14.1 40.049-0.95884 54.722-15.69 15.289-41.515 14.59-56.711-1.0299-15.811-16.251-15.079-42.981 1.1009-58.699 16.813-16.333 44.447-15.569 60.688 1.1719 16.855 17.374 16.059 45.913-1.2429 62.677-17.935 17.377-47.379 16.549-64.665-1.314-17.899-18.496-17.039-48.845 1.385-66.654 19.057-18.421 50.312-17.528 68.642 1.456 18.943 19.619 18.018 51.778-1.527 70.631" fill="none" stroke="#000"/>
 <path d="m261.21 424.53s11.082 8.1358 11.082 19.661-11.082 14.238-11.082 14.238-16.888-4.0678-22.165-6.7797c-3.6942-4.068-6.3328-10.848 0-16.272s22.165-10.848 22.165-10.848z" fill="#ebf3ff" fill-rule="evenodd" stroke="#000" stroke-width="3.6729"/>
 <path d="m608.87 396.65 11.538 1.923s-113.46 48.076-130.77 51.922-92.305 23.076-92.305 23.076-5.7691 3.846-3.846-3.846 49.999-13.461 101.92-26.922c21.153-5.7691 101.92-40.383 101.92-40.383l11.538-5.7691z" fill="#00004c" fill-opacity=".61622" fill-rule="evenodd"/>
 <path d="m681.95 363.96 9.6151 1.923 42.306-15.384-1.923-3.846-49.998 17.307z" fill="#00004c" fill-opacity=".61622" fill-rule="evenodd"/>
 <path d="m758.87 377.42-180.76-36.537" fill="none" stroke="#000" stroke-width="3.0608"/>
 <path d="m614.64 331.27 203.84-13.461-19.23-9.6151s-19.23-9.6151-82.69 1.923-101.92 21.153-101.92 21.153z" fill-opacity=".08649" fill-rule="evenodd"/>
</svg>
