<?xml version="1.0" encoding="UTF-8"?>
<!DOCTYPE svg  PUBLIC '-//W3C//DTD SVG 1.1//EN'  'http://www.w3.org/Graphics/SVG/1.1/DTD/svg11.dtd'>
<svg width="288.25px" height="364.95px" enable-background="new 0 0 288.254 364.947" version="1.1" viewBox="0 0 288.254 364.947" xml:space="preserve" xmlns="http://www.w3.org/2000/svg">
<path d="m276.82 222.21c-0.314-3.373-0.94-6.691-1.88-9.945-0.045-0.18-0.076-0.301-0.076-0.301v6e-3c-0.019-0.057-0.03-0.115-0.047-0.176-10.521 35.277-56.797 62.66-114.39 66.896v-133.22l48.846-3.389c2.03 2.754 5.287 4.551 8.973 4.551 6.156 0 11.146-4.99 11.146-11.146 0-6.159-4.99-11.147-11.146-11.147-3.908 0-7.344 2.016-9.333 5.061l-48.485-3.908v-19.033c14.332-6.023 24.398-20.193 24.398-36.715 0-21.986-17.826-39.809-39.812-39.809-21.987 0-39.811 17.822-39.811 39.809 0 16.521 10.064 30.691 24.398 36.715v19.033l-48.508 3.908c-1.988-3.045-5.422-5.061-9.332-5.061-6.156 0-11.147 4.988-11.147 11.147 0 6.156 4.991 11.146 11.147 11.146 3.685 0 6.943-1.797 8.972-4.551l48.868 3.389v133.24c-57.748-4.152-104.18-31.576-114.72-66.92-1.063 3.568-1.753 7.219-2.062 10.936-2.109 14.559-3.589 40.879 8.662 59.762-0.804-6.746-0.376-15.34 4.196-19.537 10.196 13.244 25.848 24.533 45.149 32.709 0.322 0.139 0.655 0.264 0.979 0.4v0.068c0.423 0.146 0.824 0.291 1.243 0.438 3.363 1.363 6.822 2.645 10.389 3.816 50.106 19.688 61.409 43.59 61.409 43.59l3e-3 -0.572v0.572s11.336-23.984 61.664-43.693c3.379-1.115 6.664-2.326 9.861-3.617 0.512-0.176 0.999-0.357 1.518-0.533v-0.076c19.745-8.207 35.776-19.639 46.142-33.102 4.574 4.193 5.003 12.787 4.2 19.537 12.405-19.114 10.735-45.839 8.585-60.282zm-131.8-172.36c10.988 0 19.895 8.91 19.895 19.896 0 10.988-8.906 19.896-19.895 19.896-10.987 0-19.896-8.907-19.896-19.896 0-10.986 8.908-19.896 19.896-19.896z" fill="#141414"/>
</svg>
