<?xml version="1.0" encoding="UTF-8"?>
<!DOCTYPE svg  PUBLIC '-//W3C//DTD SVG 1.1//EN'  'http://www.w3.org/Graphics/SVG/1.1/DTD/svg11.dtd'>
<svg enable-background="new -230.8315 -343.8127 1211.3917 1749.6854" version="1.1" viewBox="-230.8315 -343.8127 1211.3917 1749.6854" xml:space="preserve" xmlns="http://www.w3.org/2000/svg">
	<path d="m543.61-268.97c3.3677 9.4391 6.9568 18.957 12.918 27.116 15.431 21.598 39.148 35.274 62.912 45.931 23.21 9.9451 47.433 17.724 72.193 22.784-9.787 0.1423-19.305-2.1819-28.792-4.1899-33.408-7.6841-66.896-17.724-96.399-35.574 15.842 25.06 39.843 43.575 64.967 58.643 16.791 10.087 34.326 18.878 52.208 26.894 20.459 11.131 39.907 27.116 48.555 49.393 8.285 20.949 4.522 44.634-4.2689 64.777-6.6091 14.752-14.783 28.918-25.06 41.409 13.487-21.313 23.716-45.63 24.365-71.165 0.6324-17.677-5.1702-35.638-16.76-49.093-11.368-13.455-26.91-22.673-43.085-29.171-29.804-11.416-58.421-26.752-82.659-47.654-17.25-15.147-32.317-33.82-39.132-56.05-4.3637-14.182-5.2017-29.535-1.9605-44.049z"/>
	<path d="m698.25-231.94c22.451 10.277 42.784 25.329 59.322 43.67 19.542 21.677 32.333 49.741 33.851 79.054 2.0712 34.31-9.8976 67.592-25.693 97.506 1.2332-5.8026 3.5733-11.257 5.4864-16.854 9.4865-27.906 13.661-58.184 8.0793-87.371-5.3124-29.645-20.38-56.903-40.349-79.197-12-13.898-26.309-25.503-40.697-36.808z"/>
	<path d="m395.63-132.82c3.4468-7.1465 7.9529-13.708 12.649-20.08 31.448 17.677 57.931 44.128 75.228 75.813-8.7118 4.3796-17.534 8.4746-26.246 12.838-9.3127-8.3482-18.499-16.87-27.4-25.661-3.763-4.0476-10.198-2.4507-12.664 2.1503-9.3127 14.957-13.329 32.507-16.791 49.583-6.4667 3.2096-13.17 5.8975-19.779 8.7751-1.6285-34.847-0.4427-71.418 15.005-103.42z"/>
	<path d="m844.82-79.16c20.981-18.072 42.721-35.401 66.279-50.042 13.091 36.065 20.285 74.801 16.744 113.21-4.1108 51.322-27.97 99.735-62.516 137.43-10.072 10.973-20.823 21.345-32.365 30.768-3.763 3.099-7.7947 5.8975-11.004 9.5814-0.2845-0.0316-0.8696-0.1106-1.1542-0.1423 16.412-23.716 30.404-49.156 42.041-75.56 19.321-44.286 30.436-93.379 23.637-141.74-61.378 27.874-117.44 66.927-166.54 112.98 36.697-49.678 78.406-95.751 124.87-136.48z"/>
	<path d="m500.55-70.907c29.472-12.38 62.311-19.574 94.201-13.882 24.206 4.2373 46.389 18.198 60.777 38.104 17.424 23.495 25.63 52.35 30.325 80.857 1.1384 5.6603 1.5969 11.431 1.502 17.202-6.1505-30.831-15.463-62.058-34.42-87.624-14.182-19.274-35.669-33.361-59.56-36.713-32.191-4.6168-64.477 5.2176-93.427 18.657-46.152 25.329-93.458 49.298-144.02 64.54-59.971 18.546-125.3 24.76-186.38 7.7473 11.479 10.214 24.475 18.578 37.836 26.135 25.345 13.977 52.761 25.503 81.663 29.14-17.566-0.1107-34.705-4.8065-51.591-9.202-50.089-14.072-98.328-42.152-127.29-86.438 38.42 23.985 83.94 34.958 128.99 35.148 43.432 0.0949 86.501-8.9806 127.28-23.558 25.835-9.7553 51.275-20.57 76.224-32.428 19.416-8.9489 38.341-18.973 57.9-27.685z"/>
	<path d="m2.6056 58.332c-0.4585-9.1861-1.4704-18.42-0.0791-27.574 9.5814 29.772 24.238 59.164 48.286 79.892 17.961 15.716 41.203 24.807 64.904 26.784 25.376 2.1661 50.927-2.4349 75.054-10.198 54.469-20.459 111.78-34.373 170.03-37.013 29.598-1.755 59.291 0.4269 88.573 4.7749-7.8738 0.4743-15.732-0.0949-23.606-0.3636-67.054-2.4823-134.72 7.9371-197.46 31.97-16.096 5.8659-31.385 13.929-48.002 18.341-31.021 8.6486-64.445 11.194-95.893 3.257-19.084-4.8381-37.171-14.467-50.69-28.918 8.6644 16.538 18.752 32.586 32.144 45.741 20.428 20.728 47.022 34.452 74.786 42.468-39.084-4.759-76.999-23.827-102.34-54.279-22.183-26.483-33.187-60.777-35.701-94.881z"/>
	<path d="m661.51 139.06c13.74-14.056 24.27-31.148 30.562-49.773 6.3402 19.511 10.704 40.349 7.3837 60.872-2.7985 16.396-12.443 30.657-23.669 42.563 13.408-20.523 18.799-46.421 13.06-70.406-11.162 20.491-27.701 37.535-45.788 52.05-27.843 22.056-59.718 38.626-92.889 51.117-15.764 6.3402-32.728 8.775-48.618 14.736-30.958 10.672-60.477 27.1-83.26 50.911-21.076 21.661-35.496 49.393-42.357 78.77-7.6525 32.824-7.0992 67.37-0.0475 100.26-38.816-42.816-52.065-105.41-38.721-161.07 0.4901 25.55 0.7906 51.385 6.2769 76.477 2.0238 10.878 7.2889 20.681 13.424 29.756-1.4546-33.108 4.5377-66.88 19.811-96.446 22.957-45.504 66.358-79.244 115.04-93.284 34.436-9.6447 68.461-21.297 100.45-37.44 25.329-12.823 49.63-28.476 69.346-49.093z"/>
	<path d="m397.2 136.96c51.654-16.728 106.72-20.728 160.67-17.06-37.203 3.5733-74.517 8.5063-110.31 19.637-54.532 16.364-105.02 44.808-148.94 80.857-32.586 24.38-67.291 47.29-106.64 59.085-33.219 10.372-68.303 13.155-102.94 12.048 32.238 20.301 71.07 29.456 109.02 27.005 14.04-0.506 27.638-4.2215 41.409-6.5615-27.78 10.404-58.01 13.566-87.418 10.024-53.71-6.0872-102.85-33.092-143.64-67.544 42.674 11.162 87.671 13.629 131.15 5.8026 53.662-9.3284 104.02-33.329 147.64-65.568 33.519-24.538 70.264-45.156 110.01-57.726z"/>
	<path d="m822.89 198.97c-0.5533-2.1503-0.9328-4.3164-1.2965-6.4825 14.23 32.697 24.697 66.88 33.851 101.3 2.8618 11.463 6.0872 22.91 7.6683 34.642 0.2214 4.348 1.2806 9.1545-0.8538 13.202-4.0159 1.6443-8.5853 1.1384-12.728 2.4033 3.0831 7.0833 10.783 10.198 16.949 14.088-5.4864-0.3321-13.06-3.099-16.839 2.4348-2.8302 5.5338-2.514 12.08-4.5377 17.898-2.3085 7.9213-7.8423 15.653-16.19 17.724-8.949 2.5772-18.056-1.0435-25.598-5.7077-2.2609-1.7234-5.0594 0.7589-6.0872 2.7669-2.7827 5.1702-4.4745 10.83-7.0517 16.096 5.4865-26.657 13.882-54.88 34.594-73.837 5.3599-5.8658 15.321-6.7671 18.056-15.004 2.8301-9.0122 1.7708-18.768 0.7747-28.001-4.4903-31.653-12.301-62.722-20.712-93.521z"/>
	<path d="m410.34 335.86c16.048-2.6088 32.539 3.5258 44.318 14.435 12.965 11.969 22.04 27.764 27.764 44.35-3.4468-3.9053-6.1821-10.83-12.301-10.404-8.1109 5.4231-16.87 11.716-27.132 11.162-7.605-0.6166-12.649-7.6208-14.23-14.546-2.3559-7.7631-0.1107-15.779-0.4269-23.653-0.7906-8.5853-10.53-10.372-15.953-15.258-1.4863-1.597-4.854-4.0951-2.0397-6.0873z"/>
	<path d="m-179.01 365.51c39.922-14.372 83.276-24.46 125.66-15.827 39.749 7.6525 73.868 31.179 105.08 55.812 15.969 12.823 32.191 25.392 47.448 39.053 22.878 19.416 49.298 35.242 78.454 43.022 32.318 8.7592 67.607 6.7513 98.502-6.356 5.2018-2.2135 10.166-4.9804 15.384-7.1307-22.467 15.842-48.555 27.337-76.145 29.819-42.057 4.3955-84.066-11.004-117.9-35.322-29.582-23.384-59.718-46.184-91.687-66.232-15.321-9.4549-30.974-18.546-47.749-25.187-8.9332-3.5258-18.309-6.2295-27.97-6.5931 29.203 17.297 52.492 43.433 69.173 72.778 3.8737 7.273 8.0161 14.546 10.277 22.515-22.546-33.519-52.287-63.18-88.936-80.936-21.93-10.83-46.105-16.854-70.469-18.293-9.6922-0.9961-19.463 0.0158-29.124-1.1226z"/>
	<path d="m548.26 410.72c12.111 31.701 20.633 64.761 26.151 98.233 4.8223 30.578 7.2256 61.789 4.0634 92.668-2.2768-38.326-8.1901-76.303-14.878-114.06-4.6325-25.709-9.5971-51.354-15.336-76.841z"/>
	<path d="m434.37 413.79c1.6759 54.105 2.4823 108.89 15.906 161.67 4.8539 17.882 10.894 36.286 23.479 50.342-17.787-7.3679-28.76-24.681-34.404-42.357-10.404-32.159-10.767-66.437-9.9767-99.909 0.5217-23.321 3.3677-46.484 4.9962-69.742z"/>
	<path d="m730.3 421.19c0.5218-1.6285 1.0594-3.2412 1.5969-4.854-1.1226 8.949-4.4429 17.424-6.4034 26.214-12.206 49.915-19.653 101.02-22.119 152.34-4.4271-58.896 4.9172-118.88 26.926-173.7z"/>
	<path d="m827.07 435.44c3.7155 36.998 5.771 74.374 1.4862 111.42-2.7037 23.906-7.6367 47.954-18.072 69.774-8.2217 14.277-18.847 27.005-27.416 41.077-14.166 22.262-23.685 47.622-26.452 73.948-0.6008 5.9607-0.9329 11.985-1.9132 17.93-4.3322-32.286 2.6405-65.315 16.681-94.47 5.4232-11.906 13.424-22.357 19.669-33.835 13.344-22.957 22.404-48.271 27.495-74.295 6.5299-33.345 8.364-67.449 7.9529-101.36 0.0157-3.3994 0.2686-6.8145 0.5691-10.182z"/>
	<path d="m283.06 554.38c39.417-15.463 75.513-39.132 106.12-68.303-24.665 41.614-62.69 75.339-107.66 93.458-38.326 15.922-80.145 21.566-121.41 21.803-32.776 0.5218-65.346-3.6207-98.028-5.3441-30.626-0.3636-61.536 4.2531-90.312 14.973-29.472 10.988-56.097 29.93-75.133 55.085-28.808 37.598-40.112 85.332-43.828 131.75-3.2729-32.049-1.9764-64.746 5.2492-96.194 6.8936-29.519 20.522-57.947 41.788-79.829 18.641-19.59 42.547-33.63 67.892-42.674 32.697-11.763 67.592-15.985 102.17-16.965 36.934-0.8538 73.837 2.4191 110.47 6.8461 34.768 4.0476 70.216-1.8973 102.68-14.609z"/>
	<path d="m821.1 1242.5c8.5379-218.89 14.325-437.9 20.412-656.86 5.9608 138.23 7.7631 276.69 3.4151 415-3.7313 99.387-9.7394 198.96-25.914 297.21-0.1581-18.467 1.502-36.903 2.087-55.354z"/>
	<path d="m418.78 608.36c3.4151 41.598 5.0911 83.529 1.3439 125.17-2.4033 29.234-8.5695 57.963-15.289 86.47-17.724 80.889-34.879 161.9-52.239 242.89-6.9568 33.393-14.594 66.675-21.028 100.18 2.4665-26.42 7.4785-52.54 11.02-78.817 10.925-71.26 22.025-142.54 36.744-213.12 4.1583-21.424 10.941-42.215 15.384-63.592 13.898-65.536 20.016-132.42 24.064-199.19z"/>
	<path d="m240.07 653.94c15.969-9.3126 30.736-20.444 45.757-31.179-20.949 18.847-43.986 35.322-68.034 49.994-24.238 14.641-49.82 27.305-76.873 35.843-20.412 6.688-42.057 8.0635-62.722 13.787-45.788 11.4-90.375 34.025-120.49 71.212-17.139 20.902-29.171 45.757-36.065 71.86-7.526 28.001-9.4391 57.236-8.3482 86.122 10.056-21.582 20.38-43.606 36.903-61.141 18.277-20.491 44.587-33.899 72.177-35.084 35.274-1.6602 71.355 3.3994 105.92-5.9448 10.815-2.9092 20.855-8.1585 29.724-14.957-6.0714 9.0596-16.491 13.676-26.373 17.344-27.4 9.3443-56.666 11.194-85.41 11.906-25.282-0.506-51.37 6.4824-71.149 22.704-22.293 17.977-35.843 44.444-44.318 71.323-15.131 48.587-16.127 100.05-15.273 150.5-7.1307-29.487-15.716-58.658-20.949-88.573-7.6999-41.725-11.526-84.572-6.5773-126.85 3.4942-29.313 11.605-58.39 26.373-84.082 14.404-25.218 35.401-46.5 60.192-61.584 20.222-12.048 42.025-21.313 64.129-29.298 34.009-12.222 70.153-15.684 105.49-22.04 33.899-8.8225 65.9-23.985 95.925-41.867z"/>
	<path d="m479.94 654.12c27.732 52.397 35.891 114.28 25.582 172.43-0.7905-7.2888-0.6008-14.609-0.8538-21.914-1.5178-51.006-11.494-101.38-24.728-150.52z"/>
	<path d="m353.83 694.88c-0.6799 12.222-4.6326 23.969-8.1742 35.606-16.712 49.536-47.891 92.763-82.818 131.09-35.875 39.148-76.651 73.536-119.45 104.86-6.7987 4.6484-12.253 10.878-17.914 16.776-22.689 24.602-41.314 53.899-48.982 86.77-6.5931 27.084-4.9488 55.781 3.0041 82.391 10.166 34.294 29.582 65.014 51.417 93.016-10.862-30.278-17.06-63.402-10.846-95.372 5.1385-26.056 21.376-51.275 46.405-61.931-17.645 14.925-31.1 35.274-35.622 58.137-6.1346 30.246 0.7115 61.473 12.016 89.664 14.024 34.484 34.278 66.216 57.583 95.15-37.013-23.969-72.303-51.133-102.15-83.75-29.946-32.76-54.437-72.62-60.682-117.22-5.2966-35.416 2.4191-71.971 18.72-103.61 16.38-31.859 40.002-59.813 67.671-82.454 9.3285-7.7789 19.732-14.072 29.645-21.013 46.136-31.954 89.648-68.066 127.18-109.9 23.052-26.009 44.049-54.121 59.876-85.158 5.2649-10.609 10.498-21.44 13.123-33.045z"/>
	<path d="m703.25 756.79c1.7866-2.8459 4.7591-5.3757 8.3798-4.269 5.0753 1.755 8.2217 6.7828 10.198 11.526 6.5457 19.827 11.542 40.207 14.262 60.919 1.9605 13.803 0.6323 28.365-5.2809 41.108-4.0634 8.696-12.127 16.032-21.946 17.076-16.412 2.0554-35.021-8.3007-38.658-25.092-2.6878-15.542 4.2689-31.337 14.483-42.784 9.4708-11.242 17.629-24.08 21.139-38.515 1.3597-6.6564 2.3241-14.467-2.5772-19.969z"/>
	<path d="m538.63 756.53c2.4665-1.5496 6.2137-1.2491 7.9371 1.2964 4.6326 4.1267-2.0712 8.8542-1.502 13.629 0 13.977 7.9686 26.294 15.321 37.63 7.3679 11.542 19.115 20.68 22.183 34.61 2.9408 12.759-3.4626 25.519-11.953 34.705-7.6208 7.3837-19.242 9.8186-29.408 7.3362-8.4589-2.2451-15.289-8.7592-18.989-16.554-5.8184-12.206-6.0397-26.088-5.3915-39.322 1.1858-21.329 5.0595-42.879 14.309-62.279 2.1188-3.8735 3.8422-8.3321 7.4945-11.052z"/>
	<path d="m744.37 879.14c0.079 10.087-2.3242 19.938-4.2373 29.788-3.4468 16.791-9.1545 33.867-20.997 46.69-14.91 16.475-36.808 24.159-58.073 28.302-26.42 4.8856-54.563 7.4628-80.256-2.1818-27.669-9.7869-49.077-32.412-62.137-58.184-5.9449-12.064-11.242-24.665-13.629-37.962 14.34 32.365 34.8 63.924 66.137 82.011-7.9213-7.526-14.451-16.301-20.554-25.313 23.195 17.265 51.132 30.041 80.556 29.329 28.254-0.0632 54.943-12.554 76.904-29.614-6.9252 10.894-17.36 18.783-26.436 27.764 20.95-7.2731 37.393-24.112 47.369-43.591 7.4628-14.752 12.918-30.658 15.352-47.038z"/>
	<path d="m333.51 913.12c4.601-9.7395 9.5498-19.384 12.823-29.677-0.5376 6.1031-2.8934 11.827-4.8381 17.598-10.657 30.278-22.546 60.429-39.78 87.64-12.775 20.396-29.804 37.978-49.346 51.955-20.444 15.242-37.867 35.464-46.595 59.67-6.5457 17.582-8.0161 36.618-6.941 55.228 0.2372 9.0754 2.2293 18.119 1.2016 27.21-6.7039-31.274-10.989-64.682-0.7115-95.688 7.194-22.388 22.926-40.982 41.314-55.148 41.25-30.104 70.2-73.726 92.873-118.79z"/>
</svg>
