<?xml version="1.0" encoding="UTF-8"?>
<svg viewBox="0 0 95 95" xmlns="http://www.w3.org/2000/svg">
 <defs>
  <linearGradient id="a" x1="45.1" x2="84.952" gradientUnits="userSpaceOnUse">
   <stop stop-color="#fff" offset="0"/>
   <stop stop-color="#a2ffff" offset="1"/>
  </linearGradient>
  <radialGradient id="c" cx="64.8" cy="43.2" r="11.3" gradientUnits="userSpaceOnUse">
   <stop stop-color="#fff" offset="0"/>
   <stop stop-opacity="0" offset="1"/>
  </radialGradient>
  <radialGradient id="b" cx="64.8" cy="43.2" r="11.3" gradientTransform="matrix(.81137 -.09169 -.01114 .86802 12.704 11.643)" gradientUnits="userSpaceOnUse">
   <stop stop-color="#fff" offset="0"/>
   <stop stop-color="#fff" stop-opacity="0" offset="1"/>
  </radialGradient>
 </defs>
 <path d="m4.1769 4.1769h86.646v86.646h-86.646z" fill="#fff"/>
 <g transform="matrix(-1 0 0 1 94.032 -1.3066)">
  <path transform="matrix(1.2212 0 0 1.2212 -25.936 -16.558)" d="m75.2 43.2c0 5.7438-4.6562 10.4-10.4 10.4s-10.4-4.6562-10.4-10.4 4.6562-10.4 10.4-10.4 10.4 4.6562 10.4 10.4z" stroke="#000" stroke-width="1.8"/>
  <path d="m54.433 59.559c-2.6514 12.903-14.854 24.579-27.255 26.078s-20.305-7.7448-17.653-20.648 14.854-24.579 27.255-26.078 20.305 7.7448 17.653 20.648z" fill="#ff0" stroke="#000" stroke-width="1.8"/>
  <path d="m46 45.8c18.6 1.6 46.132 11.217 35.8 26s-31-8.4-35.8-26z" fill="url(#a)" stroke="#000" stroke-width="1.8"/>
  <path d="m23.844 44.125c-2.1876 1.5259-4.2297 3.3109-6.0625 5.3125 1.6387 0.12654 3.55 0.29768 5.7188 0.59375 5.408 0.73828 11.766 2.2611 14.781 4.3125l0.125 0.09375c2.9597 2.0849 6.8656 7.6626 9.7188 12.688 0.64133 1.1295 1.2095 2.1918 1.75 3.2188 1.4291-2.1934 2.6088-4.5238 3.4688-6.9375-2.0446-6.0895-4.5469-12.949-9.0312-16-4.5252-3.0791-12.419-3.3262-19.062-3.2812-0.8146 0.0055-0.65187-0.0039-1.4062 0zm-10.281 10.906c-1.1219 1.8296-2.0776 3.7435-2.8125 5.7188 1.1796 0.11523 2.4434 0.25487 3.7812 0.4375 5.6618 0.77294 12.312 2.3524 15.469 4.5l0.15625 0.09375c3.0986 2.1827 7.1692 8.0205 10.156 13.281 0.17312 0.3049 0.3019 0.57493 0.46875 0.875 1.8169-1.3304 3.5306-2.8346 5.0938-4.5-2.1553-6.434-4.8089-13.766-9.5625-17-4.7376-3.2236-12.982-3.4533-19.938-3.4062-1.6259 0.01099-1.4328-0.0051-2.8125 0zm-4.2812 11.344c-0.25363 1.6902-0.32088 3.3108-0.21875 4.8438 4.3964 0.61259 9.4961 1.8388 11.938 3.5l0.09375 0.09375c2.425 1.7082 5.6311 6.2579 7.9688 10.375 0.02442 0.043 0.03824 0.08211 0.0625 0.125 1.6152-0.33228 3.2105-0.82464 4.7812-1.4688-0.16237-0.46518-0.30467-0.8847-0.46875-1.375-1.6925-5.0576-3.7568-10.859-7.5-13.406-3.7077-2.5228-10.182-2.7243-15.625-2.6875h-1.0312z"/>
  <path d="m45.302 46.719c11.846 9.1859 26.222 27.672 12.811 33.138s-17.245-19.176-12.811-33.138z" fill="url(#a)" stroke="#000" stroke-width="1.8"/>
  <path transform="matrix(.80583 0 .55717 .8634 -20.573 -3.4972)" d="m75.2 43.2c0 5.7438-4.6562 10.4-10.4 10.4s-10.4-4.6562-10.4-10.4 4.6562-10.4 10.4-10.4 10.4 4.6562 10.4 10.4z" fill="url(#c)"/>
  <path d="m64.7 31.4c9.875-0.2 11.102-1.0525 13.15 1.675s3.1495 7.287 0.6 7.3-2.405-4.5076-3.1434-6.3622-5.5066-2.3003-10.607-2.6128z" stroke="#000"/>
  <path d="m54.138 24.759c3.3e-4 -9.877 0.82783-11.121-1.9405-13.113s-7.3492-3.0016-7.3106-0.45231 4.5553 2.3134 6.4244 3.0142 2.4112 5.459 2.8267 10.552z" stroke="#000"/>
  <g transform="matrix(0 -1 -1 0 75.685 75.256)" fill="url(#a)" stroke="#000" stroke-width="1.8">
   <path d="m29.702 30.083c18.6 1.6 46.132 11.217 35.8 26s-31-8.4-35.8-26z"/>
   <path d="m29.005 31.002c11.846 9.1859 26.222 27.672 12.811 33.138s-17.245-19.176-12.811-33.138z"/>
  </g>
  <path d="m13.912 81.551-5.328 9.4599 8.1551-7.394z"/>
  <path transform="matrix(0 .96103 -1.0698 .66449 77.975 -29.706)" d="m75.2 43.2c0 5.7438-4.6562 10.4-10.4 10.4s-10.4-4.6562-10.4-10.4 4.6562-10.4 10.4-10.4 10.4 4.6562 10.4 10.4z" fill="url(#b)"/>
 </g>
</svg>
