<?xml version="1.0" encoding="UTF-8"?>
<svg viewBox="0 0 640 480" xmlns="http://www.w3.org/2000/svg">
 <g fill-rule="evenodd" stroke="#000">
  <path d="m88.146 78.52c-1.318 1.671-4.649 0.121-7.336 0-15.706-0.704-36.26 1.133-52.817 0.489-0.092989-0.396-0.491-0.487-0.48899-0.978-0.080009-0.569 0.10801-0.87 0.48899-0.978 17.221 1.006 40.873-0.034996 60.153 1.467z"/>
  <path d="m106.73 78.52c-1.876 1.219-4.36 1.199-6.847 0.489 0.99802-2.138 4.849-0.417 6.847-0.489z"/>
  <path d="m112.11 78.52c-0.43697 1.201-3.421 1.326-4.401 0.489 1.263-0.79 3.064-1.04 4.401-0.489z"/>
  <path d="m117.98 78.52h3.423c0.39201 1.859-2.312 0.622-3.423 0.979v-0.979z"/>
  <path d="m327.78 79.009c-0.15601 1.73-2.929 2.583-4.401 1.467 1.032-2.538 2.864-1.769 4.401-1.467z"/>
  <path d="m143.41 79.499c0.83701-1.119 3.733-0.18 5.379-0.48901-0.785 1.281-3.554 1.058-5.379 0.48901z"/>
  <path d="m161.99 79.499c-2.777 1.135-7.657 0.167-11.248 0.489 2.842-2.121 7.929 0.177 11.248-0.489z"/>
  <path d="m164.93 79.987c0.28601-1.892 9.296 0.323 10.27 0-1.29 0.428-5.817-0.275-10.27 0z" fill="#fff"/>
  <path d="m176.17 79.987c-0.083008-1.061 1.734-0.222 2.445-0.489 0.083008 1.061-1.734 0.222-2.445 0.489z"/>
  <path d="m181.55 79.499c-1.074 1.493-3.133-0.565 0 0z"/>
  <path d="m333.65 79.499h2.935c0.46298 1.767-1.926 0.682-2.935 0.978v-0.978z"/>
  <path d="m344.41 79.499c-1.324 1.387-2.214 0.168-3.912 0.978-0.29898-1.929 2.685-0.576 3.912-0.978z"/>
  <path d="m347.34 79.499c-1.074 1.493-3.131-0.565 0 0z"/>
  <path d="m252.46 80.965c1.642-1.13 5.371-0.171 7.825-0.489-1.641 1.13-5.371 0.172-7.825 0.489z"/>
  <path d="m260.78 80.965c0.211-1.093 2.41-0.198 3.424-0.489-0.211 1.094-2.41 0.198-3.424 0.489z"/>
  <path d="m290.12 80.477c-1.24 1.805-4.731 0.964-7.335 0.978-2.879 0.016006-5.891-0.011993-8.314 0 4.535-2.094 10.084-0.251 15.649-0.978z"/>
  <path d="m306.75 80.965c-1.855 0.858-9.536 0.753-9.781 0 2.464-0.757 7.317-0.757 9.781 0z"/>
  <path d="m308.71 80.477h3.424c-0.23801 1.555-3.552 1.943-3.424 0z"/>
  <path d="m313.11 80.477h6.847c-1.068 1.443-6.353 2.214-6.847 0z"/>
 </g>
 <g fill="#7f7f7f" fill-rule="evenodd">
  <path d="m193.78 62.382h2.935c0.38 1.087 1.027 1.907 0.978 3.423-1.408-1.038-3.602-1.29-3.913-3.423z"/>
  <path d="m24.081 66.294c1.799 1.462 0.979 5.197 0.979 8.314 0 9.472 0.61899 16.941 0.48899 25.43-4.601-1.756-7.945-4.77-10.759-8.313-1.901-12.083 2.151-20.492 8.803-25.431h0.48801z"/>
  <path d="m302.84 76.075c-2.586 3.12-8.974 2.437-14.672 2.445 3.911-1.796 9.367-2.045 14.672-2.445z"/>
  <path d="m318.98 78.031c-3.116 1.603-9.934-0.123-15.161 0.489 3.68-4.229 9.571-0.95 15.161-0.489z"/>
  <path d="m283.27 83.411c-5.759 2.555-12.066 4.561-19.072 5.869-0.048004-1.583-2.217-1.044-1.467-3.423 1.205-0.063995 2.355-0.073997 2.934 0.48899 0.84402-1.63-0.18198-2.655-2.445-2.445 3.827-1.78 12.985-0.079987 20.05-0.48999z"/>
  <path d="m261.27 84.389c-1.704 0.878-1.537 2.872-0.978 4.891-1.561 0.419-1.513-0.77-2.445-0.978-0.18301-2.63 1.166-3.725 3.423-3.913z"/>
 </g>
 <g fill="#3b4634" fill-rule="evenodd" stroke-width="0">
  <path d="m318.98 72.163c2.289-1.134 6.678-0.168 9.78-0.489 0.92502 0.099998 4.832-0.33 3.424 0.489h-4.891c-2.737 0.747-4.629-0.321-8.313 0.48899-1.21 0.062012-0.832-0.59899 0-0.48899z"/>
  <path d="m364.46 74.608c-6.729 3.148-13.088 2.321-20.539 3.423-1.867 0.4-1.894-1.041-2.445-1.956-1.928-0.135-1.496 2.091-3.424 1.956-6.601-0.275-13.902-1.245-21.029-2.445-1.122-0.189-3.677 0.917-3.912-0.978 17.449-1.1 32.387 0.014 51.349 0z"/>
  <path d="m323.38 83.411c-1.473 0.483-1.34 2.573-3.424 2.445 0.53403-1.352 1.675-3.836 3.424-2.445z"/>
  <path d="m350.76 82.521c-0.52902 1.845-2.542 1.079-3.913 1.467-3.67 1.038-7.924 2.643-12.226 2.934 0.746-6.221 11.263-3.748 16.139-4.401z"/>
  <path d="m108.69 61.893c0.56799-0.080002 0.87 0.108 0.978 0.489 2.383 2.71 7.328 6.829 5.379 10.759-2.897-2.971-4.878-6.859-6.357-11.248z"/>
  <path d="m117 73.63c1.414 0.216 2.229 1.031 2.445 2.445-0.65197 0.698-2.771 0.698-3.423 0-0.076019-1.217 0.768-1.514 0.978-2.445z"/>
  <path d="m126.29 81.455h4.401c0.34299 2.136-0.832 2.754-0.48898 4.891-2.604-0.331-3.224-2.646-3.912-4.891z"/>
  <path d="m132.16 85.367c1.115 0.678 0.18201 3.404 0.48898 4.891-2.599 0.138-0.672-3.465-0.48898-4.891z"/>
  <path d="m348.81 25.214c1.461 16.292-0.54599 30.88-1.468 45.481-13.9-0.027-29.628-3.964-39.612 3.423 0.50198-1.643-1.521-0.761-2.445-0.978-6.798 1.965-13.769 1.845-22.008 3.423-2.252 0.432-4.229 1.687-6.357 1.956-2.988 0.378-5.422 0.033997-8.313 0-35.722-0.421-65.611-0.943-103.68-1.467 0.20798-4.921-0.30902-11.225 0-14.671 7.419 1.751 16.38-2.299 23.963 0 2.196 0.666 4.103 3.979 6.357 5.379 7.256 4.504 21.2 5.721 28.854-1.956 21.721 1.617 39.428 3.423 60.642 5.379 1.527-0.224 1.563 1.045 1.467 2.445 2.562 0.442 1.841-2.398 4.401-1.957 4.24 0.319 9.54 1.655 13.204 0.979 3.358-7.308 1.384-15.5 2.935-22.496 1.094-4.933 5.158-13.237 8.803-16.628 0.452-0.42 4.721-3.517 5.38-3.912 1.987-1.194 7.741-3.596 10.27-4.401 3.384-1.078 8.51-2 10.759-1.957 2.093 0.042002 4.918 0.631 6.846 1.958z"/>
  <path d="m52.445 61.404c2.291-0.008003 0.78699 3.778 2.935 3.912 1.259-0.371 1.699-1.561 1.467-3.423h3.423c-0.01001 1.64 0 3.26 1.957 2.935 1.904 0.111 0.24701-3.34 2.445-2.935 1.97-0.34 0.828 2.433 1.957 2.935 2.66 0.704 1.384-2.529 2.934-2.935 2.138-0.345 1.042 2.544 2.445 2.935 2.59 0.47 1.644-2.595 3.423-2.935 5.922 0.023998 6.948 0.456 12.226 0 1.019 3.708 0.25098 9.204 0.48898 13.693-23.68 0.039001-37.495-0.3-60.153-0.48901-1.07-2.68-0.215-7.284-0.48899-10.759 1.691-0.917 3.44-1.776 5.869-1.956 0.879 1.238-0.92999 2.773 0.978 3.423 2.896 0.451 1.121-3.77 3.913-3.423-0.20501 1.671 0.14698 2.787 1.956 2.445 2.081 0.45 0.031979-3.229 1.956-2.935 2.331-0.538 0.67301 2.914 2.445 2.935 2.687 0.72999 0.095001-3.817 2.935-2.935 2.193-0.4-0.10501 3.691 1.956 3.423 2.438 0.157 1.276-3.287 2.933-3.911h-1.1e-5z"/>
  <path d="m105.75 61.893c2.485 4.688 5.592 8.753 7.336 14.183h-13.205c-0.91699-3.811-0.32199-9.132-0.48901-13.693 1.319-0.964 4.274-0.292 6.358-0.49z"/>
  <path d="m119.93 61.893c0.604 1.768-1.841 4.219-2.445 6.358-2.359-1.065-3.186-3.661-4.401-5.869 1.461-0.984 4.613-0.277 6.846-0.489z"/>
  <path d="m132.16 61.893c1.106 6.532 0.44397 12.521-0.97803 17.606h-6.847c0.60501-2.003 4.94-0.276 6.357-1.467-0.466-2.756-6.673-1.401-7.825-1.956-2.01-0.925-2.783-3.085-3.913-4.891 0.87402-3.365 1.966-6.511 3.913-8.803 2.213-1.049 6.291-0.231 9.293-0.489z"/>
  <path d="m143.41 61.893c5.647 0.835 13.626-0.036999 19.073 0.489v14.671c-8.39 0.132-12.071-0.479-19.073-0.489 0.10199-3.221-0.65601-10.634 0-14.671z"/>
  <path d="m27.993 80.477h0.97802c2.405-0.123 0.99399 3.57 2.445 4.401 0.81101-0.819 2.871-0.389 4.401-0.489 1.642-0.916-0.22299-2.507 0.978-3.423 1.827-0.032997 0.51202 3.075 1.956 3.423 1.334-0.713 1.662 0.383 2.935 0 2.543-0.765 1.025-3.044 3.423-3.912 0.67401 0.63 0.484 2.124 0.48901 3.423 1.684 0.19 3.334 0.746 5.38 0 1.08-0.060997 0.20801-2.075 0.48902-2.935 12.11-0.122 26.115 0.175 36.679 0 0.667 12.043 0.66001 22.577 1.467 33.744-1.919 1.504-4.751 2.095-6.847 3.423-19.49-4.636-39.204-9.048-55.262-17.116 0.30999-6.699-0.63001-14.649 0.48898-20.539z"/>
  <path d="m99.883 80.965c3.98 0.877 6.359-0.473 10.759 0.489-3.48 6.627-6.607 13.607-10.27 20.051-1.252-5.354-1.271-12.634-0.48899-20.54z"/>
  <path d="m124.82 107.86c-8.399-1.16-17.25 1.285-24.941 2.445 0.12799-6.114 4.072-10.291 6.358-14.671 2.408-4.615 4.53-9.18 6.847-14.182 0.694 0.042 1.385 0.081001 1.467-0.489 3.583 0.855 4.832 6.093 6.847 9.781 1.913 3.502 4.099 6.351 5.379 9.292-0.58603 2.674-0.72 5.8-1.957 7.824z"/>
  <path d="m119.44 81.455h4.401c2.466 4.645 7.086 8.234 3.913 14.671-3.428-4.233-5.818-9.505-8.314-14.671z"/>
  <path d="m142.92 81.943c7.866-0.10101 14.041 0.172 19.562 0.489-0.45697 11.062-0.37 21.424-0.48901 35.211-6.528-2.112-12.022-5.257-19.073-6.847-0.10199-8.895 0.15002-18.753 0-28.853z"/>
  <path d="m257.84 82.922c-1.068 1.896-3.102 2.226-2.935 4.89 0.42401 6.775 11.069 3.49 16.139 1.956 3.211-0.972 6.484-1.947 9.292-2.934 2.513-0.883 5.612-2.935 8.313-3.423 10.466-1.892 20.998 1.509 29.343 0 0.20297 2.427-2.728 5.672-4.401 7.825-37.624 7.55-75.649 15.053-112.48 22.496-6.241 1.261-13.021 1.956-19.073 3.423-5.688 1.38-11.76 4.869-17.605 1.957 0.50601-8.18 0.379-25.721 0.48901-35.701-0.871-0.358-0.071014-0.889 0-1.467 26.542 1.009 64.772 1.415 92.918 0.978z"/>
  <path d="m330.71 83.411c-0.098022 1.858-0.43301 3.479-0.978 4.891-3.796 0.117-6.54 1.285-9.781 1.956 0.33798-1.181 4.449-6.237 5.869-6.847 1.271-0.546 3.226-0.804 4.89 0z"/>
  <path d="m130.69 92.703c3.351 2.89 1.473 7.38 1.467 11.737-3.632-1.942-3.093-7.889-1.467-11.737z"/>
  <path d="m128.25 103.95c2.127-0.007011 1.377 2.861 2.935 3.423-0.26004 1.672-2.356 0.749-3.423 0.489-0.348-1.814 0.83401-2.099 0.48803-3.912z"/>
 </g>
 <g fill-rule="evenodd">
  <path d="m87.657 131.83c10.21-2.419 21.637 3.689 23.963 14.182 1.112 5.014-0.75299 8.175-1.467 13.693-4.576 6.09-9.578 10.59-17.605 10.76-13.426 0.283-23.394-14.303-18.584-26.898 0.70102-1.835 3.103-5.402 4.891-7.335 2.189-2.37 4.564-3.057 8.802-4.402zm-8.314 26.408c6.799 12.856 30.165 7.097 27.876-9.781-1.069-7.884-8.868-12.92-17.117-11.736-10.579 1.516-15.533 12.49-10.759 21.517z" fill="#fff"/>
  <path d="m90.102 136.72c8.249-1.184 16.047 3.853 17.117 11.736 2.289 16.878-21.077 22.638-27.876 9.781-4.774-9.026 0.18-20 10.759-21.517zm-10.27 16.138c1.636 12.961 21.197 13.929 24.941 1.956 3.031-21.977-27.365-21.157-24.941-1.956z"/>
  <path d="m104.77 154.81c-3.744 11.973-23.305 11.005-24.941-1.956-2.425-19.201 27.971-20.021 24.941 1.956z" fill="#7f7f7f"/>
  <path d="m183.02 18.856c-2.429 9.146-10.835 12.313-18.095 16.628 0.26502 8.71-0.47101 16.881 0 24.452 12.784-0.156 20.069-0.021999 33.744 0 1.599 1.825 1.745 5.101 2.935 7.335 6.992 2.549 16.89 1.428 20.051-3.912 22.185 0.043999 38.32 1.451 57.218 4.401 2.61 0.40699 6.139 1.943 8.314 1.467 2.574-0.564 6.404-6.307 8.803-9.292 3.045-3.79 6.312-7.28 7.824-10.27 2.311-4.567 2.621-8.701 4.401-11.737 1.853-3.159 4.78-5.333 7.825-7.825 6.858-5.612 22.765-14.677 35.7-6.847 1.604 16.376-1.07 32.332-1.467 47.438 6.301 1.36 14.844 0.48 20.051 2.935-2.972 4.69-10.755 4.569-17.605 5.379-1.035 1.663 2.667 3.444 0.978 5.869-6.922 2.354-14.733 3.811-22.496 5.379-7.712 1.559-15.7 2.324-22.985 4.401 0.64502 3.453 4.064 4.369 7.336 5.379 3.214 0.993 7.266 0.596 9.292 2.935-0.314 5.454-6.795 3.58-9.781 2.445-3.296-1.253-6.174-5.104-8.803-5.38-0.56198-1.882-2.128-2.762-2.934-4.401-45.842 9.952-84.451 18.305-131.55 26.409 1.6 3.454 6.165 3.941 5.868 9.292-19.733 1.876-34.718-0.965-53.306 0-5.03 0.26102-13.192 2.337-13.693 6.847-0.401 3.608 2.969 5.199 3.423 7.336 3.056 14.36-7.672 24.9-17.117 26.897-18.706 3.955-35.637-19.555-20.54-35.7-0.412-3.347 0.666-5.203 1.956-6.848-0.82199-1.999-3.213-2.099-3.423-4.401-0.25898-2.845 1.69-3.397 3.423-5.379-22.116-5.281-47.546-9.674-63.576-23.475-1.725 12.458 1.888 31.629 0.978 43.036-0.237 2.974 0.54401 7.909-3.423 8.314-1.164-11.004-2.009-25.043-1.467-38.635 0.20797-5.229 1.371-10.785 0.97799-15.649-0.49301-6.099-4.194-12.106 0.48899-17.117-0.387-11.394-0.84-21.525 0.48901-31.788 0.38001-2.935 0.63901-6.716 2.935-8.803 3.086 2.3 1.135 6.72 0.978 9.781-0.396 7.728-1.089 14.951-0.978 24.941 4.791-4.87 10.571-10.214 18.583-11.248 5.823-0.751 14.561-0.052998 22.496-0.489 9.657-0.53 21.441 0.228 30.81 0.489 0.61602-6.581-0.53598-19.41 0-27.386-4.722-4.922-8.951-12.07-5.869-21.029 7.723-6.632 20.19-5.485 33.744-3.423 11.448 1.741 23.356 1.551 35.701 3.423 7.817 1.186 16.211 1.985 22.985 3.423 3.382 0.72 7.078 1.609 8.804 4.403zm-11.737-1.956c-5.586-0.972-14.511-2.042-20.051-2.934-8.862-1.427-18.453-2.344-27.857-3.165-11.074-0.966-23.685-3.511-32.784-0.748-1.947 0.591-4.861 2.286-5.38 4.891 8.036-3.887 21.207-2.985 31.788-2.445 6.379 0.325 13.615 0.8 20.703 1.711 9.347 1.202 18.306 2.111 27.224 3.179 3.284 0.393 6.757 1.205 8.847 1.812 1.867 0.543 4.54 3.355 5.824 1.122-1.763-2.547-5.435-2.922-8.314-3.423zm170.68 6.358c-2.249-0.042999-7.375 0.878-10.759 1.957-2.528 0.806-8.282 3.207-10.27 4.401-0.65903 0.396-4.928 3.492-5.38 3.912-3.645 3.391-7.709 11.695-8.803 16.628-1.551 6.996 0.42401 15.188-2.935 22.496-3.664 0.67699-8.964-0.66-13.204-0.979-2.561-0.441-1.84 2.398-4.401 1.957 0.097015-1.4 0.061005-2.669-1.467-2.445-21.214-1.957-38.921-3.762-60.642-5.379-7.654 7.677-21.599 6.46-28.854 1.956-2.255-1.4-4.161-4.714-6.357-5.379-7.583-2.299-16.544 1.751-23.963 0-0.30902 3.446 0.20798 9.75 0 14.671 38.066 0.52399 67.956 1.046 103.68 1.467 2.892 0.034004 5.325 0.378 8.313 0 2.128-0.269 4.105-1.524 6.357-1.956 8.239-1.578 15.21-1.458 22.008-3.423 0.92401 0.217 2.947-0.665 2.445 0.978 9.984-7.388 25.712-3.45 39.612-3.423 0.922-14.601 2.929-29.189 1.468-45.481-1.927-1.329-4.752-1.918-6.846-1.958zm-203.93 14.182c0.03598 5.504 0.18399 10.594 0 15.649-0.075012 2.059-2.087 6.295 1.467 6.847 3.013-0.434 0.892-3.711 0.978-5.869 0.084015-2.101 0.45499-4.476 0.48898-6.847 0.10001-6.941 1.312-17.506-1.956-19.562-2.064 3.788-1.001 6.387-0.978 9.782zm-47.438-7.336c0.39798 7.305-1.235 18.529 0 26.898 0.121 0.821 0.028992 2.573 1.467 2.934 3.274-0.233 1.941-5.098 1.956-7.825 0.036995-6.855 0.073006-13.986-0.97802-17.606-0.039009-1.832 2.108-1.478 1.467-3.912-1.338-1.076-2.413-1.815-3.912-0.489zm44.993 5.869c0.71701-0.775 1.009-3.883-0.979-3.423-0.67798 1.459-0.577 2.993 0.979 3.423zm-38.635 4.891c-0.15701-1.788 1.316-1.944 2.445-2.445-0.16898-1.872 0.104-3.906-3.423-3.423-0.19299 2.233-0.53198 4.334 0.97804 5.868zm37.656 2.934c0.44302 4.696-1.144 11.57 0.979 16.139 0.12601-4.165 0.042999-7.811 0-10.27-0.083984-4.799 1.404-9.545-0.48898-13.204-1.109 2.34-0.741 4.669-0.49002 7.335zm8.803 0.489c0.12402 5.806-0.94699 11.055 0 15.649 5.039-0.584 12.216-0.595 18.583 0 1.123-6.539 0.177-15.147 0.48901-22.496-5.825 2.814-12.531 4.748-19.072 6.847zm-33.744 6.847c3.615-2.254 6.969-4.768 10.27-7.336-8.861-0.806-12.25-2.76-21.029-2.445 3.932 2.914 6.493 7.2 10.759 9.781zm22.496-7.825c0.15399-0.662 0.69598-0.934 0.48898-1.957h-1.467c-0.13699 1.115 0.11801 1.839 0.97803 1.957zm-5.38 0.489c-4.284 3.867-9.02 7.282-13.204 11.248 1.673 2.566 2.736 5.741 7.825 4.891 2.508-5.48 5.864-10.111 7.825-16.139h-2.446zm-2.444 15.649c1.37 0.405 5.876 1 8.313 0-0.745-5.547 1.243-11.242-0.978-15.649-1.969 5.693-5.135 10.188-7.335 15.649zm-13.205-5.868c4.514-2.172 9.682-6.291 11.737-9.292-3.904 3.106-8.507 5.513-11.737 9.292zm-15.16-1.467c2.42 0.040001 2.108-7.304 0-7.336-0.74698 1.662 0.25603 3.843 0 7.336zm11.248 0.978c-0.098999-1.876-2.359-4.136-3.423-3.423 1.705 0.576 1.241 3.322 3.423 3.423zm-7.336 5.868c1.074-0.883 2.416-1.497 2.935-2.935-1.627-1.308-1.106-4.762-3.423-5.379-0.052971 2.314-0.82699 7.032 0.48801 8.314zm4.891-4.401c-0.257-1.08-1.639-3.533-2.445-2.445 1.587 0.042004 0.343 2.916 2.445 2.445zm-7.825 5.38c0.69598-1.715 1.25-6.97-0.97804-7.336 0.42302 2.348-0.97795 6.52 0.97804 7.336zm11.248-3.424c1.289 0.147 1.605-0.677 1.467-1.956h-1.467v1.956zm182.9 12.716c3.13 1.108 7.318 1.159 11.248 1.467 1.175-4.204-0.14099-10.9 0.979-15.16-0.108-0.381-0.41-0.569-0.979-0.489-3.782 4.693-7.016 9.936-11.248 14.182zm-185.35-12.716c-0.39398 2.961 2.241 0.326 0 0zm4.401 1.956c0.33401 1.459 1.947 1.64 3.913 1.467-0.093987-2.025-1.46-2.778-2.935-3.423-0.00602 0.972-1.334 0.622-0.97803 1.956zm-8.314 1.468h2.934c0.21-2.367-2.85-1.415-2.934 0zm-52.328 5.379c-2.061 0.26799 0.237-3.823-1.956-3.423-2.839-0.883-0.24799 3.665-2.935 2.935-1.772-0.020996-0.11402-3.472-2.445-2.935-1.924-0.294 0.125 3.385-1.956 2.935-1.809 0.341-2.161-0.77399-1.956-2.445-2.792-0.347-1.016 3.875-3.913 3.423-1.908-0.64999-0.098999-2.185-0.97803-3.423-2.429 0.18-4.178 1.039-5.869 1.956 0.27402 3.476-0.58099 8.079 0.48902 10.759 22.658 0.189 36.473 0.527 60.153 0.489-0.23799-4.49 0.53-9.985-0.489-13.693-5.278 0.456-6.304 0.024002-12.226 0-1.78 0.34-0.83301 3.405-3.423 2.935-1.403-0.391-0.30797-3.279-2.445-2.935-1.55 0.406-0.27398 3.638-2.934 2.935-1.129-0.501 0.014-3.274-1.957-2.935-2.198-0.405-0.54098 3.045-2.445 2.935-1.957 0.326-1.966-1.294-1.957-2.935h-3.423c0.23203 1.862-0.20797 3.053-1.467 3.423-2.148-0.134-0.64401-3.92-2.935-3.912-1.656 0.623-0.49401 4.067-2.933 3.911zm88.518-3.423c-0.33899 14.716-0.55397 29.067-0.48897 48.905 0.010986 3.474 0.83696 7.299-0.97803 10.27-2.155-2.776-1.085-6.966-0.978-10.759 0.49699-17.533 0.634-30.029 0.48901-41.569-0.02803-2.257 0.43201-5.218-1.467-6.357-0.046997 12.291 0.085999 28.039 0 39.613-0.029999 4.15 1.005 8.863-1.467 11.737-1.287-0.669-0.23001-3.682-2.445-3.423-9.931-0.405-18.434 0.123-29.343 1.957-1.763 0.52-1.286 3.279-2.934 3.912-1.759-8.163-0.97901-18.201-0.97901-27.875 0-5.144 0.047012-10.03 0-14.671-0.041977-4.071 0.69701-8.435-0.97799-11.737-0.85102 20.468-0.32801 34.793-0.48902 49.394-0.019989 1.82 2.108 5.37-0.97796 6.357-1.538-3.643-0.49102-7.262-0.48902-11.737 0.004013-8.316-0.208-23.688-0.489-37.167-0.041-1.954 1.397-6.496-1.956-6.847-1.393 2.416-1.344 6.014-1.467 8.803-0.67502 15.354 0.94599 30.387 0.48899 44.014-0.062988 1.891 1.165 5.428-1.467 6.357-1.587-0.715 0.36-2.683-1.467-2.445-3.5 1.441-9.146 3.174-9.292 6.358 4.198 1.303 8.563 0.188 12.715 0 26.583-1.208 56.556-0.45699 81.67 3.912-0.93301-3.795-4.517-4.938-7.825-6.357-0.90302-1.39-1.479 3.302-2.934 1.467-0.75598-0.711-0.431-2.504-0.48901-3.912-6.608-2.031-11.965-5.315-19.073-6.847-0.474 3.39 0.67602 5.492-0.978 7.824-2.573-2.269-1.467-6.333-1.467-9.292 0-19.86 0.70798-34.831 0-49.394-0.10301-0.549-0.54202-0.761-0.97801-0.978-0.082001 0.568-0.77301 0.529-1.467 0.487zm-38.635 0.489c0.16703 4.561-0.42798 9.882 0.48902 13.693h13.205c-1.744-5.429-4.851-9.495-7.336-14.183-2.084 0.199-5.039-0.473-6.358 0.49zm15.65 10.759c1.949-3.93-2.996-8.048-5.379-10.759-0.10799-0.381-0.40999-0.569-0.97802-0.489 1.478 4.389 3.459 8.277 6.357 11.248zm-1.957-10.759c1.216 2.208 2.042 4.804 4.401 5.869 0.604-2.139 3.049-4.59 2.445-6.358-2.232 0.212-5.384-0.495-6.846 0.489zm9.781 0c-1.947 2.292-3.039 5.438-3.913 8.803 1.129 1.805 1.903 3.966 3.913 4.891 1.152 0.555 7.359-0.8 7.825 1.956-1.417 1.191-5.752-0.536-6.357 1.467h6.847c1.422-5.085 2.084-11.074 0.97801-17.606-3.003 0.258-7.081-0.56-9.293 0.489zm20.54 14.182c7.001 0.011002 10.683 0.622 19.073 0.48899v-14.671c-5.447-0.526-13.425 0.346-19.073-0.489-0.65602 4.037 0.10199 11.45 0 14.671zm54.284-10.759c0.050003-1.517-0.59801-2.336-0.978-3.423h-2.935c0.31201 2.133 2.506 2.385 3.913 3.423zm-174.1 0.489c-6.652 4.938-10.704 13.347-8.803 25.431 2.813 3.543 6.158 6.557 10.759 8.313 0.12997-8.489-0.48901-15.958-0.48901-25.43 0-3.117 0.82101-6.852-0.97901-8.314h-0.48801zm295.38 6.358c3.685-0.81 5.576 0.258 8.313-0.48901h4.891c1.408-0.819-2.499-0.389-3.424-0.489-3.103 0.321-7.491-0.645-9.78 0.489-0.832-0.11001-1.21 0.551 0 0.48901zm-202.95 3.423c0.65198 0.698 2.771 0.698 3.423 0-0.21598-1.415-1.031-2.229-2.445-2.445-0.21 0.931-1.054 1.228-0.978 2.445zm197.08-1.467c0.23498 1.896 2.79 0.789 3.912 0.978 7.127 1.2 14.429 2.17 21.029 2.445 1.928 0.135 1.496-2.091 3.424-1.956 0.552 0.915 0.578 2.356 2.445 1.956 7.451-1.102 13.811-0.275 20.539-3.423-18.961 0.014-33.899-1.1-51.349 0zm-24.941 3.912c5.698-0.007996 12.086 0.675 14.672-2.445-5.306 0.4-10.762 0.649-14.672 2.445zm15.649 0c5.228-0.612 12.045 1.114 15.161-0.489-5.59-0.461-11.481-3.74-15.161 0.489zm-275.82-1.467c-0.38099 0.108-0.569 0.409-0.48899 0.978-0.001001 0.491 0.396 0.582 0.48899 0.978 16.557 0.644 37.111-1.193 52.817-0.489 2.687 0.121 6.018 1.671 7.336 0-19.28-1.502-42.932-0.461-60.153-1.467zm71.89 1.956c2.487 0.709 4.971 0.729 6.847-0.489-1.998 0.071999-5.849-1.649-6.847 0.489zm7.825 0c0.98 0.83601 3.965 0.71201 4.401-0.489-1.337-0.551-3.138-0.301-4.401 0.489zm10.27 0.49c1.111-0.356 3.815 0.881 3.423-0.979h-3.423v0.979zm205.4 0.978c1.473 1.116 4.245 0.263 4.401-1.467-1.537-0.30299-3.369-1.072-4.401 1.467zm-174.59-1.468c-1.646 0.31-4.542-0.63-5.379 0.48901 1.824 0.57 4.593 0.793 5.379-0.48901zm1.956 0.978c3.591-0.322 8.471 0.646 11.248-0.489-3.319 0.667-8.406-1.631-11.248 0.489zm24.452 0c-0.974 0.323-9.984-1.892-10.27 0 4.453-0.275 8.98 0.428 10.27 0zm3.424-0.488c-0.711 0.267-2.528-0.57201-2.445 0.489 0.71001-0.268 2.527 0.571 2.445-0.489zm2.934 0c-3.133-0.565-1.074 1.493 0 0zm152.09 0.978c1.009-0.296 3.397 0.789 2.935-0.978h-2.935v0.978zm6.847 0c1.698-0.81 2.588 0.409 3.912-0.978-1.227 0.402-4.211-0.951-3.912 0.978zm6.846-0.978c-3.131-0.565-1.074 1.493 0 0zm-319.84 21.518c16.059 8.068 35.772 12.48 55.262 17.116 2.095-1.328 4.927-1.919 6.847-3.423-0.80697-11.167-0.8-21.701-1.467-33.744-10.564 0.175-24.569-0.12201-36.679 0-0.28101 0.86 0.59097 2.874-0.48902 2.935-2.046 0.746-3.696 0.19-5.38 0-0.005009-1.299 0.185-2.793-0.48902-3.423-2.398 0.868-0.87997 3.147-3.423 3.912-1.273 0.383-1.601-0.713-2.935 0-1.444-0.349-0.12903-3.457-1.956-3.423-1.201 0.917 0.664 2.507-0.978 3.423-1.53 0.099998-3.59-0.33-4.401 0.489-1.451-0.831-0.040989-4.524-2.445-4.401h-0.97799c-1.119 5.889-0.17899 13.839-0.48899 20.539zm232.79-20.54c-2.454 0.317-6.184-0.641-7.825 0.489 2.453-0.318 6.183 0.64 7.825-0.489zm3.912 0c-1.014 0.291-3.213-0.604-3.424 0.489 1.014-0.292 3.213 0.604 3.424-0.489zm10.269 0.978c2.424-0.011993 5.436 0.016006 8.314 0 2.604-0.014 6.095 0.827 7.335-0.978-5.564 0.727-11.113-1.116-15.649 0.978zm22.496-0.49c0.245 0.753 7.926 0.858 9.781 0-2.463-0.757-7.316-0.757-9.781 0zm15.161-0.488h-3.424c-0.12698 1.943 3.187 1.555 3.424 0zm7.825 0h-6.847c0.49399 2.214 5.779 1.443 6.847 0zm-219.58 21.028c3.663-6.444 6.79-13.424 10.27-20.051-4.4-0.962-6.779 0.388-10.759-0.489-0.78201 7.906-0.763 15.186 0.48898 20.54zm26.408-1.467c-1.281-2.941-3.466-5.79-5.379-9.292-2.015-3.688-3.264-8.926-6.847-9.781-0.082008 0.57-0.77301 0.531-1.467 0.489-2.316 5.002-4.438 9.567-6.847 14.182-2.286 4.38-6.23 8.558-6.358 14.671 7.691-1.161 16.542-3.605 24.941-2.445 1.238-2.023 1.372-5.149 1.957-7.824zm0.979-3.912c3.174-6.437-1.447-10.026-3.913-14.671h-4.401c2.496 5.166 4.886 10.438 8.314 14.671zm2.445-9.781c-0.34302-2.136 0.83197-2.755 0.48898-4.891h-4.401c0.68802 2.246 1.308 4.561 3.912 4.891zm12.715 24.452c7.05 1.589 12.544 4.735 19.073 6.847 0.12003-13.787 0.032013-24.15 0.48901-35.211-5.521-0.317-11.696-0.59-19.562-0.489 0.15001 10.099-0.102 19.957 0 28.853zm22.007-28.854c-0.070984 0.578-0.871 1.109 0 1.467-0.10998 9.98 0.016998 27.521-0.48901 35.701 5.846 2.913 11.917-0.577 17.605-1.957 6.053-1.468 12.832-2.162 19.073-3.423 36.831-7.443 74.856-14.946 112.48-22.496 1.674-2.153 4.604-5.397 4.401-7.825-8.345 1.509-18.877-1.892-29.343 0-2.701 0.488-5.801 2.54-8.313 3.423-2.808 0.987-6.081 1.962-9.292 2.934-5.069 1.534-15.715 4.819-16.139-1.956-0.16701-2.665 1.866-2.994 2.935-4.89-28.145 0.438-66.375 0.031998-92.918-0.978zm169.7 4.891c4.302-0.291 8.556-1.896 12.226-2.934 1.371-0.38798 3.384 0.37701 3.913-1.467-4.877 0.653-15.394-1.82-16.139 4.401zm-71.402-2.934c2.264-0.20999 3.289 0.81501 2.445 2.445-0.578-0.563-1.729-0.554-2.934-0.48901-0.75 2.379 1.419 1.841 1.467 3.423 7.006-1.308 13.313-3.314 19.072-5.869-7.064 0.411-16.222-1.289-20.05 0.48999zm56.73 1.956c2.084 0.12801 1.951-1.962 3.424-2.445-1.749-1.391-2.89 1.093-3.424 2.445zm5.869-2.445c-1.42 0.609-5.531 5.666-5.869 6.847 3.241-0.671 5.985-1.839 9.781-1.956 0.54501-1.411 0.88-3.032 0.978-4.891-1.665-0.80401-3.62-0.546-4.89 0zm-67.978 4.89c0.93298 0.208 0.88501 1.397 2.445 0.97801-0.56-2.019-0.72702-4.013 0.97797-4.891-2.257 0.18899-3.606 1.284-3.423 3.913zm-125.2 1.956c-0.30698-1.486 0.62601-4.212-0.48898-4.891-0.18301 1.427-2.11 5.03 0.48898 4.891zm-0.489 14.183c0.004974-4.357 1.883-8.847-1.467-11.737-1.626 3.848-2.165 9.795 1.467 11.737zm-4.401 3.423c1.067 0.26 3.163 1.184 3.423-0.489-1.557-0.562-0.80798-3.431-2.935-3.423 0.34702 1.813-0.83498 2.098-0.48798 3.912zm-42.548 19.562c1.719 2.489 5.242 1.317 7.825 1.467 19.002 1.102 41.617-1.016 62.109-0.48898-21.975-2.658-46.176-2.158-69.934-0.97802h-2.3e-5zm-6.357 8.803c-1.788 1.933-4.189 5.5-4.891 7.335-4.81 12.596 5.158 27.182 18.584 26.898 8.028-0.17 13.029-4.67 17.605-10.76 0.714-5.519 2.579-8.68 1.467-13.693-2.327-10.492-13.753-16.601-23.963-14.182-4.237 1.346-6.612 2.033-8.802 4.402z"/>
 </g>
 <g fill="#a3ae76">
  <g fill-rule="evenodd">
   <path d="m95.971 44.776c2.108 0.032001 2.42 7.375 0 7.336 0.25603-3.493-0.74696-5.674 0-7.336z"/>
   <path d="m95.971 52.601c2.228 0.366 1.674 5.621 0.97804 7.336-1.956-0.816-0.55502-4.988-0.97804-7.336z"/>
  </g>
  <g fill-rule="evenodd">
   <path d="m179.6 20.324c-1.284 2.233-3.957-0.579-5.824-1.122-2.09-0.607-5.562-1.419-8.847-1.812-8.917-1.068-17.877-1.977-27.224-3.179-7.088-0.912-14.324-1.386-20.703-1.711-10.581-0.54-23.752-1.442-31.788 2.445 0.51899-2.604 3.433-4.299 5.38-4.891 9.099-2.763 21.71-0.218 32.784 0.748 9.404 0.82 18.995 1.737 27.857 3.165 5.54 0.892 14.464 1.962 20.051 2.934 2.88 0.5 6.552 0.875 8.314 3.423z"/>
   <path d="m139.01 27.66c3.269 2.056 2.056 12.62 1.956 19.562-0.033997 2.371-0.40497 4.746-0.48898 6.847-0.085999 2.158 2.035 5.435-0.978 5.869-3.554-0.552-1.542-4.788-1.467-6.847 0.18399-5.056 0.03598-10.145 0-15.649-0.02298-3.397-1.086-5.996 0.978-9.782z"/>
   <path d="m94.503 30.594c0.64099 2.434-1.506 2.081-1.467 3.912 1.051 3.62 1.015 10.75 0.97802 17.606-0.015007 2.727 1.318 7.591-1.956 7.825-1.438-0.361-1.346-2.113-1.467-2.934-1.235-8.369 0.39798-19.593 0-26.898 1.499-1.327 2.574-0.588 3.912 0.489z"/>
   <path d="m134.6 32.55c1.988-0.459 1.695 2.648 0.979 3.423-1.556-0.43-1.657-1.964-0.979-3.423z"/>
   <path d="m95.971 34.995c3.527-0.483 3.254 1.552 3.423 3.423-1.129 0.501-2.603 0.658-2.445 2.445-1.51-1.533-1.171-3.634-0.97804-5.868z"/>
   <path d="m135.09 36.462c1.894 3.659 0.405 8.405 0.48898 13.204 0.042999 2.459 0.12601 6.105 0 10.27-2.123-4.568-0.53598-11.443-0.979-16.139-0.25-2.665-0.61798-4.994 0.49002-7.335z"/>
   <path d="m131.18 41.353h1.467c0.207 1.022-0.33499 1.295-0.48898 1.957-0.86002-0.119-1.115-0.843-0.97803-1.957z"/>
   <path d="m139.5 61.404c0.43597 0.217 0.875 0.429 0.978 0.978 0.70798 14.562 0 29.534 0 49.394 0 2.958-1.105 7.023 1.467 9.292 1.654-2.333 0.504-4.434 0.978-7.824 7.108 1.532 12.464 4.815 19.073 6.847 0.059021 1.408-0.26697 3.201 0.48901 3.912 1.456 1.835 2.031-2.856 2.934-1.467 3.308 1.42 6.892 2.562 7.825 6.357-25.114-4.369-55.088-5.12-81.67-3.912-4.152 0.188-8.517 1.303-12.715 0 0.146-3.184 5.792-4.917 9.292-6.358 1.827-0.23801-0.121 1.73 1.467 2.445 2.632-0.93 1.404-4.466 1.467-6.357 0.457-13.627-1.164-28.66-0.48898-44.014 0.12299-2.789 0.073975-6.387 1.467-8.803 3.353 0.351 1.916 4.893 1.956 6.847 0.28101 13.479 0.49301 28.851 0.48902 37.167-0.002022 4.475-1.048 8.095 0.48901 11.737 3.086-0.988 0.95798-4.538 0.97797-6.357 0.16101-14.601-0.362-28.926 0.48901-49.394 1.675 3.303 0.93701 7.666 0.978 11.737 0.046989 4.641 0 9.527 0 14.671 0 9.675-0.78098 19.712 0.979 27.875 1.648-0.633 1.171-3.393 2.934-3.912 10.909-1.833 19.412-2.361 29.343-1.957 2.215-0.259 1.158 2.754 2.445 3.423 2.472-2.874 1.437-7.587 1.467-11.737 0.085999-11.574-0.046997-27.322 0-39.613 1.899 1.14 1.439 4.101 1.467 6.357 0.14499 11.54 0.007996 24.036-0.48901 41.569-0.107 3.793-1.177 7.982 0.978 10.759 1.815-2.97 0.98901-6.796 0.97803-10.27-0.065002-19.837 0.14999-34.189 0.48898-48.905 0.694 0.043999 1.385 0.083 1.467-0.487z"/>
   <path d="m155.14 128.4c-20.492-0.52601-43.106 1.591-62.109 0.48898-2.583-0.149-6.106 1.022-7.825-1.467 23.758-1.18 47.959-1.68 69.934 0.97801z"/>
  </g>
  <path d="m328.59 73.304c-5.2154 0.36786-10.769-0.61301-15.751 1.0873-1.755 2.7634 2.8634 2.0405 4.4951 2.3567 7.0782 0.59881 14.152 2.3984 21.243 2.129 1.037 0.10278 1.8584-1.7398 2.5047-1.4089 2.1334 2.8889 6.2772 0.82433 9.1947 1.0048 4.6244-0.7217 9.7143-0.53526 13.896-2.7424-0.002869-3.0947-4.5841-1.6387-6.7784-2.2073-9.5967-0.31255-19.203-0.26698-28.804-0.21916z" stroke="#000" stroke-linecap="round" stroke-linejoin="round" stroke-width=".852"/>
 </g>
</svg>
