<?xml version="1.0" encoding="UTF-8"?>
<svg viewBox="0 0 1221 819" xmlns="http://www.w3.org/2000/svg">
 <g fill-rule="evenodd" stroke-width=".5">
  <path d="m0 409.5v-409.5h1221v819h-1221v-409.5zm521.2-240.7l0.3 0.2 0.5 1 0.5 1 0.3 0.2 0.2 0.3 0.2 0.3 0.3 0.2 0.3 0.2 0.2 0.3 0.2 0.3 0.3 0.2 0.3 1 0.2 1 50.5 69.2q50.5 69.3 50.7 69.6l0.3 0.2v4l-4.5 1.5q-4.5 1.5-3.8 5.3 0.8 3.7 5.8 10.7t15.5 14 21.3 11.7q10.7 4.8 33.2 28.3t22.8 23.7l0.2 0.3 0.2 0.3 0.3 0.2 0.3 0.2 0.2 0.3 0.2 0.3 0.3 0.2 0.3 0.2 0.2 0.3 0.2 0.3 0.3 0.2 0.3 0.2 0.2 0.3 0.2 0.3 0.3 0.2 0.3 0.2 0.2 0.3 0.2 0.3 0.3 0.2 0.3 0.2 0.2 0.3 0.2 0.3 0.3 0.2 0.5-3 0.5-3v-14q0-14-2-18l-2-4v-3l0.3-0.2 0.2-0.3h5l16 4.5q16 4.5 17.5 5l1.5 0.5 1.5 0.5 1.5 0.5 1.5 0.3 1.5 0.2-0.2-2.5-0.3-2.5-1-4.5q-1-4.5-0.5-14t4-14.5 7.2-7.2q3.8-2.3 9.3-1.8t13.7 4.2q8.3 3.8 8.6 4.3l0.2 0.5 18.5 11.8q18.5 11.7 32.5 22.2t41-6.5 36.5-20.5 24.5-3.5 25 2.5 14.2 6.8q4.3 4.2 5.3 7.2t0.5 18.5-5.5 33.5-11.3 29.8q-6.2 11.7-16.7 23.2t-11.5 12l-1 0.5-0.2 0.3-0.3 0.2-0.3 0.2-0.2 0.3-0.2 0.3-0.3 0.2-0.3 0.2-0.2 0.3-0.2 0.3-0.3 0.2-0.3 0.2-0.2 0.3 0.2 0.3 0.3 0.2 0.3 0.2 0.2 0.3 1 0.5 1 0.5 0.2 0.3 0.3 0.2 9.5 6.5q9.5 6.5 16 17.5t13.5 26 6.5 23.5-3.2 10.7q-2.8 2.3-10.3 1.8t-20.5-6-25.5-13-12.5-7.8v-0.2l-1-0.2-1-0.3-0.2-0.3-0.3-0.2-0.3-0.2-0.2-0.3-1-0.5-1-0.5-0.2-0.3-0.3-0.2-0.3-0.2q-0.2-0.3-4.2-2.8l-4-2.5-0.2-0.3-0.3-0.2-0.5 2.5q-0.5 2.5-1.2 4.5-0.8 2-1.8 2.2-1 0.3-6 0.8l-5 0.5-1-0.5-1-0.5-1-0.3-1-0.2-0.2-1q-0.3-1-0.3-9t-4.3-12.2q-4.2-4.3-11.4-10-7.3-5.8-33.6-2.6l-26.2 3.3-2 0.5-2 0.5 0.2 0.3 0.3 0.2 0.3 0.2 0.2 0.3 0.2 0.3 0.3 0.2 0.3 0.2 0.2 0.3 0.2 0.3 0.3 0.2 0.5 1 0.5 1 0.3 0.2 0.2 0.3 0.2 0.3 0.3 0.2 10.5 10.5q10.5 10.5 10.8 11l0.2 0.5h0.2q0.3 0 0.6 0.5l0.2 0.5 0.8 0.5q0.7 0.5 1 1l0.2 0.5h0.2q0.3 0 0.6 0.5l0.2 0.5h0.2q0.3 0 0.6 0.5l0.2 0.5h0.2q0.3 0 0.6 1 0.2 1 1.2 1.2 1 0.3 24.8 25.6 23.7 25.2 29.2 34.7t6 18-0.5 10.5-5.7 4.2q-4.8 2.3-18.8 2.8t-27-3.5-31-13-28.5-16-20-16l-9.5-9-0.2-0.3-0.3-0.2-0.3-0.2-0.2-0.3-0.2-0.3-0.3-0.2-0.3-0.2-0.2-0.3h-2l-0.2 0.3-0.3 0.2-0.3 0.2-0.2 0.3-0.2 0.3-0.3 0.2-0.5 1-0.5 1-1.5 3q-1.5 3-2 4l-0.5 1-0.3 1.5-0.2 1.5-0.2 0.5-0.3 0.5h-0.5v2l-6.2 17.5q-6.3 17.5-6.6 17.5h-0.2l-0.2 2-0.3 2v2l0.3 0.2 0.2 0.3 0.2 0.3 0.3 0.2 0.3 0.2q0.2 0.3 45.7 50.8t50.3 58.2q4.7 7.8 5.7 13.8t0 8-6.7 4.8q-5.8 2.7-17.8 3.2t-29-4.5-31-11.5-31-18-24.2-18.8q-7.3-7.2-23.6-25.2-16.2-18-17.2-18.2-1-0.3-61.2-65.6-60.3-65.2-71-76-10.8-10.7-19.3-16.2t-16.5-7-8.8 0.8l-0.7 2.2-0.5 1.5-0.5 1.5-0.5 1.5-0.5 1.5-0.5-1-0.5-1h-0.5l-0.8 4q-0.7 4-1 5.5l-0.2 1.5-1.8 10.5q-1.7 10.5-7.2 31t-5.8 23l-0.2 2.5 15 3.8q15 3.7 28.2 10.4 13.3 6.8 19 10.6 5.8 3.7 6 4l0.3 0.2 0.3 0.2 0.2 0.3 0.2 0.3 0.3 0.2 0.5 1 0.5 1v4l-0.3 0.2-0.2 0.3-0.2 0.3-0.3 0.2-0.3 0.2-0.2 0.3-0.2 0.3-0.3 0.2-0.3 0.2-0.2 0.3-1.5 0.5q-1.5 0.5-7 3t-23 8-29.5 7.5-16.5 3.5-11.5 2-12-3-10-6-14.5-8.5-13-10-4.3-7.3q-0.7-3.2 1.3-6.2t8.3-7.2q6.2-4.3 25.7-8.8t21.7-6.8q2.3-2.2 5.8-21.2t4.5-30l1-11-0.5-2.5q-0.5-2.5-0.8-4.5l-0.2-2-0.2-0.5q-0.3-0.5-3-11.3l-2.8-10.7h-4q-4 0-5.5 1t-6 1.5-17.5-6-20.5-12.5-11-4.7l-3.5 1.2v0.5l-0.5 0.3-0.5 0.2h-1v0.2q0 0.3-0.5 0.6l-0.5 0.2h-0.2q-0.3 0-25 9.2-24.8 9.3-36.8 9.3t-17.5-3.5-12.5-7-18.2-10.8q-11.3-7.2-14.3-13.2t-2.5-8.5 6.2-7.3q5.8-4.7 21.8-9.7t29-6 24 1l11 2 2 0.5 2 0.5v0.5l2-0.2 2-0.3-0.2-0.3-0.3-0.2-0.3-0.2-0.2-0.3-0.2-0.3-0.3-0.2-0.3-0.2-0.2-0.3-0.2-0.3-0.3-0.2-0.3-0.2-0.2-0.3-0.2-0.3-0.3-0.2-0.3-0.2-0.2-0.3-0.2-0.3-0.3-0.2-0.3-0.2-0.2-0.3-0.2-0.3-0.3-0.2-0.3-0.2q-0.2-0.3-5.7-6.3t-3.5-6.5l2-0.5h-3q-3 0-7-0.5l-4-0.5-0.2-0.3-0.3-0.2-0.3-0.2-0.2-0.3-0.2-0.3-0.3-0.2-0.3-0.2-0.2-0.3-0.2-0.3-0.3-0.2-0.3-0.2-0.2-0.3-0.2-0.3-0.3-0.2v-2q0-2 0.5-2.5l0.5-0.5 0.3-0.2 0.2-0.3 0.5-0.5q0.5-0.5 2.5-1l2-0.5-0.2-0.3-0.3-0.2-0.3-0.2-0.2-0.3-1-0.5-1-0.5-1-0.5q-1-0.5-9.5-6.5t-14.7-13.3q-6.3-7.2-6.8-12.7t1.2-7.7q1.8-2.3 9.8-6l8-3.8h1l0.2-0.5 0.3-0.5h0.5l1-0.2 1-0.3 1-0.5 1-0.5 1.5-0.5q1.5-0.5 2.5-0.8 1-0.2 3.2-8.2 2.3-8 8.6-15.8 6.2-7.7 12.2-11.2l6-3.5-0.2-0.3-0.3-0.2-0.5-1q-0.5-1-34.2-47.2-33.8-46.3-38.6-56.6-4.7-10.2-4.7-19.2t3.3-12.2q3.2-3.3 10.7-5.8t19-1 25 7 26.7 13.2l13.3 7.8 0.3 0.2 0.2 0.3 1 0.5 1 0.5 1 0.3 1 0.2 0.2-1.5 0.3-1.5 0.5-2q0.5-2 0.8-3l0.2-1 0.2-1q0.3-1 4.6-18.5l4.2-17.5 0.2-2.5 0.3-2.5v-3.5q0-3.5-34-50t-36.5-52.5-2-14.5 3.8-11.7q3.2-3.3 6.2-4.3t14.5-0.5 25.5 4.5 32.2 13.7q18.3 9.8 32.6 20.6 14.2 10.7 24.4 22 10.3 11.2 35 45 24.8 33.7 25 34z" fill="#fff" stroke="#fff"/>
  <path d="m331.2 37.5l2.8-1.5v0.2q0 0.3 1 0.8l1 0.5 0.2 0.3 0.3 0.2 0.3 0.2 0.2 0.3 0.2 0.3 0.3 0.2 0.3 0.2 0.2 0.3 1 0.5 1 0.5 10.2 10.3q10.3 10.2 23.8 29.2t17.8 24.5q4.2 5.5 5.2 5.5t12.5 17.2q11.5 17.3 43.3 62 31.7 44.8 47.7 67.3t17 23.5 1.5 2l0.5 1 0.3 0.2 0.2 0.3 0.2 0.3 0.3 0.2 0.3 0.2 0.2 0.3 0.2 0.3 0.3 0.2 0.3 0.2 0.2 0.3 0.2 0.3 0.3 0.2 0.3 0.2 0.2 0.3 0.2 0.3 0.3 0.2 0.3 0.2 0.2 0.3 0.2 0.3 0.3 0.2 0.3 0.2 0.2 0.3 1 0.3 1 0.2-0.2-1.5-0.3-1.5-0.5-1.5-0.5-1.5-0.5-1-0.5-1-0.5-1q-0.5-1-1.2-2.2-0.8-1.3-17-30-16.3-28.8-49.3-87.3t-43.5-75-18.5-26.5l-8-10-0.3-0.2-0.2-0.3-0.2-0.3-0.3-0.2-0.3-0.2-0.2-0.3-0.2-0.3-0.3-0.2-0.3-0.2-0.2-0.3-0.2-0.3-0.3-0.2-0.3-0.2-0.2-0.3-0.2-0.3-0.3-0.2-0.3-0.2-0.2-0.3-0.2-0.3-0.3-0.2-0.3-1-0.2-1h0.5l0.3 0.2 0.2 0.3 1 0.5 1 0.5 1 0.5 1 0.5 1 0.5 1 0.5 13.8 7.3q13.7 7.2 28.7 18.2t16.5 12.5 1.8 2l0.2 0.5 31.8 73q31.7 73 38.7 93t9.5 26.5 3 7.5l0.5 1 0.5 1 0.5 1 0.3 0.2 0.2 0.3 0.2 0.3 0.3 0.2 0.3 0.2 0.2 0.3 0.2 0.3 0.3 0.2 0.3 0.2 0.2 0.3 0.2 0.3 0.3 0.2 0.3 0.2 0.2 0.3h2l0.2-0.3 0.3-0.2 0.5-1 0.5-1 0.5-2 0.5-2v-7.5q0-7.5-3-42l-3-34.5-0.3-0.2-0.2-0.3 0.2-0.3 0.3-0.2 0.3-0.5 0.2-0.5h0.5l0.5 1 0.5 1 0.3 0.2 0.2 0.3 0.2 0.3 0.3 0.2 0.5 1 0.5 1 0.3 0.2 0.2 0.3 0.2 0.3 0.3 0.2 19 26.5q19 26.5 19.3 27l0.2 0.5-0.5 0.2q-0.5 0.3-14.7 16.6l-14.3 16.2-0.5 1-0.5 1-0.3 0.2-0.2 0.3 0.2 0.3 0.3 0.2 0.3 0.2 0.2 0.3 0.2 0.3 0.3 0.2 0.3 0.2 0.2 0.3 27 13.5q27 13.5 28 14l1 0.5h3l0.5-0.3 0.5-0.2v0.5l0.2 0.3 0.3 0.2 0.5 1 0.5 1 0.3 1 0.2 1-2 0.2-2 0.3-2 0.5q-2 0.5-12.8 3.8l-10.7 3.2v1.5q0 1.5-0.3 1.5h-0.2l-0.5-0.2q-0.5-0.3-1-0.6l-0.5-0.2-1.5 0.2q-1.5 0.3-1.5 0.6v0.2l-0.5 0.2q-0.5 0.3 0 0.6l0.5 0.2v0.2q0 0.3 0.5 0.6l0.5 0.2 0.2 1q0.3 1 0 1h-0.2l-1-0.2q-1-0.3-2-0.8l-1-0.5-1-0.3-1-0.2 0.2 1 0.3 1 0.3 0.2 0.2 0.3 0.2 0.3 0.3 0.2 0.3 0.2 0.2 0.3 0.2 0.3 0.3 0.2 0.3 0.2 0.2 0.3 19 20q19 20 20 20.3 1 0.2 11.5 11.4 10.5 11.3 96.7 100 86.3 88.8 97.8 104.3t12.2 16.7q0.8 1.3 1 1.6l0.3 0.2 0.5 1 0.5 1 0.3 0.2 0.2 0.3 0.2 0.3 0.3 0.2 0.5 1 0.5 1 0.3 0.2 0.2 0.3 0.2 0.3 0.3 0.2 0.3 1 0.2 1-1-0.2-1-0.3-1-0.5-1-0.5-1-0.5-1-0.5-1-0.5-1-0.5-1-0.5q-1-0.5-3-1.5t-18-11.5-84.2-80.2q-68.3-69.8-72-73.3-3.8-3.5-4-4.5-0.3-1-52.8-54.5t-59.2-55q-6.8-1.5-8.3-4.3-1.5-2.7-3.7-12-2.3-9.2-12.6-22.7l-10.2-13.5-0.2-1q-0.3-1-82-111.2-81.8-110.3-86-117.6-4.3-7.2-4.3-15.7t2.7-10z" fill="#da0f0f" stroke="#da0f0f"/>
  <g fill="#d90e10" stroke="#d90e10">
   <path d="m664 493.8l1 0.2v0.5l7.5 1q7.5 1 19.5 13.5t12.2 12.8l0.3 0.2 0.3 0.2 0.2 0.3 0.2 0.3 0.3 0.2 0.3 0.2 0.2 0.3 0.2 0.3 0.3 0.2 0.3 1 0.2 1-4.5 1.8q-4.5 1.7-15.5 10.7t-19.2 17.3q-8.3 8.2-7.6 10.4 0.8 2.3 36 38 35.3 35.8 35.3 37.3v3q0 1.5 0.3 2l0.2 0.5-0.2 0.5-0.3 0.5h-0.5l-3.8 7q-3.7 7-9.4 12.8-5.8 5.7-9.8 8.2t-5 3l-1 0.5-1 0.5-1 0.5-1 0.5-1 0.5-1 0.5-1 0.5-0.2 0.3-0.3 0.2-0.3 0.2-0.2 0.3 3 0.5 3 0.5 26.5 4q26.5 4 29.5 4.5l3 0.5h5l-0.2-0.3-0.3-0.2-0.3-0.2-0.2-0.3-0.2-0.3-0.3-0.2-0.3-0.2-0.2-0.3-0.2-0.3-0.3-0.2-0.5-1-0.5-1-0.3-0.2-0.2-0.3-0.2-0.3-0.3-0.2-0.3-0.2-0.2-0.3-0.2-0.3q-0.3-0.2-7.8-11.2l-7.5-11-0.5-1-0.5-1-0.3-1.5-0.2-1.5h0.5l0.5-2.5 0.5-2.5 0.3 0.2 0.2 0.3 0.2 0.3 0.3 0.2 0.3 0.2 0.2 0.3 0.2 0.3 0.3 0.2 0.3 0.2 0.2 0.3 0.2 0.3 0.3 0.2 0.3 0.2 0.2 0.3 0.2 0.3 0.3 0.2 0.3 0.2 0.2 0.3 0.2 0.3 0.3 0.2 45 50.5q45 50.5 47.5 56.5t2.5 7.5v1.5l-0.3 1-0.2 1-1 0.2q-1 0.3-4.5 1.8t-13.5 2-26-4-33-12.5-33.5-20-84.3-84.7q-67.7-72.8-71.4-76.3-3.8-3.5-18.6-20-14.7-16.5-23-23.7-8.2-7.3-9.2-8.3t-7-4.5-16-6.5-11-1.7l-1 1.2-0.2-0.5q-0.3-0.5-7.6-4.3-7.2-3.7-15.7-7-8.5-3.2-9-2-0.5 1.3-1.3 0.6-0.7-0.8-1 1.2-0.2 2-4.7 2.2-4.5 0.3-8 1.8t-6.5 0.5-16.5-8.5l-13.5-7.5-0.2-0.3-0.3-0.2-0.3-0.2-0.2-0.3-0.2-0.3-0.3-0.2-0.3-0.2-0.2-0.3-0.2-0.3-0.3-0.2-0.3-0.2-0.2-0.3-0.2-0.3-0.3-0.2-0.3-0.2-0.2-0.3-0.2-0.3-0.3-0.2-0.3-0.2-0.2-0.3 3.5-0.5 3.5-0.5v-0.5l21-4.8q21-4.7 45.5-4.7t83.5 5 81.5 6 23.5 1.3zm-204.5 10.4q2.5 0.3 1 0.8t-2.5 0.8q-1 0.2-1-0.8t2.5-0.8z"/>
   <path d="m966.5 356l7.5 0.5 1 0.5 1 0.5-0.2 0.3-0.3 0.2-0.3 0.2-0.2 0.3 0.2 0.3q0.3 0.2 0.6 0.7l0.2 0.5-0.2 0.5-0.3 0.5h-1.5q-1 0-1.2 1l-0.3 1-0.3 0.2-0.2 0.3 0.2 0.3q0.3 0.2 0.6 0.7l0.2 0.5-0.2 0.5-0.3 0.5h-0.5l-0.5 0.2q-0.5 0.3 0 0.6l0.5 0.2-0.2 0.5q-0.3 0.5-29.3 50l-29 49.5-0.3 1q-0.2 1 0.8 1.2l1 0.3v1.5l-1-0.2-1-0.3-0.2-0.3-0.3-0.2-0.3-0.2-0.2-0.3-1.5-0.5q-1.5-0.5-4.5-2l-3-1.5-0.2-0.3-0.3-0.2-0.3-0.2-0.2-0.3-1-0.5-1-0.5-1-0.3-1-0.2 0.2 1 0.3 1 0.3 0.2 0.2 0.3 0.2 0.3 0.3 0.2 0.3 0.2 0.2 0.3 0.2 0.3 0.3 0.2 0.3 0.2 0.2 0.3 0.2 0.3 0.3 0.2 0.5 1 0.5 1 0.3 0.2 0.2 0.3 39.2 45.3q39.3 45.2 39.8 46.2l0.5 1 0.3 0.2 0.2 0.3 1 0.3 1 0.2v2l-0.5 0.2-0.5 0.3 0.2 0.3 0.3 0.2 0.3 0.2 0.2 0.3 0.2 0.3 0.3 0.2 0.3 0.2 0.2 0.3h-4l-2-0.5-2-0.5-1.5-0.5q-1.5-0.5-21.3-11.8l-19.7-11.2-0.3-0.2-0.2-0.3-1-0.5-1-0.5-0.2-0.3-0.3-0.2-0.3-0.2-0.2-0.3-1-0.3-1-0.2-0.2-0.5q-0.3-0.5-0.6-0.5h-0.2l-0.5-0.2q-0.5-0.3-12.5-8.3t-41-30.3q-29-22.2-36-30.4l-7-8.3-0.2-0.3-0.3-0.2-0.3-0.2-0.2-0.3-0.2-0.3-0.3-0.2-0.5-1-0.5-1-0.3-0.2-0.2-0.3 4.5-0.5 4.5-0.5h-14l-0.2 0.3-0.3 0.2v3l0.5 1 0.5 1 0.3 0.2 0.2 0.3 0.2 0.3 0.3 0.2 0.3 0.2 0.2 0.3 0.2 0.3 0.3 0.2 4 5q4 5 4.3 5.2l0.2 0.3 0.2 0.3 0.3 0.2 0.3 0.2 0.2 0.3 0.2 0.3 0.3 0.2 0.3 0.2 0.2 0.3 0.2 0.3 0.3 0.2 0.3 0.2 0.2 0.3 0.2 0.3 0.3 0.2v1l-0.3 0.2-0.2 0.3-2 0.5-2 0.5-1.5 0.5-1.5 0.5h-10q-10 0-23.5-1t-41.3-28.3q-27.7-27.2-26.4-37.7l1.2-10.5 1-0.2 1-0.3 0.2-0.3 0.3-0.2 0.3-0.2 0.2-0.3 6.5-2.5q6.5-2.5 9.5-3t15-1l12-0.5v-0.5l22 8.2q22 8.3 35 7.3t21-4 9-3.5l1-0.5v-0.5l1-0.2 1-0.3 0.2-0.3 0.3-0.2 0.3-0.2 0.2-0.3 31.5-20q31.5-20 39-22.5t14-3 14 0z"/>
  </g>
  <path d="m403 337.8v-0.3l10 1q10 1 42.5 8.5t46.5 9.5 17.5 2.3l3.5 0.2 1.5 0.2 1.5 0.3 12.8 2.3q12.7 2.2 58.7 49.7t46.3 47.7l0.2 0.3 0.2 0.3 0.3 0.2 0.3 0.2 0.2 0.3 0.2 0.3 0.3 0.2 0.3 0.2 0.2 0.3 0.2 0.3 0.3 0.2 0.3 0.2 0.2 0.3 0.2 0.3 0.3 0.2 0.3 0.2 0.2 0.3 0.2 0.3 0.3 0.2v2l-0.3 0.2-0.2 0.3v0.5l-2-0.2-2-0.3-5.5-0.5q-5.5-0.5-57.5-5t-75-4.5-25.5-1-4.3-3.7q-1.7-2.8-4.2-15.3t-8-23.5-17-27-26.8-31l-15.2-15-0.2-0.5q-0.3-0.5-0.6-0.5h-0.2l-0.2-0.5q-0.3-0.5-0.6-0.5h-0.2v-0.2z" fill="#da0f10" stroke="#da0f10"/>
  <path d="m377.8 236l0.2 1-0.2 0.5q-0.3 0.5-0.6 0.5h-0.2v1l-0.2 0.5q-0.3 0.5-0.6 0.5h-0.2l-0.2 0.5q-0.3 0.5-0.8 1.5t-6.2 7.8q-5.8 6.7-10.8 10.2l-5 3.5-1 0.5-1 0.5-0.2 0.3-0.3 0.2-0.3 0.2-0.2 0.3-1 0.5-1 0.5 0.2 0.3 0.3 0.2 0.3 0.2 0.2 0.3 17.5 2.5q17.5 2.5 19.5 3l2 0.5h5l-0.2-0.3-0.3-0.2-0.3-0.2-0.2-0.3-0.2-0.3-0.3-0.2-0.3-0.2-0.2-0.3-0.2-0.3-0.3-0.2-0.5-1q-0.5-1-1-8.5t1.5-17.5l2-10h0.5l0.2 1 0.3 1 0.3-1.5 0.2-1.5 1 0.2 1 0.3 0.2 0.3 0.3 0.2 0.3 0.2 0.2 0.3 9.8 9.7q9.7 9.8 35.2 43.8t31.5 42.5 6.5 9.5l0.5 1 0.3 0.2 0.2 0.3 0.2 0.3 0.3 0.2 0.5 1 0.5 1 0.3 0.2 0.2 0.3 0.2 0.3 0.3 0.2 0.3 1 0.2 1-3-0.2-3-0.3-3.5-0.5q-3.5-0.5-31-7t-52.5-8-59.8-49.2q-34.7-47.8-39.2-56.8t-5.5-16 0-9 4.3-4.2q3.2-2.3 12.7-2.8t15 0.5 21 7.5 27.7 14.2q12.3 7.8 12.8 10.3t-1 6-1.2 4.5z" fill="#da0e10" stroke="#da0e10"/>
  <path d="m408 179.5l0.5-1.5 0.3 0.2 0.2 0.3 0.2 0.3 0.3 0.2 0.3 0.2 0.2 0.3 0.2 0.3 0.3 0.2 0.3 0.2 0.2 0.3 0.2 0.3 0.3 0.2 41.5 56q41.5 56 41.8 56.5l0.2 0.5v0.2q0 0.3 0.5 0.6l0.5 0.2v0.2q0 0.3 0.5 0.6l0.5 0.2v0.2q0 0.3 0.5 0.6l0.5 0.2 0.2 1 0.3 1 0.5 1 0.5 1 0.3 0.2 0.2 0.3 7.8 10.3q7.7 10.2 10 19.4 2.2 9.3 5.2 14 3 4.8 6 5 3 0.3 6.5 0.6l3.5 0.2 0.2 1 0.3 1 0.3 0.2 0.2 0.3 0.2 0.3 0.3 0.2 0.3 0.2 0.2 0.3 0.2 0.3 0.3 0.2 0.3 0.2 0.2 0.3h-2l-3.5-0.3-3.5-0.2v-0.5l-4-0.5-4-0.5-3.5-0.5q-3.5-0.5-15.5-2.5t-23.8-18.3q-11.7-16.2-40.4-54-28.8-37.7-37.3-44.4-8.5-6.8-7.7-10.3l0.7-3.5 0.3-2 0.2-2h0.5l0.3-0.5 0.2-0.5v-3h0.2q0.3 0 3.6-13l3.2-13 0.2-1 0.3-1 0.5-1.5q0.5-1.5 1-3z" fill="#fefefe" stroke="#fefefe"/>
  <path d="m387 339l1 0.5 0.2 0.3 0.3 0.2 0.3 0.2 0.2 0.3 0.5 0.3 0.5 0.2 13.2 13q13.3 13 26.8 32t18 28.5 7 25.5 4.2 19.5q1.8 3.5 5.3 5.3 3.5 1.7 30 2.7t33 1.5l6.5 0.5 1 0.3 1 0.2v0.5l-1 0.5-1 0.5-1.5 0.5-1.5 0.5v0.5l-3.5-0.2q-3.5-0.3-23.5-0.8t-30 0.5-27 4-28.5 4-17-0.3l-5.5-1.2-0.2-0.5-0.3-0.5h-1.5l-0.2-0.5-0.3-0.5h-1.5l-0.2-0.5-0.3-0.5h-0.5l-1-0.2q-1-0.3-3-1.8t-17.2-16.2q-15.3-14.8-18.8-19.8l-3.5-5-0.3 0.2-0.2 0.3-0.2 0.3-0.3 0.2-0.3-2-0.2-2h0.5l0.3-1q0.2-1 4.7-2.2 4.5-1.3 8-4.8t7.7-11.2q4.3-7.8 4.8-17.8t-1.2-13.2q-1.8-3.3-6.3-6l-4.5-2.8-0.2-0.5-0.3-0.5h-2.5l-0.2-0.5-0.3-0.5h-0.5l-1.5-0.2-1.5-0.3-1.5-0.5q-1.5-0.5-8-0.8l-6.5-0.2 0.2-2 0.3-2 0.5-1.5 0.5-1.5 4.5-7q4.5-7 9.8-11.2 5.2-4.3 18.2-4.3t14 0.5 2 1z" fill="#f9ed04" stroke="#f9ed04"/>
  <g fill="#d90f10" stroke="#d90f10">
   <path d="m463.2 542l-0.2-2 1.8 4q1.7 4 2 5.5 0.2 1.5 4.7 1.7 4.5 0.3 5.5 0.8t1.2 0.8l0.3 0.2 0.3 0.2 0.2 0.3 0.2 0.3 0.3 0.2 0.3 0.2 0.2 0.3 0.2 0.3 0.3 0.2 0.3 0.2 0.2 0.3 1 0.3 1 0.2 0.2-1.5 0.3-1.5 0.5-2q0.5-2 1.2-4l0.8-2-1.8 10.5q-1.7 10.5-7.2 31t-5.8 23l-0.2 2.5 15 3.8q15 3.7 28.2 10.4 13.3 6.8 19 10.6 5.8 3.7 6 4l0.3 0.2 0.3 0.2 0.2 0.3 0.2 0.3 0.3 0.2 0.5 1 0.5 1v4l-0.3 0.2-0.2 0.3-0.2 0.3-0.3 0.2-0.3 0.2-0.2 0.3-0.2 0.3-0.3 0.2-0.3 0.2-0.2 0.3-1.5 0.5q-1.5 0.5-7 3t-23 8-29.5 7.5-16.5 3.5-11.5 2-12-3-10-6-14.5-8.5-13-10-4.3-7.3q-0.7-3.2 1.3-6.2t8.3-7.2q6.2-4.3 25.7-8.8t21.7-6.8q2.3-2.2 5.8-21.2t4.5-30l1-11-0.5-2.5q-0.5-2.5-0.8-4.5zm50.3 105l3.5-0.5h1.5q1.5 0-3 1.5l-4.5 1.5-2 0.5q-2 0.5-6.5 1.5t-21.5 2-37.5-1.5l-20.5-2.5-0.2-0.3-0.3-0.2v-2l1.7-4.2q1.8-4.3 12.8-1.3t25.5 4.5 31 1.5 20-0.5z"/>
   <path d="m340 453.5l11 2 2 0.5 2 0.5v0.5l5 2.8q5 2.7 5.2 3l0.3 0.2 0.3 0.2 0.2 0.3 0.2 0.3 0.3 0.2 0.3 0.2 0.2 0.3 0.2 0.3 0.3 0.2 0.3 1 0.2 1h-1q-1 0-1 1t1 0.8q1-0.3 2.5-0.3h1.5l0.2 0.3 0.3 0.2 0.3 0.2 0.2 0.3 0.2 0.3 0.3 0.2 0.3 0.2 0.2 0.3 0.2 0.3 0.3 0.2 0.3 0.2 0.2 0.3 0.2 0.3 0.3 0.2 0.3 0.2 0.2 0.3-0.2 0.3-0.3 0.2-0.3 0.2-0.2 0.3-0.2 0.3-0.3 0.2-0.3 0.2q-0.2 0.3-1.2 0.8l-1 0.5-0.2 0.3-0.3 0.2-0.3 0.2-0.2 0.3h2l2.5-1q2.5-1 9.7 7.3 7.3 8.2 7.6 8.4l0.2 0.3 0.2 0.3 0.3 0.2 0.3 0.2 0.2 0.3 0.2 0.3 0.3 0.2 0.3 0.2 0.2 0.3-0.2 0.3-0.3 0.2-0.3 0.2-0.2 0.3-0.2 0.3-0.3 0.2-0.3 0.2-0.2 0.3-1.2 0.7q-1.3 0.8-1.6 1.3l-0.2 0.5v0.5l-0.5 0.3-0.5 0.2h-1.2q-0.3 0-0.6 0.5l-0.2 0.5h-0.2q-0.3 0-25 9.2-24.8 9.3-36.8 9.3t-17.5-3.5-12.5-7-18.2-10.8q-11.3-7.2-14.3-13.2t-2.5-8.5 6.2-7.3q5.8-4.7 21.8-9.7t29-6 24 1zm23 17.7l-1 0.3h-3l0.2-0.3 0.3-0.2 0.3-0.2 0.2-0.3 1-0.5 1-0.5 1-0.3q1-0.2 1 0.8t-1 1.2z"/>
  </g>
  <path d="m934.5 478l-12.5-5.5-1-0.5-1-0.5-1.5-0.5-1.5-0.5-1-0.3-1-0.2h-1l-0.2-0.5-0.3-0.5v-2l29-49.5q29-49.5 29.3-50l0.2-0.5v-1h0.5l0.3-0.5 0.2-0.5v-0.5l0.2-0.3 0.3-0.2 0.5-1 0.5-1 0.3-0.5 0.2-0.5h0.5l0.3-0.5 0.2-0.5v-0.2q0-0.3 3.5-0.8t8.5 1 7.8 5.2q2.7 3.8 3.2 14.3t-1 20-7 26-11 25.5-16.8 20.2q-11.2 11.3-13.7 11.8t-15-5z" fill="#f9ed04" stroke="#f9ed04"/>
  <path d="m746 569l4.5 9 0.3 3 0.2 3-6.5 19.2q-6.5 19.3-6.5 19.6v0.2l-0.2 0.5-0.3 0.5-0.5 1.5-0.5 1.5-0.5 1.5-0.5 1.5-0.3 1.5-0.2 1.5-1-0.2-1-0.3-0.2-0.3-0.3-0.2-0.3-0.2-0.2-0.3-0.2-0.3-0.3-0.2-0.3-0.2-0.2-0.3-0.2-0.3-0.3-0.2-0.3-0.2-0.2-0.3-0.2-0.3q-0.3-0.2-30.6-30.4-30.2-30.3-31-32.6-0.7-2.2 6.3-8.7t17.3-14.7q10.2-8.3 16.2-9.8t19.8 12.8q13.7 14.2 18.2 23.2z" fill="#fefefe" stroke="#fefefe"/>
  <g fill="#f9ed04" stroke="#f9ed04">
   <path d="m572.2 344l-0.2-1 1 0.2 1 0.3 1 0.5q1 0.5 2 0.8l1 0.2 1 0.8q1 0.7 1.2 1l0.3 0.2 0.3 0.2 0.2 0.3 21 20q21 20 41.8 38.3 20.7 18.2 21 19.2 0.2 1 13.4 12.5 13.3 11.5 89.8 81.5t95.5 91.5 20.7 23.7q1.8 2.3 2 2.6l0.3 0.2 0.3 0.2 0.2 0.3 0.2 0.3 0.3 0.2 0.3 0.2 0.2 0.3 0.2 0.3 0.3 0.2 0.5 1 0.5 1 0.3 0.2 0.2 0.3 0.2 0.3 0.3 0.2v1l-0.3 0.2-0.2 0.3v0.5l-5.5-0.2q-5.5-0.3-11-1.3t-20.5-6.7l-15-5.8-0.2-0.5q-0.3-0.5-0.6-0.5h-0.2l-0.2-1-0.3-1-0.5-1-0.5-1-0.3-0.2-0.2-0.3-0.2-0.3-0.3-0.2-0.5-1-0.5-1-0.3-0.2q-0.2-0.3-1-1.6-0.7-1.2-12.2-16.7t-97.8-104.3q-86.2-88.7-96.7-100-10.5-11.2-11.5-11.4-1-0.3-20-20.3l-19-20-0.2-0.3-0.3-0.2-0.3-0.2-0.2-0.3-0.2-0.3-0.3-0.2-0.3-0.2-0.2-0.3-0.2-0.3-0.3-0.2-0.3-1z"/>
   <path d="m379.5 41.8l1.5 0.2 0.2 1 0.3 1 0.3 0.2 0.2 0.3 0.2 0.3 0.3 0.2 0.3 0.2 0.2 0.3 0.2 0.3 0.3 0.2 0.3 0.2 0.2 0.3 0.2 0.3 0.3 0.2 0.3 0.2 0.2 0.3 0.2 0.3 0.3 0.2 0.3 0.2 0.2 0.3 0.2 0.3 0.3 0.2 8 10q8 10 18.5 26.5t43.5 75 49.3 87.3q16.2 28.7 17 30 0.7 1.2 1.2 2.2l0.5 1 0.5 1 0.5 1 0.5 1.5 0.5 1.5 0.3 1.5 0.2 1.5-1-0.2-1-0.3-0.2-0.3-0.3-0.2-0.3-0.2-0.2-0.3-0.2-0.3-0.3-0.2-0.3-0.2-0.2-0.3-0.2-0.3-0.3-0.2-0.3-0.2-0.2-0.3-0.2-0.3-0.3-0.2-0.3-0.2-0.2-0.3-0.2-0.3-0.3-0.2-0.3-0.2-0.2-0.3-0.2-0.3-0.3-0.2-0.5-1q-0.5-1-1.5-2t-17-23.5-47.7-67.3q-31.8-44.7-43.3-62-11.5-17.2-12.5-17.2t-5.2-5.5q-4.3-5.5-17.8-24.5t-23.8-29.2l-10.2-10.3-1-0.5-1-0.5-0.2-0.3-0.3-0.2-0.3-0.2-0.2-0.3-0.2-0.3-0.3-0.2-0.3-0.2-0.2-0.3-1-0.5q-1-0.5-1-0.8v-0.2l5.5-0.8q5.5-0.7 20.5 2.3t16.5 3.5 3 0.8z"/>
  </g>
  <path d="m355.8 369h0.7l0.3 0.5 0.2 0.5h0.8q0.7 0 1 0h0.7l0.3 0.5 0.2 0.5 4.5 2.8q4.5 2.7 6.3 6 1.7 3.2 1.2 13.2t-4.8 17.8q-4.2 7.7-7.7 11.2t-8 4.8q-4.5 1.2-4.7 2.2l-0.3 1h-0.5v-0.2q0-0.3-7-1.3l-7-1-0.2 0.3-0.3 0.2-0.3 0.2-0.2 0.3-0.2 0.3-0.3 0.2-0.3 0.5-0.2 0.5h-1l0.2-1 0.3-1 0.3-0.2 0.2-0.3 0.5-0.5q0.5-0.5 2.5-1l2-0.5-0.2-0.3-0.3-0.2-0.3-0.2-0.2-0.3-1-0.5-1-0.5-1-0.5q-1-0.5-9.5-6.5t-14.7-13.3q-6.3-7.2-6.8-12.7t1.2-7.7q1.8-2.3 9.8-6l8-3.8v0.5h0.5q0.5 0 0.5-0.3v-0.2l0.2-0.5 0.3-0.5h0.5l0.5 0.2q0.5 0.3 2 0.3h1.5l5.5-1.5q5.5-1.5 15.3-1.8 9.7-0.2 10-0.2z" fill="#a1a0a1" stroke="#a1a0a1"/>
  <path d="m480.8 159l-31.8-73 9.2 10q9.3 10 32.3 41.5t23.3 32l0.2 0.5v0.2q0 0.3 0.5 0.6l0.5 0.2v0.2q0 0.3 0.5 0.6l0.5 0.2 1.2 2q1.3 2 1.6 2.2l0.2 0.3 0.2 0.3 0.3 0.2 8 11q8 11 8.3 11.5l0.2 0.5-0.2 0.5-0.3 0.5-0.3 0.2-0.2 0.3 0.2 0.3 0.3 0.2 3 34.5q3 34.5 3 42v7.5l-0.5 2-0.5 2-0.5 1-0.5 1-0.3 0.2-0.2 0.3h-2l-0.2-0.3-0.3-0.2-0.3-0.2-0.2-0.3-0.2-0.3-0.3-0.2-0.3-0.2-0.2-0.3-0.2-0.3-0.3-0.2-0.3-0.2-0.2-0.3-0.2-0.3-0.3-0.2-0.5-1-0.5-1-0.5-1q-0.5-1-3-7.5t-9.5-26.5-38.7-93z" fill="#f9ed04" stroke="#f9ed04"/>
  <path d="m576.8 342.2l-0.3-1.2h0.5l58.2 47q58.3 47 147.3 124t99.5 86.5 10.8 9.7l0.2 0.3 1 0.5 1 0.5 0.2 0.3 0.3 0.2 0.3 0.2 0.2 0.3 0.2 0.3 0.3 0.2 0.3 0.2 0.2 0.3 0.2 0.3 0.3 0.2 0.3 0.2 0.2 0.3 0.2 0.3 0.3 0.2 0.3 0.2 0.2 0.3 0.2 0.3 0.3 0.2 0.3-0.5 0.2-0.5 3.8 7.5q3.7 7.5 3.7 12.5t-0.3 6l-0.2 1-1 0.2q-1 0.3-2 0.8l-1 0.5-1 0.5-1 0.5-2.5 0.5q-2.5 0.5-5.5 0.8l-3 0.2v-0.5l0.2-0.3 0.3-0.2v-1l-0.3-0.2-0.2-0.3-0.2-0.3-0.3-0.2-0.5-1-0.5-1-0.3-0.2-0.2-0.3-0.2-0.3-0.3-0.2-0.3-0.2-0.2-0.3-0.2-0.3-0.3-0.2-0.3-0.2q-0.2-0.3-2-2.6-1.7-2.2-20.7-23.7t-95.5-91.5-89.8-81.5q-13.2-11.5-13.4-12.5-0.3-1-21-19.2-20.8-18.3-41.8-38.3l-21-20-0.2-0.3-0.3-0.2-0.3-0.2q-0.2-0.3-1.2-1l-1-0.8h0.2q0.3 0-0.4-0.8-0.8-0.7-1-2z" fill="#da0f10" stroke="#da0f10"/>
  <path d="m791.5 346.8l5.5 3.2h0.2q0.3 0 0.6 0.5l0.2 0.5h1q1 0 1.5 1.8 0.5 1.7 0.7 2l0.3 0.2 18.3 20.2q18.2 20.3 18.4 20.6 0.3 0.2 0.6 1.2l0.2 1-0.2 1q-0.3 1 0 1.2l0.2 0.3 0.2 0.3 0.3 0.2 0.3 0.2 0.2 0.3 0.2 0.3 0.3 0.2 0.3 0.2 0.2 0.3 0.2 0.3 0.3 0.2 0.3 0.2 0.2 0.3 0.2 0.3 0.3 0.2 0.3 1 0.2 1-3.5 0.2-3.5 0.3h-7.5q-7.5 0-30.5-9t-25.2-15.7q-2.3-6.8-2.3-17.8t3.3-15.2q3.2-4.3 7.7-4.8t10 2.8z" fill="#d90f10" stroke="#d90f10"/>
  <g fill="#f9ed04" stroke="#f9ed04">
   <path d="m898.2 464l-0.2-1 1 0.2 1 0.3 1 0.5 1 0.5 0.2 0.3 0.3 0.2 0.3 0.2 0.2 0.3 3 1.5q3 1.5 4.5 2l1.5 0.5 1 0.3 1 0.2v0.2q0 0.3 0.5 0.6l0.5 0.2h0.5l0.3 0.2 0.2 0.3 1 0.5 1 0.5 0.2 0.3 0.3 0.2 0.3 0.2 0.2 0.3 1 0.5 1 0.5 13.2 7.3q13.3 7.2 13.6 8.2 0.2 1 12.2 8.8 12 7.7 16.8 13.4 4.7 5.8 13.7 25.8t9 25v5l-0.3 1-0.2 1-1.5 0.2-1.5 0.3h-3l-2.5-0.3-2.5-0.2-0.2-1q-0.3-1-1.3-2l-1-1h-0.5l-0.2-0.5-0.3-0.5h-0.5l-0.2-0.5q-0.3-0.5-0.6-0.7l-0.2-0.3-0.2-0.3-0.3-0.2-0.5-1q-0.5-1-39.8-46.2l-39.2-45.3-0.2-0.3-0.3-0.2-0.5-1-0.5-1-0.3-0.2-0.2-0.3-0.2-0.3-0.3-0.2-0.3-0.2-0.2-0.3-0.2-0.3-0.3-0.2-0.3-0.2-0.2-0.3-0.2-0.3-0.3-0.2-0.3-1z"/>
   <path d="m578.5 340.2l1.5-0.2v0.5l1 0.3 1 0.2 0.2 0.5q0.3 0.5 0.6 0.7l0.2 0.3 26 18q26 18 49.5 35t52 39 41 31.5 13.5 10l1 0.5 0.2 0.3 0.3 0.2 0.3 0.2 0.2 0.3 1 0.5 1 0.5 0.2 0.3 0.3 0.2 0.3 0.2 0.2 0.3 0.2 0.3 0.3 0.2 0.3 0.2 0.2 0.3 0.2 0.3 0.3 0.2 0.3-0.2 0.2-0.3 0.5-0.3 0.5-0.2 9 9.2q9 9.3 10 9.6 1 0.2 11.5 11.4 10.5 11.3 24 25.3t14 14.3l0.5 0.2v0.2q0 0.3 0.5 0.6l0.5 0.2v0.2q0 0.3 0.5 0.6l0.5 0.2v0.5l0.2 0.3 0.3 0.2 0.3 0.2 0.2 0.3 24.8 25.7q24.7 25.8 25.2 26.8l0.5 1 0.3 0.2 0.2 0.3 0.2 0.3 0.3 0.2 0.3 0.2 0.2 0.3 0.2 0.3 0.3 0.2 0.3 0.2 0.2 0.3 0.2 0.3 0.3 0.2 0.3 0.2 0.2 0.3 0.2 0.3 0.3 0.2 0.3 1 0.2 1-0.2 0.5-0.3 0.5-0.3-0.2-0.2-0.3-0.2-0.3-0.3-0.2-0.3-0.2-0.2-0.3-0.2-0.3-0.3-0.2-0.3-0.2-0.2-0.3-0.2-0.3-0.3-0.2-0.3-0.2-0.2-0.3-0.2-0.3-0.3-0.2-0.3-0.2-0.2-0.3-1-0.5-1-0.5-0.2-0.3q-0.3-0.2-0.8-0.7t-48.5-42.5-108-93.5-108.7-90l-48.8-38.5-0.2-0.5q-0.3-0.5-0.6-0.5h-0.2v-1.2q0-0.3 1.5-0.6z"/>
   <path d="m387.8 337.8l-1.8-1.3 7.5 0.5q7.5 0.5 8.5 0.8l1 0.2v0.2q0 0.3 0.5 0.6l0.5 0.2v0.2q0 0.3 0.5 0.6l0.5 0.2 15.2 15q15.3 15 26.8 31t17 27 8 23.5 4.2 15.3q1.8 2.7 4.3 3.7t25.5 1 75 4.5 57.5 5l5.5 0.5 2 0.3 2 0.2 2 0.8q2 0.7 2.2 1l0.3 0.2 0.3 0.2 0.2 0.3 0.2 0.3 0.3 0.2 0.3 0.2 0.2 0.3 0.2 0.3 0.3 0.2 0.3 0.2 0.2 0.3 0.2 0.3 0.3 0.2 0.3 0.2 0.2 0.3 0.2 0.3 0.3 0.2 0.3 0.2 0.2 0.3 0.2 0.3 0.3 0.2 0.3 0.2 0.2 0.3 0.2 0.3 0.3 0.2 0.3 0.2 0.2 0.3 0.2 0.3 0.3 0.2 0.3 0.2 0.2 0.3-4 0.5-4 0.5h-3.5q-3.5 0-58-3.7l-54.5-3.8-1-0.2-1-0.3-6.5-0.5q-6.5-0.5-33-1.5t-30-2.7q-3.5-1.8-5.3-5.3-1.7-3.5-4.2-19.5t-7-25.5-18-28.5-26.8-32l-13.2-13-0.2-1q-0.3-1-2-2.2z"/>
   <path d="m578.5 260.2l0.5-0.2 19.2 26q19.3 26 19.6 27l0.2 1-1.5 0.2q-1.5 0.3-3 1.8t-2.5 5.2l-1 3.8-0.5 0.2-0.5 0.3h-3l-1-0.5q-1-0.5-28-14l-27-13.5-0.2-0.3-0.3-0.2-0.3-0.2-0.2-0.3-0.2-0.3-0.3-0.2-0.3-0.2-0.2-0.3 0.2-0.3 0.3-0.2 0.5-1 0.5-1 14.3-16.2q14.2-16.3 14.7-16.6z"/>
   <path d="m749.2 570l-0.2-1h2l0.2 1 0.3 1 0.3 0.2 0.2 0.3 0.2 0.3 0.3 0.2 0.3 0.2 0.2 0.3 0.2 0.3 0.3 0.2 0.3 0.2 0.2 0.3 0.2 0.3 0.3 0.2 0.3 0.2 0.2 0.3 0.2 0.3 0.3 0.2 5.5 5.5q5.5 5.5 3 11t-3 7l-0.5 1.5v1.5q0 1.5 0.3 2l0.2 0.5-0.2 0.5-0.3 0.5h-0.7q-0.3 0-0.3 1v1h0.5l-6.2 17.5q-6.3 17.5-6.6 17.5h-0.7l-0.5 1-0.5 1-0.5 1.5-0.5 1.5-0.5 1.5-0.5 1.5-0.5 3-0.5 3v3l0.3 0.5 0.2 0.5 0.2 1.5 0.3 1.5 0.5 1 0.5 1 7.5 11q7.5 11 7.8 11.2l0.2 0.3 0.2 0.3 0.3 0.2 0.3 0.2 0.2 0.3 0.2 0.3 0.3 0.2 0.5 1 0.5 1 0.3 0.2 0.2 0.3 0.2 0.3 0.3 0.2 0.3 0.2 0.2 0.3 0.2 0.3 0.3 0.2 0.3 0.2 0.2 0.3h-5l-3-0.5q-3-0.5-29.5-4.5l-26.5-4-3-0.5-3-0.5 0.2-0.3 0.3-0.2 0.3-0.2 0.2-0.3 1-0.5 1-0.5 1-0.5 1-0.5 1-0.5 1-0.5 1-0.5q1-0.5 5-3t9.8-8.2q5.7-5.8 9.4-12.8l3.8-7h0.5l0.3-0.5 0.2-0.5 0.2-1 0.3-1 0.5-2 0.5-2 0.5-1q0.5-1 1.5-4.5l1-3.5 0.5-1.5 0.5-1.5 0.5-1.5 0.5-1.5v-3h-0.5v-0.2q0-0.3 6.5-19.6l6.5-19.2h0.5v-4q0-4-0.5-5.5l-0.5-1.5-0.5-1-0.5-1-0.3-1z"/>
  </g>
  <path d="m864 506l-3 0.5-3.5 0.5q-3.5 0.5-24 3.2-20.5 2.8-27.7-5.2-7.3-8-6-8.8 1.2-0.7-0.8-1.2l-2-0.5-0.2-0.3-0.3-0.2-0.3-0.2-0.2-0.3-0.2-0.3-0.3-0.2-0.3-0.2-0.2-0.3-0.2-0.3-0.3-0.2-0.3-0.2-0.2-0.3-0.2-0.3-0.3-0.2-0.3-0.2-0.2-0.3 0.2-0.3 0.3-0.2 0.3-0.2 0.2-0.3 26.5-1q26.5-1 28.5-0.3 2 0.8 2 1.8t6.8 6q6.7 5 9 6.8 2.2 1.7 1.2 2.2t-4 1z" fill="#d90f0f" stroke="#d90f0f"/>
  <path d="m397 164l0.5-1 0.3 0.2 0.2 0.3 0.2 0.3 0.3 0.2 0.3 0.2 0.2 0.3 0.2 0.3 0.3 0.2 0.5 1 0.5 1 0.3 0.2 0.2 0.3 2.8 3.7q2.7 3.8 2.7 5.3t-0.5 4l-0.5 2.5v3h0.5l-3.2 13q-3.3 13-3.6 13h-0.7v1q0 1 0.3 1.5l0.2 0.5-0.2 0.5-0.3 0.5h-0.7q-0.3 0-0.8 1l-0.5 1-1.5 6q-1.5 6-1.8 8l-0.2 2h-0.5l-2 10q-2 10-1.5 17.5t1 8.5l0.5 1 0.3 0.2 0.2 0.3 0.2 0.3 0.3 0.2 0.3 0.2 0.2 0.3 0.2 0.3 0.3 0.2 0.3 0.2 0.2 0.3h-5l-2-0.5q-2-0.5-19.5-3l-17.5-2.5-0.2-0.3-0.3-0.2-0.3-0.2-0.2-0.3 1-0.5 1-0.5 0.2-0.3 0.3-0.2 0.3-0.2 0.2-0.3 1-0.5 1-0.5 5-3.5q5-3.5 10.8-10.2 5.7-6.8 6.2-7.8t0.8-1.5l0.2-0.5h0.2q0.3 0 0.6-0.5l0.2-0.5v-1h0.2q0.3 0 0.6-0.5l0.2-0.5v-0.2q0-0.3 2.8-7.6 2.7-7.2 3.4-14.2l0.8-7 0.2-1q0.3-1 4.6-18.5l4.2-17.5h0.5l0.5-1.5 0.5-1.5 0.5-1.5 0.5-1.5 0.5-1z" fill="#f9ed04" stroke="#f9ed04"/>
  <path d="m521.2 168.8l0.3 0.2 0.5 1 0.5 1 0.3 0.2 0.2 0.3 0.2 0.3 0.3 0.2 0.3 0.2 0.2 0.3 0.2 0.3 0.3 0.2 0.3 1 0.2 1v2l-1.5-0.2-1.5-0.3-0.2-0.3-0.3-0.2-0.3-0.2-0.2-0.3-0.2-0.3-0.3-0.2-0.3-0.2-0.2-0.3-0.2-0.3-0.3-0.2-0.3-0.2-0.2-0.3-0.2-0.3-0.3-0.2-0.3-0.2-0.2-0.3-1-0.3-1-0.2-0.2-0.5q-0.3-0.5-0.6-0.5h-0.2l-0.2-0.5q-0.3-0.5-0.6-0.5h-0.2l-0.2-0.5q-0.3-0.5-23.3-32t-32.3-41.5l-9.2-10-0.2-0.5q-0.3-0.5-1.8-2t-16.5-12.5-28.7-18.2l-13.8-7.3-1-0.5-1-0.5-1-0.5-1-0.5-1-0.5-1-0.5-0.2-0.3-0.3-0.2h-0.5l-1.5-0.2q-1.5-0.3-3-0.8t-16.5-3.5-20.5-2.3l-5.5 0.8-2.8 1.5q-2.7 1.5-2.7 10t4.3 15.7q4.2 7.3 86 117.6 81.7 110.2 82 111.2l0.2 1 0.2 1 0.3 1 0.5 1 0.5 1 0.3 0.2 0.2 0.3 0.2 0.3 0.3 0.2v4l-0.3-0.2-0.2-0.3-0.2-0.3-0.3-0.2-0.3-0.2-0.2-0.3-0.2-0.3-0.3-0.2-0.3-0.2-0.2-0.3-0.2-0.3-0.3-0.2-0.3-0.2-0.2-0.3-0.2-0.3-0.3-0.2-0.3-0.2-0.2-0.3-0.2-0.3-0.3-0.2h-0.5l-0.2-0.5-0.3-0.5h-0.5l-0.2-0.5q-0.3-0.5-0.6-0.5h-0.2l-0.2-0.5q-0.3-0.5-0.6-0.5h-0.2l-0.2-0.5q-0.3-0.5-41.8-56.5l-41.5-56-0.3-0.2-0.2-0.3-0.2-0.3-0.3-0.2-0.3-0.2-0.2-0.3-0.2-0.3-0.3-0.2-0.3-0.2-0.2-0.3-0.2-0.3-0.3-0.2-0.5 1.5q-0.5 1.5-1 3l-0.5 1.5-0.3 1-0.2 1h-0.5v-3l0.5-2.5q0.5-2.5 0.5-4t-2.7-5.3l-2.8-3.7-0.2-0.3-0.3-0.2-0.5-1-0.5-1-0.3-0.2-0.2-0.3-0.2-0.3-0.3-0.2-0.3-0.2-0.2-0.3-0.2-0.3-0.3-0.2-0.5 1-0.5 1-0.5 1.5-0.5 1.5-0.5 1.5-0.5 1.5h-0.5l0.2-2.5 0.3-2.5v-3.5q0-3.5-34-50t-36.5-52.5-2-14.5 3.8-11.7q3.2-3.3 6.2-4.3t14.5-0.5 25.5 4.5 32.2 13.7q18.3 9.8 32.6 20.6 14.2 10.7 24.4 22 10.3 11.2 35 45 24.8 33.7 25 34zm1 6q-0.2-0.3 0-0.6 0.3-0.2 0.3 0.3t-0.3 0.3z" fill="#070504" stroke="#070504"/>
  <path d="m796.2 348.8l-0.2-0.3h3l2.8 1.7q2.7 1.8 3 2l0.2 0.3 1 0.3 1 0.2v0.2q0 0.3 0.5 0.6l0.5 0.2v0.2q0 0.3 0.5 0.6l0.5 0.2h0.5l17.3 11.8q17.2 11.7 26 18.4 8.7 6.8 9 7l0.2 0.3 1 0.5 1 0.5 0.2 0.3 0.3 0.2 0.3 0.2 0.2 0.3 0.2 0.3 0.3 0.2 0.3 0.5 0.2 0.5-0.5 0.2-0.5 0.3v0.5l-0.5 0.2-0.5 0.3v0.5l-1 0.2-1 0.3-1 0.5-1 0.5-0.2 0.3-0.3 0.2-0.3 0.2-0.2 0.3-1.5 0.5q-1.5 0.5-7 2t-7.5-0.5l-2-2-0.2-0.3-0.3-0.2-0.3-0.2-0.2-0.3-0.2-0.3-0.3-0.2-0.3-0.2-0.2-0.3v-0.5l-0.2-0.5-0.3-0.5h-0.5l-0.2-0.5-0.3-0.5h-0.5l-0.2-0.5-0.3-0.5h-0.5l-0.2-0.5q-0.3-0.5-17.3-20l-17-19.5-0.3-0.2q-0.2-0.3-1.2-1.6l-1-1.2-0.2-0.5q-0.3-0.5-0.6-0.5h-0.2l-0.2-0.5q-0.3-0.5-0.6-0.5h-0.2l-0.2-0.5q-0.3-0.5-0.6-0.7z" fill="#f9ed04" stroke="#f9ed04"/>
  <path d="m527.5 472.8l3.5 0.2 2.5 0.2 2.5 0.3 64.5 6q64.5 6 66.5 6.5l2 0.5 1 0.5 1 0.5 0.2 0.3 0.3 0.2 0.3 0.2 0.2 0.3 0.2 0.3 0.3 0.2 0.3 0.2 0.2 0.3 0.2 0.3 0.3 0.2 0.3 0.2 0.2 0.3 0.2 0.3 0.3 0.2 0.3 0.2 0.2 0.3 0.2 0.3 0.3 0.2 0.3 1 0.2 1h-11l-1-0.2q-1-0.3-23.5-1.3t-81.5-6-83.5-5-45.5 4.7l-21 4.8-4.5-0.2q-4.5-0.3-7.5-3.3l-3-3-0.2-0.3-0.3-0.2-0.5-1-0.5-1-0.3-0.2-0.2-0.3-0.2-0.3-0.3-0.2-0.3-0.2-0.2-0.3-0.2-0.3-0.3-0.2-0.3-0.2-0.2-0.3-0.2-0.3-0.3-0.2-0.3-0.2-0.2-0.3-0.2-0.3-0.3-0.2-0.3-0.2-0.2-0.3 1-0.5 1-0.5 0.2-0.3 0.3-0.2h1l0.3 0.5 0.2 0.5h1.5l0.3 0.5 0.2 0.5h1.5l0.3 0.5 0.2 0.5 5.5 1.2q5.5 1.3 17 0.3t28.5-4 27-4 30-0.5 23.5 0.8z" fill="#f9ec05" stroke="#f9ec05"/>
  <path d="m807 347.2v-0.2l18.5 11.8q18.5 11.7 32.5 22.2t41-6.5 36.5-20.5 24.5-3.5 25 2.5 14.2 6.8q4.3 4.2 5.3 7.2t0.5 18.5-5.5 33.5-11.3 29.8q-6.2 11.7-16.7 23.2t-11.5 12l-1 0.5-0.2 0.3-0.3 0.2-0.3 0.2-0.2 0.3-0.2 0.3-0.3 0.2-0.3 0.2-0.2 0.3-0.2 0.3-0.3 0.2-0.3 0.2-0.2 0.3 0.2 0.3 0.3 0.2 0.3 0.2 0.2 0.3 1 0.5 1 0.5 0.2 0.3 0.3 0.2 9.5 6.5q9.5 6.5 16 17.5t13.5 26 6.5 23.5-3.2 10.7q-2.8 2.3-10.3 1.8t-20.5-6-25.5-13-12.5-7.8v-0.2l-0.2-0.5-0.3-0.5-0.3-0.2-0.2-0.3-0.2-0.3-0.3-0.2-0.3-0.2-0.2-0.3-0.2-0.3-0.3-0.2-0.3-0.2-0.2-0.3-0.2-0.3-0.3-0.2-0.3-0.2-0.2-0.3-0.2-0.3-0.3-0.2-0.3-0.2-0.2-0.3 0.2-0.3 0.3-0.2 0.3-1.5 0.2-1.5 1 0.2 1 0.3 0.2 0.3 0.3 0.2 0.3 0.2 0.2 0.3 0.2 0.3 0.3 0.2 0.3 0.2 0.2 0.3 1 0.5 1 0.5 0.2 0.3 0.3 0.2 19.7 11.2q19.8 11.3 21.3 11.8l1.5 0.5 2 0.5 2 0.5h4l-0.2-0.3-0.3-0.2-0.3-0.2-0.2-0.3-1-0.3q-1-0.2-0.8-1.2l0.3-1h1l0.3 0.5 0.2 0.5h0.5l1 1q1 1 1.3 2l0.2 1 2.5 0.2 2.5 0.3h3l1.5-0.3 1.5-0.2 0.2-1 0.3-1v-5q0-5-9-25t-13.7-25.8q-4.8-5.7-16.8-13.4-12-7.8-12.2-8.8-0.3-1-13.6-8.2l-13.2-7.3-1-0.5-1-0.5-0.2-0.3-0.3-0.2-0.3-0.2-0.2-0.3-1-0.5-1-0.5-0.2-0.3-0.3-0.2h-0.5v-1l1 0.2 1 0.3 1.5 0.5 1.5 0.5 1 0.5 1 0.5 12.5 5.5q12.5 5.5 15 5t13.7-11.8q11.3-11.2 16.8-20.2t11-25.5 7-26 1-20-3.2-14.3q-2.8-3.7-7.8-5.2t-8.5-1-3.5 0.8v0.2l-0.2 0.5-0.3 0.5h-0.5l-0.2 0.5-0.3 0.5-0.5 1-0.5 1-0.3 0.2-0.2 0.3v0.5l-0.2 0.5-0.3 0.5h-0.5v1h-0.5v-3l0.3-0.2 0.2-0.3 0.2-0.3 0.3-0.2 1-2q1-2 1.3-2.2l0.2-0.3 0.2-0.3 0.3-0.2 0.3-0.2 0.2-0.3-1-0.5-1-0.5-7.5-0.5q-7.5-0.5-14 0t-14 3-39 22.5l-31.5 20-0.2 0.3-0.3 0.2-0.3 0.2-0.2 0.3-1 0.3-1 0.2h-3l0.2-1.5 0.3-1.5 0.3-0.2 0.2-0.3 0.2-0.3q0.3-0.2 0.6-0.7l0.2-0.5h0.2q0.3 0 0.6-0.5l0.2-0.5h0.2q0.3 0 0.6-0.5l0.2-0.5-0.2-0.5-0.3-0.5-0.3-0.2-0.2-0.3-0.2-0.3-0.3-0.2-0.3-0.2-0.2-0.3-1-0.5-1-0.5-0.2-0.3q-0.3-0.2-9-7-8.8-6.7-26-18.4l-17.3-11.8h-0.5l-0.2-0.5-0.3-0.5h-0.5l-0.2-0.5-0.3-0.5h-0.5l-0.2-0.5q-0.3-0.5-0.6-0.7l-0.2-0.3-0.5-1.3q-0.5-1.2 1-1.4l1.5-0.3-0.2-0.3-0.3-0.2-0.3-0.2-0.2-0.3v-0.3z" fill="#070503" stroke="#070503"/>
  <path d="m513.5 647l3.5-0.5h1.5q1.5 0-3 1.5l-4.5 1.5-2 0.5q-2 0.5-6.5 1.5t-21.5 2-37.5-1.5l-20.5-2.5-0.2-0.3-0.3-0.2v-2l1.7-4.2q1.8-4.3 12.8-1.3t25.5 4.5 31 1.5 20-0.5z" fill="#f9ed05" stroke="#f9ed05"/>
  <path d="m365.2 207.2l13.3 7.8 0.3 0.2 0.2 0.3 1 0.5 1 0.5 1 0.3 1 0.2 0.2-1.5 0.3-1.5 0.5-2q0.5-2 0.8-3l0.2-1-0.8 7q-0.7 7-3.4 14.2-2.8 7.3-2.8 7.6v0.2l-0.2 0.5q-0.3 0.5-0.6 0.5h-0.2v1l-0.2 0.5q-0.3 0.5-0.6 0.5h-0.2l0.5-2.2q0.5-2.3 2.3-6 1.7-3.8 1.2-6.3t-12.8-10.3q-12.2-7.7-27.7-14.2t-21-7.5-15-0.5-12.7 2.8q-3.3 2.2-4.3 4.2t0 9 5.5 16 39.2 56.8q34.8 47.7 59.8 49.2t52.5 8 31 7l3.5 0.5 3 0.3 3 0.2-0.2-1-0.3-1-0.3-0.2-0.2-0.3-0.2-0.3-0.3-0.2-0.5-1-0.5-1-0.3-0.2-0.2-0.3-0.2-0.3-0.3-0.2-0.5-1q-0.5-1-6.5-9.5t-31.5-42.5-35.2-43.8l-9.8-9.7-0.2-0.3-0.3-0.2-0.3-0.2-0.2-0.3-1-0.3-1-0.2-0.2 1.5-0.3 1.5-0.3-1-0.2-1 0.2-2q0.3-2 1.8-8l1.5-6 0.5-2 0.5-2 0.5-1 0.5-1h0.5v3l-0.2 0.5-0.3 0.5h-0.5l-0.2 2-0.3 2-0.7 3.5q-0.8 3.5 7.7 10.3 8.5 6.7 37.3 44.4 28.7 37.8 40.4 54 11.8 16.3 23.8 18.3t15.5 2.5l3.5 0.5 4 0.5 4 0.5v0.5h-10v2l-2 0.2-2 0.3 2 0.5 2 0.5v0.5l-3.5-0.2q-3.5-0.3-22.5-3.3t-44-9-37-7.5-11.5-0.2l0.5 1.2-1-0.2q-1-0.3-2-1.3t-8.5-1.5l-7.5-0.5 1.8 1.3q1.7 1.2 2 2.2l0.2 1-0.5-0.2-0.5-0.3-0.2-0.3-0.3-0.2-0.3-0.2-0.2-0.3-1-0.5q-1-0.5-2-1t-14-0.5-18.2 4.3q-5.3 4.2-9.8 11.2l-4.5 7-0.5 1.5-0.5 1.5-0.3 2-0.2 2 6.5 0.2q6.5 0.3 8 0.8l1.5 0.5 1.5 0.3 1.5 0.2h0.5l0.3 0.5 0.2 0.5h2.5l0.3 0.5 0.2 0.5v0.5h-2l-1.5-0.5-1.5-0.5-2-0.5q-2-0.5-9.5-0.5t-13 1.5l-5.5 1.5-1.5 0.5-1.5 0.5h-3v-0.5h1l0.2-0.5 0.3-0.5h0.5l1-0.2 1-0.3 1-0.5 1-0.5 1.5-0.5q1.5-0.5 2.5-0.8 1-0.2 3.2-8.2 2.3-8 8.6-15.8 6.2-7.7 12.2-11.2l6-3.5-0.2-0.3-0.3-0.2-0.5-1q-0.5-1-34.2-47.2-33.8-46.3-38.6-56.6-4.7-10.2-4.7-19.2t3.3-12.2q3.2-3.3 10.7-5.8t19-1 25 7 26.7 13.2z" fill="#080302" stroke="#080302"/>
  <path d="m514.5 171.2l-0.5-1.2 1.8 1q1.7 1 2 1.2l0.2 0.3 0.2 0.3 0.3 0.2 0.3 0.2 0.2 0.3 0.2 0.3 0.3 0.2 0.3 0.2 0.2 0.3 0.2 0.3 0.3 0.2 0.3 0.2 0.2 0.3 0.2 0.3 0.3 0.2 0.7-0.8q0.8-0.7 1.6 0.6 0.7 1.2 1 0.2l0.2-1 50.5 69.2q50.5 69.3 50.7 69.6l0.3 0.2v4l-4.5 1.5q-4.5 1.5-3.8 5.3 0.8 3.7 5.8 10.7t15.5 14 21.3 11.7q10.7 4.8 33.2 28.3t22.8 23.7l0.2 0.3 0.2 0.3 0.3 0.2 0.3 0.2 0.2 0.3 0.2 0.3 0.3 0.2 0.3 0.2 0.2 0.3 0.2 0.3 0.3 0.2 0.3 0.2 0.2 0.3 0.2 0.3 0.3 0.2 0.3 0.2 0.2 0.3 0.2 0.3 0.3 0.2 0.3 0.2 0.2 0.3 0.2 0.3 0.3 0.2 0.5-3 0.5-3v-14q0-14-2-18l-2-4v-3l0.3-0.2 0.2-0.3h5l16 4.5q16 4.5 17.5 5l1.5 0.5 1.5 0.5 1.5 0.5 1.5 0.3 1.5 0.2-0.2-2.5-0.3-2.5-1-4.5q-1-4.5-0.5-14t4-14.5 7.2-7.2q3.8-2.3 9.3-1.8t13.7 4.2q8.3 3.8 8.6 4.3l0.2 0.5v0.5l0.2 0.3 0.3 0.2 0.3 0.2 0.2 0.3 0.2 0.3 0.3 0.2 0.3 1 0.2 1-1.5 0.2-1.5 0.3 1 0.5 1 0.5 0.2 0.3 0.3 0.2 0.3 1 0.2 1-1-0.2-1-0.3-0.2-0.3-0.3-0.2-0.3-0.2-0.2-0.3-0.2-0.3-0.3-0.2-0.3-0.2-0.2-0.3-0.2-0.3q-0.3-0.2-3-2l-2.8-1.7h-3l0.2 0.3q0.3 0.2 0.6 0.7l0.2 0.5h0.2q0.3 0 0.6 0.5l0.2 0.5h0.2q0.3 0 0.6 0.5l0.2 0.5v0.5h-2l-0.2-0.3-0.3-0.2-0.5-1-0.5-1-3.3-2.8q-3.2-2.7-9.2-2.7t-9.2 4.3q-3.3 4.2-3.3 15.2t2.3 17.8q2.2 6.7 25.2 15.7t30.5 9h7.5l3.5-0.3 3.5-0.2-0.2-1-0.3-1-0.3-0.2-0.2-0.3-0.2-0.3-0.3-0.2-0.3-0.2-0.2-0.3-0.2-0.3-0.3-0.2-0.3-0.2-0.2-0.3-0.2-0.3-0.3-0.2-0.3-0.2-0.2-0.3-0.2-0.3q-0.3-0.2-0.6-0.4l-0.2-0.3-0.2-0.3-0.3-0.2-0.3-0.2-0.2-0.3-0.2-0.3-0.3-0.2-0.3-0.2-0.2-0.3-0.2-0.3-0.3-0.2v-2h1l0.3 0.5 0.2 0.5h0.5l0.3 0.5 0.2 0.5h0.5l0.3 0.5 0.2 0.5v0.5l0.2 0.3 0.3 0.2 0.3 0.2 0.2 0.3 0.2 0.3 0.3 0.2 0.3 0.2 0.2 0.3 2 2q2 2 7.5 0.5t7-2l1.5-0.5 0.2-0.3 0.3-0.2 0.3-0.2 0.2-0.3 1-0.5 1-0.5 0.2-0.3 0.3-0.2 0.3-0.2 0.2-0.3 0.2-0.3 0.3-0.2 0.3-0.2 0.2-0.3 1-0.3 1-0.2-0.2 1-0.3 1-0.3 0.2-0.2 0.3-1 0.5-1 0.5-0.2 0.3-0.3 0.2-0.3 1.5-0.2 1.5h3v0.5l-1 0.5q-1 0.5-9 3.5t-21 4-35-7.3l-22-8.2-0.5-0.2-0.5-0.3-1.5-0.5-1.5-0.5-1.5-0.5q-1.5-0.5-19.5-6l-18-5.5-1.5-0.5-1.5-0.5-1-0.3-1-0.2 0.2 1 0.3 1 0.5 1.5q0.5 1.5 0.8 11l0.2 9.5-1.2 10.5q-1.3 10.5 26.4 37.7 27.8 27.3 41.3 28.3t23.5 1h10l1.5-0.5 1.5-0.5 2-0.5 2-0.5 0.2-0.3 0.3-0.2v-1l-0.3-0.2-0.2-0.3-0.2-0.3-0.3-0.2-0.3-0.2-0.2-0.3-0.2-0.3-0.3-0.2-0.3-0.2-0.2-0.3-0.2-0.3-0.3-0.2-0.3-0.2-0.2-0.3-0.2-0.3q-0.3-0.2-4.3-5.2l-4-5-0.3-0.2-0.2-0.3-0.2-0.3-0.3-0.2-0.3-0.2-0.2-0.3-0.2-0.3-0.3-0.2-0.5-1-0.5-1v-3l0.3-0.2 0.2-0.3h14l-4.5 0.5-4.5 0.5 0.2 0.3 0.3 0.2 0.5 1 0.5 1 0.3 0.2 0.2 0.3 0.2 0.3 0.3 0.2 0.3 0.2 0.2 0.3 7 8.3q7 8.2 36 30.4 29 22.3 41 30.3t12.5 8.3l0.5 0.2v0.2q0 0.3 0.5 0.6l0.5 0.2-0.2 0.5-0.3 0.5-0.3 0.2-0.2 0.3-0.2 0.3-0.3 0.2-0.3 0.2-0.2 0.3 0.2 0.3 0.3 0.2 0.3 0.2 0.2 0.3 0.2 0.3 0.3 0.2 0.3 0.2 0.2 0.3 0.2 0.3 0.3 0.2 0.3 0.2 0.2 0.3 0.2 0.3 0.3 0.2 0.3 0.2 0.2 0.3 0.2 0.3 0.3 0.2 0.3 0.5 0.2 0.5-1-0.2-1-0.3-0.2-0.3-0.3-0.2-0.3-0.2-0.2-0.3-1-0.5-1-0.5-0.2-0.3-0.3-0.2-0.3-0.2q-0.2-0.3-4.2-2.8l-4-2.5-0.2-0.3-0.3-0.2-0.5 2.5q-0.5 2.5-1.2 4.5-0.8 2-1.8 2.2-1 0.3-6 0.8l-5 0.5-1-0.5-1-0.5-1-0.3-1-0.2-0.2-1q-0.3-1-0.3-9t-4.3-12.2q-4.2-4.3-11.4-10-7.3-5.8-33.6-2.6l-26.2 3.3-2 0.5-2 0.5 0.2 0.3 0.3 0.2 0.3 0.2 0.2 0.3 0.2 0.3 0.3 0.2 0.3 0.2 0.2 0.3 0.2 0.3 0.3 0.2 0.5 1 0.5 1 0.3 0.2 0.2 0.3 0.2 0.3 0.3 0.2 11.5 11q11.5 11 11.8 12l0.2 1 1 0.2 1 0.3 0.2 0.3 0.3 0.2 0.3 1 0.2 1-1-0.2-1-0.3h-2l0.2 0.3 0.3 0.2 0.3 0.2 0.2 0.3h-2l-0.2-0.3-0.3-0.2-0.3-0.2-0.2-0.3-0.2-0.3-0.3-0.2-0.3 1-0.2 1-1-0.2q-1-0.3-15-15.3t-24.5-26.3q-10.5-11.2-11.5-11.4-1-0.3-10-9.6l-9-9.2-0.2-0.5-0.3-0.5-0.3-0.2-0.2-0.3-0.2-0.3-0.3-0.2-0.3-0.2-0.2-0.3-0.2-0.3-0.3-0.2-0.3-0.2-0.2-0.3-0.2-0.3-0.3-0.2-0.3-0.2-0.2-0.3-0.2-0.3-0.3-0.2-0.3-0.2-0.2-0.3-0.2-0.3-0.3-0.2-0.3-0.2-0.2-0.3-0.2-0.3q-0.3-0.2-2-2-1.8-1.7-12.3-13-10.5-11.2-11.5-11.2t-5.2-5q-4.3-5-36-37.2-31.8-32.3-44.3-38.3t-21.3-12.3q-8.7-6.2-15.4-15.2l-6.8-9-0.2-1-0.3-1-0.5-1-0.5-1-0.3-0.2-0.2-0.3v-0.5l1-3.8q1-3.7 2.5-5.2t3-1.8l1.5-0.2-0.2-1q-0.3-1-19.6-27l-19.2-26-0.2-0.5q-0.3-0.5-19.3-27l-19-26.5-0.3-0.2-0.2-0.3-0.2-0.3-0.3-0.2-0.5-1-0.5-1-0.3-0.2-0.2-0.3-0.2-0.3-0.3-0.2-0.5-1-0.5-1h-0.5l-0.2-0.5q-0.3-0.5-8.3-11.5l-8-11-0.3-0.2-0.2-0.3-0.2-0.3q-0.3-0.2-1-1.7-0.8-1.5-1.8-1.7-1-0.3-1.5-1.6zm349.5 334.8l-3 0.5-3.5 0.5q-3.5 0.5-24 3.2-20.5 2.8-27.7-5.2-7.3-8-6-8.8 1.2-0.7-0.8-1.2l-2-0.5-0.2-0.3-0.3-0.2-0.3-0.2-0.2-0.3-0.2-0.3-0.3-0.2-0.3-0.2-0.2-0.3-0.2-0.3-0.3-0.2-0.3-0.2-0.2-0.3-0.2-0.3-0.3-0.2-0.3-0.2-0.2-0.3 0.2-0.3 0.3-0.2 0.3-0.2 0.2-0.3 26.5-1q26.5-1 28.5-0.3 2 0.8 2 1.8t6.8 6q6.7 5 9 6.8 2.2 1.7 1.2 2.2t-4 1zm-20 41q0-1 1-1h1v1q0 1-1 1t-1-1z" fill="#070302" stroke="#070302"/>
  <path d="m843 778.2l1-0.2 0.2-1 0.3-1v-1.5q0-1.5-2.5-7.5t-47.5-56.5l-45-50.5-0.3-0.2-0.2-0.3-0.2-0.3-0.3-0.2-0.3-0.2-0.2-0.3-0.2-0.3-0.3-0.2-0.3-0.2-0.2-0.3-0.2-0.3-0.3-0.2-0.3-0.2-0.2-0.3-0.2-0.3-0.3-0.2-0.3-0.2-0.2-0.3-0.2-0.3-0.3-0.2-0.5 2.5-0.5 2.5h-0.5l-0.2-0.5-0.3-0.5v-3l0.5-3 0.5-3 0.5-1.5 0.5-1.5 0.5-1.5 0.5-1.5 0.5-1 0.5-1h0.5l-0.2 2-0.3 2v2l0.3 0.2 0.2 0.3 0.2 0.3 0.3 0.2 0.3 0.2q0.2 0.3 45.7 50.8t50.3 58.2q4.7 7.8 5.7 13.8t0 8-6.7 4.8q-5.8 2.7-17.8 3.2t-29-4.5-31-11.5-31-18-24.2-18.8q-7.3-7.2-23.6-25.2-16.2-18-17.2-18.2-1-0.3-61.2-65.6-60.3-65.2-71-76-10.8-10.7-19.3-16.2t-16.5-7-8.8 0.8l-0.7 2.2-0.5 1.5-0.5 1.5-0.5 1.5-0.5 1.5-0.5-1-0.5-1h-0.5l0.2-0.5 0.3-0.5 0.5-2 0.5-2 0.5-3q0.5-3 0.8-4l0.2-1 1-1.2q1-1.3 11 1.7t16 6.5 7 4.5 9.2 8.3q8.3 7.2 23 23.7 14.8 16.5 18.6 20 3.7 3.5 71.4 76.3 67.8 72.7 84.3 84.7t33.5 20 33 12.5 26 4 13.5-2 4.5-1.8z" fill="#070303" stroke="#070303"/>
  <path d="m729.2 382l-0.2-1 1 0.2 1 0.3 1.5 0.5 1.5 0.5 18 5.5q18 5.5 19.5 6l1.5 0.5 1.5 0.5 1.5 0.5 0.5 0.3 0.5 0.2v0.5l-12 0.5q-12 0.5-15 1t-9.5 3l-6.5 2.5-0.2 0.3-0.3 0.2-0.3 0.2-0.2 0.3-1 0.3-1 0.2-0.2-9.5q-0.3-9.5-0.8-11l-0.5-1.5-0.3-1z" fill="#f9ed05" stroke="#f9ed05"/>
  <path d="m501.2 294l-0.2-1 10.2 13.5q10.3 13.5 12.6 22.7 2.2 9.3 3.7 12 1.5 2.8 8.3 4.3 6.7 1.5 59.2 55t52.8 54.5q0.2 1 4 4.5 3.7 3.5 72 73.3 68.2 69.7 84.2 80.2t18 11.5 3 1.5l1 0.5 1 0.5 1 0.5 1 0.5 1 0.5 1.5 0.3 1.5 0.2v0.2q0 0.3 0.5 0.6l0.5 0.2 15 5.8q15 5.7 20.5 6.7t11 1.3l5.5 0.2 3-0.2q3-0.3 5.5-0.8l2.5-0.5 1-0.5 1-0.5 1-0.5q1-0.5 2-0.8l1-0.2 0.2-1q0.3-1 0.3-6t-3.7-12.5l-3.8-7.5-0.2-1-0.3-1-0.3-0.2-0.2-0.3-0.2-0.3-0.3-0.2-0.3-0.2-0.2-0.3-0.2-0.3-0.3-0.2-0.3-0.2-0.2-0.3-0.2-0.3-0.3-0.2-0.3-0.2-0.2-0.3-0.2-0.3-0.3-0.2-0.5-1q-0.5-1-25.2-26.8l-24.8-25.7-0.2-0.3-0.3-0.2-0.3-0.2-0.2-0.3v-0.5l-0.2-0.5-0.3-0.5h-0.5l-0.2-0.5-0.3-0.5h-0.5l0.2-1 0.3-1 0.3 0.2 0.2 0.3 0.2 0.3 0.3 0.2 0.3 0.2 0.2 0.3 0.2 0.3 0.3 0.2 0.3 0.2 0.2 0.3 0.2 0.3 0.3 0.2 0.3 0.2 0.2 0.3h2l-0.2-0.3-0.3-0.2-0.3-0.2-0.2-0.3-0.2-0.3-0.3-0.2-0.5-1-0.5-1-0.3-0.2-0.2-0.3-0.2-0.3-0.3-0.2-0.3-0.2-0.2-0.3 1-0.3 1-0.2v0.5l0.5 0.3 0.5 0.2v0.5l0.2 0.3 0.3 0.2 0.3 0.2 0.2 0.3 0.5 0.3 0.5 0.2v0.5l0.5 0.3 0.5 0.2v0.2q0 0.3 0.5 0.6l0.5 0.2h0.2q0.3 0 0.6 1 0.2 1 1.2 1.2 1 0.3 24.8 25.6 23.7 25.2 29.2 34.7t6 18-0.5 10.5-5.7 4.2q-4.8 2.3-18.8 2.8t-27-3.5-31-13-28.5-16-20-16l-9.5-9-0.2-0.3-0.3-0.2-0.3-0.2-0.2-0.3-0.2-0.3-0.3-0.2-0.3-0.2-0.2-0.3h-2l-0.2 0.3-0.3 0.2-0.3 0.2-0.2 0.3-0.2 0.3-0.3 0.2-0.5 1-0.5 1-1.5 3q-1.5 3-2 4l-0.5 1-0.3 1.5-0.2 1.5-0.2 0.5-0.3 0.5h-0.5v2h-0.5v-4l0.5-1.5 0.5-1.5 0.5-1.5q0.5-1.5 3-7t-3-11l-5.5-5.5-0.3-0.2-0.2-0.3-0.2-0.3-0.3-0.2-0.3-0.2-0.2-0.3-0.2-0.3-0.3-0.2-0.3-0.2-0.2-0.3-0.2-0.3-0.3-0.2-0.3-0.2-0.2-0.3-0.2-0.3-0.3-0.2-0.3-1-0.2-1h-2l0.2 1 0.3 1 0.5 1 0.5 1 0.5 1.5q0.5 1.5 0.5 5.5v4h-0.5l-0.2-3-0.3-3-4.5-9q-4.5-9-18.2-23.2-13.8-14.3-19.8-12.8t-16.2 9.8q-10.3 8.2-17.3 14.7t-6.3 8.7q0.8 2.3 31 32.6 30.3 30.2 30.6 30.4l0.2 0.3 0.2 0.3 0.3 0.2 0.3 0.2 0.2 0.3 0.2 0.3 0.3 0.2 0.3 0.2 0.2 0.3 0.2 0.3 0.3 0.2 0.3 0.2 0.2 0.3 1 0.3 1 0.2 0.2-1.5 0.3-1.5 0.5-1.5 0.5-1.5 0.5-1.5 0.5-1.5 0.3-0.5 0.2-0.5h0.5v3l-0.5 1.5-0.5 1.5-0.5 1.5-0.5 1.5-1 3.5q-1 3.5-1.5 4.5l-0.5 1-0.5 2-0.5 2-0.3 1-0.2 1-0.2 0.5-0.3 0.5h-1v-2l0.5-1.5 0.5-1.5v-1.5q0-1.5-35.3-37.3-35.2-35.7-36-38-0.7-2.2 7.6-10.4 8.2-8.3 19.2-17.3t15.5-10.7l4.5-1.8-0.2-1-0.3-1-0.3-0.2-0.2-0.3-0.2-0.3-0.3-0.2-0.3-0.2-0.2-0.3-0.2-0.3-0.3-0.2-0.3-0.2q-0.2-0.3-12.2-12.8t-19.5-13.5l-7.5-1v-0.5h11l-0.2-1-0.3-1-0.3-0.2-0.2-0.3-0.2-0.3-0.3-0.2-0.3-0.2-0.2-0.3-0.2-0.3-0.3-0.2-0.3-0.2-0.2-0.3-0.2-0.3-0.3-0.2-0.3-0.2-0.2-0.3-0.2-0.3-0.3-0.2-0.3-0.2-0.2-0.3-1-0.5-1-0.5-2-0.5q-2-0.5-66.5-6.5l-64.5-6-2.5-0.3-2.5-0.2v-0.5l1.5-0.5 1.5-0.5 1-0.5 1-0.5v-0.5l54.5 3.8q54.5 3.7 58 3.7h3.5l4-0.5 4-0.5-0.2-0.3-0.3-0.2-0.3-0.2-0.2-0.3-0.2-0.3-0.3-0.2-0.3-0.2-0.2-0.3-0.2-0.3-0.3-0.2-0.3-0.2-0.2-0.3-0.2-0.3-0.3-0.2-0.3-0.2-0.2-0.3-0.2-0.3-0.3-0.2-0.3-0.2-0.2-0.3-0.2-0.3-0.3-0.2-0.3-0.2-0.2-0.3-0.2-0.3-0.3-0.2-0.3-0.2-0.2-0.3-0.2-0.3-0.3-0.2-0.3-0.2q-0.2-0.3-2.2-1l-2-0.8v-0.5l0.2-0.3 0.3-0.2v-2l-0.3-0.2-0.2-0.3-0.2-0.3-0.3-0.2-0.3-0.2-0.2-0.3-0.2-0.3-0.3-0.2-0.3-0.2-0.2-0.3-0.2-0.3-0.3-0.2-0.3-0.2-0.2-0.3-0.2-0.3-0.3-0.2-0.3-0.2-0.2-0.3-0.2-0.3q-0.3-0.2-46.3-47.7t-58.7-49.7l-12.8-2.3-1.5-0.3-1.5-0.2v-0.5l-2-0.5-2-0.5 2-0.3 2-0.2v-2h10l3.5 0.2 3.5 0.3h2l-0.2-0.3-0.3-0.2-0.3-0.2-0.2-0.3-0.2-0.3-0.3-0.2-0.3-0.2-0.2-0.3-0.2-0.3-0.3-0.2-0.3-1-0.2-1-3.5-0.2q-3.5-0.3-6.5-0.6-3-0.2-6-5-3-4.7-5.2-14-2.3-9.2-10-19.4l-7.8-10.3-0.2-0.3-0.3-0.2-0.5-1-0.5-1-0.3-0.2-0.2-0.3-0.2-0.3-0.3-0.2-0.3-0.2-0.2-0.3-0.2-0.3-0.3-0.2-0.3-0.2-0.2-0.3-0.2-0.3-0.3-0.2-0.3-1-0.2-1 1 0.2 1 0.3 0.2 0.3 0.3 0.2 0.3 0.2 0.2 0.3 0.2 0.3 0.3 0.2 0.5 1 0.5 1 0.3 0.2 0.2 0.3 0.2 0.3 0.3 0.2 0.3 0.2 0.2 0.3 0.2 0.3 0.3 0.2 0.3 0.2 0.2 0.3 0.2 0.3 0.3 0.2 0.3 0.2 0.2 0.3 0.2 0.3 0.3 0.2v-4l-0.3-0.2-0.2-0.3-0.2-0.3-0.3-0.2-0.5-1-0.5-1-0.3-1z" fill="#050302" stroke="#050302"/>
  <path d="m331.8 427.8l0.2-0.3 7 1q7 1 7 1.3v0.2l0.2 2 0.3 2 0.3-0.2 0.2-0.3 0.2-0.3 0.3-0.2 3.5 5q3.5 5 18.8 19.8 15.2 14.7 17.2 16.2t3 1.8l1 0.2h0.5l0.3 0.5 0.2 0.5h1.5l0.3 0.5 0.2 0.5h1.5l0.3 0.5 0.2 0.5v0.2q0 0.3-4-0.7l-4-1 0.2 0.3 0.3 0.2 0.3 0.2 0.2 0.3 0.2 0.3 0.3 0.2 0.3 0.2 0.2 0.3 0.2 0.3 0.3 0.2 0.3 0.2 0.2 0.3 0.2 0.3 0.3 0.2 0.3 0.2 0.2 0.3 0.2 0.3 0.3 0.2 0.5 1 0.5 1 0.3 0.2 0.2 0.3 3 3q3 3 7.5 3.3l4.5 0.2v0.5l-3.5 0.5-3.5 0.5 0.2 0.3 0.3 0.2 0.3 0.2 0.2 0.3 0.2 0.3 0.3 0.2 0.3 0.2 0.2 0.3 0.2 0.3 0.3 0.2 0.3 0.2 0.2 0.3 0.2 0.3 0.3 0.2 0.3 0.2 0.2 0.3 0.2 0.3 0.3 0.2 0.3 0.2 0.2 0.3 13.5 7.5q13.5 7.5 16.5 8.5t6.5-0.5 8-1.8q4.5-0.2 5-3.7t3-3.3q2.5 0.3 1.5 0.8t14 7.5 15.2 7.3q0.3 0.2 0.6 0.7l0.2 0.5-0.2 1q-0.3 1-0.8 4l-0.5 3-0.5 2-0.5 2-0.3 0.5-0.2 0.5-0.8 4q-0.7 4-1 5.5l-0.2 1.5-0.8 2q-0.7 2-1.2 4l-0.5 2-0.3 1.5-0.2 1.5-1-0.2-1-0.3-0.2-0.3-0.3-0.2-0.3-0.2-0.2-0.3-0.2-0.3-0.3-0.2-0.3-0.2-0.2-0.3-0.2-0.3-0.3-0.2-0.3-0.2q-0.2-0.3-1.2-0.8t-5.5-0.8q-4.5-0.2-4.7-1.7-0.3-1.5-2-5.5l-1.8-4-0.2-0.5q-0.3-0.5-3-11.3l-2.8-10.7h-4q-4 0-5.5 1t-6 1.5-17.5-6-20.5-12.5-11-4.7l-3.5 1.2v0.5l-0.5 0.3-0.5 0.2v0.5l-1 0.3-1 0.2 0.2-1 0.3-1 0.3-0.2 0.2-0.3 1.5-0.5q1.5-0.5 2.5-1l1-0.5 0.2-0.3 0.3-0.2 0.3-0.2 0.2-0.3 0.2-0.3 0.3-0.2 0.3-0.2 0.2-0.3-0.2-0.3-0.3-0.2-0.3-0.2-0.2-0.3-0.2-0.3-0.3-0.2-0.3-0.2-0.2-0.3-0.2-0.3q-0.3-0.2-7.6-8.4-7.2-8.3-9.7-7.3l-2.5 1-1 0.5-1 0.5-1 0.3-1 0.2v-2l1.5-0.2 1.5-0.3 1-0.5q1-0.5 1.2-0.8l0.3-0.2 0.3-0.2 0.2-0.3 0.2-0.3 0.3-0.2 0.3-0.2 0.2-0.3-0.2-0.3-0.3-0.2-0.3-0.2-0.2-0.3-0.2-0.3-0.3-0.2-0.3-0.2-0.2-0.3-0.2-0.3-0.3-0.2-0.3-0.2-0.2-0.3-0.2-0.3-0.3-0.2-0.3-0.2-0.2-0.3h-1.5q-1.5 0-3.5 1l-2 1-1 0.5-1 0.5h-3l0.2-0.3 0.3-0.2 0.3-0.2 0.2-0.3 1-0.5 1-0.5 2-1q2-1 3-1.3l1-0.2-0.2-1-0.3-1-0.3-0.2-0.2-0.3-0.2-0.3-0.3-0.2-0.3-0.2-0.2-0.3-0.2-0.3-0.3-0.2-0.3-0.2q-0.2-0.3-5.2-3l-5-2.8 2-0.2 2-0.3-0.2-0.3-0.3-0.2-0.3-0.2-0.2-0.3-0.2-0.3-0.3-0.2-0.3-0.2-0.2-0.3-0.2-0.3-0.3-0.2-0.3-0.2-0.2-0.3-0.2-0.3-0.3-0.2-0.3-0.2-0.2-0.3-0.2-0.3-0.3-0.2-0.3-0.2-0.2-0.3-0.2-0.3-0.3-0.2-0.3-0.2q-0.2-0.3-5.7-6.3t-3.5-6.5l2-0.5h-3q-3 0-7-0.5l-4-0.5-0.2-0.3-0.3-0.2-0.3-0.2-0.2-0.3-0.2-0.3-0.3-0.2-0.3-0.2-0.2-0.3-0.2-0.3-0.3-0.2-0.3-0.2-0.2-0.3-0.2-0.3-0.3-0.2v-1.5q0-1.5 0.3-1.5h0.2l0.5 0.2q0.5 0.3 0.5 0v-0.2l0.2-0.5 0.3-0.5 0.3-0.2 0.2-0.3 0.2-0.3 0.3-0.2 0.3-0.2zm125.4 80.4q0.3-0.2 0.6 0 0.2 0.3-0.3 0.3t-0.3-0.3z" fill="#7f7f7f" stroke="#7f7f7f"/>
  <path d="m606 331l2-0.5 2-0.3 2-0.2 6.8 9q6.7 9 15.4 15.2 8.8 6.3 21.3 12.3t44.3 38.3q31.7 32.2 36 37.2 4.2 5 5.2 5t11.5 11.2q10.5 11.3 12.3 13 1.7 1.8 2 2l0.2 0.3 0.2 0.3 0.3 0.2 0.3 0.2 0.2 0.3 0.2 0.3 0.3 0.2 0.3 0.2 0.2 0.3 0.2 0.3 0.3 0.2 0.3 0.2 0.2 0.3 0.2 0.3 0.3 0.2 0.3 0.2 0.2 0.3 0.2 0.3 0.3 0.2 0.3 0.2 0.2 0.3 0.2 0.3 0.3 0.2 0.3 0.5 0.2 0.5-0.5 0.2-0.5 0.3-0.2 0.3-0.3 0.2-0.3-0.2-0.2-0.3-0.2-0.3-0.3-0.2-0.3-0.2-0.2-0.3-0.2-0.3-0.3-0.2-0.3-0.2-0.2-0.3-1-0.5-1-0.5-0.2-0.3-0.3-0.2-0.3-0.2-0.2-0.3-1-0.5q-1-0.5-13.5-10t-41-31.5-52-39-49.5-35l-26-18-1-0.5-1-0.5-0.2-0.3-0.3-0.2-0.3-0.2-0.2-0.3v-0.5h2l0.2-1 0.3-1 0.3-1 0.2-1 1 0.2 1 0.3 9.5-2.5q9.5-2.5 11.5-3z" fill="#aa7d44" stroke="#aa7d44"/>
 </g>
</svg>
