<?xml version="1.0" encoding="UTF-8"?>
<svg viewBox="0 0 128 128" xmlns="http://www.w3.org/2000/svg">
 <defs>
  <filter id="g" x="0" y="0" width="1" height="1">
   <feGaussianBlur result="fbSourceGraphic" stdDeviation="4.72139"/>
   <feColorMatrix in="fbSourceGraphic" result="fbSourceGraphicAlpha" values="0 0 0 -1 0 0 0 0 -1 0 0 0 0 -1 0 0 0 0 1 0"/>
   <feColorMatrix in="fbSourceGraphic" result="result1" type="saturate" values="0"/>
   <feFlood flood-color="#096f98" result="result2"/>
   <feBlend in2="result1" mode="screen" result="result2"/>
   <feComposite in="result2" in2="fbSourceGraphic" operator="in"/>
  </filter>
  <filter id="a" x="0" y="0" width="1" height="1">
   <feGaussianBlur result="fbSourceGraphic" stdDeviation="1.35071"/>
   <feColorMatrix in="fbSourceGraphic" result="fbSourceGraphicAlpha" values="0 0 0 -1 0 0 0 0 -1 0 0 0 0 -1 0 0 0 0 1 0"/>
   <feColorMatrix in="fbSourceGraphic" result="result1" type="saturate" values="0"/>
   <feFlood flood-color="#096f98" result="result2"/>
   <feBlend in2="result1" mode="screen" result="result2"/>
   <feComposite in="result2" in2="fbSourceGraphic" operator="in"/>
  </filter>
  <filter id="b" x="0" y="0" width="1" height="1">
   <feGaussianBlur result="fbSourceGraphic" stdDeviation="4.17128"/>
   <feColorMatrix in="fbSourceGraphic" result="fbSourceGraphicAlpha" values="0 0 0 -1 0 0 0 0 -1 0 0 0 0 -1 0 0 0 0 1 0"/>
   <feColorMatrix in="fbSourceGraphic" result="result1" type="saturate" values="0"/>
   <feFlood flood-color="#096f98" result="result2"/>
   <feBlend in2="result1" mode="screen" result="result2"/>
   <feComposite in="result2" in2="fbSourceGraphic" operator="in"/>
  </filter>
  <linearGradient id="f" x1="601.92" x2="604.1" y1="92.279" y2="97.274" gradientUnits="userSpaceOnUse">
   <stop stop-color="#ffc022" offset="0"/>
   <stop stop-color="#dc0000" offset="1"/>
  </linearGradient>
  <linearGradient id="e" x1="60.578" x2="58.044" y1="1017.6" y2="995.84" gradientUnits="userSpaceOnUse">
   <stop stop-color="#dc0000" offset="0"/>
   <stop stop-color="#009100" offset="1"/>
  </linearGradient>
  <linearGradient id="d" x1="61.339" x2="61.085" y1="984.94" y2="990.01" gradientUnits="userSpaceOnUse">
   <stop stop-color="#ffc022" offset="0"/>
   <stop stop-color="#f60" offset="1"/>
  </linearGradient>
  <radialGradient id="c" cx="39.396" cy="69.485" r="132.11" gradientTransform="matrix(-1.0093 -.77228 .53798 -.7031 41.778 146.67)" gradientUnits="userSpaceOnUse">
   <stop stop-color="#f60" offset="0"/>
   <stop stop-color="#b50000" offset="1"/>
  </radialGradient>
 </defs>
 <g transform="translate(0 -924.36)">
  <path d="m60.442 1024.5-0.0069-36.993" fill="url(#e)" stroke="#b50b0b" stroke-width="1.5"/>
  <path transform="matrix(.25 0 0 .25 53.016 946.55)" d="m164.65 51.228a130.31 115.16 0 1 1 -260.62 0 130.31 115.16 0 1 1 260.62 0z" fill="url(#c)" stroke="#7c2600" stroke-linecap="round" stroke-width="2"/>
  <g transform="matrix(.25 0 0 .25 57.688 715.2)" fill="#804d00" filter="url(#g)" opacity=".73659">
   <path transform="translate(0 924.36)" d="m40.406-65.949c52.523 102.05 11.725 166.83-12.122 232.34 20.036-74.916 34.632-151.05 12.122-232.34z"/>
   <path d="m-17.248 869.58c-65.083 96.244-14.529 157.33 15.021 219.11-24.828-70.652-42.913-142.45-15.021-219.11z"/>
   <path d="m163.77 975.84c-123.71 26.823-223.28 9.9134-260.02 2.0416 70.652 13.822 183.36 13.487 260.02-2.0416z"/>
   <path d="m163.77 998.07c-125.54 43.608-219.51 16.391-255.48 4.1723 70.652 24.828 178.82 23.72 255.48-4.1723z"/>
   <path d="m147.62 1032.9c-109.42 47.358-191.32 17.801-222.68 4.531 61.581 26.963 155.86 25.76 222.68-4.531z"/>
   <path d="m164.79 968.38c-123.73-25.463-223.32-9.4105-260.06-1.938 70.661-13.121 183.39-12.803 260.06 1.938z"/>
   <path d="m164.79 951.7c-125.55-40.724-219.54-15.307-255.51-3.8963 70.661-23.185 178.84-22.151 255.51 3.8963z"/>
   <path d="m148.64 919.17c-109.43-44.225-191.35-16.623-222.71-4.2313 61.589-25.179 155.88-24.056 222.71 4.2313z"/>
  </g>
  <g transform="matrix(.2254 0 0 .25156 56.064 713.4)" fill="#b50000" opacity=".62927" stroke="#ec8310" stroke-width=".5">
   <path transform="translate(0 924.36)" d="m40.406-65.949c52.523 102.05 11.725 166.83-12.122 232.34 20.036-74.916 34.632-151.05 12.122-232.34z"/>
   <path d="m-17.248 869.58c-65.083 96.244-14.529 157.33 15.021 219.11-24.828-70.652-42.913-142.45-15.021-219.11z"/>
   <path d="m163.77 975.84c-123.71 26.823-223.28 9.9134-260.02 2.0416 70.652 13.822 183.36 13.487 260.02-2.0416z"/>
   <path d="m163.77 998.07c-125.54 43.608-219.51 16.391-255.48 4.1723 70.652 24.828 178.82 23.72 255.48-4.1723z"/>
   <path d="m147.62 1032.9c-109.42 47.358-191.32 17.801-222.68 4.531 61.581 26.963 155.86 25.76 222.68-4.531z"/>
   <path d="m164.79 968.38c-123.73-25.463-223.32-9.4105-260.06-1.938 70.661-13.121 183.39-12.803 260.06 1.938z"/>
   <path d="m164.79 951.7c-125.55-40.724-219.54-15.307-255.51-3.8963 70.661-23.185 178.84-22.151 255.51 3.8963z"/>
   <path d="m148.64 919.17c-109.43-44.225-191.35-16.623-222.71-4.2313 61.589-25.179 155.88-24.056 222.71 4.2313z"/>
  </g>
  <path d="m50.505 1000.2c-1.1038-12.224 0.44153-11.685 0.44153-11.685z" fill="none" stroke="#f2c005" stroke-width=".56346"/>
  <path d="m51.609 1000.2c-1.1038-12.224 0.44153-11.685 0.44153-11.685z" fill="none" stroke="#f2c005" stroke-width=".56346"/>
  <path d="m53.003 1000.2c-1.1038-12.224 0.44153-11.685 0.44153-11.685z" fill="none" stroke="#f2c005" stroke-width=".56346"/>
  <path d="m54.107 1000.2c-1.1038-12.224 0.44153-11.685 0.44153-11.685z" fill="none" stroke="#f2c005" stroke-width=".56346"/>
  <path d="m55.5 1000.2c-1.1038-12.224 0.44153-11.685 0.44153-11.685z" fill="none" stroke="#f2c005" stroke-width=".56346"/>
  <path d="m56.604 1000.2c-1.1038-12.224 0.44153-11.685 0.44153-11.685z" fill="none" stroke="#f2c005" stroke-width=".56346"/>
  <path d="m56.749 1000.2c-1.1038-12.224 0.44153-11.685 0.44153-11.685z" fill="none" stroke="#f2c005" stroke-width=".56346"/>
  <path d="m57.853 1000.2c-1.1038-12.224 0.44153-11.685 0.44153-11.685z" fill="none" stroke="#f2c005" stroke-width=".56346"/>
  <path d="m57.998 1000.2c-1.1038-12.224 0.44153-11.685 0.44153-11.685z" fill="none" stroke="#f2c005" stroke-width=".56346"/>
  <path d="m59.102 1000.2c-1.1038-12.224 0.44153-11.685 0.44153-11.685z" fill="none" stroke="#f2c005" stroke-width=".56346"/>
  <path d="m60.496 1000.2c-1.1038-12.224 0.44153-11.685 0.44153-11.685z" fill="none" stroke="#f2c005" stroke-width=".56346"/>
  <path d="m61.599 1000.2c-1.1038-12.224 0.44153-11.685 0.44153-11.685z" fill="none" stroke="#f2c005" stroke-width=".56346"/>
  <path d="m61.744 1000.2c-1.1038-12.224 0.44153-11.685 0.44153-11.685z" fill="none" stroke="#f2c005" stroke-width=".56346"/>
  <path d="m62.848 1000.2c-1.1038-12.224 0.44153-11.685 0.44153-11.685z" fill="none" stroke="#f1a406" stroke-width=".56346"/>
  <path d="m64.242 1000.2c-1.1038-12.224 0.44153-11.685 0.44153-11.685z" fill="none" stroke="#f1a406" stroke-width=".56346"/>
  <path d="m65.346 1000.2c-1.1038-12.224 0.44153-11.685 0.44153-11.685z" fill="none" stroke="#f1a406" stroke-width=".56346"/>
  <path d="m66.74 1000.2c-1.1038-12.224 0.44153-11.685 0.44153-11.685z" fill="none" stroke="#f1a406" stroke-width=".56346"/>
  <path d="m67.844 1000.2c-1.1038-12.224 0.44153-11.685 0.44153-11.685z" fill="none" stroke="#f1a406" stroke-width=".56346"/>
  <path d="m67.989 1000.2c-1.1038-12.224 0.44153-11.685 0.44153-11.685z" fill="none" stroke="#f1a406" stroke-width=".56346"/>
  <path d="m69.092 1000.2c-1.1038-12.224 0.44153-11.685 0.44153-11.685z" fill="none" stroke="#f1a406" stroke-width=".56346"/>
  <path d="m69.132 1000.9c-0.88268-12.534 0.35307-12.386 0.35307-12.386z" fill="none" stroke="#f1a406" stroke-width=".51626"/>
  <path d="m70.014 1000.6c-0.88269-12.534 0.35308-12.386 0.35308-12.386z" fill="none" stroke="#e4860b" stroke-width=".51626"/>
  <path transform="matrix(.69731 0 0 .86263 -359.9 941.84)" d="m608.82 95.12a5.4801 4.5962 0 1 1 -10.96 0 5.4801 4.5962 0 1 1 10.96 0z" fill="url(#f)" stroke="#ff643b" stroke-linecap="round" stroke-width=".50027"/>
  <path d="m42.729 983.02s7.0857-2.1991 10.846-2.0343c1.2914 0.057 2.246 0.9797 3.5392 1.0172 1.046 0.03 1.966-0.8466 2.9683-0.6539 0.9618 0.1848 1.8267 1.5257 1.8267 1.5257z" fill="#f90"/>
  <path d="m81.089 982.95s-7.0857-2.1992-10.846-2.0343c-1.2914 0.057-2.246 0.9797-3.5392 1.0171-1.046 0.03-1.966-0.8465-2.9683-0.6539-0.9618 0.1848-1.8267 1.5258-1.8267 1.5258z" fill="#ffc022"/>
  <path transform="matrix(.32291 0 0 .32471 -170.88 946.28)" d="m704.99 109.97-4.9754-1.0659 1.0079 4.9875-2.7644-4.2719-2.814 4.2394 1.0659-4.9754-4.9875 1.0079 4.2719-2.7644-4.2394-2.814 4.9754 1.0659-1.0079-4.9875 2.7644 4.2719 2.814-4.2394-1.0659 4.9754 4.9875-1.0079-4.2719 2.7644z" fill="#ffc022"/>
  <path transform="matrix(.32291 0 0 .32471 -156.26 946.05)" d="m704.99 109.97-4.9754-1.0659 1.0079 4.9875-2.7644-4.2719-2.814 4.2394 1.0659-4.9754-4.9875 1.0079 4.2719-2.7644-4.2394-2.814 4.9754 1.0659-1.0079-4.9875 2.7644 4.2719 2.814-4.2394-1.0659 4.9754 4.9875-1.0079-4.2719 2.7644z" fill="#ffc022"/>
  <path transform="matrix(.32291 0 0 .32471 -168.94 949.84)" d="m718.42 98.655c-3.2736 4.464-1.0143-7.3895-5.2611-3.8386s7.8195 3.4264 2.8463 5.8577 2.536-7.0145-2.8746-5.8439 5.3315 6.6678-0.20194 6.5095 5.5053-5.0325 0.17048-6.5104 1.6222 8.3817-3.2039 5.67 7.2134-1.8976 3.1765-5.6855-2.4588 8.1755-5.4719 3.5316 7.269 1.672 5.4548-3.558-5.9765 6.0964-6.4864 0.58416 5.6594 4.8586 6.4835-0.61551-8.1251 2.6206-6.0149-2.4971 2.7532 6.9321 6.0269 2.468-8.4123-1.4554-4.1654-5.0064-0.78362 7.4175 4.1896 4.9862-6.7723-5.1981-1.3618-6.3687-4.141 6.2037 1.3925 6.362-3.5809-7.75 1.7539-6.272-6.5497 3.5687-1.7236 6.2804 0.43085-8.5264 4.4678-4.7385-7.4579 0.11618-4.4448 4.7601 4.3439-7.3495 6.1581-2.1195-6.6576-3.363-6.1478 2.1492 7.2618-4.489 6.4377 0.98511-4.3322-6.0718-6.4424-0.95398 8.5161-0.60003 5.2425 3.864z" fill="#ffc022"/>
  <path transform="matrix(-.951 0 0 .66281 110.07 331.84)" d="m59.935 1025 0.5-37.5" fill="#b50000" filter="url(#a)" opacity=".07805" stroke="#b50b0b" stroke-width=".6"/>
  <path transform="matrix(.76294 0 0 .76294 14.277 234.21)" d="m47.485 1004c-1.4468-16.023 0.57872-15.316 0.57872-15.316z" fill="#b50000" filter="url(#a)" opacity=".07805" stroke="#f2c005" stroke-width=".73855"/>
  <path transform="matrix(.76294 0 0 .76294 14.277 234.21)" d="m48.931 1004c-1.4468-16.023 0.57873-15.316 0.57873-15.316z" fill="#b50000" filter="url(#a)" opacity=".07805" stroke="#f2c005" stroke-width=".73855"/>
  <path transform="matrix(.76294 0 0 .76294 14.277 234.21)" d="m50.758 1004c-1.4468-16.023 0.57872-15.316 0.57872-15.316z" fill="#b50000" filter="url(#a)" opacity=".07805" stroke="#f2c005" stroke-width=".73855"/>
  <path transform="matrix(.76294 0 0 .76294 14.277 234.21)" d="m52.205 1004c-1.4468-16.023 0.57872-15.316 0.57872-15.316z" fill="#b50000" filter="url(#a)" opacity=".07805" stroke="#f2c005" stroke-width=".73855"/>
  <path transform="matrix(.76294 0 0 .76294 14.277 234.21)" d="m54.032 1004c-1.4468-16.023 0.57872-15.316 0.57872-15.316z" fill="#b50000" filter="url(#a)" opacity=".07805" stroke="#f2c005" stroke-width=".73855"/>
  <path transform="matrix(.76294 0 0 .76294 14.277 234.21)" d="m55.479 1004c-1.4468-16.023 0.57872-15.316 0.57872-15.316z" fill="#b50000" filter="url(#a)" opacity=".07805" stroke="#f2c005" stroke-width=".73855"/>
  <path transform="matrix(.76294 0 0 .76294 14.277 234.21)" d="m55.669 1004c-1.4468-16.023 0.57872-15.316 0.57872-15.316z" fill="#b50000" filter="url(#a)" opacity=".07805" stroke="#f2c005" stroke-width=".73855"/>
  <path transform="matrix(.76294 0 0 .76294 14.277 234.21)" d="m57.116 1004c-1.4468-16.023 0.57873-15.316 0.57873-15.316z" fill="#b50000" filter="url(#a)" opacity=".07805" stroke="#f2c005" stroke-width=".73855"/>
  <path transform="matrix(.76294 0 0 .76294 14.277 234.21)" d="m57.306 1004c-1.4468-16.023 0.57872-15.316 0.57872-15.316z" fill="#b50000" filter="url(#a)" opacity=".07805" stroke="#f2c005" stroke-width=".73855"/>
  <path transform="matrix(.76294 0 0 .76294 14.277 234.21)" d="m58.753 1004c-1.4468-16.023 0.57872-15.316 0.57872-15.316z" fill="#b50000" filter="url(#a)" opacity=".07805" stroke="#f2c005" stroke-width=".73855"/>
  <path transform="matrix(.76294 0 0 .76294 14.277 234.21)" d="m60.58 1004c-1.4468-16.023 0.57873-15.316 0.57873-15.316z" fill="#b50000" filter="url(#a)" opacity=".07805" stroke="#f2c005" stroke-width=".73855"/>
  <path transform="matrix(.76294 0 0 .76294 14.277 234.21)" d="m62.026 1004c-1.4468-16.023 0.57872-15.316 0.57872-15.316z" fill="#b50000" filter="url(#a)" opacity=".07805" stroke="#f2c005" stroke-width=".73855"/>
  <path transform="matrix(.76294 0 0 .76294 14.277 234.21)" d="m62.216 1004c-1.4468-16.023 0.57872-15.316 0.57872-15.316z" fill="#b50000" filter="url(#a)" opacity=".07805" stroke="#f2c005" stroke-width=".73855"/>
  <path transform="matrix(.76294 0 0 .76294 14.277 234.21)" d="m63.663 1004c-1.4468-16.023 0.57872-15.316 0.57872-15.316z" fill="#b50000" filter="url(#a)" opacity=".07805" stroke="#f1a406" stroke-width=".73855"/>
  <path transform="matrix(.76294 0 0 .76294 14.277 234.21)" d="m65.49 1004c-1.4468-16.023 0.57872-15.316 0.57872-15.316z" fill="#b50000" filter="url(#a)" opacity=".07805" stroke="#f1a406" stroke-width=".73855"/>
  <path transform="matrix(.76294 0 0 .76294 14.277 234.21)" d="m66.937 1004c-1.4468-16.023 0.57872-15.316 0.57872-15.316z" fill="#b50000" filter="url(#a)" opacity=".07805" stroke="#f1a406" stroke-width=".73855"/>
  <path transform="matrix(.76294 0 0 .76294 14.277 234.21)" d="m68.764 1004c-1.4468-16.023 0.57873-15.316 0.57873-15.316z" fill="#b50000" filter="url(#a)" opacity=".07805" stroke="#f1a406" stroke-width=".73855"/>
  <path transform="matrix(.76294 0 0 .76294 14.277 234.21)" d="m70.211 1004c-1.4468-16.023 0.57872-15.316 0.57872-15.316z" fill="#b50000" filter="url(#a)" opacity=".07805" stroke="#f1a406" stroke-width=".73855"/>
  <path transform="matrix(.76294 0 0 .76294 14.277 234.21)" d="m70.401 1004c-1.4468-16.023 0.57872-15.316 0.57872-15.316z" fill="#b50000" filter="url(#a)" opacity=".07805" stroke="#f1a406" stroke-width=".73855"/>
  <path transform="matrix(.76294 0 0 .76294 14.277 234.21)" d="m71.848 1004c-1.4468-16.023 0.57872-15.316 0.57872-15.316z" fill="#b50000" filter="url(#a)" opacity=".07805" stroke="#f1a406" stroke-width=".73855"/>
  <path d="m71.899 1005.6c-1.157-16.429 0.46278-16.235 0.46278-16.235z" fill="#b50000" filter="url(#a)" opacity=".07805" stroke="#f1a406" stroke-width=".67668"/>
  <path transform="matrix(.76294 0 0 .76294 14.277 234.21)" d="m73.056 1004.5c-1.157-16.429 0.46279-16.235 0.46279-16.235z" fill="#b50000" filter="url(#a)" opacity=".07805" stroke="#e4860b" stroke-width=".67668"/>
  <path d="m42.729 983.02s7.0857-2.1991 10.846-2.0343c1.2914 0.057 2.246 0.9797 3.5392 1.0172 1.046 0.03 1.966-0.8466 2.9683-0.6539 0.9618 0.1848 1.8267 1.5257 1.8267 1.5257z" fill="#b50000" filter="url(#a)" opacity=".07805"/>
  <path d="m81.089 982.95s-7.0857-2.1992-10.846-2.0343c-1.2914 0.057-2.246 0.9797-3.5392 1.0171-1.046 0.03-1.966-0.8465-2.9683-0.6539-0.9618 0.1848-1.8267 1.5258-1.8267 1.5258z" fill="#b50000" filter="url(#a)" opacity=".07805"/>
  <path transform="matrix(.32291 0 0 .32471 -170.88 946.28)" d="m704.99 109.97-4.9754-1.0659 1.0079 4.9875-2.7644-4.2719-2.814 4.2394 1.0659-4.9754-4.9875 1.0079 4.2719-2.7644-4.2394-2.814 4.9754 1.0659-1.0079-4.9875 2.7644 4.2719 2.814-4.2394-1.0659 4.9754 4.9875-1.0079-4.2719 2.7644z" fill="#b50000" filter="url(#b)" opacity=".07805"/>
  <path transform="matrix(.32291 0 0 .32471 -156.26 946.05)" d="m704.99 109.97-4.9754-1.0659 1.0079 4.9875-2.7644-4.2719-2.814 4.2394 1.0659-4.9754-4.9875 1.0079 4.2719-2.7644-4.2394-2.814 4.9754 1.0659-1.0079-4.9875 2.7644 4.2719 2.814-4.2394-1.0659 4.9754 4.9875-1.0079-4.2719 2.7644z" fill="#b50000" filter="url(#b)" opacity=".07805"/>
  <path transform="matrix(.32291 0 0 .32471 -168.94 949.84)" d="m718.42 98.655c-3.2736 4.464-1.0143-7.3895-5.2611-3.8386s7.8195 3.4264 2.8463 5.8577 2.536-7.0145-2.8746-5.8439 5.3315 6.6678-0.20194 6.5095 5.5053-5.0325 0.17048-6.5104 1.6222 8.3817-3.2039 5.67 7.2134-1.8976 3.1765-5.6855-2.4588 8.1755-5.4719 3.5316 7.269 1.672 5.4548-3.558-5.9765 6.0964-6.4864 0.58416 5.6594 4.8586 6.4835-0.61551-8.1251 2.6206-6.0149-2.4971 2.7532 6.9321 6.0269 2.468-8.4123-1.4554-4.1654-5.0064-0.78362 7.4175 4.1896 4.9862-6.7723-5.1981-1.3618-6.3687-4.141 6.2037 1.3925 6.362-3.5809-7.75 1.7539-6.272-6.5497 3.5687-1.7236 6.2804 0.43085-8.5264 4.4678-4.7385-7.4579 0.11618-4.4448 4.7601 4.3439-7.3495 6.1581-2.1195-6.6576-3.363-6.1478 2.1492 7.2618-4.489 6.4377 0.98511-4.3322-6.0718-6.4424-0.95398 8.5161-0.60003 5.2425 3.864z" fill="#b50000" filter="url(#b)" opacity=".07805"/>
  <path d="m60.45 1027.9-2.0591 13.505 1.0296-0.2455z" fill="none" stroke="#dc1212" stroke-width=".2"/>
  <path d="m60.707 1027.6 2.0591 13.505-1.0296-0.2454z" fill="none" stroke="#dc1212" stroke-width=".2"/>
  <path d="m60.181 1029-1.2039 13.958 0.60195-0.2537z" fill="none" stroke="#dc1212" stroke-width=".2"/>
  <path d="m60.332 1028.8 1.2039 13.958-0.60195-0.2537z" fill="none" stroke="#dc1212" stroke-width=".2"/>
  <path d="m60.45 1028.1-2.0591 13.505 1.0296-0.2455z" fill="none" stroke="#dcac12" stroke-width=".2"/>
  <path d="m60.707 1027.9 2.0591 13.505-1.0296-0.2454z" fill="none" stroke="#dcac12" stroke-width=".2"/>
  <path d="m60.181 1029.3-1.2039 13.958 0.60195-0.2537z" fill="none" stroke="#dcac12" stroke-width=".2"/>
  <path d="m60.332 1029 1.2039 13.958-0.60195-0.2537z" fill="none" stroke="#dcac12" stroke-width=".2"/>
  <path d="m46.617 984.27h27.779v5.1838h-27.779z" fill="url(#d)" stroke="#b7ad00" stroke-linecap="round" stroke-width=".36927"/>
 </g>
</svg>
