<?xml version='1.0' encoding='utf-8'?>
<svg xmlns="http://www.w3.org/2000/svg" id="svg2719" version="1.1" viewBox="0 0 264.58338 169.95401" height="642.34583" width="1000.0002"> <defs id="defs2713"/> <metadata id="metadata2716"> </metadata> <g transform="translate(-130.77974,-122.06466)" id="layer1"> <path id="path3293" d="m 284.00314,122.06466 a 57.911863,57.911863 0 0 0 -47.4077,24.703 43.709289,43.709289 0 0 0 -15.5907,-2.928 43.709289,43.709289 0 0 0 -43.70901,43.709 43.709289,43.709289 0 0 0 0.25,4.256 50.164606,50.164606 0 0 0 -46.76599,50.045 50.164606,50.164606 0 0 0 49.65719,50.139 l -0.022,0.03 h 0.5192 156.51701 a 57.911863,57.911863 0 0 0 57.91198,-57.912 57.911863,57.911863 0 0 0 -53.59559,-57.695 57.911863,57.911863 0 0 0 -57.7851,-54.342 z" style="color:#000000;clip-rule:nonzero;display:inline;overflow:visible;visibility:visible;opacity:1;isolation:auto;mix-blend-mode:normal;color-interpolation:sRGB;color-interpolation-filters:linearRGB;solid-color:#000000;solid-opacity:1;fill:#5599ff;fill-opacity:1;fill-rule:nonzero;stroke:none;stroke-width:1.00329208;stroke-linecap:round;stroke-linejoin:round;stroke-miterlimit:4;stroke-dasharray:none;stroke-dashoffset:0;stroke-opacity:1;color-rendering:auto;image-rendering:auto;shape-rendering:auto;text-rendering:auto;enable-background:accumulate"/> </g> </svg>