<?xml version="1.0" encoding="UTF-8"?>
<!DOCTYPE svg  PUBLIC '-//W3C//DTD SVG 1.1//EN'  'http://www.w3.org/Graphics/SVG/1.1/DTD/svg11.dtd'>
<svg enable-background="new 0 0 48.05 32.5" version="1.1" viewBox="0 0 48.05 32.5" xml:space="preserve" xmlns="http://www.w3.org/2000/svg" xmlns:xlink="http://www.w3.org/1999/xlink">
<symbol id="s" viewBox="0 -2.2 13.8 2.2">
		<path d="m6.9 0c1.9 0 3.533-0.15 4.9-0.45 1.333-0.267 2-0.6 2-1 0-0.3-0.333-0.55-1-0.75-2.1 0.7-4.433 1.017-7 0.95-2.566-0.067-4.316-0.333-5.25-0.8-0.367 0.2-0.55 0.4-0.55 0.6 0 0.4 0.683 0.733 2.05 1 1.333 0.3 2.95 0.45 4.85 0.45z" clip-rule="evenodd" fill="#E7E7E9" fill-rule="evenodd"/>
</symbol>
<symbol id="t" viewBox="0 -5.75 18.85 5.75">
		<path d="m18.85-2.9c0-0.767-0.917-1.434-2.75-2-1.833-0.567-4.05-0.85-6.65-0.85s-4.833 0.283-6.7 0.85c-1.833 0.567-2.75 1.233-2.75 2 0 0.8 0.917 1.483 2.75 2.05s4.067 0.85 6.7 0.85c2.6 0 4.816-0.283 6.65-0.85 1.833-0.567 2.75-1.25 2.75-2.05z" clip-rule="evenodd" fill-rule="evenodd"/>
</symbol>
<linearGradient id="k" x2="33.5" y1="16.5" y2="16.5" gradientUnits="userSpaceOnUse">
	<stop stop-color="#fff" offset="0"/>
	<stop stop-color="#CACBCD" offset="1"/>
</linearGradient>
<path d="m33.55 16.5c0 1.866-1.633 3.45-4.899 4.75-3.301 1.3-7.267 1.95-11.9 1.95s-8.584-0.65-11.851-1.95-4.9-2.884-4.9-4.75c0-1.833 1.633-3.417 4.9-4.75 3.267-1.3 7.217-1.95 11.85-1.95s8.6 0.65 11.9 1.95c3.267 1.333 4.9 2.917 4.9 4.75z" clip-rule="evenodd" fill="url(#k)" fill-rule="evenodd"/>
<linearGradient id="l" x1="-31.425" x2="-2.2748" y1="-16.025" y2="-16.025" gradientTransform="scale(-1)" gradientUnits="userSpaceOnUse">
	<stop stop-color="#fff" offset="0"/>
	<stop stop-color="#CACBCD" offset="1"/>
</linearGradient>
<path d="m32.55 16.05c0 1.733-1.517 3.2-4.55 4.4-3.066 1.2-6.75 1.8-11.05 1.8-4.333 0-8.017-0.6-11.05-1.8-3.066-1.2-4.6-2.667-4.6-4.4s1.534-3.2 4.6-4.4c3.033-1.233 6.717-1.85 11.05-1.85 4.3 0 7.983 0.617 11.05 1.85 3.033 1.2 4.55 2.667 4.55 4.4z" clip-rule="evenodd" fill="url(#l)" fill-rule="evenodd"/>
<use transform="matrix(1 0 0 -1 8 13.05)" y="-5.75" width="18.85" height="5.75" enable-background="new" opacity=".2891" xlink:href="#t"/>
<linearGradient id="m" x1="4.0742" x2="12.074" y1="-25.938" y2="-25.938" gradientTransform="matrix(.000125 1 -1 -.001 -.0004823 -.00019665)" gradientUnits="userSpaceOnUse">
	<stop stop-color="#B3B5B5" offset="0"/>
	<stop stop-color="#B7B9BA" offset="1"/>
</linearGradient>
<path d="m28.75 3.6c0.8 0.667 0.983 1.867 0.55 3.6-0.5 2.033-1.783 4-3.85 5.9-1.9 1.767-2.934 2.05-3.1 0.85l0.35-2.3 1.45-0.35c1.199-0.466 2.283-1.333 3.25-2.6 0.699-0.9 1.033-1.9 1-3 0-1.1-0.367-1.65-1.101-1.65-0.6 0-1.25 0.434-1.95 1.3l-0.899 1.3-0.4-2.35c0.566-0.6 1.3-1 2.2-1.2 1.033-0.233 1.866-0.067 2.5 0.5z" clip-rule="evenodd" fill="url(#m)" fill-rule="evenodd"/>
<linearGradient id="n" x1="4.0742" x2="11.674" y1="-25.608" y2="-25.608" gradientTransform="matrix(.00013158 1 -1 -.001 -.00045637 -.00019665)" gradientUnits="userSpaceOnUse">
	<stop stop-color="#C7C9C9" offset="0"/>
	<stop stop-color="#CFD0D1" offset="1"/>
</linearGradient>
<path d="m28.2 3.6c0.7 0.667 0.85 1.816 0.45 3.45-0.467 1.9-1.634 3.767-3.5 5.6-1.7 1.667-2.634 1.95-2.8 0.85l0.3-2.2 1.35-0.35c1.066-0.467 2.05-1.3 2.95-2.5 0.666-0.867 0.983-1.817 0.95-2.85-0.034-1.033-0.384-1.55-1.051-1.55-0.533 0-1.116 0.417-1.75 1.25l-0.8 1.2-0.4-2.2c0.5-0.566 1.167-0.95 2-1.15 0.934-0.2 1.701-0.05 2.301 0.45z" clip-rule="evenodd" fill="url(#n)" fill-rule="evenodd"/>
<linearGradient id="o" x1="24.537" x2="29.962" y1="7.168" y2="7.168" gradientUnits="userSpaceOnUse">
	<stop stop-color="#D8DBDB" offset="0"/>
	<stop stop-color="#FCFFFF" offset=".1412"/>
	<stop stop-color="#B7B9BA" offset="1"/>
</linearGradient>
<path d="m26.65 3.55c-0.9 0.267-1.567 0.75-2 1.45l-0.35 0.95-0.65-1.25c0.133-0.167 0.35-0.567 0.65-1.2 0.467-0.567 1.233-0.9 2.3-1s1.917 0.333 2.551 1.3c0.633 0.967 0.783 2.05 0.449 3.25-0.399 1.4-1.216 2.833-2.449 4.3l-0.476 0.5c0.263-0.326 0.521-0.676 0.775-1.05 1.3-1.867 1.85-3.65 1.649-5.35-0.066-0.6-0.267-1.083-0.6-1.45-0.466-0.533-1.082-0.683-1.849-0.45z" clip-rule="evenodd" fill="url(#o)" fill-rule="evenodd"/>
<path d="m26.2 2.75c0.8-0.1 1.283-0.05 1.45 0.15 0.166 0.233 0.05 0.35-0.351 0.35-0.133 0-0.483 0.083-1.05 0.25-0.467 0.133-0.767 0.15-0.9 0.05-0.165-0.133-0.149-0.283 0.051-0.45 0.234-0.2 0.5-0.317 0.8-0.35z" clip-rule="evenodd" fill="#fff" fill-rule="evenodd"/>
<linearGradient id="p" x1="7.3501" x2="24.85" y1="10.025" y2="10.025" gradientUnits="userSpaceOnUse">
	<stop stop-color="#D0D1D3" offset="0"/>
	<stop stop-color="#fff" offset=".2431"/>
	<stop stop-color="#CACBCD" offset="1"/>
</linearGradient>
<path d="m24.5 2.25c0.233 0.3 0.35 1.4 0.35 3.3v8.8c-0.199 1.033-0.683 1.7-1.45 2-1.467 0.966-3.9 1.45-7.3 1.45-3.467 0-5.934-0.5-7.4-1.5-0.434-0.233-0.784-0.633-1.05-1.2l-0.3-0.75v-8.8c0-1.9 0.133-3 0.4-3.3h16.75z" clip-rule="evenodd" fill="url(#p)" fill-rule="evenodd"/>
<linearGradient id="q" x1="7.8999" x2="24.475" y1="2.7002" y2="2.7002" gradientUnits="userSpaceOnUse">
	<stop stop-color="#CACBCD" offset="0"/>
	<stop stop-color="#FCFCFC" offset=".7804"/>
	<stop stop-color="#D8D9DB" offset="1"/>
</linearGradient>
<path d="m24.45 2.7c0 0.7-0.8 1.3-2.4 1.8-1.633 0.5-3.583 0.75-5.85 0.75-2.3 0-4.25-0.25-5.85-0.75-1.633-0.5-2.45-1.1-2.45-1.8s0.817-1.3 2.45-1.8c1.6-0.5 3.55-0.75 5.85-0.75 2.267 0 4.216 0.25 5.85 0.75 1.6 0.5 2.4 1.1 2.4 1.8z" clip-rule="evenodd" fill="url(#q)" fill-rule="evenodd"/>
<path d="m23.9 3.5c0 0.4-0.267 0.6-0.8 0.6-0.133 0.033-5.017-0.05-14.65-0.25l0.1-0.5c0.167-0.4 0.583-0.75 1.25-1.05 0.7-0.333 1.583-0.566 2.65-0.7 0.233-0.033 1.167-0.117 2.8-0.25 0.7-0.033 1.6-0.017 2.7 0.05 1.267 0.1 2 0.15 2.2 0.15 0.833 0.034 1.6 0.217 2.3 0.55 0.967 0.5 1.45 0.967 1.45 1.4z" clip-rule="evenodd" fill="#B76F35" fill-rule="evenodd"/>
<path d="m21.5 2.1c0 0.267-0.117 0.4-0.35 0.4s-0.35-0.133-0.35-0.4c0-0.233 0.117-0.35 0.35-0.35s0.35 0.117 0.35 0.35z" clip-rule="evenodd" fill="#2B130B" fill-rule="evenodd"/>
<path d="m20.6 1.95c0 0.167-0.083 0.25-0.25 0.25s-0.25-0.083-0.25-0.25c0-0.133 0.083-0.2 0.25-0.2s0.25 0.067 0.25 0.2z" clip-rule="evenodd" fill="#2B130B" fill-rule="evenodd"/>
<path d="m22.9 2.9c0 0.1-0.05 0.15-0.15 0.15s-0.15-0.05-0.15-0.15 0.05-0.15 0.15-0.15 0.15 0.05 0.15 0.15z" clip-rule="evenodd" fill="#2B130B" fill-rule="evenodd"/>
<path d="m23.55 3.1c0 0.133-0.083 0.2-0.25 0.2-0.133 0-0.2-0.066-0.2-0.2 0-0.167 0.066-0.25 0.2-0.25 0.167 0 0.25 0.083 0.25 0.25z" clip-rule="evenodd" fill="#2B130B" fill-rule="evenodd"/>
<path d="m12.35 2.15c0 0.233-0.1 0.35-0.3 0.35-0.233 0-0.35-0.117-0.35-0.35s0.117-0.35 0.35-0.35c0.2 0 0.3 0.117 0.3 0.35z" clip-rule="evenodd" fill="#2B130B" fill-rule="evenodd"/>
<path d="m12.7 1.9l-0.1 0.1-0.1-0.1c0-0.1 0.033-0.15 0.1-0.15s0.1 0.05 0.1 0.15z" clip-rule="evenodd" fill="#2B130B" fill-rule="evenodd"/>
<path d="m15.7 1.8c0 0.167-0.083 0.25-0.25 0.25s-0.25-0.083-0.25-0.25 0.083-0.25 0.25-0.25 0.25 0.083 0.25 0.25z" clip-rule="evenodd" fill="#2B130B" fill-rule="evenodd"/>
<path d="m16.4 1.9c0 0.133-0.083 0.2-0.25 0.2s-0.25-0.067-0.25-0.2c0-0.167 0.083-0.25 0.25-0.25s0.25 0.083 0.25 0.25z" clip-rule="evenodd" fill="#2B130B" fill-rule="evenodd"/>
<path d="m16.8 1.7c0 0.1-0.05 0.15-0.15 0.15s-0.15-0.05-0.15-0.15 0.05-0.15 0.15-0.15 0.15 0.05 0.15 0.15z" clip-rule="evenodd" fill="#2B130B" fill-rule="evenodd"/>
<path d="m18.8 2c0 0.133-0.083 0.2-0.25 0.2-0.133 0-0.2-0.067-0.2-0.2 0-0.167 0.066-0.25 0.2-0.25 0.167 0 0.25 0.083 0.25 0.25z" clip-rule="evenodd" fill="#2B130B" fill-rule="evenodd"/>
<path d="m19.3 2.1c0 0.066-0.05 0.1-0.15 0.1l-0.15-0.1c0-0.1 0.05-0.15 0.15-0.15s0.15 0.05 0.15 0.15z" clip-rule="evenodd" fill="#2B130B" fill-rule="evenodd"/>
<path d="m10.65 2.65c0 0.133-0.083 0.2-0.25 0.2-0.133 0-0.2-0.067-0.2-0.2s0.066-0.2 0.2-0.2c0.167 0 0.25 0.067 0.25 0.2z" clip-rule="evenodd" fill="#2B130B" fill-rule="evenodd"/>
<path d="m9.65 3c0 0.2-0.1 0.3-0.3 0.3s-0.3-0.1-0.3-0.3c0-0.167 0.1-0.25 0.3-0.25s0.3 0.083 0.3 0.25z" clip-rule="evenodd" fill="#2B130B" fill-rule="evenodd"/>
<path d="m9 3.5c0 0.067-0.05 0.1-0.15 0.1l-0.1-0.1c0-0.1 0.033-0.15 0.1-0.15 0.1 0 0.15 0.05 0.15 0.15z" clip-rule="evenodd" fill="#2B130B" fill-rule="evenodd"/>
<radialGradient id="r" cx="-4.9302" cy="16.899" r="4.1084" gradientTransform="matrix(.0639 -.998 -.998 -.0639 33.73 2.1596)" gradientUnits="userSpaceOnUse">
	<stop stop-color="#572000" offset="0"/>
	<stop stop-color="#2B130B" offset="1"/>
</radialGradient>
<path d="m23.2 3.7c0 0.4-0.667 0.75-2 1.05-1.367 0.267-3 0.4-4.9 0.4s-3.517-0.133-4.85-0.4c-1.367-0.3-2.05-0.65-2.05-1.05s0.684-0.733 2.05-1c1.333-0.3 2.95-0.45 4.85-0.45s3.534 0.15 4.9 0.45c1.333 0.267 2 0.6 2 1z" clip-rule="evenodd" fill="url(#r)" fill-rule="evenodd"/>
<use transform="matrix(1 0 0 -1 9.3999 2.25)" y="-2.2" width="13.8" height="2.2" enable-background="new" opacity=".1211" xlink:href="#s"/>
<path d="m22.15 0.8c1.667 0.534 2.5 1.184 2.5 1.95s-0.833 1.4-2.5 1.9c-1.667 0.533-3.683 0.8-6.05 0.8s-4.383-0.267-6.05-0.8-2.5-1.167-2.5-1.9c0-0.767 0.833-1.417 2.5-1.95s3.683-0.8 6.05-0.8c2.4 0 4.417 0.267 6.05 0.8zm-0.3 3.5c1.566-0.433 2.35-0.983 2.35-1.65 0-0.633-0.784-1.183-2.35-1.65-1.567-0.433-3.45-0.65-5.65-0.65s-4.067 0.217-5.6 0.65c-1.567 0.467-2.35 1.017-2.35 1.65 0 0.667 0.783 1.217 2.35 1.65 1.533 0.467 3.4 0.7 5.6 0.7s4.083-0.233 5.65-0.7z" clip-rule="evenodd" fill="#FFF0F0" fill-rule="evenodd"/>
</svg>
