<?xml version='1.0' encoding='utf-8'?>
<svg xmlns="http://www.w3.org/2000/svg" width="744.09448819" height="1052.3622047" id="svg2" version="1.1"> <defs id="defs4"> <filter id="filter3794" x="-0.052437158" width="1.1048743" y="-0.15873207" height="1.3174641"> <feGaussianBlur stdDeviation="5.2898216" id="feGaussianBlur3796"/> </filter> <filter id="filter3858" x="-0.19805292" width="1.3961058" y="-0.24484733" height="1.4896947"> <feGaussianBlur stdDeviation="9.7576734" id="feGaussianBlur3860"/> </filter> <filter id="filter3785"> <feGaussianBlur stdDeviation="4.1211438" id="feGaussianBlur3787"/> </filter> <filter id="filter3872"> <feGaussianBlur stdDeviation="2.8677107" id="feGaussianBlur3874"/> </filter> <filter id="filter3882" x="-0.046598374" width="1.0931967" y="-0.2557287" height="1.5114574"> <feGaussianBlur stdDeviation="2.3330019" id="feGaussianBlur3884"/> </filter> <filter id="filter3890"> <feGaussianBlur stdDeviation="1.1815842" id="feGaussianBlur3892"/> </filter> <filter id="filter3898"> <feGaussianBlur stdDeviation="4.8697684" id="feGaussianBlur3900"/> </filter> </defs> <metadata id="metadata7"> </metadata> <g id="layer1"> <path id="path3840" d="m 235.42999,599.68252 c 0,0 -81.23929,14.3139 -83.40068,47.64901 -3.5197,54.28434 164.78915,73.17523 222.35161,73.17523 57.56246,0 225.87131,-18.89089 222.35161,-73.17523 -2.16139,-33.33511 -83.40068,-47.64901 -83.40068,-47.64901 -81.77445,-14.97132 -199.28712,-15.90269 -277.90186,0 z" style="fill:#4d4d4d;fill-opacity:1;stroke:none"/> <path style="fill:#e6e6e6;stroke:none" d="m 238.90107,599.00075 c 0,0 -79.20988,14.09549 -81.31728,46.92194 -3.43178,53.45605 160.67262,72.05869 216.79713,72.05869 56.12451,0 220.22891,-18.60264 216.79713,-72.05869 -2.1074,-32.82645 -81.31728,-46.92194 -81.31728,-46.92194 -79.73167,-14.7429 -194.3088,-15.66005 -270.9597,0 z" id="path3010"/> <path style="fill:#ffffff;stroke:none;filter:url(#filter3858)" d="m 233.34524,659.41284 c 4.59711,6.12949 13.52506,9.48446 19.19289,15.15229 3.37545,3.37545 5.97949,12.4314 11.11168,14.14214 7.79873,2.59957 80.01567,16.05563 83.84266,14.14213 7.85359,-3.92679 -22.11091,-51.40534 -27.27412,-56.56854 -7.01432,-7.01433 -17.43397,-11.37306 -24.24366,-18.18275 -10.88031,-10.88031 -25.71935,-15.38506 -36.36549,-20.70812 -7.76128,7.70356 -38.34782,35.91104 -26.26396,52.02285 z" id="path3848"/> <path style="fill:#878787;fill-opacity:1;stroke:none;filter:url(#filter3794)" d="m 329.88572,678.08036 c 10.1267,35.89828 60.94805,29.29442 92.42895,29.29442 16.97083,0 36.89031,2.18209 52.52794,-3.03046 24.54312,-8.18104 54.92704,-17.8355 76.26651,-33.84011 13.11338,-9.83503 35.64117,-32.90304 7.07107,-42.4264 -9.87969,-3.29323 -64.60423,33.81734 -76.77159,39.90102 -5.64935,2.82468 -16.43595,-11.50097 -20.70813,-13.63706 -5.36294,-2.68147 -15.9564,-0.50507 -22.22335,-0.50507 z" id="path3019"/> <path style="fill:#333333;fill-opacity:1;stroke:none;filter:url(#filter3882)" d="m 314.40998,669.51437 c 13.56145,28.40238 130.27921,29.97397 119.45053,0 z" id="path3876"/> <path id="path3798" d="m 314.40998,669.51437 c 9.24532,27.21532 112.31278,24.47016 119.45053,0 z" style="fill:#4d4d4d;fill-opacity:1;stroke:none"/> <path style="fill:#999999;fill-opacity:1;stroke:none" d="m 315.42013,669.51437 c 9.08895,22.9631 110.4132,20.64685 117.43023,0 z" id="path3008"/> <path style="fill:#4d4d4d;fill-opacity:1;stroke:none" d="m 516.71847,497.52648 c 8.96181,68.66619 -21.09238,149.62071 -83.1187,173.44939 -24.8827,9.55921 -92.3849,10.81828 -119.14587,0 -61.6095,-24.90602 -92.08539,-104.7832 -83.12357,-173.44939 26.71917,-35.97578 237.88606,-30.88801 285.38814,0 z" id="path3819"/> <path id="path3000" d="m 516.21884,497.28336 c 8.93043,68.18385 -21.01853,148.56971 -82.82765,172.23101 -24.79557,9.49206 -92.06141,10.74229 -118.72867,0 -61.39377,-24.73107 -91.76294,-104.04716 -82.83251,-172.23101 26.63739,-46.18891 237.06972,-45.45686 284.38883,0 z" style="fill:#cccccc;stroke:none"/> <path id="path3862" d="m 237.38585,499.80874 c 47.18161,23.18935 208.62142,34.97918 272.74118,0 16.85625,68.63576 -275.5578,62.13045 -272.74118,0 z" style="fill:#ffffff;stroke:none"/> <path style="fill:#808080;stroke:none" d="m 237.38585,499.80874 c 49.8977,-51.03656 242.43661,-29.7995 272.74118,0 6.71911,64.61515 -270.04128,54.42611 -272.74118,0 z" id="path3002"/> <path id="path3823" d="m 365.71191,482.07139 c -72.71307,1.94753 -103.70208,17.01513 -124.82265,27.27538 30.18176,43.01384 246.08392,50.30797 267.625,1.03125 -39.33457,-20.44048 -90.74965,-29.7008 -142.80235,-28.30663 z" style="fill:#483131;fill-opacity:1;stroke:none"/> <path style="fill:#845b36;fill-opacity:1;stroke:none" d="m 364.70176,484.59677 c -72.71307,1.94753 -96.63101,16.00498 -123.8125,24.75 30.18176,43.01384 246.08392,50.30797 267.625,1.03125 -36.80919,-16.90495 -91.7598,-27.17542 -143.8125,-25.78125 z" id="path3014"/> <path style="fill:#999999;fill-opacity:1;stroke:none;filter:url(#filter3872)" d="m 285.84375,512.71875 c 5.67102,55.30528 34.84421,108.95049 83.375,128.5 26.66726,10.74229 93.92318,9.49206 118.71875,0 22.60533,-8.6536 40.94858,-24.88733 54.6875,-45.34375 -69.84504,50.59323 -203.81605,42.66445 -256.78125,-83.15625 z" id="path3805" transform="matrix(-1,0,0,1,799.41304,28.284271)"/> <path style="fill:#ffffff;stroke:none;filter:url(#filter3898)" d="m 425.84161,665.64645 c -144.57812,38.98404 -190.85108,-60.81303 -195,-152.14286 17.83119,122.18056 102.41322,159.01913 195,152.14286 z" id="path3842"/> <path id="path3844" d="m 231.83001,497.28336 c -33.3401,-24.58726 -51.47982,-0.59668 -56.08179,12.17067 -9.92859,27.54514 14.81511,78.17124 81.84068,112.07809 4.72626,-2.98135 -3.63639,-19.66365 -13.13199,-26.26397 -58.82131,-24.70007 -62.38135,-94.78816 -44.96647,-96.85862 16.5993,-1.9735 30.04755,16.98852 32.33957,40.29008 3.32013,-2.14564 6.26512,-33.26451 0,-41.41625 z" style="fill:#4d4d4d;fill-opacity:1;stroke:none"/> <path style="fill:#999999;stroke:none" d="m 231.83001,497.28336 c -32.83502,-20.04157 -49.45951,0.41347 -54.06148,13.18082 -9.92859,27.54514 15.82526,77.16109 79.82037,111.06794 1.6958,-0.45597 -2.12116,-13.60273 -13.13199,-26.26397 -60.33654,-39.85236 -59.35089,-89.23232 -41.93601,-91.30278 16.5993,-1.9735 19.44095,14.46314 29.30911,34.73424 3.05605,-1.96959 1.93585,-23.47562 0,-41.41625 z" id="path2996"/> <path style="fill:#ffffff;stroke:none" d="m 181.29551,618.22177 c -12.86339,7.08902 -22.98366,16.23718 -23.71875,27.6875 -3.43178,53.45605 160.68799,72.0625 216.8125,72.0625 52.10301,0 197.24166,-16.02736 215.03125,-61.09375 -29.76259,42.22323 -163.56514,60.1097 -259.59375,50.53125 -105.47686,-10.52086 -194.17,-38.98601 -148.53125,-89.1875 z" id="path3023"/> <path style="fill:#674a30;fill-opacity:1;stroke:none" d="m 295.53275,507.51116 c 11.22188,0.46098 22.00898,1.89403 33.2719,1.89403 6.80749,0 14.1701,-1.90103 20.70813,-3.53554 10.3579,-2.58947 36.46521,-1.51522 47.47717,-1.51522 11.62645,0 -7.356,6.10162 -10.6066,6.56599 -19.88886,2.84126 -40.68322,-1.31968 -60.10408,3.53553 -2.97001,0.7425 -15.18426,3.43962 -13.63706,8.08122 2.55754,7.67263 24.25762,4.04061 30.30458,4.04061 39.47985,0 82.46079,9.27723 118.18784,-8.5863 4.38225,-2.19112 16.70188,-1.58393 19.1929,-6.56599 2.57899,-5.15797 -21.58592,-0.24037 -23.73858,-4.54568 -1.88055,-3.7611 8.83014,-3.08248 6.81109,-5.10153 -3.96472,-3.96472 -24.41273,-4.3787 -30.0446,-5.50508 -29.96447,-5.99289 -77.64623,-10.22964 -108.5914,-4.04061 -7.21912,1.44383 -59.6346,9.16257 -63.13453,16.16245 -3.12058,6.24114 14.15644,6.06091 17.67767,6.06091 3.48692,0 13.38939,0.49533 15.15228,-3.03046 0.94127,-1.88253 -8.98906,-1.39818 -8.58629,-1.95717 1.81982,-2.52566 7.33056,-2.05284 9.65958,-1.95716 z" id="path3838"/> <path style="fill:#674a30;fill-opacity:1;stroke:none" d="m 243.10801,508.59677 c -0.74177,0.24752 -1.47315,0.51012 -2.21875,0.75 30.18176,43.01384 246.08392,50.30797 267.625,1.03125 -0.0505,-0.0232 -0.10572,-0.0393 -0.15625,-0.0625 -0.084,0.036 -0.16464,0.0583 -0.25,0.0937 -68.00897,40.45686 -210.52256,27.55927 -265.15625,-1.5 0.0549,-0.10333 0.10119,-0.20942 0.15625,-0.3125 z" id="path3827"/> <path style="font-size:medium;font-style:normal;font-variant:normal;font-weight:normal;font-stretch:normal;text-indent:0;text-align:start;text-decoration:none;line-height:normal;letter-spacing:normal;word-spacing:normal;text-transform:none;direction:ltr;block-progression:tb;writing-mode:lr-tb;text-anchor:start;baseline-shift:baseline;color:#000000;fill:#ca9666;fill-opacity:1;stroke:none;stroke-width:4;marker:none;visibility:visible;display:inline;overflow:visible;enable-background:accumulate;font-family:Sans;-inkscape-font-specification:Sans" d="m 397.7135,493.37802 c -15.58997,-0.31024 -30.97826,0.45832 -45.125,1.71875 -37.72464,3.36115 -66.6875,10.34375 -66.6875,10.34375 a 2.0002,2.0002 0 1 0 0.9375,3.875 c 0,0 28.67641,-6.88498 66.09375,-10.21875 37.18081,-3.3127 82.93395,-2.96762 117.375,10.9375 -2.0913,0.81427 -6.01593,1.76505 -11.4375,2.65625 -11.85515,1.94874 -30.00224,3.72148 -49.5,5.09375 -19.49776,1.37227 -40.3753,2.36079 -57.75,2.71875 -16.44295,0.33877 -29.40139,0.0119 -35.125,-0.84375 0.73552,-0.22421 1.31158,-0.41919 2.25,-0.65625 6.84089,-1.72811 18.637,-3.66654 32.15625,-5.40625 27.0385,-3.47942 61.19515,-6.16238 77.28125,-5.21875 a 2.0039024,2.0039024 0 1 0 0.25,-4 c -16.84443,-0.98812 -50.83211,1.74991 -78.03125,5.25 -13.59957,1.75004 -25.42182,3.68037 -32.625,5.5 -1.80079,0.45491 -3.31041,0.91522 -4.53125,1.375 -1.22084,0.45978 -2.12965,0.7802 -2.96875,1.65625 -0.41955,0.43802 -0.90058,1.23596 -0.78125,2.1875 0.11933,0.95154 0.72028,1.56085 1.21875,1.90625 0.99694,0.69081 2.0366,0.9584 3.5625,1.25 6.17839,1.18071 19.97995,1.35967 37.4375,1 17.45755,-0.35967 38.3722,-1.34172 57.9375,-2.71875 19.5653,-1.37703 37.76119,-3.13374 49.875,-5.125 6.05691,-0.99563 10.48417,-1.99225 13.21875,-3.25 0.68364,-0.31444 1.2755,-0.64084 1.8125,-1.125 0.537,-0.48416 1.13309,-1.24976 1.125,-2.28125 -0.008,-1.03149 -0.6126,-1.85906 -1.1875,-2.34375 -0.5749,-0.48469 -1.23218,-0.80981 -2,-1.125 -22.27741,-9.14492 -48.79796,-12.63919 -74.78125,-13.15625 z" id="path3832"/> <path style="fill:#ffffff;stroke:none;filter:url(#filter3890)" d="m 193.77597,561.13218 c -15.42994,-15.84395 -18.83098,-37.5998 -12.44317,-52.55737 6.31182,-14.77963 22.18099,-22.93021 45.44644,-10.78638 -20.28804,-7.1095 -35.26331,-0.33511 -40.90408,14.31211 -5.18162,13.45497 -2.31919,33.88792 7.90081,49.03164 z" id="path3846"/> <path style="opacity:0.11111109;fill:#674a30;fill-opacity:1;stroke:none" d="m 288.47506,372.97983 c -16.69692,59.13164 18.66282,66.00774 0,112.12693 7.49014,-39.30835 -26.88335,-65.30104 0,-112.12693 z" id="path3791"/> <path id="path3795" d="m 331.18501,344.55126 c -21.5897,76.45929 24.13169,85.35033 0,144.98407 9.68502,-50.82708 -34.76112,-84.43655 0,-144.98407 z" style="opacity:0.11111109;fill:#674a30;fill-opacity:1;stroke:none"/> <path style="opacity:0.11111109;fill:#674a30;fill-opacity:1;stroke:none" d="m 373.49458,323.4084 c -23.72317,94.54032 26.51635,105.53391 0,179.26979 10.64208,-62.84663 -38.19617,-104.40404 0,-179.26979 z" id="path3797"/> <path id="path3799" d="m 456.47506,372.97983 c -16.69692,59.13164 18.66282,66.00774 0,112.12693 7.49014,-39.30835 -26.88335,-65.30104 0,-112.12693 z" style="opacity:0.11111109;fill:#674a30;fill-opacity:1;stroke:none"/> <path style="opacity:0.11111109;fill:#674a30;fill-opacity:1;stroke:none" d="m 415.18501,344.55126 c -21.5897,76.45929 24.13169,85.35033 0,144.98407 9.68502,-50.82708 -34.76112,-84.43655 0,-144.98407 z" id="path3801"/> </g> </svg>