<?xml version="1.0" encoding="UTF-8"?>
<svg viewBox="0 0 128 128" xmlns="http://www.w3.org/2000/svg" xmlns:xlink="http://www.w3.org/1999/xlink">
 <g transform="matrix(.9789 0 0 .9789 1.0319 .52051)">
  <path d="m64.812 11.75c-1.7847 0-3.4196 0.67191-4.75 1.8438-0.8404-0.73786-1.9196-1.1875-3.125-1.1875-2.6349 0-4.7812 2.1463-4.7812 4.7812 0 0.19139-0.02193 0.37698 0 0.5625-0.68589 0.14346-1.3466 0.35786-2 0.625-1.7158-2.1526-4.1257-3.4688-6.8125-3.4688-4.862 0-8.8806 4.3971-9.375 10.031-2.2417 1.1922-3.7812 3.8572-3.7812 6.9688 0 3.5791 2.0538 6.6076 4.8438 7.4375 0.25511 0.73782 0.60718 1.3967 1 2.0312-4.9258 0.90954-9.9007 2.9203-14.438 6.0625-6.706 4.6446-16.443 12.666-17.438 25.969 8.8466 2.5522 18.108 0.96551 26.031-3.1562-1.3065 9.9579-0.66577 19.431 2.6562 26.188 15.561 31.649 54.171 23.588 63.812-1.1875 2.5049-6.4366 2.5346-16.951 0.46875-28.062 9.1803 3.281 19.578 3.4677 28.531-1.125-3.5396-12.907-14.691-18.937-22.188-22.219-2.3172-1.0145-4.6656-1.7829-7.0312-2.3125 0-0.56398-0.07016-1.0914-0.25-1.5938 2.2886-1.4605 3.8438-4.3445 3.8438-7.6562 0-2.0117-0.59595-3.8383-1.5625-5.3125 0.4829-0.746 0.78125-1.6396 0.78125-2.5938 0-2.6349-2.1463-4.7812-4.7812-4.7812-0.35906 0-0.69478 0.04973-1.0312 0.125-1.205-3.2033-4.2792-5.5-7.9062-5.5-2.4914 0-4.7305 1.0989-6.2812 2.8125-1.3396-0.87785-2.8938-1.4062-4.5312-1.4062-1.0612 0-2.0793 0.23885-3.0312 0.625-1.4431-2.7066-3.9894-4.5-6.875-4.5z" fill="#fff" fill-rule="evenodd" stroke="#000" stroke-linejoin="round" stroke-width="6"/>
  <path d="m125.66 66.049c-3.5396-12.907-14.675-18.931-22.172-22.213-10.381-4.5448-21.74-4.1359-29.671 0.43932 4.9375 18.682 31.96 31.973 51.843 21.774z" fill="#fff" fill-rule="evenodd" stroke="#000" stroke-width="2.8804"/>
  <path d="m4.1489 73.42c0.99413-13.303 10.735-21.326 17.441-25.97 9.2857-6.4313 20.476-8.2039 29.109-5.245-1.257 19.22-25.149 37.39-46.55 31.215z" fill="#fff" fill-rule="evenodd" stroke="#000" stroke-width="2.871"/>
  <path d="m96.647 95.251c7.4036-19.024-6.5667-73.74-33.579-73.862-23.002-0.10365-41.269 52.572-30.214 75.057 15.561 31.649 54.152 23.581 63.794-1.1949z" fill="#fca" fill-rule="evenodd" stroke="#000" stroke-width="2.6316"/>
  <path d="m64.81 11.738c-1.7847 0-3.4264 0.69409-4.7568 1.8659-0.8404-0.73786-1.922-1.1826-3.1274-1.1826-2.6349 0-4.7831 2.1219-4.7831 4.7568 0 0.19139 0.00435 0.39266 0.02628 0.57818-0.68589 0.14346-1.344 0.3636-1.9973 0.63074-1.7158-2.1526-4.1462-3.4691-6.833-3.4691-4.862 0-8.8616 4.3788-9.3559 10.013-2.2417 1.1922-3.8107 3.8791-3.8107 6.9907 0 3.5791 2.072 6.5812 4.8619 7.4112 1.2168 3.5191 4.1274 6.0183 7.5163 6.0183 1.2154 0 2.3807-0.34958 3.4165-0.91983 2.2421 2.2937 5.1439 3.6793 8.331 3.6793 4.9906 0 9.3315-3.3811 11.458-8.331 1.6025 1.505 3.6105 2.3916 5.808 2.3916 1.7627 0 3.3957-0.59987 4.8094-1.6031 1.1646 3.651 4.1231 6.2548 7.5951 6.2548 1.6944 0 3.2695-0.61728 4.5728-1.682 0.8404 0.73786 1.922 1.1826 3.1274 1.1826 2.6349 0 4.7831-2.1482 4.7831-4.7831 0-0.56398-0.08296-1.1007-0.26281-1.6031 2.2886-1.4605 3.837-4.3359 3.837-7.6477 0-2.0117-0.58401-3.8608-1.5506-5.335 0.4829-0.746 0.76214-1.6213 0.76214-2.5755 0-2.6349-2.1219-4.7831-4.7568-4.7831-0.35906 0-0.71476 0.05614-1.0512 0.1314-1.205-3.2033-4.2835-5.4927-7.9105-5.4927-2.4914 0-4.7303 1.0722-6.2811 2.7858-1.3396-0.87785-2.8828-1.3929-4.5203-1.3929-1.0612 0-2.0703 0.24459-3.0223 0.63074-1.4431-2.7066-3.9999-4.5203-6.8856-4.5203z" fill="#fff" stroke="#000" stroke-linecap="round" stroke-linejoin="round" stroke-width="2.523"/>
  <path transform="matrix(1.4382 .64705 -.64705 1.4382 -20.628 -50.244)" d="m76 48a4 4 0 1 1 -8 0 4 4 0 1 1 8 0z"/>
  <path transform="matrix(.56965 .2563 -.2563 .56965 24.995 19.28)" d="m76 48a4 4 0 1 1 -8 0 4 4 0 1 1 8 0z" fill="#fff"/>
  <path transform="matrix(1.4382 .64705 -.64705 1.4382 5.2677 -50.297)" d="m76 48a4 4 0 1 1 -8 0 4 4 0 1 1 8 0z"/>
  <path transform="matrix(.56965 .2563 -.2563 .56965 50.89 19.227)" d="m76 48a4 4 0 1 1 -8 0 4 4 0 1 1 8 0z" fill="#fff"/>
  <g transform="matrix(.7778 .62851 -.62851 .7778 77.013 -10.361)">
   <path d="m62.183 99.205c-1.6858-2.4998-3.8458-3.2168-6.2239-3.8948-3.0645-0.87365-4.9058 0.16668-6.9709 1.0767 4.8814-0.95815 9.6617 0.37835 13.195 2.818z" fill-rule="evenodd" stroke="#000" stroke-linecap="round" stroke-linejoin="round" stroke-width=".93832"/>
   <path d="m54.896 98.553c-0.39799 1.2091-2.1063 1.7344-3.8133 1.1725s-2.7693-1.9992-2.3713-3.2082 2.1063-1.7344 3.8133-1.1725 2.7693 1.9992 2.3713 3.2082z"/>
  </g>
  <g transform="matrix(.79935 -.60086 .60086 .79935 -45.783 68.703)">
   <path d="m69.469 99.207c1.5798-2.7937 3.8118-3.7353 6.2788-4.6537 3.1789-1.1835 5.2198-0.23358 7.4873 0.55933-5.2601-0.60834-10.221 1.2099-13.766 4.0944z" fill-rule="evenodd" stroke="#000" stroke-linecap="round" stroke-linejoin="round" stroke-width=".99881"/>
   <path d="m83.691 95.114c0.47994 1.175-0.47686 2.6786-2.1357 3.3561s-3.3947 0.27382-3.8746-0.9012 0.47687-2.6786 2.1357-3.3561 3.3947-0.27382 3.8746 0.9012z"/>
  </g>
 </g>
</svg>
