<?xml version="1.0" encoding="UTF-8"?>
<!DOCTYPE svg  PUBLIC '-//W3C//DTD SVG 1.0//EN'  'http://www.w3.org/TR/2001/REC-SVG-20010904/DTD/svg10.dtd'>
<svg width="37.015mm" height="36.866mm" clip-rule="evenodd" fill-rule="evenodd" image-rendering="optimizeQuality" shape-rendering="geometricPrecision" text-rendering="geometricPrecision" version="1.0" viewBox="0 0 1055 1051" xml:space="preserve" xmlns="http://www.w3.org/2000/svg">
 <defs>
  <style type="text/css">
    .str0 {stroke:#2B2A29;stroke-width:5.70198}
    .fil4 {fill:none}
    .fil5 {fill:#2B2A29}
    .fil1 {fill:#009846}
    .fil3 {fill:#E31E24}
    .fil0 {fill:#5CB139}
    .fil2 {fill:url(#a)}
  </style>
  <linearGradient id="a" x1="501.79" x2="1048.8" y1="456.95" y2="1039.8" gradientUnits="userSpaceOnUse">
   <stop stop-color="#E31E24" offset="0"/>
   <stop stop-color="#972620" offset="1"/>
  </linearGradient>
 </defs>
   <path class="fil0" d="m613 109c-6-30-38-64-73-80-36-16-75-13-100-7-24 6-35 15-30 23 5 9 25 16 42 31s31 37 51 58c21 20 48 38 71 35 24-4 44-30 39-60z"/>
   <path class="fil1" d="m614 105c-7-26-39-60-74-76-36-16-75-13-100-7-24 6-35 15-21 27 13 12 51 27 82 47 31 19 57 44 78 48 22 4 41-13 35-39z"/>
   <path class="fil2 str0" d="m573 352c-19-19-77-91-139-125-62-33-129-29-198 13-69 43-140 123-178 205-37 83-41 167-11 257 30 89 94 183 164 240 71 58 149 78 218 86 70 7 131 0 215-28s190-78 263-153c72-76 110-176 116-266 5-91-22-171-76-225-54-55-134-83-204-87s-128 17-149 44c-20 27-1 59-21 39z"/>
    <path class="fil3" d="m467 387c52-168-337-155-363 201-12 156 140 480 370 382 42-18 44-22 78-46l-31 26c-263 188-475-172-476-365-2-487 612-515 537-163-10 32-44 50-75 40-32-10-50-44-40-75z"/>
   <path class="fil4" d="m525 404c73-235-423-271-451 182-7 119 120 414 312 414 48 0 137-47 166-76"/>
    <path class="fil5" d="m563 404c-30-315-464-307-537 212-42 292 359 583 552 332l37-59-35 60c-191 261-614-26-578-337 65-558 564-584 609-208 0 14-11 25-24 25s-24-11-24-25z"/>
   <path class="fil4" d="m587 404c0-276-478-408-573 210-48 310 428 636 601 275"/>
    <path class="fil5" d="m563 290c309-236 686 181 378 582-129 167-386 194-569 121 180 66 433 36 554-132 280-389-77-741-329-536-9 9-25 9-34 0-10-10-10-25 0-35z"/>
   <path class="fil4" d="m580 308c197-198 680 82 353 559-90 130-388 220-561 126"/>
    <path class="fil5" d="m179 285c-288 244-117 784 258 752 34-3 53-12 81-30-27 19-47 30-81 34-386 49-595-512-287-794 10-8 26-6 34 4 8 11 6 26-5 34z"/>
   <path class="fil4" d="m164 266c-177 135-203 490-13 672 94 90 280 141 367 69"/>
    <path class="fil5" d="m676 117c-86-7-92 198-96 246-6-88-31-283 98-294 13 0 23 11 23 25 0 13-12 23-25 23z"/>
   <path class="fil4" d="m677 93c-103-3-97 199-97 270"/>
    <path class="fil5" d="m590 114c0-76-141-94-176-79 10 8 48 30 74 75 33 56 40 55 113 52-144 19-80-42-185-100-123-68 205-114 223 52 0 13-11 24-24 24-14 0-25-11-25-24zm-178-81v-1 1z"/>
   <path class="fil4" d="m615 114c0-126-293-112-194-62 91 47 46 133 180 110"/>
</svg>
