<?xml version="1.0" encoding="UTF-8"?>
<svg viewBox="0 0 271.27286 182.06335" xmlns="http://www.w3.org/2000/svg">
 <g transform="matrix(2.2924 0 0 2.2924 552.42 39.212)">
  <path d="m-207.26383-16.72111c4.23043,2.35412 5.73189,8.65213 5.5,12-.37763,4.80327-1.25732,10.77205-4.5,14.28125-2.16183.74921-11.41996.1532-14.85156,4.8125 .69928.14034 5.68572.10673 5.94531.5 .39915.60472-.29742,1.06301-.65625,1.53125-3.05616,3.98797-8.02793,14.3888-6.78125,21.6875 .49906-.34236 3.07832-5.1886 3.625-4.90625 1.02819,6.07441 2.22132,13.0284 6.625,18 .09914-.17581 1.70653-5.11269 1.84375-5.25 1.42356,4.54806 4.11712,11.34434 8.21875,13.375 .08258-2.05132-.31983-4.35874.9375-4 1.72976.72108 4.1181,2.90336 5.84375,3.53125 .12398-.23709-.24767-1.74098-.09375-1.8125 1.40474-.37258 3.38508,1.61259 4.75,1.96875-.11448-.86971-.33404-1.70405.65625-1.6875 .90373-.0019 2.23886,2.59972 3.0625,2.75-.13666-.85881.06995-1.18321 1.0625-.96875 .33609.04388.60551.62729.9375.65625 .94619-.54933 2.68757.39251 3.46875,1.4375 .92532-.77935 2.36994-.51925 3.59375-.25 .29499.42545.69117.07324 1.15625-.125 1.94145-.78423.89575-.39624 1.53125.0625 .04659-.0007.10719.00539.15625,0 .6611-.07262 1.5332-.51271 2.25.34375 .06165-.05676.11429-.13391.1875-.1875 .05444-.0525.1266-.07828.1875-.125 .9208-.70636 2.52181-.78968 3.34375-.3125 .33198-.02896.50765-1.45612.84375-1.5 .99255-.21446 1.16791.10994 1.03125.96875 .82364-.15028 2.09627-3.5019 3-3.5 .99029-.01655.86448,1.56779.75,2.4375 1.36492-.35616 3.72025-5.40382 5.125-5.03125 .15392.07152.37602,1.88791.5,2.125 1.72565-.62789 3.42649-3.81018 5.15625-4.53125 1.25733-.35874 1.51117,2.94869 1.59375,5 2.3711-1.75307 4.86341-5.80553 6.90625-8.28125 .44806-.45204 1.17471-1.1349 1.78125-.65625 .13723.1373 1.27587,3.26169 1.375,3.4375 3.71292-4.51258 4.91907-11.87638 5.21875-16.65625 .54668-.28236 4.53218,3.22014 5.03125,3.5625 .79067-5.7027-3.38174-16.13827-7.125-19.34375-.44808-.38371-1.02416-.92653-.625-1.53125 .25959-.39327 5.64448-2.67216 6.34375-2.8125-3.43159-4.6593-15.05692-3.31329-17.21875-4.0625-2.97179-3.55847-3.2859-9.98453-3.15625-14.9375-.2319-3.34787 1.26957-9.64588 5.5-12-.40612.03362-.82238.06845-1.25.15625-1.58903.29471-3.0886.96332-4.4375,1.84375-2.05729,1.33136-4.49524,4.64284-6.625,5.625-.01055.17542-1.02707-2.02978-1.59375-2.5625-.36783-.34577.28137,1.0392-.25.71875-1.25669-.75788-3.37097-.25184-4.3125.0625-1.90628.63645-1.46097-1.18716-2.71875-2.21875-1.07873-.88473-4.38835.999-5.375.9375-1.24278-.07747-1.72661-1.27727-2.34375-1.53125-.6172.25396-3.10134,2.67256-4.34375,2.75-.98664.0615-3.32753-3.16598-4.40625-2.28125-1.25778,1.03159-2.40622,2.32395-4.3125,1.6875-.94152-.31434-2.0558.67962-3.3125,1.4375-.53137.32045-.26235-2.45852-.53125-2.03125-.40156.63805-2.09328,1.91361-2.1875,1.59375-.15614.11552-.34279.11018-.5625-.15625-1.98887-1.24961-3.77125-2.8115-5.78125-4.03125-1.34891-.88043-2.84848-1.54904-4.4375-1.84375-.42763-.0878-.84388-.12263-1.25-.15625zm-2.15625.71875c-1.77939.2635-3.13748,2.4524-3.03125,4.6875-.31222,3.58573.98533,6.32859 2.34375,9.5625 .9415,2.16569 2.29497,5.76095 3.1875,7.03125 .37202-.49985.71495-1.03461 1.03125-1.5625-2.73095-5.33855-7.35675-12.11126-5.90625-17 .52416-1.68016 1.75929-2.70517 3.1875-2.6875-.14998-.02627-.3231-.03145-.46875-.03125-.12222.00017-.22513-.01757-.34375,0zm63.96875,0c-.21789-.0003-.42929.03383-.65625.09375 1.50609.09234 2.82843,1.40428 3.375,3.15625 1.45562,4.90604-3.24175,11.03867-5.96875,16.375 .33513.5686.72564,1.11968 1.125,1.65625 1.50449-2.91146 2.24599-4.86556 3.1875-7.03125 1.35842-3.23391 2.62471-5.63302 2.3125-9.21875-.35847-2.55259-1.251-4.2535-3.375-5.03125zm-38.9375,1.53125c.00715.02447.04577.08772.09375.15625 .01348.01925.0225.04156.03125.0625 .01051-.05963.00935-.12951-.03125-.1875-.00731-.01044.00647-.02145 0-.03125h-.0625c-.04382-.00116-.03733.00555-.03125,0zm42.1875,64.46875c-.03726.02872-.08794.06148-.125.09375 .01848-.00759.04245-.00376.0625,0 .03008.00564.04726.00471.0625.03125 .03255.05713.08385.10826.125.15625-.05305-.134-.08708-.21612-.125-.28125zm-16.5,6.28125c.03345.10176.07251.18802.09375.28125 .01219.05348.0476.08727.0625.125-.03097-.13597-.06537-.28981-.125-.40625-.00868-.00604-.02181.00379-.03125,0z" fill="#fc0" fill-rule="evenodd"/>
  <path d="m-204.17008,6.31014c-.56234,1.20793-1.23311,2.31862-2.09375,3.25-1.35115.46826-5.49034.40102-9.25,1.4375-.20855.05749-.4194.12307-.625.1875-.28668.09724-.55795.1934-.84375.3125-1.3001.54177-3.37573,1.39156-4.2266,2.9219 1.86481.65382 4.44795.15087 5.4766.29685 .28271.04517.51772.08841.5625.15625 .39915.60472-.29742,1.06301-.65625,1.53125-2.67414,3.48948-6.81057,11.88111-6.96875,18.8125-.0226.9902.03166,1.96266.1875,2.875 .49906-.34236 3.07832-5.1886 3.625-4.90625 1.02819,6.07441 2.22132,13.0284 6.625,18 .09914-.17581 1.70653-5.11269 1.84375-5.25 1.06767,3.41105 2.84832,8.07654 5.40625,11.0625 .14683.16351.29037.34708.4375.5l.21875.21875c.67162.67054 1.38719,1.213 2.15625,1.59375 .08258-2.05132-.31983-4.35874.9375-4l.125.0625c.07638.01981.16013.03943.25.09375l.03125.03125c1.68337.85222 3.83964,2.76236 5.4375,3.34375 .12398-.23709-.24767-1.74098-.09375-1.8125 1.40474-.37258 3.38508,1.61259 4.75,1.96875-.11448-.86971-.33404-1.70405.65625-1.6875 .90373-.0019 2.23886,2.59972 3.0625,2.75-.13666-.85881.06995-1.18321 1.0625-.96875 .33609.04388.60551.62729.9375.65625 .94619-.54933 2.68757.39251 3.46875,1.4375 .92532-.77935 2.36994-.51925 3.59375-.25 .29499.42545.69117.07324 1.15625-.125 1.94145-.78423.89575-.39624 1.53125.0625 .67923-.01014 1.63341-.57257 2.40625.375 .78118-1.04499 2.77256-1.20557 3.71875-.65625 .33198-.02896.50765-1.45612.84375-1.5 .99255-.21446 1.16791.10994 1.03125.96875 .82364-.15028 2.09627-3.5019 3-3.5 .99029-.01655.86448,1.56779.75,2.4375 1.36492-.35616 3.72025-5.40382 5.125-5.03125 .15392.07152.37602,1.88791.5,2.125 1.72565-.62789 3.42649-3.81018 5.15625-4.53125 .59501-.16977.95487.4832 1.1875,1.4375 .08256.07391.11861.34234.125.65625 .16061.95231.24608,2.03261.28125,2.90625 .59277-.43827 1.18169-1.02268 1.78125-1.6875l.1875-.21875 .03125-.03125c1.10244-1.37156 2.27644-3.06177 3.375-4.40625 .07098-.08687.14851-.13494.21875-.21875 .44965-.60311.8958-1.21374 1.3125-1.71875 .44806-.45204 1.17471-1.1349 1.78125-.65625 .13723.1373 1.27587,3.26169 1.375,3.4375 1.16029-1.41018 2.09241-3.10542 2.8125-4.90625 .00858-.02144.02273-.04102.03125-.0625 .13848-.36263.24678-.67465.375-1.03125 .01859-.05313.04421-.10299.0625-.15625 1.24772-3.63401 1.75291-7.55573 1.9375-10.5 .54668-.28236 4.53218,3.22014 5.03125,3.5625 .79067-5.7027-3.38174-16.13827-7.125-19.34375-.44808-.38371-1.02416-.92653-.625-1.53125 .04867-.07374.31227-.22589.65625-.40625l.03125-.03125c.64589-.58986 1.95648-1.05161 3.1875-1.4375 1.13287-.47685 2.19245-.88205 2.46875-.9375-3.43159-4.6593-15.05692-3.31329-17.21875-4.0625-.6829-.81772-1.22629-1.80807-1.65625-2.875-.68569,2.49329 4.55934,7.75618 7.09375,7.53125 1.70667,1.5998 2.05964,5.91966 4.375,8.03125 1.51794,2.53289 5.42439,5.48826 1.25,7.28125-2.87944,3.7061-.35084,9.61358-4.09375,12.78125-3.6445.9136-6.14892,4.68889-10.0625,4.625-3.00643-.23433-5.34135,2.37689-8.25,2.8125-5.47089,2.73012-10.90899,7.31643-17.40625,6.125-5.46323-.28319-10.30015-4.3002-15.90625-3.375-3.30647-1.29419-7.52052-1.52568-10.03125-3.8125-1.63573-3.06955-.83938-7.89233-4.59375-9.46875-4.08148.58919-4.95778-3.39381-5.09375-6.75-.6242-2.61983-3.252-4.68603-1.875-7.65625 1.24169-3.73537 4.45794-6.47853 5.34375-10.375 2.69741-2.11353 6.32552-2.59344 6.8125-6.84375-.02523-1.19284-.21621-1.80424-.5-1.9375z" fill="#ffac00" fill-rule="evenodd"/>
  <path d="m-207.7824-17.10409c-.4801-.0055-.98709.00461-1.5537.02443l-.40064.1368c-.11233.03258-.22259.07-.33224.11238l-.02443.00977c-.97013.38194-1.82399,1.13549-2.33056,2.03252-1.40522,2.51063-1.3625,4.67726-.27886,9.6373 1.42083,4.19494 2.33787,7.81421 4.50658,11.66273l-.80963.20338c-2.67845.92826-8.82437,1.51038-12.40808,7.13263l-.53255.84037 .94785.30292c.86422.27624 1.22993.58804 1.30941.70845s.07555.08788-.0342.27361c-3.37803,5.717-4.91458,16.106-3.51293,22.22579l.33712,1.47553 .98695-1.14818c.38138-.44196.67655-.65029.80616-.70845l.04398-.02443-.00489-.00977 .01954-.00489-.01465.01466c.02388.02842.32746.48752.54233,1.06512l.02443.0684 .0342.05863c2.79882,4.65926 4.45533,9.65732 7.56331,12.36612l.95275.8306 .29315-1.23124c.11537-.47847.23198-.71011.30781-.84037 .06412.04944.10795.07733.20032.17589 .14763.15753.22777.30872.50324.52279 .61449.47752 2.69201,4.97182 4.52431,6.47865 .91615.75342 1.77534,1.42377 2.4527,1.84197 .33868.2091 1.27977.70393 1.71005.75731 .1059-1.04118.25876-1.7213.35179-2.4869 1.5318.68396 3.14789,1.27281 4.71974,1.8664 .55378.17266 1.15663.40687 1.72471.4495 .17039-.05723.14947-.45604.26872-.68891 .46285-.32196 1.06554-.14394 1.59768-.04397 .32024.06908 1.01881.2846 1.61722.40552 .29921.06046.58433.20145.98206.32736 .13609-.3137.36697-.60475.64982-.85503 .00822-.00727.00155-.01914.00489-.02932 .34364-.01866.83398.02601.97717.06841 .7279.09194 1.48315,1.51699 2.09603,1.82242 .11023-.14502.30202-.29638.43485-.38598 .05738-.03871.11474-.1027.171-.171h.00489c.41725.04157.92007.21104 1.23612.34201 .16295-.20479.67199.56638.95274.50324 .34253-.07301.82358-.15505 1.40713-.18078 .02487-.00109 1.28641.9704 1.36804,1.36316 .43451-.48246.80466-.29912 2.13513-.79151 1.3115-.48538 1.16428.73448 1.92503.91365 1.1209-1.04909 2.47488-1.62395 3.19535-1.08466 .73066.54693.44466.62021.62539.67425 .05649.61483.4071-1.05956 1.99832-1.07489 .58355.02573 1.0646.10777 1.40713.18078 .28075.06314.66765.14699.83059.35178 .31605-.13096.69673-1.15546 1.11398-1.19703 .19496.19744.41981.35398.61073.55698 .61289-.30543 1.36814-1.73048 2.09604-1.82242 .14318-.0424.63353-.08707.97717-.06841 .25391.25667.48811.55119.65471.88435 .39773-.12591.68285-.2669.98205-.32736 .59842-.12092 1.29699-.33644 1.61722-.40552 .53214-.09997 2.09247-3.02384 2.55531-2.70189 .11926.23288.09833.63169.26872.68891 .56809-.04262 1.17094-.27683 1.72471-.4495 1.57185-.59359 3.18795-1.18244 4.71975-1.8664 .09302.76561.24589,1.44573.35178,2.48691 .43029-.05338 1.37137-.54821 1.71005-.75731 .67736-.4182 1.53656-1.08856 2.4527-1.84197 1.8323-1.50683 3.90982-3.37254 4.52431-3.85006 .27547-.21407.35561-.36526.50324-.52279 .09237-.09856.13621-.12646.20033-.17589 .07583.13026.19244.3619.3078.84037l.29316,1.23124 .95274-.8306c3.10798-2.7088 4.7645-7.70686 7.56331-12.36612l.03421-.05863 .02442-.0684c.21488-.5776.51846-1.0367.54234-1.06512l-.00978-.01466c.00728.00046.01647.00383.01466.00489l-.00488.00977 .04397.02443c.12962.05816.42478.26649.80617.70845l.98694,1.14818 .33712-1.47553c1.40166-6.11978-.1349-16.50879-3.51293-22.22579-.10974-.18573-.11368-.1532-.0342-.27361s.44519-.43221 1.30941-.70845l.94786-.30292-.53256-.84037c-3.5837-5.62225-10.91237-6.31222-13.59083-7.24048l-.07328-.70466c1.70442-4.08725 2.12782-4.97351 3.60027-9.16081 1.10864-3.00623 1.91427-8.13969.50904-10.65032-.50656-.89703-1.75324-2.41308-2.72337-2.79502l-.02443-.00977c-.10966-.04238-.21992-.07979-.33224-.11238l-.40064-.1368c-.56662-.01982-1.0736-.02993-1.55371-.02443-1.44031.01648-2.61565.17471-4.26047.64982-2.91049.97076-5.44301,2.75551-8.10565,4.23116-.03709.03375-.08544.06324-.14169.09283v-.03909c-.31939.2663-1.3449.26811-1.01137-1.61722 .0658-.37193-1.55124,1.16523-1.89083,1.29964-.4148.16418-2.70337-1.52379-2.52599-.5179 .1257.71281-4.56575-.83684-5.53568-1.42179-1.63159-.98397-3.22211,1.24883-5.07153.31758-1.24104-.62491-.08535-1.25656-.5521-1.18727-.72929-.1194-2.81976.80403-3.41522,1.18727-1.67454,1.21798-5.8617-1.45322-5.06664-.31758 .64961.92787-5.66138,2.1346-5.53568,1.42179 .17739-1.00589-2.11608.68208-2.53088.5179-.33959-.13441-.12972-.83079.07818-1.18238 1.00477-1.69925-2.8446,2.17625-2.98038,1.33873l.00488.20032c-.05798-.03023-.10857-.05826-.14657-.09283-2.66264-1.47565-5.19516-3.2604-8.10565-4.23116-1.64481-.47511-2.82015-.63334-4.26047-.64982zm.5179.3811c.40612.03362.81828.0832 1.2459.17101 1.58902.29471 3.08257.96154 4.43147,1.84197 2.01001,1.21975 3.80088,2.76168 5.78975,4.01129 .21971.26643.39597.26698.5521.15146 .09423.31986 1.78731-.95474 2.18887-1.59279 .2689-.42726-.00272,2.35924.52865,2.03879 1.2567-.75788 2.3757-1.75134 3.31722-1.437 1.90628.63645 3.07529-.65487 4.33307-1.68645 1.07872-.88473 3.41985,2.36077 4.40649,2.29927 1.24241-.07744 3.70246-2.52413 4.31966-2.77808 .61714.25398 1.12295,1.45264 2.36573,1.53011 .98665.0615 4.29963-1.81388 5.37836-.92915 1.25778,1.03159.78933,2.86634 2.69561,2.2299 .94153-.31434 3.05891-.81845 4.3156-.06057 .53137.32045-.11376-1.064.25407-.71822 .56669.53272 1.58169,2.72331 1.59224,2.5479 2.12977-.98216 4.56849-4.27509 6.62578-5.60644 1.3489-.88043 2.84245-1.54727 4.43148-1.84197 .42762-.0878.83977-.13739 1.24589-.17101-4.23043,2.35412-5.72849,8.66158-5.49659,12.00945-.12965,4.95297.19524,11.36712 3.16703,14.92559 2.16183.74921 13.77542-.60332 17.20701,4.05599-.69928.14034-6.07735,2.4292-6.33694,2.82247-.39915.60472.19686,1.15534.64494,1.53905 3.74325,3.20548 7.90446,13.63709 7.11379,19.3398-.49907-.34236-4.48085-3.84665-5.02753-3.56429-.29967,4.77987-1.51009,12.14094-5.22301,16.65352-.09914-.17581-1.2322-3.28419-1.36943-3.42149-.60655-.47865-1.34505.20267-1.79311.65471-2.04284,2.47572-4.54101,6.52496-6.91211,8.27803-.08258-2.05131-.33169-5.37427-1.58902-5.01553-1.72976.72107-3.43759,3.89905-5.16324,4.52694-.12398-.23709-.34541-2.05508-.49933-2.1266-1.40475-.37257-3.74961,4.69708-5.11453,5.05324 .11448-.86971.2475-2.47051-.74279-2.45396-.90373-.0019-2.17614,3.35414-2.99978,3.50442 .13666-.85881-.05302-1.18675-1.04557-.97229-.3361.04388-.49373,1.48077-.82571,1.50973-.94619-.54932-2.93697-.40005-3.71815.64494-.77284-.94757-1.7295-.36681-2.40873-.35667-.6355-.45874.40729-.85263-1.53416-.0684-.46508.19824-.8825.54759-1.17749.12214-1.22381-.26925-2.6609-.53994-3.58622.23941-.78118-1.04499-2.513-1.98577-3.45919-1.43644-.33199-.02896-.61177-.61083-.94786-.65471-.99255-.21446-1.18223.11348-1.04557.97229-.82364-.15028-2.17925-2.75753-3.08298-2.75563-.99029-.01655-.77408.83546-.6596,1.70517-1.36491-.35616-3.33454-2.36679-4.73929-1.99421-.15391.07152.20705,1.57634.08306,1.81343-1.72565-.62789-4.09906-2.80593-5.82883-3.52701-1.25733-.35874-.84084,1.96428-.92343,4.0156-4.10162-2.03066-6.80678-8.84342-8.23035-13.39148-.13721.13731-1.74515,5.07582-1.8443,5.25163-4.40368-4.9716-5.60919-11.91029-6.63739-17.9847-.54667-.28236-3.11408,4.5531-3.61315,4.89547-1.24667-7.2987 3.72484-17.68138 6.781-21.66936 .35883-.46824 1.04409-.93433.64493-1.53905-.25959-.39327-5.30486-.35257-6.00414-.49292 3.4316-4.6593 12.75638-4.08962 14.9182-4.83884 3.24269-3.5092 4.12059-9.45673 4.49822-14.26 .2319-3.34787-1.26617-9.65533-5.4966-12.00945zm-1.80288.70845c.14565-.0002.29463.01282.44461.03909-1.4282-.01767-2.65653,1.01683-3.18069,2.697-1.45049,4.88875 3.18094,11.66425 5.91189,17.0028-.3163.52789-.65889,1.04408-1.03092,1.54393-.89252-1.2703-2.25873-4.8553-3.20024-7.02098-1.35841-3.23391-2.633-5.99056-2.32078-9.57629-.11331-2.3841 1.42063-4.68285 3.37613-4.68554zm63.6237,0c2.12399.77775 3.01767,2.50363 3.37614,5.05622 .31221,3.58573-.96237,5.9717-2.32079,9.20561-.94151,2.16569-1.69575,4.10952-3.20024,7.02098-.39936-.53657-.76419-1.09259-1.09932-1.66119 2.727-5.33633 7.39683-11.45183 5.94121-16.35787-.54657-1.75197-1.86027-3.07859-3.36636-3.17092 .22696-.05992.45147-.09313.66936-.09283z" fill-rule="evenodd"/>
  <path transform="matrix(.19271 0 0 .19271 -283.32 -45.171)" d="m505.67 299.55a31.952 36.119 0 1 1 -63.903 0 31.952 36.119 0 1 1 63.903 0z"/>
  <path transform="matrix(.16904 0 0 .16904 -271.67 -37.719)" d="m505.67 299.55a31.952 36.119 0 1 1 -63.903 0 31.952 36.119 0 1 1 63.903 0z" fill="#fff"/>
  <path transform="matrix(.11085 0 0 .1086 -242.92 -18.379)" d="m505.67 299.55a31.952 36.119 0 1 1 -63.903 0 31.952 36.119 0 1 1 63.903 0z"/>
  <path transform="matrix(.1288 .09025 -.07441 .10283 -231.74 -59.706)" d="m477.25 282.83a2.9865 7.9143 0 1 1 -5.973 0 2.9865 7.9143 0 1 1 5.973 0z" fill="#fff"/>
  <path transform="matrix(-.24367 0 0 .24367 -54.77 -60.88)" d="m505.67 299.55a31.952 36.119 0 1 1 -63.903 0 31.952 36.119 0 1 1 63.903 0z"/>
  <path transform="matrix(-.21374 0 0 .21374 -69.509 -51.457)" d="m505.67 299.55a31.952 36.119 0 1 1 -63.903 0 31.952 36.119 0 1 1 63.903 0z" fill="#fff"/>
  <path transform="matrix(-.14017 0 0 .13732 -105.86 -27.002)" d="m505.67 299.55a31.952 36.119 0 1 1 -63.903 0 31.952 36.119 0 1 1 63.903 0z"/>
  <path transform="matrix(.16287 .11411 -.09408 .13002 -224.47 -79.595)" d="m477.25 282.83a2.9865 7.9143 0 1 1 -5.973 0 2.9865 7.9143 0 1 1 5.973 0z" fill="#fff"/>
  <path d="m-192.11 29.293c0.40171 0.9561 0.06923 0.92671-0.5479 0.92306-0.3001-0.00177-0.63413-0.27649-1.0844-0.49632-10.542-6.1812-29.176-12.291-47.241-4.519 4.3957-2.9164 18.629-5.2314 23.72-4.7564 8.6399 0.95578 17.01 3.9794 24.459 8.4246l0.69378 0.42395z" fill-rule="evenodd"/>
  <path d="m-193.26 34.367c0.6201 0.83124 0.29033 0.88277-0.30953 1.0278-0.29169 0.07054-0.68204-0.11567-1.172-0.22062-11.72-3.4611-28.716-5.298-39.021 2.8489 3.5641-3.889 8.9037-5.4231 13.959-6.188 8.6159-1.1527 17.468-0.23337 25.768 2.2874l0.77545 0.24443z" fill-rule="evenodd"/>
  <path d="m-193.48 37.672c0.78216 0.56633 0.56302 0.71781 0.18487 1.0404-0.18388 0.15687-0.54185 0.10947-0.93978 0.16805-9.8985 0.52979-22.984 4.2164-27.226 14.945 1.0398-4.6928 4.309-7.7872 7.6786-10.086 5.8026-3.78 12.603-5.7344 19.641-6.0458l0.66109-0.02091z" fill-rule="evenodd"/>
  <path d="m-171.05 30.448c-0.40171 0.95609-0.06923 0.92671 0.5479 0.92306 0.30009-0.00177 0.63412-0.27649 1.0844-0.49632 16.877-9.9352 34.807-10.179 46.771-4.7536-4.3957-2.9164-18.159-4.9967-23.25-4.5218-8.6399 0.95578-17.01 3.9794-24.459 8.4246l-0.69378 0.42395z" fill-rule="evenodd"/>
  <path d="m-170.67 34.367c-0.6201 0.83124-0.29033 0.88277 0.30953 1.0278 0.29169 0.07054 0.68204-0.11567 1.172-0.22062 11.72-3.4611 28.716-5.298 39.021 2.8489-3.5641-3.889-8.9037-5.4231-13.959-6.188-8.6159-1.1527-17.468-0.23337-25.768 2.2874l-0.77545 0.24443z" fill-rule="evenodd"/>
  <path d="m-169.67 39.212c-0.78217 0.56633-0.56303 0.71781-0.18487 1.0404 0.18388 0.15687 0.54184 0.10947 0.93978 0.16805 9.8985 0.52979 22.984 4.2164 27.226 14.945-1.0398-4.6928-4.309-7.7872-7.6786-10.086-5.8026-3.78-12.603-5.7344-19.641-6.0458l-0.66108-0.02091z" fill-rule="evenodd"/>
  <path transform="matrix(.15635 0 0 .10471 -268.44 -10.665)" d="m608.29 437.49a48.023 40.634 0 1 1 -96.045 0 48.023 40.634 0 1 1 96.045 0z"/>
  <path d="m-171.88 42.888c-0.20644 0.01309-2.1322-0.18341 1.3615 0.73258l1.6113 0.43399c-0.09196 0.57699-0.60861 1.3196-1.5886 2.048-6.1998 4.0594-16.27 3.6776-22.445 0.20085-0.77256-0.12213-0.88792-0.20569-0.28141 0.09684 6.7208 4.0921 15.602 3.4488 18.489 2.6747 3.3699-0.85048 6.0057-1.9084 8.3014-4.5243 0.47955 0.14002 2.1405 0.89692 2.5624 0.69833 0.63147-0.29725 0.49004-0.10132 0.70534-0.36321-3.3509-1.621-4.3794-1.2693-8.7162-1.9977z" fill-rule="evenodd"/>
  <path d="m-174.22-7.5192c6.1507-2.7434 7.3323 0.57164 6.7808-3.1897-0.06078-0.46128 0.23688-0.77978-0.15168-0.62775 0.92425-2.944-11.702 6.0238-9.1696 4.2606-3.4854 2.8834-3.5544 2.2754 2.5404-0.4431z" fill-rule="evenodd"/>
  <path d="m-189.50693-.32858c-5.17959-.38178-5.63466,1.35908-5.73349-.49894-.01745-.22685-.29422-.33303.02999-.31895-1.13416-1.25288 9.96741,1.10621 7.74583.64977 3.12188.84381 3.09018.54644-2.04233.16813z" fill-rule="evenodd"/>
  <path transform="matrix(.1791 -.030636 .03191 .18655 -294.95 -32.312)" d="m553.29 441.56a11.972 6.1477 0 1 1 -23.944 0 11.972 6.1477 0 1 1 23.944 0z" fill="#fff" fill-rule="evenodd"/>
  <path d="m-147.5-16.726s-3.1314 0.21971-5.8397 2.2851c-1.3081 0.99759-3.47 3.3853-4.0624 3.8931s-1.6927 1.1002-2.1158 1.2695l2.7929 6.7706s-0.2539-3.3853 0.50779-5.5858c1.2628-4.8806 5.2951-6.789 8.7172-8.6326z" fill="#ffac00" fill-rule="evenodd"/>
  <path d="m-207.20133-16.68986c.57168.14755 2.6441.70089 6.63917,3.83087 4.83692,3.78952 4.09054,7.95783 3.73583,9.26288 .272-.74871 2.02463-5.46875 2.96875-5.46875 1.02221,0 2.74764.07089 4.5-1s2.55535-.11537 5.28125.46875 4.93094.01501 7.21875-.8125 4.86483-.39184 7.25-.78125 1.93454,1.0625 4.125,1.0625 2.74828.28733 6.59375,3.5c.57872.48349.77726.66538 1.09375.9375l-1.53125-3.53125c-.07217.03802-.14725.09202-.21875.125-.00527.08771-.26784-.43894-.59375-1.03125-.25397-.46158-.52879-.91895-.78125-1.25-.08205-.11094-.14792-.21466-.21875-.28125-.04598-.04322-.07515-.06664-.09375-.0625s-.03461.04354-.03125.09375c.00113.1904.20091.71744.03125.75-.03382.00653-.08983-.02244-.15625-.0625-.30626-.1847-.68349-.28794-1.0625-.34375h-.03125c-.38994-.05441-.78544-.06654-1.1875-.03125-.80412.07059-1.56048.28033-2.03125.4375-.47657.15911-.81869.16113-1.0625.0625-.253-.10037-.38624-.29961-.53125-.5625-.1392-.25404-.27476-.53662-.4375-.84375-.08246-.15304-.16933-.3214-.28125-.46875s-.24903-.2773-.40625-.40625c-.13484-.11059-.30434-.18547-.5-.21875s-.4174-.02522-.65625,0c-.47739.05122-1.01971.19867-1.5625.375s-1.09662.37712-1.5625.53125c-.45271.14788-.85252.26504-1.09375.25-.31069-.01937-.58273-.12266-.8125-.25-.23695-.13132-.41275-.2924-.59375-.46875-.17386-.16522-.35078-.32253-.5-.46875-.00541-.00534.0054-.02598 0-.03125-.15362-.1493-.28322-.249-.4375-.3125-.38575.15872-1.51546,1.14822-2.59375,1.90625-.43131.30321-.844.56913-1.21875.71875-.18738.07481-.37595.11532-.53125.125-.12333.00769-.2457-.01262-.40625-.09375-.01096-.00554-.02014-.02537-.03125-.03125-.47703-.25253-1.10056-.80451-1.71875-1.3125-.21918-.1801-.44126-.3501-.65625-.5-.31077-.21724-.60124-.39428-.875-.46875-.27377-.0755-.51649-.04089-.71875.125l-.9375.78125c-.31626.25618-.62487.50139-.96875.6875s-.69836.32722-1.09375.375c-.40543.05318-.8242.00678-1.3125-.15625-.11769-.03929-.25184-.06106-.375-.0625-.24606-.00285-.48329.07507-.75.1875-.4088.16759-.82681.42002-1.28125.71875-.2959.19485-.59208.40428-.90625.59375-.39343.23726-.34791-1.24006-.40625-1.84375-.00147-.01368.00159-.0186 0-.03125s.0017-.01773 0-.03125c-.00965-.07662-.04606-.12677-.0625-.15625-.00484-.00867-.02565.00374-.03125,0l-.03125.03125c-.30117.47854-1.34025,1.30905-1.875,1.5625-.17813.08457-.28895.11122-.3125.03125-.15614.11552-.34279.11018-.5625-.15625-1.98887-1.24961-3.77125-2.8115-5.78125-4.03125-1.34891-.88043-2.84848-1.54904-4.4375-1.84375-.3421-.07024-.67287-.09228-1-.125h-.1875zm49.40625,11 .125.28125c0,0 .63605.4964.8125.59375-.06899-.0778-.48179-.48318-.9375-.875z" fill="#ffac00" fill-rule="evenodd"/>
 </g>
</svg>
