<?xml version="1.0" encoding="UTF-8"?>
<svg viewBox="0 0 287.54529 284.26868" xmlns="http://www.w3.org/2000/svg">
 <g transform="matrix(9.9955 0 0 9.9955 -1317.6 100.9)">
  <g fill="#666" stroke="#686565" stroke-linecap="round" stroke-linejoin="round" stroke-width=".125">
   <path d="m136.24 9.4286 0.6912-1.424 0.22641 1.9871-0.6912 1.424-0.22641-1.9871z"/>
   <path d="m136.92922,8.00464-.93546-.24887 .22641,1.98714 .93546.24887-.22641-1.98714z"/>
   <path d="m135.99376,7.75577-.93545-.24886 .22641,1.98714 .93545.24886-.22641-1.98714z"/>
   <path d="m135.05831,7.50691 .49158-.93468 .22641,1.98714-.49158.93468-.22641-1.98714z"/>
   <path d="m135.54989,6.57222 .49157-.93468 .22641,1.98714-.49157.93468-.22641-1.98714z"/>
   <path d="m136.04146,5.63754-.90468-.23425 .22641,1.98714 .90468.23425-.22641-1.98714z"/>
   <path d="m135.13678,5.40329-.90468-.23425 .22641,1.98714 .90468.23425-.22641-1.98714z"/>
   <path d="m134.2321,5.16904 .52234-.92007 .22641,1.98714-.52234.92007-.22641-1.98714z"/>
   <path d="m134.75 4.249 0.52235-0.92007 0.22641 1.9871-0.52235 0.92007-0.22641-1.9871z"/>
   <path d="m135.27679,3.32891-.87391-.21963 .22641,1.98714 .87391.21963-.22641-1.98714z"/>
   <path d="m134.4 3.1093-0.8739-0.21963 0.22641 1.9871 0.8739 0.21963-0.22641-1.9871z"/>
   <path d="m133.52898,2.88965 .55311-.90545 .22641,1.98714-.55311.90545-.22641-1.98714z"/>
   <path d="m134.08209,1.9842 .55312-.90545 .22641,1.98714-.55312.90545-.22641-1.98714z"/>
   <path d="m134.63521,1.07875-.84009-.20427 .22641,1.98714 .84009.20427-.22641-1.98714z"/>
   <path d="m133.79512.87447-.84008-.20427 .22641,1.98714 .84008.20427-.22641-1.98714z"/>
   <path d="m132.95504.6702 .26066-.44008 .22641,1.98714-.26066.44007-.22641-1.98714z"/>
   <path d="m133.2157.23013 .26111-.43987 .22641,1.98714-.26111.43987-.22641-1.98714z"/>
   <path d="m133.47681-.20974-.79885-.20558 .22641,1.98714 .79885.20558-.22641-1.98714z"/>
   <path d="m132.67796-.41533-.79842-.20538 .22641,1.98714 .79842.20538-.22641-1.98714z"/>
   <path d="m131.88-0.6207 0.92087-1.3127 0.22641 1.9871-0.92087 1.3127-0.22641-1.9871z"/>
   <path d="m132.8-1.9334 0.92088-1.3127 0.22641 1.9871-0.92088 1.3127-0.22641-1.9871z"/>
   <path d="m133.72-3.2462 2.3448 0.52735 0.22641 1.9871-2.3448-0.52735-0.22641-1.9871z"/>
   <path d="m136.07-2.7188 2.3448 0.52735 0.22641 1.9871-2.3448-0.52735-0.22641-1.9871z"/>
   <path d="m138.41086-2.19149-.26117.46003 .22641,1.98714 .26117-.46003-.22641-1.98714z"/>
   <path d="m138.14969-1.73146-.26118.46003 .22641,1.98714 .26118-.46003-.22641-1.98714z"/>
   <path d="m137.88851-1.27143 .83684.19225 .22641,1.98714-.83684-.19225-.22641-1.98714z"/>
   <path d="m138.72535-1.07918 .83683.19224 .22641,1.98714-.83683-.19224-.22641-1.98714z"/>
   <path d="m139.56-0.88694 2.1929-4.186 0.22641 1.9871-2.1929 4.186-0.22641-1.9871z"/>
   <path d="m141.76-5.0729 2.1929-4.186 0.22641 1.9871-2.1929 4.186-0.22641-1.9871z"/>
   <path d="m143.948-9.25889 .59334.10591 .22641,1.98714-.59334-.10591-.22641-1.98714z"/>
   <path d="m144.54-9.153 0.59336 0.10591 0.22641 1.9871-0.59336-0.10591-0.22641-1.9871z"/>
   <path d="m145.13-9.0471-2.9821 6.1183 0.22641 1.9871 2.9821-6.1183-0.22641-1.9871z"/>
   <path d="m142.15-2.9288-2.9821 6.1183 0.22641 1.9871 2.9821-6.1183-0.22641-1.9871z"/>
   <path d="m139.1705,3.18947-.77199-.19076 .22641,1.98714 .77199.19076-.22641-1.98714z"/>
   <path d="m138.4 2.9987-0.77197-0.19076 0.22641 1.9871 0.77197 0.19076-0.22641-1.9871z"/>
   <path d="m137.63 2.808 0.7228-1.3797 0.22641 1.9871-0.7228 1.3797-0.22641-1.9871z"/>
   <path d="m138.35 1.4282 0.7228-1.3797 0.22641 1.9871-0.7228 1.3797-0.22641-1.9871z"/>
   <path d="m139.07214.04848-.85298-.19992 .22641,1.98714 .85298.19992-.22641-1.98714z"/>
   <path d="m138.21916-.15144-.85299-.19992 .22641,1.98714 .85299.19992-.22641-1.98714z"/>
   <path d="m137.36617-.35136 .26117-.46003 .22641,1.98714-.26117.46003-.22641-1.98714z"/>
   <path d="m137.62734-.81139 .26117-.46003 .22641,1.98714-.26117.46003-.22641-1.98714z"/>
   <path d="m137.89-1.2714-1.594-0.36618 0.22641 1.9871 1.594 0.36618-0.22641-1.9871z"/>
   <path d="m136.29-1.6376-1.594-0.36618 0.22641 1.9871 1.594 0.36618-0.22641-1.9871z"/>
   <path d="m134.7006-2.00379-.58389.89083 .22641,1.98714 .58389-.89083-.22641-1.98714z"/>
   <path d="m134.12-1.113-0.58389 0.89083 0.22641 1.9871 0.58389-0.89083-0.22641-1.9871z"/>
   <path d="m133.53282-.22212 .82775.19771 .22641,1.98714-.82775-.19771-.22641-1.98714z"/>
   <path d="m134.36057-.02441 .82776.19771 .22641,1.98714-.82776-.19771-.22641-1.98714z"/>
   <path d="m135.18833.1733-.27656.45272 .22641,1.98714 .27656-.45273-.22641-1.98714z"/>
   <path d="m134.91177.62602-.27656.45272 .22641,1.98714 .27656-.45273-.22641-1.98714z"/>
   <path d="m134.63521,1.07875 .84135.20458 .22641,1.98714-.84135-.20458-.22641-1.98714z"/>
   <path d="m135.47656,1.28333 .84135.20458 .22641,1.98714-.84135-.20458-.22641-1.98714z"/>
   <path d="m136.31791,1.48791-.4926.91429 .22641,1.98714 .4926-.91429-.22641-1.98714z"/>
   <path d="m135.82531,2.4022-.49179.91468 .22641,1.98714 .49179-.91468-.22641-1.98714z"/>
   <path d="m135.33352,3.31688 .84444.22724 .22641,1.98714-.84444-.22724-.22641-1.98714z"/>
   <path d="m136.17796,3.54412 .84487.22744 .22641,1.98714-.84487-.22744-.22641-1.98714z"/>
   <path d="m137.02283,3.77156-.4784.90962 .22641,1.98714 .4784-.90962-.22641-1.98714z"/>
   <path d="m136.54443,4.68118-.47839.90962 .22641,1.98714 .47839-.90962-.22641-1.98714z"/>
   <path d="m136.06604,5.5908 .90391.23388 .22641,1.98714-.90391-.23388-.22641-1.98714z"/>
   <path d="m136.96995,5.82469 .90392.23388 .22641,1.98714-.90392-.23388-.22641-1.98714z"/>
   <path d="m137.87387,6.05857-.47233.97303 .22641,1.98714 .47233-.97303-.22641-1.98714z"/>
   <path d="m137.40154,7.0316-.47232.97303 .22641,1.98714 .47232-.97303-.22641-1.98714z"/>
   <path d="m136.92922,8.00464 .93351.24835 .22641,1.98714-.93351-.24835-.22641-1.98714z"/>
   <path d="m137.86 8.253 0.93352 0.24835 0.22641 1.9871-0.93352-0.24835-0.22641-1.9871z"/>
   <path d="m138.8 8.5013-0.40973 0.98287 0.22641 1.9871 0.40973-0.98287-0.22641-1.9871z"/>
   <path d="m138.38652,9.4842-.40887.98327 .22641,1.98714 .40887-.98327-.22641-1.98714z"/>
   <path d="m137.98 10.467 7.7329 2.1093 0.22641 1.9871-7.7329-2.1093-0.22641-1.9871z"/>
   <path d="m145.71 12.577 7.7329 2.1093 0.22641 1.9871-7.7329-2.1093-0.22641-1.9871z"/>
   <path d="m153.44 14.686 0.21112-1.0878 0.22641 1.9871-0.21112 1.0878-0.22641-1.9871z"/>
   <path d="m153.65 13.598 0.21028-1.0882 0.22641 1.9871-0.21028 1.0882-0.22641-1.9871z"/>
   <path d="m153.86 12.51 0.88534 0.23553 0.22641 1.9871-0.88534-0.23553-0.22641-1.9871z"/>
   <path d="m154.75 12.746 0.88536 0.23554 0.22641 1.9871-0.88536-0.23554-0.22641-1.9871z"/>
   <path d="m155.64 12.981 0.25195-1.6232 0.22641 1.9871-0.25195 1.6232-0.22641-1.9871z"/>
   <path d="m155.89 11.358 0.25076-1.6237 0.22641 1.9871-0.25076 1.6237-0.22641-1.9871z"/>
   <path d="m156.1382,9.73427 .91386.21708 .22641,1.98714-.91386-.21708-.22641-1.98714z"/>
   <path d="m157.05206,9.95135 .91342.21687 .22641,1.98714-.91342-.21687-.22641-1.98714z"/>
   <path d="m157.97 10.168 0.42251-3.8859 0.22641 1.9871-0.42251 3.8859-0.22641-1.9871z"/>
   <path d="m158.39 6.2823 0.42251-3.8859 0.22641 1.9871-0.42251 3.8859-0.22641-1.9871z"/>
   <path d="m158.8105,2.39642-.78159-.17578 .22641,1.98714 .78159.17578-.22641-1.98714z"/>
   <path d="m158.02891,2.22064-.7816-.17578 .22641,1.98714 .7816.17578-.22641-1.98714z"/>
   <path d="m157.24731,2.04485 .07577-.5481 .22641,1.98714-.07577.5481-.22641-1.98714z"/>
   <path d="m157.32308,1.49676 .07578-.5481 .22641,1.98714-.07578.5481-.22641-1.98714z"/>
   <path d="m157.39886.94866-.76621-.16847 .22641,1.98714 .76621.16847-.22641-1.98714z"/>
   <path d="m156.63265.78019-.7662-.16847 .22641,1.98714 .7662.16847-.22641-1.98714z"/>
   <path d="m155.87 0.61171-0.27348 1.6224 0.22641 1.9871 0.27348-1.6224-0.22641-1.9871z"/>
   <path d="m155.59 2.2341-0.27348 1.6224 0.22641 1.9871 0.27348-1.6224-0.22641-1.9871z"/>
   <path d="m155.31949,3.85645-.81238-.1904 .22641,1.98714 .81238.1904-.22641-1.98714z"/>
   <path d="m154.51 3.666-0.81236-0.1904 0.22641 1.9871 0.81236 0.1904-0.22641-1.9871z"/>
   <path d="m153.69 3.4756 0.42086-2.1072 0.22641 1.9871-0.42086 2.1072-0.22641-1.9871z"/>
   <path d="m154.12 1.3684 0.42085-2.1072 0.22641 1.9871-0.42085 2.1072-0.22641-1.9871z"/>
   <path d="m154.54-0.73885-1.5032-0.32306 0.22641 1.9871 1.5032 0.32306-0.22641-1.9871z"/>
   <path d="m153.03-1.0619-1.5032-0.32306 0.22641 1.9871 1.5032 0.32306-0.22641-1.9871z"/>
   <path d="m151.53-1.385-0.40509 1.5306 0.22641 1.9871 0.40509-1.5306-0.22641-1.9871z"/>
   <path d="m151.125.14568-.40509,1.53065 .22641,1.98714 .40509-1.53065-.22641-1.98714z"/>
   <path d="m150.71991,1.67633-.79698-.18309 .22641,1.98714 .79698.18309-.22641-1.98714z"/>
   <path d="m149.92293,1.49324-.79697-.18309 .22641,1.98714 .79697.18309-.22641-1.98714z"/>
   <path d="m149.13 1.3102 0.60318-2.0206 0.22641 1.9871-0.60318 2.0206-0.22641-1.9871z"/>
   <path d="m149.73-0.7105 0.60317-2.0206 0.22641 1.9871-0.60317 2.0206-0.22641-1.9871z"/>
   <path d="m150.33-2.7312-1.4724-0.30845 0.22641 1.9871 1.4724 0.30845-0.22641-1.9871z"/>
   <path d="m148.86-3.0396-1.4724-0.30845 0.22641 1.9871 1.4724 0.30845-0.22641-1.9871z"/>
   <path d="m147.39-3.348-0.72473 1.9629 0.22641 1.9871 0.72473-1.9629-0.22641-1.9871z"/>
   <path d="m146.66-1.3851-0.72472 1.9629 0.22641 1.9871 0.72472-1.9629-0.22641-1.9871z"/>
   <path d="m145.93803.57779-.79698-.18309 .22641,1.98714 .79698.18309-.22641-1.98714z"/>
   <path d="m145.14105.3947-.79699-.18309 .22641,1.98714 .79699.18309-.22641-1.98714z"/>
   <path d="m144.34 0.2116 1.7898-4.4067 0.22641 1.9871-1.7898 4.4067-0.22641-1.9871z"/>
   <path d="m146.13-4.1951 1.7897-4.4067 0.22641 1.9871-1.7897 4.4067-0.22641-1.9871z"/>
   <path d="m147.92-8.6018-1.3499-0.2405 0.22641 1.9871 1.3499 0.2405-0.22641-1.9871z"/>
   <path d="m146.57-8.8423-1.35-0.2405 0.22641 1.9871 1.35 0.2405-0.22641-1.9871z"/>
   <path d="m145.22367-9.08276 .2304-.47465 .22641,1.98714-.2304.47465-.22641-1.98714z"/>
   <path d="m145.45407-9.55741 .2304-.47465 .22641,1.98714-.2304.47465-.22641-1.98714z"/>
   <path d="m145.68-10.032 1.3184 0.22552 0.22641 1.9871-1.3184-0.22552-0.22641-1.9871z"/>
   <path d="m147-9.8066 1.3184 0.22552 0.22641 1.9871-1.3184-0.22552-0.22641-1.9871z"/>
   <path d="m148.32-9.581-0.19814 0.48786 0.22641 1.9871 0.19814-0.48786-0.22641-1.9871z"/>
   <path d="m148.12313-9.09317-.19814.48786 .22641,1.98714 .19814-.48786-.22641-1.98714z"/>
   <path d="m147.92499-8.60531 .63652.12847 .22641,1.98714-.63652-.12847-.22641-1.98714z"/>
   <path d="m148.56151-8.47684 .63695.12868 .22641,1.98714-.63695-.12868-.22641-1.98714z"/>
   <path d="m149.2-8.3482-0.71282 1.9781 0.22641 1.9871 0.71282-1.9781-0.22641-1.9871z"/>
   <path d="m148.49-6.3701-0.71121 1.9788 0.22641 1.9871 0.71121-1.9788-0.22641-1.9871z"/>
   <path d="m147.77-4.3913 1.4393 0.29293 0.22641 1.9871-1.4393-0.29293-0.22641-1.9871z"/>
   <path d="m149.21-4.0984 1.4393 0.29293 0.22641 1.9871-1.4393-0.29293-0.22641-1.9871z"/>
   <path d="m150.65299-3.80542-.1527.51155 .22641,1.98714 .1527-.51155-.22641-1.98714z"/>
   <path d="m150.5-3.2939-0.15271 0.51156 0.22641 1.9871 0.15271-0.51156-0.22641-1.9871z"/>
   <path d="m150.35-2.7823 2.2063 0.46157 0.22641 1.9871-2.2063-0.46157-0.22641-1.9871z"/>
   <path d="m152.55-2.3207 2.2063 0.46157 0.22641 1.9871-2.2063-0.46157-0.22641-1.9871z"/>
   <path d="m154.76021-1.85916-.11187.56015 .22641,1.98714 .11187-.56016-.22641-1.98714z"/>
   <path d="m154.65-1.299-0.11188 0.56015 0.22641 1.9871 0.11188-0.56015-0.22641-1.9871z"/>
   <path d="m154.54-0.73885 1.5032 0.32306 0.22641 1.9871-1.5032-0.32306-0.22641-1.9871z"/>
   <path d="m156.04-0.41579 1.5032 0.32306 0.22641 1.9871-1.5032-0.32306-0.22641-1.9871z"/>
   <path d="m157.54283-.09273-.07172.51878 .22641,1.98714 .07172-.51878-.22641-1.98714z"/>
   <path d="m157.47111.42605-.07172.51877 .22641,1.98714 .07172-.51877-.22641-1.98714z"/>
   <path d="m157.39939.94482 .78338.18839 .22641,1.98714-.78338-.18839-.22641-1.98714z"/>
   <path d="m158.18277,1.13321 .78382.1886 .22641,1.98714-.78382-.1886-.22641-1.98714z"/>
   <path d="m158.96659,1.32181-.03634.54663 .22641,1.98714 .03634-.54663-.22641-1.98714z"/>
   <path d="m158.93025,1.86844-.03593.54683 .22641,1.98714 .03593-.54683-.22641-1.98714z"/>
   <path d="m158.89432,2.41527 .70062.15757 .22641,1.98714-.70062-.15757-.22641-1.98714z"/>
   <path d="m159.59494,2.57284 .7006.15757 .22641,1.98714-.7006-.15757-.22641-1.98714z"/>
   <path d="m160.3 2.7304-0.32024 3.9343 0.22641 1.9871 0.32024-3.9343-0.22641-1.9871z"/>
   <path d="m159.98 6.6647-0.32024 3.9343 0.22641 1.9871 0.32024-3.9343-0.22641-1.9871z"/>
   <path d="m159.66 10.599-0.82406-0.19382 0.22641 1.9871 0.82406 0.19382-0.22641-1.9871z"/>
   <path d="m158.831,10.40524-.82448-.19402 .22641,1.98714 .82448.19401-.22641-1.98714z"/>
   <path d="m158.01 10.211-0.20268 1.6466 0.22641 1.9871 0.20268-1.6466-0.22641-1.9871z"/>
   <path d="m157.8 11.858-0.2039 1.646 0.22641 1.9871 0.2039-1.646-0.22641-1.9871z"/>
   <path d="m157.6 13.504-0.93406-0.24849 0.22641 1.9871 0.93406 0.24849-0.22641-1.9871z"/>
   <path d="m156.66588,13.2553-.93406-.2485 .22641,1.98714 .93406.2485-.22641-1.98714z"/>
   <path d="m155.73 13.007-0.22733 1.6443 0.22641 1.9871 0.22733-1.6443-0.22641-1.9871z"/>
   <path d="m155.5 14.651-0.22732 1.6443 0.22641 1.9871 0.22732-1.6443-0.22641-1.9871z"/>
   <path d="m155.28 16.295-9.8652-2.7214 0.22641 1.9871 9.8652 2.7214-0.22641-1.9871z"/>
   <path d="m145.41 13.574-9.8652-2.7214 0.22641 1.9871 9.8652 2.7214-0.22641-1.9871z"/>
   <path d="m135.55 10.853 0.69121-1.424 0.22641 1.9871-0.69121 1.424-0.22641-1.9871z"/>
   <path d="m136.24 9.4286 0.22641 1.9871-0.22641-1.9871z"/>
  </g>
  <path d="m134.43-2.5727 3.4166 0.79121 0.14385 0.79121 2.014 0.68332 4.8192-8.6674 0.86314-0.28771 2.014 0.39561 0.43157 0.61139-0.86314 4.1718 2.9491 1.007 0.39561 0.79121 3.7762 1.2588 0.28772 0.57543 2.4456 1.043 0.53946 0.68332 1.1149 0.97103 0.43157 0.79121-0.93507 7.013-0.68332 0.39561-2.2657 3.021-2.014 1.6903-16.328-4.5315 0.10789-2.0859-1.7622-4.999-0.14386-1.043-0.64735-1.8701-1.2947-1.1508 1.1868-2.05z" fill="#fff" fill-rule="evenodd"/>
  <path d="m136.23802,9.42859 .6912-1.42395-.93546-.24887-.93545-.24886 .49158-.93468 .49157-.93468-.90468-.23425-.90468-.23425 .52234-.92007 .52235-.92007-.87391-.21963-.8739-.21963 .55311-.90545 .55312-.90545-.84009-.20427-.84008-.20427 .26066-.44008 .26111-.43987-.79885-.20558-.79842-.20538 .92087-1.31274 .92088-1.31274 2.34479.52735 2.34478.52735-.26117.46003-.26118.46003 .83684.19225 .83683.19224 2.19291-4.18598 2.19291-4.18598 .59334.10591 .59336.10591-2.9821,6.11827-2.9821,6.11827-.77199-.19076-.77197-.19076 .7228-1.37974 .7228-1.37974-.85298-.19992-.85299-.19992 .26117-.46003 .26117-.46003-1.59395-.36618-1.59396-.36618-.58389.89083-.58389.89083 .82775.19771 .82776.19771-.27656.45272-.27656.45272 .84135.20458 .84135.20458-.4926.91429-.49179.91468 .84444.22724 .84487.22744-.4784.90962-.47839.90962 .90391.23388 .90392.23388-.47233.97303-.47232.97303 .93351.24835 .93352.24835-.40973.98287-.40887.98327 7.73287,2.10931 7.73287,2.10931 .21112-1.08779 .21028-1.08819 .88534.23553 .88536.23554 .25195-1.62317 .25076-1.62374 .91386.21708 .91342.21687 .42251-3.8859 .42251-3.8859-.78159-.17578-.7816-.17578 .07577-.5481 .07578-.5481-.76621-.16847-.7662-.16847-.27348,1.62237-.27348,1.62237-.81238-.1904-.81236-.1904 .42086-2.10725 .42085-2.10725-1.50318-.32306-1.50319-.32306-.40509,1.53065-.40509,1.53065-.79698-.18309-.79697-.18309 .60318-2.02065 .60317-2.02065-1.47241-.30845-1.47242-.30845-.72473,1.96291-.72472,1.96291-.79698-.18309-.79699-.18309 1.78975-4.40669 1.78974-4.40669-1.34993-.2405-1.34995-.2405 .2304-.47465 .2304-.47465 1.31841.22552 1.31839.22552-.19814.48786-.19814.48786 .63652.12847 .63695.12868-.71282,1.97806-.71121,1.97882 1.43928.29293 1.43928.29293-.1527.51155-.15271.51156 2.20632.46157 2.20631.46157-.11187.56015-.11188.56015 1.50319.32306 1.50318.32306-.07172.51878-.07172.51877 .78338.18839 .78382.1886-.03634.54663-.03593.54683 .70062.15757 .7006.15757-.32024,3.93433-.32024,3.93433-.82406-.19382-.82448-.19402-.20268,1.64657-.2039,1.646-.93406-.24849-.93406-.2485-.22733,1.64429-.22732,1.64429-9.86517-2.72143-9.86519-2.72143 .69121-1.42395"/>
 </g>
</svg>
