<?xml version="1.0" encoding="UTF-8"?>
<svg viewBox="0 0 95 116" xmlns="http://www.w3.org/2000/svg">
 <g transform="rotate(-27.653 45.942 60.557)">
  <path class="fil0" d="m31.166 92.334c-0.0107 0.004402-0.021601 0.008202-0.0324 0.012001 0.1066 0.096001 1.6022 0.9825 1.6804 0.9825h0.2626c-0.0513-0.6413-0.4201-1.6156-0.4201-2.0743 0-0.7594 0.463-3.4056 0.8402-3.5478 0-0.4062 0.5775-1.3355 0.7624-1.7181 0.1582-0.32751 0.6905-1.4474 1.023-1.4474h0.052601c0.121 0 0.1575 0.037903 0.1575 0.1637v0.054604c0 0.5286-1.4166 1.7537-1.4241 2.7211-0.258 0.1996-0.3446 0.8599-0.4255 1.1967-0.053303 0.2224-0.1459 0.9256-0.1459 1.2131v0.054306c0 1.8962 0.5558 3.889 1.4573 4.8165 0.2296 0.2363 0.5262 0.5731 0.7811 0.7715 0.3398 0.2641 0.5984 0.3709 0.9447 0.6008 0.5226 0.3463 1.5032 0.7431 2.3308 0.7431 2.98e-4 0.032196 5.99e-4 0.065094 9e-4 0.097893 0.4898 0.039803 0.9796 0.080307 1.4694 0.1201 3.0428 0.2805 4.9586-2.2342 6.4023-3.7159 0.413-0.4239 0.6971-0.983 1.271-1.244 0.4903-0.2237 1.1023-0.719 1.4773-1.0849 0.4956-0.4827 0.7696-0.7639 1.186-1.3325 0.4161-0.568 0.5673-1.1645 0.9013-1.6832 0-0.2566-0.0196-0.4164 0.1576-0.491v-1.037c0-0.8921-0.077801-0.8005-0.3345-1.5628-0.0937-0.278-0.6108-1.3029-0.6108-1.4391v-0.3821c0-0.5295 0.5473-1.6522 0.7676-2.0403 0.067501-0.1189 0.5433-0.63519 0.6503-0.7432 0.1337-0.135 0.4428-0.8282 0.4334-1.0387-0.019299-0.2201-0.038799-0.44-0.0583-0.6599-0.037498-0.052498-0.0751-0.1049-0.1126-0.1572 0-0.36829-0.3381-0.9418-0.5112-1.1606-0.1467-0.1857-0.669-0.7497-0.9066-0.7497h-0.2101c-0.3812-0.9819-4.2531-1.0942-5.0938-1.747-0.5251-0.054604-1.0502-0.109-1.5754-0.1634-0.4876-0.16071-0.4205-1.0487-0.5776-1.2007-0.1082-0.14599-0.4391-0.11339-0.4728-0.11039-0.3171 0.034004-0.6342 0.068298-0.9514 0.1024-0.0504 0.039001-0.1008 0.078102-0.1512 0.11719-0.3203 0-1.838 0.22411-1.838 0.38201 0 0.4262 1.0982 0.8809 1.4606 1.0472 0.2682 0.1231 1.5565 0.7496 1.7427 0.7539 0.033802 0.1313 0.4041 0.4367 0.4726 0.4367 0.1882 0 0.5688 0.3887 0.7324 0.5487 0.1943 0.1903 0.3734 0.3974 0.5685 0.6098 0.1745 0.1901 0.9047 1.1504 0.9047 1.4068 0 1.0799-0.7478-0.3695-1.0372-0.6685-0.1788-0.185-0.9896-0.9315-1.0108-1.1327-0.169-0.019096-0.7251-0.5737-0.9806-0.7274-0.3504-0.2108-0.719-0.4612-1.0673-0.6373-0.2467-0.12471-0.272-0.2025-0.5573-0.2939-0.1474-0.04731-0.4357-0.20501-0.5659-0.2853-0.2147-0.13221-1.6721-0.89431-1.9752-0.89431h-0.1051c-0.1703 0-0.9698 0.38221-0.9977 0.38221-0.437 0-0.7897-0.273-1.2603-0.273h-0.21c-0.6733 0-1.8244 0.3037-2.3418 0.5134-1.3959 0.5653-2.2867 1.2318-3.6045 1.8208-0.4384 0.1961-1.1326 0.974-1.4056 1.0497 0.2272-1.0133 2.5701-2.3347 3.3327-2.7036 0.2549-0.1233 0.3395-0.1744 0.5622-0.289 0.4543-0.23381 0.7124-0.2697 1.193-0.45201 0.1776-0.0672 2.7639-1.1401 2.0539-1.1401-0.007702 0-0.5821-0.1652-0.7559-0.1968-0.3069-0.055695-0.6588-0.022499-0.9776-0.020996-0.5934 0.002899-1.2613-0.1096-1.8899-0.1096-0.3348-0.1066-3.9651-0.8565-4.3061-2.1833 0.3037 0.073601 0.7785 0.5156 1.0567 0.6483 0.8166 0.3894 1.7081 0.84669 2.6153 1.0186 0.1825 0.0867 0.6836 0.1888 0.8967 0.1888h0.8402c0.1418 0 0.1447-0.0261 0.2625-0.054497-0.009899-0.467-0.5471-0.52741-0.8504-0.67561-0.3328-0.10839-0.6656-0.21679-0.9984-0.32509 0.0298-0.1427 1.045 0.047302 1.2193 0.066498 0.1553 0.032204 1.3944 0.3502 1.5748 0.3884 0.244 0.2453 0.7472 0.037987 1.0502 0.2729 0.3174 0 1.7783 0.4944 1.9689 0.62799 0.4977 0.34911 1.8205 0.075813 2.4534 0.17901 0.2826 0.046204 2.1325-0.063095 2.436-0.11931 0.325-0.060089 0.9571-0.057587 1.185-0.13289 0.282-0.093102 0.757-0.2804 0.989-0.3366-0.020203-0.94371-3.4184-1.7074-3.5184-1.9649-0.3289 0-1.3454-0.37431-1.7452-0.4783-0.8102-0.2109-1.5567-0.417-2.3046-0.55081-0.0504-0.038986-0.1008-0.078087-0.1513-0.11699-0.5013 0-0.7911-0.090797-1.24-0.1848-0.1976-0.041397-1.1172-0.2519-1.2281-0.2519-0.7933 0-1.5191-0.3201-2.4141-0.3289-0.4959-0.004997-1.6-0.034599-1.7344-0.3806-0.3051 0-1.54-0.3918-1.8887-0.4932-0.2528-0.073402-1.7844-0.3255-2.0498-0.3255-0.2454-0.006599-0.4909-0.013199-0.7363-0.019905-0.5947 0.042992-1.1895 0.086006-1.7843 0.1291v0.1637c0 0.2564 1.034 0.512 1.1028 0.7096 0.6985 0 1.1475 0.4366 1.6804 0.4366h0.21c0.1559 0.4012 1.3134-0.002602 1.365 0.5223-0.5796-0.007813-1.1592-0.015404-1.7388-0.023102-0.0532-0.026802-0.1063-0.053497-0.1594-0.080299-0.5574-0.1215-1.1149-0.2429-1.6723-0.36431-0.6829-0.47539-2.5732-0.64749-2.5732-1.8558 0-0.1119 0.089499-0.2421 0.1051-0.4367 0.2655-0.022903 0.3674-0.16371 0.4726-0.16371h0.5251c0.2219 0 0.8215 0.26801 1.0488 0.32901 0.2982 0.0802 0.9268 0.10759 1.3143 0.10759h0.1576v0.10922c0.6329 0 1.4513 0.0905 2.0519 0.1597 0.4404 0.050697 0.5685 0.042488 0.9623 0.14599 0.1651 0.043312 0.8595 0.24021 0.9242 0.24021h0.1576v0.109h0.21c0.017 0 0.6634 0.3324 0.7869 0.3829 0.3924 0.16069 0.6969 0.052589 1.0627 0.1509 0.4242 0.1141 1.66 0.17579 2.2002 0.1679 0.050503 0.039101 0.1009 0.077988 0.1513 0.11709 1.4177 0 6.0447 0.78141 7.5094 1.8012 0.4108 0 2.6914 1.0637 3.1879 1.2713 0.3943 0.165 0.8978 0.7201 1.2584 0.98439 0.6541 0.4794 0.9478 0.091209 1.8028 0.091209 0.1823-0.1269 1.1075-0.4147 1.4365-0.58081 0.3502-0.1766 0.9433-0.60689 1.2023-0.87919 0.5643-0.59311 1.3522-1.7244 1.3522-2.8518 0-0.24671 0.1186-1.4737-0.1051-1.4737 0-0.6972-0.2796-0.87461-0.315-0.9825-0.1264-0.1371-0.0312-0.041801-0.1576-0.2183-0.085999-0.4441-1.5963-2.1008-1.9528-2.3914-0.4106-0.3345-0.772-0.6622-1.2375-0.9515-0.079601-0.0494-1.4834-0.8743-1.4834-0.3686v0.1637c0 0.3535 0.1575 0.5643 0.1575 0.655-1.98e-4 0.1622-5e-4 0.3243-7.97e-4 0.4864-0.1222 0.019901-0.2445 0.0396-0.3668 0.059502-0.032799-0.411-1.3648-1.5636-1.7118-1.8777-0.2563-0.2321-0.5979-0.4428-0.8043-0.6377-0.1156-0.1091-0.7278-0.5394-0.8509-0.5893-0.1067-0.043297-0.9202-0.44-0.9507-0.4854-0.078701-0.1174-0.097401-0.2964-0.236-0.4644-0.1044-0.1264-0.2519-0.233-0.3828-0.3117-0.2634-0.1584-0.716-0.2662-1.1298-0.2917-0.7316-0.044998-1.7577 0.1822-2.6046 0.1743-0.050602 0.037201-0.1012 0.074501-0.1518 0.1118-0.2099 0.019897-0.4197 0.039898-0.6296 0.059898-0.4555 0.004299-0.911 0.0084-1.3665 0.012699-0.2622-0.0224-0.5244-0.044899-0.7866-0.067299-0.053799-0.1386-0.5918-0.3574-0.7307-0.4958-0.2482-0.2472-0.4028-0.3696-0.7568-0.5234-0.366-0.1588-0.3497-0.2686-0.8658-0.4101-0.1914-0.052299-0.8276-0.1791-0.9025-0.3718-0.3835 0-0.3849-0.1092-0.6826-0.1092h-1.5229c-0.3278 0-0.5461 0.1667-1.0501 0.1639-0.4204-0.002201-0.762 7e-3 -1.1441 0.0662-0.3533 0.054798-0.7222 0.1557-1.0145 0.201-0.5333 0.0825-0.4831 0.3237-0.8873 0.3331-0.069401 0.1362-0.7308 0.5972-0.8985 0.7582-0.2959 0.284-0.6744 0.4406-1.0235 0.6826-0.5518 0.3827-1.4651 1.0563-1.838 1.583-0.1393 0.1966-0.2094 0.2405-0.3602 0.4442-0.1053 0.1422-0.2704 0.4098-0.3558 0.5035-0.2698 0.2959-0.3749 0.8404-0.5746 1.1494-0.3195 0.7399-1.041 1.8884-1.041 2.684 0 0.39189-0.28 0.72779-0.4201 1.0916-0.105 0.36401-0.21 0.72772-0.3151 1.0917-0.052502 0.2-0.105 0.4002-0.1575 0.6003-0.0016 0.12711-0.003201 0.2544-0.004799 0.3815-0.1385 1.383-0.2769 2.7658-0.4153 4.1487h-0.1051v0.3275c0 1.0468-0.3068 3.2133-0.4613 4.269-0.106 0.7238-0.2123 1.429-0.2722 2.1185-0.054201 0.6228-0.3167 1.5236-0.3167 2.0725 0 1.1933 0.092899 2.1315 0.2625 3.384v0.2729c0.1094 0.045898 0.4783 1.0831 0.5619 1.2717 0.2207 0.4976 0.4388 0.775 0.6985 1.1844 0.4631 0.7304 1.1765 1.3661 1.881 1.8659 0.192 0.1358 0.9426 0.6735 1.1338 0.73161 0.3382 0.10239 0.3548 0.1093 0.6278 0.2755 0.2046 0.1244 0.4934 0.1554 0.7085 0.2458 0.5498 0.2312 2.2655 0.68479 3.0008 0.7019 0.0585-0.151 0.6198-0.307 0.776-0.4486 0.2428-0.2199 0.461-0.3184 0.9038-0.3159 0.9224 0.005104 1.513-0.1636 2.3111-0.1636h0.7352c0.1418 0 0.1448 0.026497 0.2626 0.054901v0.21799c0 0.15421-0.1673 0.24321-0.2591 0.32481-0.3758 0.0467-0.8738 0.314-0.9603 0.6508 0.0096-0.020897 0.019199-0.0411 0.028799-0.061295 0.4602 0.23688 0.9203 0.4745 1.3805 0.7114zm17.875-59.099c0 0.272-1.9413 6.3026-2.0852 6.551-0.022598 0.2725-0.0452 0.5449-0.067799 0.8173-0.8312 0.5785-1.3942 2.2836-1.7122 3.4602-0.1595 0.5907-1.2811 3.6771-1.2811 3.9083v0.382c0 0.588 2.048 0.2245 2.048 0.7096v0.1637c-0.222 0.053799-0.4467 0.081299-0.4689 0.3035 0.2613 0.044399 0.5227 0.088699 0.784 0.1331v0.2729c-0.2158 0.0187-0.1173 0.0546-0.3151 0.0546-0.8349 0-1.1831-0.1058-1.7284 0.3868-0.2224 0.201-0.3675 0.3093-0.5685 0.5552-0.1861 0.2277-0.2901 0.5954-0.4337 0.6954 0 0.3213-0.2888 1.1268-0.3151 1.6375-0.0369 0.7149-0.1521 0.9899-0.021599 1.7689 0.1213 0.7236 0.1325 1.0058 0.3801 1.5698 0.079998 0.1824 0.2221 0.5006 0.3363 0.633 0.1421 0.1646 0.5085 0.2856 0.5655 0.4493h0.5776c0.5067 0 1.3202-0.5881 1.6704-0.8293 0.2621-0.1804 0.435-0.3989 0.6542-0.63 0.7833-0.8259 1.8765-3.0967 1.8765-4.0534 0-0.1286-0.5217-0.697-0.643-0.8053-0.218-0.1951-0.7147-0.3688-0.7223-0.7229 0.061501-0.016998 0.1431-0.0546 0.1575-0.0546 0.5692 0 0.9558 0.6004 1.1553 0.6004 0.7271 0 1.3151-1.1169 1.6385-1.6265 0.2589-0.4079 0.9872-1.7734 1.0366-2.3437 0.2258-0.8555 0.4515-1.7112 0.6773-2.5667 0.0728-0.2954 0.1456-0.5908 0.21849-0.8861-0.31909-0.4951-1.4837-0.8453-2.1016-1.0905-0.3842-0.1524-0.7094-0.3124-1.184-0.4068-0.38091-0.075699-1.073-0.1754-1.073-0.5768 0-0.4767 0.44999-0.382 0.7352-0.382h0.3676c0.1435-0.5588 1.4775-0.3275 2.1005-0.3275 0.077209 0.199 0.68311 0.3631 0.91241 0.4162 0.41969 0.097 0.6674 0.2933 1.0306 0.2933 0.10671 0 0.32061-0.3128 0.42011-0.382 0-0.5554 0.4257-2.5501 0.6827-2.729 0-0.3672 1.138-2.9966 1.3021-3.5589 0.29161-0.999 1.0084-2.7506 1.0084-3.9186 0-1.3614-1.2572-2.6199-2.5206-2.6199h-0.5251c-0.5545 0-1.374 0.3273-1.7334 0.5453-0.92611 0.5617-0.56941 0.4158-1.1945 1.1601-0.1709 0.2033-0.75731 1.1681-0.88131 1.431-0.119 0.2521-0.6237 1.5551-0.7595 1.6121h1.1e-5zm-14.074-5.3489c-0.3258 0.5057-0.5252 4.3805-0.5066 5.4289 0.1163 0.1006 0.2326 0.2013 0.349 0.302h0.1576c0.1177 0 0.1153 0.043297 0.2103 0.1053 0.315 0.019402 0.63 0.039001 0.945 0.058502 0 0.7703-0.9001 0.5148-1.1028 1.4191-0.3273 0.028301-1.1718 0.6824-1.2625 0.9802-0.1956 0.6417-0.3657 1.0481-0.3654 1.9126 5e-4 1.5691-0.2251 2.8393-0.2043 4.4209-9.99e-4 0.5552-0.2789 2.2426 0.032299 3.0515 0.1037 0.2697 0.2729 0.4417 0.5396 0.4417h0.2625v0.1638c0 0.2671-0.9074 0.7129-1.1213 1.1815-0.1577 0.3455-0.4541 1.4107-0.4541 1.875-0.012901 0.5474-0.025898 1.0949-0.038799 1.6424 0.083 0.6896 0.1659 1.3793 0.2489 2.069 0.2336 0.3626 0.3367 0.6409 0.7106 0.8988 0.2493 0.1721 0.7905 0.4112 1.1799 0.4112h0.3676c1.6264 0 3.0983-3.0821 3.0983-4.8577 0.031799-2.02e-4 0.063698-6.03e-4 0.0956-8.01e-4 0.020599-0.309 0.041199-0.6181 0.061897-0.9271v-0.1637c0-0.936-0.065598-1.4122-1.0015-1.5248-0.1417-0.016998-0.7482 0.033401-0.938 0.054699-0.541 0.061001-1.1198 0.2693-1.7364 0.2693-0.085999 0-0.1576-0.0326-0.1576-0.1091 0-0.3807 0.792-0.7273 1.1135-0.8077 0.9559-0.239 1.5272-0.4477 2.5099-0.4477 0.035801 0.092201 0.276 0.2184 0.3676 0.2184 0.6451 0 0.097301-0.6004-0.2626-0.6004-0.4729-0.002201-0.9458-0.004398-1.4188-0.0065-0.4023 0.056702-0.8046 0.1135-1.2068 0.1702-0.1202 0.019299-0.1418-0.0396-0.3151-0.0546v-0.2183c0.2937-0.081501 0.6983-0.6003 1.3128-0.6003 0.9087 0 2.1006 0.4905 2.1006-0.6005 0-0.1344 0.6377-1.6225 0.7149-2.0405 0.127-0.6867 0.4929-1.6472 0.4853-2.3325 0.037498-0.052299 0.0751-0.1048 0.1126-0.1572 0-0.8076 0.1952-1.4504 0.022999-2.2616-0.2583-1.2165-0.879-1.2482-0.9694-1.4938-0.2097-0.021801-0.4193-0.0434-0.629-0.065098-0.9962-0.1202-2.3041 0.2729-3.1953 0.2709-0.020302-0.1084-0.040401-0.217-0.060501-0.3256 0.5562-0.3058 0.8392-0.3821 1.6804-0.3821 0.3039 0 1.838 0.2494 1.838 0.054699 0-0.3691-1.595-0.5112-1.9955-0.5458v-0.1637c0-0.267 0.8973-0.2731 1.1027-0.2731 0.3314 0 0.6928 0.088299 0.8931 0.2181 0.377 0.2443 0.3497 0.2091 0.8399 0.3278 0.1885-0.3704 0.6123-0.8632 0.7312-1.3141 0.129-0.4892 0.3734-0.924 0.5089-1.5451 0.2339-1.073 0.4928-2.4255 0.4928-3.6904v-0.2184c0-0.7321-0.1343-1.7739-0.2645-2.3994-0.1469-0.7057-1.0492-1.3294-1.1008-1.5304-0.3423-0.0079-0.6955-0.4366-1.1029-0.4366h-1.2602c-0.1881 0-0.9167 0.4178-1.0607 0.535-0.2081 0.1694-0.563 0.6967-0.7002 0.9641-0.2504 0.4881-0.6547 1.9424-0.6547 2.649zm31.35 8.8421h-0.2625c-0.8579 0-1.945 0.7549-2.4124 1.204-0.2445 0.235-1.3005 1.7719-1.5082 2.144-0.1306 0.2339-0.5663 0.9222-0.7316 1.0952-0.1066 0.1116-0.5407 0.9649-0.6621 1.1677-0.2233 0.3727-1.0923 2.1701-1.0923 2.6307-0.26 0.1809-1.0692 1.5995-1.1028 2.0195 0.1267 0.002899 1.2361 0.2885 1.3973 0.3488 0.012203 0.004597 0.5681 0.2731 0.6084 0.2955 0.2268 0.1268 0.3997 0.3607 0.5149 0.3927v0.1637c-0.7923 0.0686-1.0827-0.382-1.6804-0.382 0.1079 0.4815 0.6827 0.6647 0.6827 1.037v0.1637h-0.2626c-0.5989 0-1.5102-0.8187-1.9955-0.8187-0.1987 0-1.8294 2.562-2.0843 2.9097-0.3412 0.4654-1.8116 2.6718-1.8509 3.1971 0.2264 0.1113 0.4529 0.2225 0.6794 0.3337v0.3275c-0.1834 0.044498-0.1769 0.1092-0.3676 0.1092h-0.1575c-0.8227 0-0.9273-0.5306-0.9452 0.5458-0.8552 0.073898-1.978 2.2926-2.3641 2.9464-0.3133 0.5309-0.8918 1.359-0.8918 2.1841v0.2184c0 0.8674 0.8511 1.8011 1.6804 1.8011 0.1234 0.005699 0.2468 0.011398 0.3702 0.017197 0.2967-0.042198 0.5934-0.084297 0.8902-0.1263 0.0746-0.1921 0.2599-0.1235 0.4738-0.2716 0.1752-0.1211 0.2832-0.1995 0.452-0.349 0.165-0.1461 0.7873-0.6101 0.8071-0.7985 0.3115-0.026901 0.8782-0.6283 1.104-0.8174 0.0238-0.020103 0.3848-0.4368 0.451-0.5137 0.1107-0.1283 0.2304-0.5193 0.2304-0.743v-0.2183c0-0.2447-0.15-0.3046-0.1575-0.6549-0.3128-0.0868-0.2791-0.5929-0.5169-0.765-0.020298-0.2364-0.040501-0.4725-0.060699-0.7088-0.1581-0.2454-0.8402-0.8038-0.8402-1.037 0-0.1257 0.036499-0.1637 0.1575-0.1637h0.3151c0.594 0 0.9189 0.633 1.3757 0.8079 0.5829 0.223 1.0277 0.9933 1.2499 0.9933 0.3091 0 1.0348-0.7381 1.2611-0.927 0.4115-0.3433 0.6456-0.8238 0.9775-1.2766 0.2965-0.4044 1.4898-2.4477 1.4898-2.9815 0-0.1352-0.7207-0.9634-0.7351-1.6374 0.6242 0.054001 0.784 1.037 1.0502 1.037 0.1014 0 0.2101-0.097401 0.2101-0.1638 0-0.7551-0.9218-1.2463-1.0503-1.7466 0.063999-0.037403 0.056202-0.0546 0.1576-0.0546 0.2068 0 1.1493 0.6682 1.2078 0.8187h0.1575c0.1168 0 0.2169 0.1638 0.6301 0.1638 0.0327-0.0937 0.2643-0.2949 0.3752-0.4835 0.145-0.2466 0.255-0.3203 0.255-0.6627 0.2482-0.3852 0.2971-0.9728 0.4811-1.3011 0.084496-0.1508 0.2205-0.4687 0.2916-0.5703 0.15469-0.2207 0.135-0.425 0.2693-0.6478 0.3435-0.5699 0.7296-1.9569 1.1917-2.3637 0.3217-0.2833 0.5767-0.037502 1.0528-0.7069 0.2189-0.308 0.4809-0.7662 0.6685-1.1064 0.2248-0.4077 0.4151-0.7432 0.6052-1.1722 0.1407-0.3177 0.3508-1.1535 0.4689-1.3577 0.039101-0.2905 0.078201-0.5809 0.1172-0.8713v-0.054501c0-0.6479-0.2301-1.4048-0.5372-1.7342-0.3009-0.3227-0.7916-0.8857-1.3533-0.8857h-0.15749v-0.1092h-0.5777v0.1092zm0.4726 43.118c-0.2299 0.005402-1.5353 0.8747-1.686 1.0313-0.051895 0.053795-0.1564 0.2558-0.2962 0.4016-0.1261 0.1315-0.2307 0.2121-0.3716 0.3234-1.1192 0.88409-0.4213-0.1188-1.112-0.1188-0.3234 0-0.6901 0.597-0.8615 0.8511-0.1361 0.202-0.8251 0.6153-1.134 0.6226 0.0079-0.3722 0.105-0.1704 0.105-0.3821v-0.1092c0-0.1054-0.0937-0.2182-0.1575-0.2182-0.7229 0-1.1562 1.5847-1.5177 1.4916-0.7518-0.11591-1.5035-0.2318-2.2552-0.3476-0.0028 0.018799-0.005398 0.037796-0.008099 0.056602-0.0369-0.017906-0.073803-0.035805-0.1106-0.053703-0.8909 0.1088-1.7817 0.2177-2.6725 0.3266-0.6157 0.4286-1.6805 1.6056-1.6805 2.6199-0.1847 0.2868-0.2101 0.6214-0.2101 1.0915 0 0.4246 0.1576 0.6874 0.1576 1.1462 0.3087 0.2148 0.040501 0.3513 0.3243 0.48209 0.1352 0.061905 0.4583 0.2407 0.5699 0.2413 0.2095-0.022797 0.4191-0.045502 0.6287-0.068199 0.6717-0.4676 1.4804-0.7652 2.4471-0.9497 0.4595-0.087799 1.0391-0.1718 1.45-0.2394 0.2979-0.049301 1.2947-0.2843 1.4067-0.2843 0.1049 0 0.2988 0.053604 0.3324-0.0588 0.8807-0.3463 0.6816-0.3583 1.1695-1.1096 0.1926-0.2965 0.1865-0.6612 0.4936-0.6877 0.0275 0.1224 0.052502 0.1255 0.052502 0.2729-0.002602 0.0177-0.005203 0.0355-0.007801 0.053398-0.0849 0.7097-0.1698 1.4198-0.2547 2.13-0.024502 0.1719 0.037399 0.1939 0.056198 0.3716 0.0513 0.0214 0.1025 0.043503 0.1538 0.065002 0.3509-0.085304 0.7512-0.3007 1.2599-0.2641 1.1379 0.051796 2.2758 0.103 3.4138 0.1548 0.6375 0 1.1069 0.1093 1.8379 0.1093 0.6892 0 1.6117-0.4366 2.2644-0.4291 0.0504-0.039101 0.1008-0.077599 0.1512-0.1168 0.7141 0 2.2495-0.9282 2.6876-1.3003 0.6781-0.5751 1.3559-1.4818 1.3559-2.7387 0-1.6573-0.7738-2.7768-1.776-3.3939-0.6301-0.3879-0.8481-0.6437-1.6872-0.8661-0.6426-0.1703-1.2268-0.48851-2.1032-0.48851-0.2457-0.0047-0.49149-0.009285-0.7371-0.014-0.5596 0.13191-1.119 0.264-1.6785 0.39601zm-47.314-45.902v1.037c0 1.0464 0.7574 1.2007 1.5755 1.2007 0.3507 0 1.0502-0.2078 1.0502 0.2184-0.167 0.2491-0.058699 0.1834-0.5027 0.2962-0.3579 0.091-0.6544 0.1404-1.0202 0.1404-0.1206 0-0.5776-0.3027-0.5776 0 0 0.3313 0.0793 0.8733 0.4201 0.8733 0.2107 0 0.6119-0.4366 0.7878-0.4366 0.1869 0 0.2099 0.0467 0.2099 0.2182 0 0.2346-0.2647 0.2613-0.4423 0.359-0.7989 0.4394-0.691 2.1243-0.818 2.9706v0.7094c0 0.9701 0.3092 2.3545 0.6717 2.9588 0.3953 0.6593 0.8332 1.8443 1.7964 1.8443 0.5232 0 0.9387-0.2729 1.1554-0.2729 1.09 0 0.0445 0.7096-0.3676 0.7096-0.3352 0-0.9453 0.3695-0.9453 0.7641 0 0.4576 0.5608 4.1531 0.6743 4.4296 0.062799 0.153 0.2369 0.7968 0.2737 0.9711 0.0903 0.4271 0.1787 0.6133 0.3241 0.973 0.1251 0.3096 0.2238 0.5244 0.5476 0.6862 0.3022 0.1509 0.5396 0.3085 0.9636 0.3085h0.21c0.3508 0 1.2506-0.7055 1.3761-0.9713 0.2403-0.5094 0.4626-1.2372 0.4632-1.9748 5e-4 -0.8534 0.0849-1.5923 0.002399-2.3522-0.0452-0.417-0.0408-0.687-0.1192-1.0769-0.1633-0.812-0.3514-1.4762-0.5147-2.3031h-0.105c0-0.564-0.2944-0.8382-0.4653-1.1538-0.271-0.5004 0.045198-0.9155 0.045198-1.3569 0-0.4721-0.1461-1.6418-0.233-2.1049-0.133-0.7089-0.2974-1.2081-0.4821-1.8459-0.1702-0.5873-0.4173-1.1241-0.6289-1.6933-0.1132-0.3044-0.2176-0.5652-0.3219-0.8116-0.1527-0.3608-0.064301-0.6191-0.1405-1.0547-0.12-0.6856-0.038399-1.6181-0.084499-2.2592-0.0578-0.8018-0.1024-1.5158-0.1557-2.185-0.097301-1.2194-1.0573-2.3455-2.312-2.3455-1.8294 0-2.3106 2.5814-2.3106 4.5302h-1.01e-4zm24.786 39.462v0.054695c0 0.2118 0.097099 0.009804 0.105 0.3821 0.2561 0.0709 0.3222 0.3796 0.8003 0.5327 0.358 0.1145 0.8162 0.033699 1.2482 0.0672 0.8675 0.067101 1.2693 0.5461 2.1526 0.5461h1.4704c0.2572 0 0.3907-0.075806 0.5136-0.2302 0.042202-0.053001 0.2215-0.491 0.2215-0.5338v-0.2183c0-0.18961-0.105-0.083405-0.105-0.2729v-0.1637c-0.2117-0.0513-0.2448-0.1638-0.3676-0.1638-0.3758 0-0.7057 0.2182-0.7876 0.2182h-0.4201c-0.5923 0-1.03-0.4279-1.4715-0.3929l-0.7422 0.0562-0.202 0.1731c-0.3607 0-0.4047 0.1092-0.6301 0.1092-0.2388 0-0.9374-0.2267-0.9978-0.3821h-0.5776c-0.123 0-0.2101 0.0905-0.2101 0.2183v-9.9e-5zm-2.3631-5.3488l9e-4 0.1571 0.4717 0.0611h0.2101c0.8901 0 1.0897-0.8074 1.5817-0.8176l-0.0588 0.4902-0.0135 0.2195 0.066 0.8722c0.2066 0.3206 0.6003 1.5282 0.9977 1.5282h0.1576c0.121 0 0.1575-0.037994 0.1575-0.1637v-0.1638c0-1.0006-1.3473-1.8619-0.8402-2.8928 0-0.9156 0.5108-1.3548 0.5251-2.0195-0.053596 0.040901-0.4993 0.7475-0.6155 0.8885-0.2356 0.2862-0.4794 0.5124-0.7464 0.7524-0.3894 0.3498-1.222 1.0726-1.8939 1.0882zm-6.1965-2.4562l0.1618 1.253 0.2583 0.5482c0.1643 0.014099 0.1865 0.054596 0.3675 0.054596 0.2145 0 0.3151-0.3629 0.3151-0.6004v-0.7096c0-0.2127-0.2588-0.5499-0.2646-1.0349-0.005302-0.453 0.0341-0.8802-0.050503-1.2575-0.4483 0.038898-0.87 1.1671-0.7876 1.7466zm-5.934-2.1286l-0.0121 0.8746 0.0646 0.7082c0.2729 0.19 0.0569 0.208 0.4726 0.4367 0.3142-0.076103 0.4201-0.1454 0.4201-0.5459v-0.382c0-0.2618-0.1793-0.7788-0.1999-1.0485-0.021-0.2759 0.1474-0.6614 0.1474-1.0801 0.2825-0.1185 0.0245-0.5782-0.5144 0.0658-0.1135 0.1355-0.3783 0.72-0.3783 0.9712z" fill="#184b9e"/>
 </g>
</svg>
