<?xml version="1.0" encoding="UTF-8"?>
<svg viewBox="0 0 199.3 400" xmlns="http://www.w3.org/2000/svg">
 <defs>
  <filter id="a">
   <feGaussianBlur stdDeviation="4.146429"/>
  </filter>
 </defs>
 <g stroke="#000">
  <g fill="#63412e">
   <path d="m155.54 234.85l-6.9164 120.52-8.3985-21.958-9.8806 22.501-2.7172-98.258 27.913-22.8zm-106.96 0l6.9164 120.52 8.3984-21.958 9.8806 22.501 2.7172-98.258-27.913-22.8z" fill-rule="evenodd" stroke-linecap="round" stroke-linejoin="round" stroke-width="9.687"/>
   <path d="m178.49 188.93c0.008728 42.242-34.576 76.49-77.243 76.49-42.666 0-77.251-34.248-77.243-76.49-0.008734-42.242 34.576-76.49 77.243-76.49 42.666 0 77.251 34.248 77.243 76.49z" stroke-width="26.219"/>
   <path d="m102.5 29.368c-20.286 0-36.754 19.48-36.754 43.492 0 7.0866 1.4493 63.201 3.9923 69.115 9.5244-4.5258 20.369-7.0927 31.876-7.0927 12.102 0 23.466 2.8491 33.336 7.8207 2.7416-6.0895 4.303-62.465 4.303-69.843 0-24.013-16.468-43.492-36.754-43.492z" stroke-width="9.687"/>
  </g>
  <g transform="matrix(.36653 0 0 .462 202.89 259.69)" stroke-width="23.242">
   <path d="m-137.09-180.11c0.020508 51.293-61.706 92.882-137.86 92.882-76.151 0-137.88-41.589-137.86-92.882-0.020508-51.293 61.706-92.882 137.86-92.882 76.151 0 137.88 41.589 137.86 92.882z" fill="#d38d5f"/>
   <path d="m-295.11-220.18c0 20.901-14.302 37.865-31.923 37.865-17.622 0-31.923-16.963-31.923-37.865 0-20.901 14.302-37.865 31.923-37.865 17.622 0 31.923 16.963 31.923 37.865zm104.16 0c0 20.901-14.302 37.865-31.923 37.865-17.622 0-31.923-16.963-31.923-37.865 0-20.901 14.302-37.865 31.923-37.865 17.622 0 31.923 16.963 31.923 37.865z" fill="#917c6f"/>
  </g>
  <g fill-rule="evenodd" stroke-linecap="round" stroke-linejoin="round">
   <path d="m130.74 39.945c19.708 7.1357 25.943-20.007 34.174-42.07-4.25 37.725-10.109 68.933-23.382 70.118-1.8484-10.306-2.1095-21.48-10.792-28.047zm-57.017 0c-19.708 7.1357-25.943-20.007-34.174-42.07 4.25 37.725 10.109 68.933 23.382 70.118 1.8484-10.306 2.1095-21.48 10.792-28.047z" filter="url(#a)" stroke-width="15"/>
   <path d="m130.74 39.945c1.9582-11.724 17.916-28.536 34.174-42.07-4.25 37.725-10.109 68.933-23.382 70.118-1.8484-10.306-2.1095-21.48-10.792-28.047zm-57.017 0c-10.868-33.327-23.125-32.906-34.174-42.07 4.25 37.725 10.109 68.933 23.382 70.118 1.8484-10.306 2.1095-21.48 10.792-28.047z" fill="#39251a" stroke-width="7.75"/>
  </g>
  <g transform="matrix(.42007 0 0 .51666 182.83 189.37)">
   <path d="m-262.01-239.68c-7.7177 1.1655-12.462 24.375-10.6 51.842 1.0858 16.014 4.1881 29.947 8.1104 38.551 5.7879-4.6223 12.062-7.9985 18.707-9.9914 1.4913-9.0016 1.9774-20.482 1.1434-32.782-1.8623-27.467-9.6426-48.785-17.36-47.62z" fill="#fff" stroke-width="3.162"/>
   <path d="m-252.32-183.8c0.9151 13.476-0.68619 24.758-3.576 25.194-2.8898 0.4364-5.973-10.138-6.8854-23.615-0.9151-13.476 0.68619-24.758 3.576-25.194 2.8898-0.4364 5.973 10.138 6.8854 23.614z" stroke-width="4"/>
   <path d="m-120.19-234.73c7.7177 1.1655 12.462 24.375 10.6 51.842-1.0858 16.014-4.188 29.947-8.1104 38.551-5.7879-4.6223-12.062-7.9985-18.707-9.9914-1.4913-9.0016-1.9774-20.482-1.1434-32.782 1.8624-27.467 9.6426-48.785 17.36-47.62z" fill="#fff" stroke-width="3.162"/>
   <path d="m-129.88-178.85c-0.91507 13.476 0.68619 24.758 3.576 25.194 2.8898 0.43639 5.973-10.138 6.8854-23.615 0.91507-13.476-0.68619-24.758-3.576-25.194-2.8898-0.4364-5.973 10.138-6.8855 23.614z" stroke-width="4"/>
  </g>
 </g>
</svg>
