<?xml version="1.0" encoding="UTF-8"?>
<svg version="1.0" viewBox="0 0 500 405" xmlns="http://www.w3.org/2000/svg">
 <g transform="translate(-649.92 -253.79)">
  <path transform="matrix(1.8836 0 0 1.8215 1505 346.15)" d="m-232.34 60.467a88.893 91.924 0 1 1 -177.78 0 88.893 91.924 0 1 1 177.78 0z" fill="none" stroke="#dc241f" stroke-width="37.855"/>
  <path d="m649.92 494.25h499.98v-77h-499.98v77z" fill="#0019a8"/>
  <path d="m756.79 476.24h7.37v-41.01h-7.37v28.1l-21.17-28.1h-7.4v41.01h7.4v-27.57l21.17 27.57" fill="#fff"/>
  <path d="m836.91 476.24v-8.23h-17.48v-9.58h13.15v-7.9h-13.15v-7.19h16.95v-8.11h-24.32v41.01h24.85" fill="#fff"/>
  <path d="m772.02 435.24v40.99l14.85-0.03c10.79 0 19.46-9.21 19.46-20.59 0-11.29-8.45-20.37-19.27-20.37h-15.04zm14.79 7.52c6.78 0 12.22 5.81 12.22 12.85 0 7.14-5.63 12.88-12.41 12.88l-7.14 0.03v-25.72l7.33-0.04z" fill="#fff"/>
  <path d="m685.42 458.76v-23.53h7.37l0.03 24.32c0 6.34 4.51 11 10.2 11 5.68 0 10.28-5.04 10.28-11v-24.32h7.34l0.03 23.64c0 10.79-7.84 18.84-17.65 18.84-9.82 0-17.6-8.66-17.6-18.95" fill="#fff"/>
  <path d="m843.62 435.31v40.98h7.39v-16.32h4.42l11.59 16.32h7.99l-11.9-17.8c3.98-2.06 6.67-6.03 6.67-10.81 0-6.81-5.54-12.37-12.35-12.37h-13.81zm7.48 7.23l6.33 0.04c2.83 0 5.11 2.27 5.11 5.1 0 2.8-2.28 5.08-5.11 5.08h-6.33v-10.22z" fill="#fff"/>
  <path d="m968.92 434.34c-11.29 0-20.43 9.6-20.43 21.4 0 11.82 9.14 21.4 20.43 21.4s20.43-9.58 20.43-21.4c0-11.8-9.14-21.4-20.43-21.4zm0 8.08c7.11 0 12.85 5.95 12.85 13.32 0 7.4-5.74 13.38-12.85 13.38-7.07 0-12.82-5.98-12.82-13.38 0-7.37 5.75-13.32 12.82-13.32z" fill="#fff"/>
  <path d="m1067.9 476.24h7.4v-41.01h-7.4v28.1l-21.2-28.1h-7.4v41.01h7.4v-27.57l21.2 27.57" fill="#fff"/>
  <path d="m1084.5 435.24v40.99l14.8-0.03c10.8 0 19.4-9.21 19.4-20.59 0-11.29-8.4-20.37-19.2-20.37h-15zm14.7 7.52c6.8 0 12.3 5.81 12.3 12.85 0 7.14-5.6 12.88-12.4 12.88l-7.2 0.03v-25.72l7.3-0.04z" fill="#fff"/>
  <path d="m995.13 458.76v-23.53h7.37l0.1 24.32c0 6.34 4.5 11 10.2 11 5.6 0 10.2-5.04 10.2-11v-24.32h7.4v23.64c0 10.79-7.9 18.84-17.6 18.84-9.8 0-17.67-8.66-17.67-18.95" fill="#fff"/>
  <path d="m916.84 435.31v40.98h7.43v-16.32h4.39l11.59 16.32h8.02l-11.91-17.8c3.98-2.06 6.62-6.03 6.62-10.81 0-6.81-5.48-12.37-12.29-12.37h-13.85zm7.49 7.23l6.36 0.04c2.8 0 5.08 2.27 5.08 5.1 0 2.8-2.28 5.08-5.08 5.08h-6.36v-10.22z" fill="#fff"/>
  <path d="m882.07 454.57c0-10.05 11.94-17.27 27.57-9.23v-8.04c-14.48-6.43-34.82-3.07-34.82 17.6 0 20.66 22.2 28.35 35.32 16.98v-19.52h-13.98v7.07h6.61v9.08c-12 4.87-20.7-2.68-20.7-13.94" fill="#fff"/>
 </g>
</svg>
