<?xml version="1.0" encoding="UTF-8"?>
<svg viewBox="0 0 330.48 325.95" xmlns="http://www.w3.org/2000/svg">
 <g stroke-linecap="round">
  <g stroke="#000" stroke-width="4">
   <path d="m118.24 89.049c-1-3-1.4595-9.0535-1-11 0.51374-2.1763 2-5 2-6h1" fill="none"/>
   <g fill="#7f7f7f">
    <circle cx="159.34" cy="139.45" r="124.62"/>
    <path transform="rotate(88.044 286.71 58.578)" d="m355.17 67.144c0.35876-2.779 0.54468-5.6259 0.54468-8.4994 0-37.165-30.884-67.331-68.988-67.331-38.105 0-69.034 30.166-69.034 67.331 0 35.777 28.633 65.061 64.767 67.198"/>
    <path transform="rotate(-11.436 29.713 62.217)" d="m95.348 71.174c0.34392-2.9059 0.52213-5.8828 0.52213-8.8874 0-38.862-29.607-70.405-66.136-70.405s-66.179 31.543-66.179 70.405c0 37.411 27.449 68.032 62.089 70.266"/>
   </g>
  </g>
  <path d="m186.32 171.1c0 14.548-14.603 31.963-22.1 31.963-8.4376 0-22.1-17.415-22.1-31.963s9.901-12.897 22.1-12.897 22.1-1.6508 22.1 12.897z" fill="#faa" stroke-width="2"/>
  <g stroke="#000">
   <g stroke-width="2">
    <path d="m126.53 107.61c0.001884 5.7384-3.5217 10.392-7.869 10.392s-7.8709-4.6533-7.869-10.392c-0.001884-5.7384 3.5217-10.392 7.869-10.392s7.8709 4.6532 7.869 10.392z"/>
    <path d="m204.87 105.61c0.001892 5.7384-3.5217 10.392-7.869 10.392s-7.8709-4.6533-7.869-10.392c-0.001892-5.7384 3.5217-10.392 7.869-10.392s7.8709 4.6532 7.869 10.392z"/>
   </g>
   <g fill="none" stroke-width="2.86">
    <g transform="matrix(2.2177 0 0 1.4058 -258.93 -659.88)">
     <path d="m209.1 589.54c32.735-15.108 47.844-1.259 47.844-1.259"/>
     <path d="m205.95 595.2c23.922-15.108 44.696 9.4429 44.696 9.4429"/>
     <path d="m205.95 598.35c25.181-12.59 29.588 18.256 29.588 18.256"/>
    </g>
    <g transform="matrix(-2.0341 0 0 1.4058 1104.2 -659.88)">
     <path d="m484.89 590.96c32.735-15.108 47.844-1.259 47.844-1.259"/>
     <path d="m481.74 596.62c23.922-15.108 44.696 9.4428 44.696 9.4428"/>
     <path d="m481.74 599.77c25.181-12.59 29.588 18.256 29.588 18.256"/>
    </g>
   </g>
   <g fill="#faa" stroke-width="4">
    <ellipse transform="rotate(42.265 291.46 57.219)" cx="291.46" cy="57.218" rx="35.632" ry="50"/>
    <ellipse transform="rotate(-27.198 22.241 66.049)" cx="22.241" cy="66.048" rx="35.632" ry="50"/>
   </g>
  </g>
 </g>
</svg>
