<?xml version="1.0" encoding="UTF-8"?>
<svg viewBox="0 0 593.75 718.75" xmlns="http://www.w3.org/2000/svg" xmlns:xlink="http://www.w3.org/1999/xlink">
 <defs>
  <linearGradient id="a">
   <stop offset="0"/>
   <stop stop-opacity="0" offset="1"/>
  </linearGradient>
  <linearGradient id="g" x1="738.64" x2="891.13" y1="326.93" y2="121.83" gradientTransform="scale(.79068 1.2647)" gradientUnits="userSpaceOnUse">
   <stop stop-color="#00398f" offset="0"/>
   <stop stop-color="#fff" offset="1"/>
  </linearGradient>
  <linearGradient id="f" x1="302.9" x2="270.21" y1="999.96" y2="1138.5" gradientTransform="scale(1.5725 .63595)" gradientUnits="userSpaceOnUse">
   <stop stop-color="#ffce63" offset="0"/>
   <stop stop-color="#ffce63" stop-opacity="0" offset="1"/>
  </linearGradient>
  <linearGradient id="c" x1="347.2" x2="514.81" y1="574.46" y2="622.52" gradientTransform="matrix(1.0638 .040465 -.036477 .97038 21.439 -34.266)" gradientUnits="userSpaceOnUse">
   <stop stop-color="#fffdff" offset="0"/>
   <stop stop-opacity=".49804" offset=".5"/>
   <stop stop-opacity=".24706" offset=".5"/>
   <stop stop-opacity="0" offset="1"/>
  </linearGradient>
  <linearGradient id="b" x1="364.8" x2="533.12" y1="430.85" y2="485.02" gradientTransform="matrix(.86603 0 0 1.1547 -16.31 -3.2621)" gradientUnits="userSpaceOnUse">
   <stop stop-color="#fff" offset="0"/>
   <stop stop-color="#fff" stop-opacity="0" offset="1"/>
  </linearGradient>
  <linearGradient id="e" x1="102.9" x2="188.5" y1="1453.5" y2="1439.7" gradientTransform="scale(1.9012,.52598)" gradientUnits="userSpaceOnUse" xlink:href="#a"/>
  <linearGradient id="d" x1="532.68" x2="284.75" y1="625.84" y2="616.77" gradientTransform="matrix(1.1487 0 0 .90536 0 -20.988)" gradientUnits="userSpaceOnUse" xlink:href="#a"/>
 </defs>
 <g transform="translate(-70.038 -96.975)" fill-rule="evenodd">
  <path d="m414.64 465.72c17.261-16.246 17.845-31.31 50.64-35.816 35.061-8.484 59.93-36.362 63.002-120.83s56.821-176.61 56.821-176.61 44.535-49.142 56.821 7.6785-38.393 198.11-62.964 241.11c-15.592 25.041 4.5692 55.907 21.97 62.469 12.831 4.0235 15.953 25.637 8.2494 35.816-10.75 3.0714-194.54-13.821-194.54-13.821z" fill="url(#g)" stroke="#000"/>
  <path d="m577.12 639.3-7.0664 50.767s-27.604 3.4047-36.613 20.407-46.29-17.871-55.43-11.618-35.3 1.9618-42.922 6.6612-41.442 2.0359-41.442 2.0359l-3.4418-30.675s-18.334 7.9003-45.864 17.447-6.5871-36.78-6.5871-36.78l14.856-41.646 224.51 23.4z" fill="url(#f)" stroke="#000"/>
  <path d="m345.53 660.76c-38.393 0-67.277 117.22-226.99 111.07-44.535 18.428-27.936 22.532-27.936 22.532s379.88 19.964 410.27 6.1428c19.679-11.455 78.086-105.96 67.336-130.53l-41.464 23.036-33.785-13.821-96.749 13.821c-6.1428-18.428-3.0714-4.6071-6.1428-29.178-33.785-1.5357-67.571 33.785-44.535-3.0714z" fill="#df0000" stroke="#000"/>
  <path d="m90.606 788.22 23.036-13.821s285.64 26.107 342.46 1.5357 79.857-56.821 79.857-56.821l10.75-15.357s15.357-15.357 10.75-1.5357-46.071 73.714-46.071 73.714-19.964 19.964-56.821 21.5-322.5-10.75-322.5-10.75l-41.464 1.5357z" fill="#fff9ff" opacity=".50996"/>
  <path d="m127.46 771.33-23.036 12.286 44.535 4.6071 12.286-15.357-33.785-1.5357z" fill="#fff" opacity=".23506"/>
  <path d="m320.67 678.21c-53.524 34.044-47.387 93.983-206.08 94.837 51.297 5.8755 161.84 16.715 298.52 9.036 116.71-32.25 76.785-72.178 76.785-72.178s-176.9 22.055-169.22-31.695z" fill="url(#e)"/>
  <path d="m533.58 298.45s16.754-126.92 63.461-169.06 28.173 166.28-61.233 266.34c-8.6306 17.769-2.7354-58.694-2.2278-97.278z" fill="#fff" opacity=".25498"/>
  <path d="m635.73 158.03s-21.55 154.44-79.017 219.09 14.367 66.446 19.754 62.854-35.917-21.55 0-75.425 59.263-143.67 59.263-206.52z" opacity=".27092"/>
  <path d="m365.89 607.09-1.0874 35.339 17.398-33.164-3.8057 40.232 21.203-40.232-7.0678 42.95 24.465-41.319-9.2425 44.582 24.465-44.038-9.7862 44.582 26.64-42.95-7.6115 39.688 21.747-37.514-4.3494 38.601 19.029-34.252-2.1747 34.252 20.66-33.708-5.9804 33.164 22.291-31.533-6.5241 32.077 18.485-31.533-4.8931 31.533 17.941-31.533-5.9804 30.99 17.941-29.902-4.8931 30.99 16.854-30.446-3.8057 30.99 14.136-29.359-3.2621 31.533 9.7862-35.883-217.47-25.553-11.417 41.319 16.31-29.902z" fill="#994a2c" opacity=".2749"/>
  <path d="m379.6 611.36-1.0409 27.521 16.654-25.827-3.643 31.331 20.297-31.331-6.7656 33.448 23.419-32.178-8.8474 34.718 23.419-34.295-9.3678 34.718 25.501-33.448-7.286 30.908 20.817-29.214-4.1634 30.061 18.215-26.674-2.0817 26.674 19.776-26.25-5.7248 25.827 21.338-24.557-6.2452 24.98 17.695-24.557-4.6839 24.557 17.174-24.557-5.7248 24.134 17.174-23.287-4.6839 24.133 16.133-23.71-3.643 24.134 13.531-22.863-3.1226 24.557 9.3678-27.944-208.17-19.9-10.929 32.178 15.613-23.287z" fill="#994a2c" opacity=".2749"/>
  <path d="m347.05 619.16s56.865-164.03 82.227-165.68 183.5 16.447 183.5 16.447-0.82206 15.373-4.4755 37.828c-7.4592 19.736-25.905 132.65-31.872 132.65s-229.38-21.246-229.38-21.246z" fill="#959595" stroke="#000" stroke-width="1.02"/>
  <path d="m600.95 468.52 11.802 3.5559-34.423 167.34-16.853-0.77096 39.473-170.12z" opacity=".34661" stroke="#000" stroke-width="1.017"/>
  <path d="m589.3 468.05 19.053 2.3922-41.058 167.49-31.872-1.38 53.877-168.5z" fill="#fffdff" opacity=".10757"/>
  <path d="m590.23 472.34-47.063 163.04 10.875-2.6298 36.188-160.41z" fill="#fff" opacity=".54582"/>
  <path d="m443.82 453.79 129 11.18 9.2142 6.3886-46.071 166.1-165.86-17.569 73.714-166.1z" fill="url(#d)" opacity=".14741"/>
  <path d="m464.15 453.25 114.8 12.31-57.202 172.58-142.36-14.947 84.765-169.95z" fill="url(#c)" opacity=".38247"/>
  <path d="m390.65 448.64 59.892 3.0714-73.714 168.93-55.285-6.1428 69.107-165.86z" fill="url(#b)" opacity=".23506"/>
  <path d="m589.93 441.11s-7.1076 9.646-1.523 12.692 6.0922 0.50769 8.123 7.1076 12.184 5.5845 12.184 5.5845l-1.0154-13.2-17.769-12.184z" fill="#fff" opacity=".38247"/>
 </g>
</svg>
