<?xml version="1.0" encoding="UTF-8"?>
<svg width="210mm" height="297mm" xmlns="http://www.w3.org/2000/svg" xmlns:xlink="http://www.w3.org/1999/xlink">
 <defs>
  <linearGradient id="d">
   <stop stop-color="#fff" offset="0"/>
   <stop stop-color="#fff" offset=".63748"/>
   <stop offset="1"/>
  </linearGradient>
  <linearGradient id="c">
   <stop offset="0"/>
   <stop offset=".67273"/>
   <stop stop-color="#fff" offset="1"/>
  </linearGradient>
  <radialGradient id="h" cx=".57778" cy=".66406" r=".68893" fx=".58333" fy=".65625">
   <stop stop-color="#ff9c00" offset="0"/>
   <stop stop-color="#ff3" offset="1"/>
  </radialGradient>
  <radialGradient id="g" cx=".50595" cy=".60156" r=".69065" fx=".5" fy=".61719" xlink:href="#c"/>
  <radialGradient id="f" cx=".5137" cy=".66406" r=".68498" fx=".5" xlink:href="#c"/>
  <radialGradient id="e" cx=".51562" cy=".42969" r=".67708" fy=".4375" xlink:href="#d"/>
  <radialGradient id="i" cx=".51111" cy=".39844" r=".72778" fx=".50556" fy=".38281" xlink:href="#d"/>
  <radialGradient id="b" cx=".51639" cy=".6875" r=".96734" fx=".54098" fy=".70312">
   <stop stop-color="#ff9c00" offset="0"/>
   <stop stop-color="#ff9c00" offset=".30612"/>
   <stop stop-color="#ff3" offset="1"/>
  </radialGradient>
  <radialGradient id="a" cx=".49313" cy=".49411" r=".50699">
   <stop stop-color="#fff" stop-opacity=".85098" offset="0"/>
   <stop stop-color="#fff" stop-opacity=".83" offset=".73619"/>
   <stop stop-color="#fff" stop-opacity="0" offset="1"/>
  </radialGradient>
 </defs>
 <g transform="translate(16.307 2.5479)" fill-rule="evenodd" style="">
  <path d="m43.771 261.43c-6.4254 19.851-10.198 52.275 3.0538 73.291 12.743 21.016 25.977 22.015 35.627 26.466 9.1419 4.4514 49.95 10.494 73.597 8.3452s69.24-2.7578 83.673-11.399c13.924-9.1502 16.073-11.651 25.957-23.921 9.8838-12.779 6.4359-59.322-2.5448-78.38-8.9807-19.058-22.405-40.977-36.645-50.896-14.75-9.9197-42.406-14.251-74.818-13.233-32.921 0.50897-61.871 3.5628-77.362 18.832-15.492 14.76-23.604 31.046-30.538 50.896z" fill="url(#g)" stroke="#000" stroke-width="4.375"/>
  <path d="m154.47 228.22c-61.821-1.023-99.867 43.44-100.12 78 0.065034 8.715 4.1036 16.574 10.688 23.406s15.717 12.675 26.125 17.438c20.817 9.5249 46.69 14.75 67.375 14.75 20.652 0 43.96-3.5556 62.281-11.688 18.311-8.1271 31.718-20.934 32.25-39.281 1.5463-36.597-36.772-82.114-98.594-82.625z" fill="url(#e)"/>
  <path d="m75.836 272.63c-15.288-0.63341-24.226 11.138-24.939 31.047-0.20392 19.908 7.2726 42.987 15.778 57.004 3.9981 7.0086 18.038 17.84 33.383 17.923 15.345 0.08236 17.783-0.09375 31.255-13.342 12.963-13.248 18.194-43.515 19.34-62.098 1.1456-18.073-12.017-32.47-26.974-31.551-14.448 0.91843-22.298 15.344-23.412 31.047-0.09607-15.853-9.1423-29.904-24.43-30.029z" fill="url(#b)" stroke="#000" stroke-width="2.25"/>
  <path transform="matrix(1.5068 .52921 -.72444 1.325 177.61 -136.16)" d="m73.89 294.87a6.3698 11.466 0 1 0 -12.74 0 6.3698 11.466 0 1 0 12.74 0z" fill="url(#a)"/>
  <path d="m181.83 272.63c-15.288-0.63341-24.226 11.138-24.939 31.047-0.20392 19.908 7.2726 42.987 15.778 57.004 3.9981 7.0086 18.038 17.84 33.383 17.923 15.345 0.08236 17.783-0.09375 31.255-13.342 12.963-13.248 20.233-43.515 19.34-64.136-0.38318-20.621-12.017-30.432-26.974-29.513-14.448 0.91843-22.298 15.344-23.412 31.047-0.09607-15.853-9.1423-29.904-24.43-30.029z" fill="url(#b)" stroke="#000" stroke-width="2.25"/>
  <path transform="matrix(1.5068 .52921 -.72444 1.325 283.6 -136.93)" d="m73.89 294.87a6.3698 11.466 0 1 0 -12.74 0 6.3698 11.466 0 1 0 12.74 0z" fill="url(#a)"/>
 </g>
 <g transform="translate(16.307 2.5479)" fill-rule="evenodd" style="">
  <path d="m70.539 49.704c-19.794 20.154-48.465 99.09-31.67 129.56 16.075 30.471 77.349 43.94 115.62 43.34 38.988-0.59982 100.25-14.199 117.59-44.06 9.4772-15.595-0.11997-51.465-3.5989-66.94-3.479-15.475-13.766-46.546-33.605-66.85-19.839-20.304-47.071-31.281-80.121-31.041-32.33 0.23993-65.14 15.835-84.215 35.989z" fill="url(#f)" stroke="#000" stroke-width="4.375"/>
  <g style="">
   <path d="m154.72 94.492c-1.8214-2.2336-4.6245-12.643-10.688-22.394-6.0638-10.261-16.597-21.417-42.244-18.323-25.647 3.6037-35.639 35.163-39.19 47.334-4.0597 12.17-8.6606 46.373-4.0717 58.022 4.0799 12.158 27.362 27.611 48.352 29.52 19.971 1.9086 32.286 3.5628 47.334 3.5628 15.047 0 46.188-5.1888 57.004-6.6165 11.325-1.4278 37.663-17.017 40.717-30.029 3.0538-12.503-1.1891-46.961-5.5986-60.567-4.4095-13.097-14.516-41.605-40.717-42.753-25.692-1.1482-34.444 11.568-40.21 18.321-5.2564 6.7537-10.392 17.504-10.686 23.923z" fill="url(#i)"/>
   <path d="m123.5 91.451c-6.3003 1.0689-8.9717 20.193-8.9717 27.439-0.50896 7.2465 0.84328 31.818 9.2699 31.583 8.4266 0.27413 10.907-19.137 10.797-32.092-0.11038-13.464-4.7946-27.49-11.095-26.93z"/>
   <path d="m183.74 91.454c-6.3003 1.0689-8.9717 20.193-8.9717 27.439-0.50896 7.2465 0.84328 31.818 9.2699 31.583 8.4266 0.27413 10.907-19.137 10.797-32.092-0.11038-13.464-4.7946-27.49-11.095-26.93z"/>
  </g>
  <path d="m153.4 208.69c12.434-0.14093 42.625-7.0511 41.658-28.702-0.9669-18.772-22.263-27.295-40.308-27.352-14.26-0.61332-42.04 9.3922-41.747 29.511 0.28326 20.153 27.963 27.193 40.397 26.543z" fill="url(#h)" stroke="#000" stroke-linejoin="bevel" stroke-width="2.625"/>
  <path transform="matrix(5.1503 .24416 -2.1847 2.3176 408.05 -649.34)" d="m73.89 294.87a6.3698 11.466 0 1 0 -12.74 0 6.3698 11.466 0 1 0 12.74 0z" fill="url(#a)" stroke-width="1pt"/>
 </g>
</svg>
