<?xml version="1.0" encoding="UTF-8"?>
<svg width="435" height="435" viewBox="0 0 435 355" xmlns="http://www.w3.org/2000/svg">
 <g transform="translate(-211.07 -357.72)" fill-rule="evenodd">
  <path d="m295.66 602.31 345.68-38.607c0.79195-11.087-6.7315-20.986-10.097-31.48-41.973-66.127-94.637-126.31-188.28-166.31-50.486-3.1678-45.735 12.671-51.674 52.862 54.446 31.084 136.21 40.191 156.21 116.42l-210.85 50.486c-9.8993-5.3456-19.799-5.3456-29.698-1.7819l-11.285 18.413z" fill="#b98b75" opacity=".52657"/>
  <path d="m391.9 420.97 25.035 6.0084c68.095 21.029 126.18 58.081 130.68 108.15-4.6732 8.345-11.85 14.687-14.02 25.035-5.5077 37.052-15.522 33.046-22.531 12.017-0.6676-25.202-4.3394-27.372-15.522-23.032-17.858 10.014-48.234 10.515-73.102 10.515-3.1711 17.524-21.363 14.02-32.045 21.029-5.5077 63.756-13.018 61.419-22.531 0.5007-18.025 7.3436-38.053 0.6676-57.08 1.0014-14.687 29.207-24.868 31.878-39.555 20.028-7.3436 27.705 15.855 38.387-17.024 28.039-30.71-10.515 9.3046 54.201 2.128 73.415-11.018 7.1764-40.014-28.102-28.164-75.918-15.188-26.203-11.85-37.886 7.5105-48.067 3.5049-22.531 17.024-30.543 31.544-36.05l25.536-21.029c10.682-25.536 24.367-33.547 42.559-39.055 1.669-29.708 14.854-34.882 32.045-39.555 5.6746-11.683 12.851-19.861 24.534-23.032z" fill="#e9e9af"/>
  <path d="m427.71 359.71c-9.9028-0.0657-19.577 1.3761-28.875 4.4375-14.897 18.543-7.6448 35.686-11.469 53.531-12.994 3.5766-18.414 13.112-26 23.719-25.849 8.9611-28.989 14.656-32.125 38.219-21.307 5.3376-29.618 16.084-42.812 43.594-12.26 3.9243-15.876 8.4108-22.188 19.906-21.523-2.3028-26.826 12.133-32.125 33.625-26.885 14.06-24.035 37.34-7.6562 53.562-0.76478 13.256-1.5164 26.494-2.2812 39.75 11.696 47.559 58.011 59.968 36.719 1.5312-3.0592-13.002-17.644-25.998-9.1875-39 14.392 9.0548 21.765 14.875 23.719-19.875 13.875 4.5622 20.207 2.2836 23.719-2.5625l70.344-7.9688c-2e-5 8.3495 0 16.713 0 25.062 2.9739 27.225 20.022 10.096 26.781-9.1875-0.55153-6.2504-1.1048-12.5-1.6562-18.75l118.16-13.438c1.8868 4.4152 4.982 7.6223 10.438 8.4688 9.8509-0.80219 13.413-5.4004 14.781-11.344l103.75-11.781c5.5077-6.8429 8.0091-11.194 1.5-14.031l-104.38 12.938c-0.01802-5.0758 0.11557-10.039 1.9375-14 2.8427-13.504 10.543-19.435 19.875-27.531 5.4773-5.5467 11.859-6.6148 12.469-15.406 22.813 3.8741 43.656 22.157 68.062 41.812 4.8792-6.3807 2.2878 2.6489 3.2812-9.9375-63.562-110.51-145.46-184.88-214.78-185.34zm-8.9062 11.312c3.6186-0.14553 7.8909 0.31634 12.938 1.5312 73.406 14.406 138.69 83.429 194.25 156.78-2.8984 19.798-48.515-46.917-68.719-16.844-0.50988 2.8043-9.1299 11.539-12.344 26.781-13.772 5.0235-15.308 13.304-17.062 31.219 0.87598 18.923-2.0038 17.969-5.0625 18.25-2.974 0.27356-5.4581 0.26864-7.0938-15.969h-0.0625c-0.00889-0.15572 0.03316-12.497 0.96875-19.719 2.5452-8.7496-3.3184-14.234-11.469-14.531-8.1579 3.5691-16.311 7.1184-24.469 10.688l-18.344 1.5312c-7.9029-4.1642-14.734-0.73588-23.719 5.375-6.3734-1.2747-12.752-2.5691-19.125-3.8438l-6.125 16.062c-7.9029 1.7845-15.785 3.5905-23.688 5.375-0.8492 5.0007-1.7133 9.9993-2.5625 15l-1.9375 11.438c-0.79788 4.6985-1.6084 9.3952-2.4062 14.094-3.1978 18.209-5.2418 7.9711-8.0312-12.906l-1.875-13.281s-0.93151-8.1803-1.5625-12.844l-9.1562-9.1562c-5.8635 4.5888-11.73 9.1612-17.594 13.75-4.2411 2.4181-9.5671 3.2303-17.594 0.78125 5.6778 13.365 13.501 13.219 26.75 7.6562 5.1951-1.8072 9.7198-1.9644 12.156 3.125l-64.438 7.9688c1.9741-7.3792 3.9229-14.866 12.531-16.469-11.055-1.7386-17.274 10.144-25.625 20.844-7.1015-0.54652-12.87-6.8257-17.969-9.375-10.375 7.4933-9.3875 11.203-8.4062 30.594-6.6283-0.25494-12.737-3.199-19.906-0.75-2.7349 12.268-6.5497 20.757 1.5312 35.188 17.87 37.987 10.863 60.282-14.531 6.875-1.866-8.581 1.0214-14.794 1.5312-22.188 5.5626-17.073-8.8612-30.911-7.625-38.25 0.96539-9.2704 6.2309-17.453 19.094-22.938 4.8512-22.35 9.1602-24.677 27.531-31.344 6.6976-11.781 12.871-17.078 29.844-19.125 5.1136-29.164 16.699-38.316 41.281-42.062 4.2344-2.9276 33.459 5.0131 48.875 13.531 6.7064-4.7535 29.513-13.364 48.375-8.3438 5.1751-6.2523 8.731-11.365 25.219-15.812-4.2604-0.61848-1.0441 0.13871-10.281-2.2188-19.752-25.39-41.451-20.334-51.969-19.844-2.0084-3.5262-8.8908-9.2988-18.375-11.469 4.0347 6.8426 12.976 13.265 7.0625 13.594s-23.655 12.078-27.969 27.062c-7.315-6.1269-20.452-1.6956-19.812-5.7188 3.0635-19.265 18.069-28.996 28.719-32.094 4.0555-11.086 15.664-21.613 26.75-26.75 3.7237-12.778 2.0428-24.482 3.0625-36.719 2.5664-8.1175 7.5817-14.095 18.438-14.531zm82.531 182.78c4.2026 0.1003 6.2487-0.34674 6.125 8.4062 0.21294 3.8424 0.35448 7.7464 0.6875 11.469l-108.66 13.5 5.4688-3.5312c15.729 1.6767 19.556-3.1378 24.469-16.062 14.176 5.8484 24.047 3.0507 34.438-8.4062 15.736 5.2458 24.977 5.0622 37.469-5.375z"/>
  <path d="m536.57 506.23 8.6527-23.254h-12.979l9.1935-17.305-23.254 3.7856 8.6527-22.713-25.417 14.601 7.0303-24.336-17.846 12.979 5.4079-20.55-15.142 11.357-0.5408-20.009-14.061 22.173-4.3264-26.499-11.357 12.979-2.704-19.469-5.4079 10.275-8.6527-17.305-5.4079 14.061-11.357-11.897v15.683l-10.816 10.816 22.173 1.6224 25.958 15.142-13.52 9.1935c32.087-4.1461 43.083 2.5237 52.457 20.009 24.696 3.6053 34.25 10.996 43.264 28.662z"/>
  <path d="m528.09 520.11c-22.531-0.5007-42.059 10.014-55.578 19.527-18.86-7.3436-32.212-12.184-59.583-4.0056l17.024-15.021c-13.185-7.8443-20.362-4.6732-30.543-7.0098 13.185-1.8359 27.372-8.6788 38.053 3.5049 31.21-27.038 64.423-34.048 75.606 0l15.021 3.0042z"/>
  <path d="m301.77 533.63c4.8401 2.5035 12.684 4.0056 14.52 7.5105-6.0084 3.1711-10.014 8.345-12.017 14.02-9.1795-0.1669-19.36 4.1725-27.538 11.516 16.69-1.1683 33.38-4.3394 50.07 4.0056 12.017-8.1781 21.029-12.351 36.05-12.517 8.6788-15.855 9.3464-21.196 39.555-22.031-14.02-7.0098-25.035-8.0112-36.05 1.5021l-14.52-10.014 19.527-22.031c-15.188 4.3394-25.869 10.181-32.045 23.533-6.0084-1.0014-11.015 1.0014-15.021 4.5063-7.5105-2.0028-15.021-2.0028-22.531 0z"/>
  <path d="m316.15 556.87c4.4547 0.79194 8.9094 2.4748 13.364 6.8305 8.2164-7.0285 16.433-10.493 27.322-13.067 3.6627-19.601-34.252-13.067-40.686 6.2366z" fill="#c81919"/>
  <path d="m371.69 487.67c5.2466 0.89094 10.79 2.3758 14.849 6.2366 14.948-4.2567 25.738-11.483 45.735-5.6426 3.1678-3.0688 7.2265-5.2466 12.176-5.6426-17.225-27.619-53.753-18.71-72.76 5.0486z" fill="#c81919"/>
  <path d="m445.34 522.72c9.8993 0.98993 18.611 2.5738 27.916 7.4245 9.9983-7.3255 15.839-10.79 29.104-13.958-12.176-27.223-43.656-13.76-57.02 6.5335z" fill="#c81919"/>
 </g>
</svg>
