<?xml version="1.0" encoding="UTF-8"?>
<svg viewBox="0 0 640 480" xmlns="http://www.w3.org/2000/svg">
 <g fill="#f00">
  <rect transform="matrix(-1.2077 .71489 .71489 1.2077 884.58 -240.72)" x="548.63" y="66.124" width="14.475" height="23.757" rx="2.2311" ry="2.2311" stroke="#484848" stroke-linecap="round" stroke-linejoin="round" stroke-width="2.312"/>
  <path d="m256.52 233.28l0.6765 1.7164 13.978 32.388-2.9346 1.9451-18.849-33.275 5.5435-2.1487 1.5859-0.6259z" opacity=".63"/>
  <path d="m291.58 270.25l-0.9417-1.5859-17.074-28.718-3.3008-1.0414 14.757 35.282 5.093-3.0665 1.4666-0.8701z" opacity=".63"/>
  <g stroke="#484848" stroke-linecap="round" stroke-linejoin="round">
   <rect transform="matrix(-1.2077 .71489 .71489 1.2077 884.58 -240.72)" x="548.63" y="66.124" width="14.475" height="23.757" rx="2.2311" ry="2.2311" stroke-width="2.312"/>
   <rect transform="matrix(-1.2077 .71489 .71489 1.2077 884.58 -240.72)" x="546.56" y="48.01" width="18.77" height="25.503" rx="2.1266" ry="2.1266" stroke-width="2"/>
  </g>
  <path d="m275.2 238.37l-0.9431-1.5859-17.073-28.717-3.3008-1.0428 14.757 35.282 5.093-3.0651 1.4666-0.8715z" opacity=".63"/>
  <path d="m243.37 215.66l0.6764 1.715 13.978 32.39-2.9345 1.9451-18.849-33.276 5.5421-2.1472 1.5872-0.6259z" opacity=".63"/>
  <g stroke="#484848" stroke-linecap="round" stroke-linejoin="round">
   <g stroke-width="2">
    <rect transform="matrix(-1.2077 .71489 .71489 1.2077 884.58 -240.72)" x="546.56" y="48.01" width="18.77" height="25.503" rx="2.1266" ry="2.1266"/>
    <path d="m211.93 202.25c0 12.948 10.496 23.444 23.444 23.444s23.444-10.496 23.444-23.444c0-12.946-10.496-23.443-23.444-23.443s-23.444 10.496-23.444 23.443z"/>
   </g>
   <path d="m314.82 277.66c1.2785-1.0484 3.1493-0.86172 4.1962 0.41824l12.556 15.339c7.8942 9.5671 8.5356 19.088 2.0813 29.016l-18.03-22.025c-0.52344-0.63852-1.2533-0.9964-2.0125-1.0722-0.75928-0.075806-1.5438 0.13049-2.1837 0.65399l-7.2964 5.9729c-0.63995 0.5235-0.99783 1.2533-1.0736 2.0125-0.075806 0.75928 0.13049 1.5452 0.65536 2.1838l17.918 21.889c-10.11 3.7191-20.236 0.94449-27.319-8.1272l-12.558-15.339c-1.0469-1.2799-0.86029-3.1493 0.41824-4.1976l1.4329-15.454 16.323-13.363 14.892 2.0939z" stroke-width="2.024"/>
  </g>
  <path d="m321.99 331.84c-19.052 0.11368-25.897-13.707-33.595-26.402l1.0526-19.56-6.14 0.7888-0.3509 17.543-0.9641 2.6314 15.525 20.174 9.0352 5.3512 9.8239 1.4034 5.6137-1.9297z"/>
  <path d="m314.82 277.66c1.2785-1.0484 3.1493-0.86172 4.1962 0.41824l12.556 15.339c7.8942 9.5671 8.5356 19.088 2.0813 29.016l-18.03-22.025c-0.52344-0.63852-1.2533-0.9964-2.0125-1.0722-0.75928-0.075806-1.5438 0.13049-2.1837 0.65399l-7.2964 5.9729c-0.63995 0.5235-0.99783 1.2533-1.0736 2.0125-0.075806 0.75928 0.13049 1.5452 0.65536 2.1838l17.918 21.889c-10.11 3.7191-20.236 0.94449-27.319-8.1272l-12.558-15.339c-1.0469-1.2799-0.86029-3.1493 0.41824-4.1976l1.4329-15.454 16.323-13.363 14.892 2.0939z" stroke="#484848" stroke-linecap="round" stroke-linejoin="round" stroke-width="2.024"/>
  <path d="m333.22 316.93c8.029-11.407-7.4648-26.296-16.315-36.402l-17.28-2.543c-0.16415 2.8026 0.1965 2.8546-1.5971 4.9597 1.4287-0.016846 13.404 1.6448 14.333 2.0181 10.676 4.2846 24.146 20.01 20.859 31.967z" opacity=".63"/>
  <path d="m268.06 272.28c-1.9592 8.5468 3.4917 17.088 12.173 19.077 8.6801 1.9886 17.306-3.3275 19.263-11.876 1.9592-8.5482-3.4917-17.089-12.173-19.078-8.6816-1.9886-17.306 3.329-19.263 11.877z" stroke="#484848" stroke-linecap="round" stroke-linejoin="round" stroke-width="2.217"/>
  <path d="m297.13 277.82c-3.8734-7.9125-10.965-12.179-20.431-13.756 11.003-2.8195 19.607-1.402 20.431 13.756z" opacity=".63"/>
  <path d="m254.42 209.29c-1.1312-17.283-12.52-24.209-26.38-26.177 14.029-5.26 33.272 7.817 26.38 26.177z" opacity=".63"/>
  <rect transform="matrix(1.2077 .71489 -.71489 1.2077 -142.7 -240.72)" x="301.88" y="212.19" width="14.475" height="23.757" rx="2.2311" ry="2.2311" stroke="#484848" stroke-linecap="round" stroke-linejoin="round" stroke-width="2.312"/>
  <path d="m82.942 233.28l-0.6765 1.7164-13.978 32.388 2.9345 1.9451 18.849-33.275-5.5435-2.1487-1.5858-0.6259z" opacity=".63"/>
  <path d="m47.888 270.25l0.9417-1.5859 17.074-28.718 3.3008-1.0414-14.757 35.282-5.093-3.0665-1.4666-0.8701z" opacity=".63"/>
  <g stroke="#484848" stroke-linecap="round" stroke-linejoin="round">
   <rect transform="matrix(1.2077 .71489 -.71489 1.2077 -142.7 -240.72)" x="301.88" y="212.19" width="14.475" height="23.757" rx="2.2311" ry="2.2311" stroke-width="2.312"/>
   <rect transform="matrix(1.2077 .71489 -.71489 1.2077 -142.7 -240.72)" x="299.81" y="194.07" width="18.77" height="25.503" rx="2.1266" ry="2.1266" stroke-width="2"/>
  </g>
  <path d="m64.262 238.37l0.9431-1.5859 17.073-28.717 3.3008-1.0428-14.757 35.282-5.093-3.0651-1.4666-0.8715z" opacity=".63"/>
  <path d="m96.09 215.66l-0.6764 1.715-13.978 32.39 2.9346 1.9451 18.849-33.276-5.5421-2.1472-1.5873-0.6259z" opacity=".63"/>
  <g stroke="#484848" stroke-linecap="round" stroke-linejoin="round">
   <g stroke-width="2">
    <rect transform="matrix(1.2077 .71489 -.71489 1.2077 -142.7 -240.72)" x="299.81" y="194.07" width="18.77" height="25.503" rx="2.1266" ry="2.1266"/>
    <path d="m127.53 202.25c0 12.948-10.496 23.444-23.444 23.444s-23.444-10.496-23.444-23.444c0-12.946 10.496-23.443 23.444-23.443s23.444 10.496 23.444 23.443z"/>
   </g>
   <path d="m24.642 277.66c-1.2785-1.0484-3.1493-0.86172-4.1962 0.41824l-12.556 15.339c-7.8942 9.5671-8.5356 19.088-2.0813 29.016l18.03-22.025c0.52348-0.63852 1.2532-0.9964 2.0125-1.0722 0.75925-0.075806 1.5438 0.13049 2.1837 0.65399l7.2964 5.9729c0.63996 0.5235 0.99784 1.2533 1.0736 2.0125 0.075775 0.75928-0.13052 1.5452-0.6554 2.1838l-17.918 21.889c10.11 3.7191 20.236 0.94449 27.319-8.1272l12.558-15.339c1.047-1.2799 0.86031-3.1493-0.4182-4.1976l-1.4329-15.454-16.323-13.363-14.892 2.0939z" stroke-width="2.024"/>
  </g>
  <path d="m17.473 331.84c19.05 0.11368 25.896-13.707 33.594-26.402l-1.0526-19.56 6.14 0.7888 0.3509 17.543 0.9656 2.6314-15.526 20.174-9.0338 5.3512-9.8239 1.4034-5.6137-1.9297z"/>
  <path d="m24.642 277.66c-1.2785-1.0484-3.1493-0.86172-4.1962 0.41824l-12.556 15.339c-7.8942 9.5671-8.5356 19.088-2.0813 29.016l18.03-22.025c0.52348-0.63852 1.2532-0.9964 2.0125-1.0722 0.75925-0.075806 1.5438 0.13049 2.1837 0.65399l7.2964 5.9729c0.63996 0.5235 0.99784 1.2533 1.0736 2.0125 0.075775 0.75928-0.13052 1.5452-0.6554 2.1838l-17.918 21.889c10.11 3.7191 20.236 0.94449 27.319-8.1272l12.558-15.339c1.047-1.2799 0.86031-3.1493-0.4182-4.1976l-1.4329-15.454-16.323-13.363-14.892 2.0939z" stroke="#484848" stroke-linecap="round" stroke-linejoin="round" stroke-width="2.024"/>
  <path d="m6.246 316.93c-8.0304-11.407 7.4634-26.296 16.315-36.402l17.279-2.543c0.16421 2.8026-0.19648 2.8546 1.5971 4.9597-1.4287-0.016846-13.404 1.6448-14.333 2.0181-10.676 4.2846-24.146 20.01-20.858 31.967z" opacity=".63"/>
  <path d="m71.404 272.28c1.9592 8.5468-3.4917 17.088-12.173 19.077-8.6802 1.9886-17.306-3.3275-19.263-11.876-1.9592-8.5482 3.4917-17.089 12.173-19.078 8.6816-1.9886 17.306 3.329 19.263 11.877z" stroke="#484848" stroke-linecap="round" stroke-linejoin="round" stroke-width="2.217"/>
  <path d="m42.331 277.82c3.8734-7.9125 10.965-12.179 20.431-13.756-11.003-2.8195-19.607-1.402-20.431 13.756z" opacity=".63"/>
  <path d="m85.041 209.29c1.1312-17.283 12.52-24.209 26.38-26.177-14.029-5.26-33.272 7.817-26.38 26.177z" opacity=".63"/>
 </g>
 <g fill="#a4a4a4" stroke="#484848" stroke-linecap="round" stroke-linejoin="round" stroke-width="2">
  <rect transform="matrix(-1.4034 0 0 1.4034 890.51 -241.21)" x="474.33" y="424.33" width="36.77" height="12.728" rx="6.364" ry="6.364"/>
  <rect transform="matrix(-1.4034 0 0 1.4034 890.51 -241.21)" x="474.33" y="412.33" width="36.77" height="12.728" rx="6.364" ry="6.364"/>
  <rect transform="matrix(-1.4034 0 0 1.4034 890.51 -241.21)" x="474.33" y="400.33" width="36.77" height="12.728" rx="6.364" ry="6.364"/>
  <rect transform="matrix(-1.4034 0 0 1.4034 890.51 -241.21)" x="473.98" y="387.96" width="36.77" height="12.728" rx="6.364" ry="6.364"/>
 </g>
 <path d="m189.34 302.59c-3.2424 5.6283-5.9396 11.316 0 17.863-3.7308 5.1786-7.4384 10.361 0.24806 17.366-7.1802 6.7098-4.3676 11.754-0.49612 16.622-6.3739 10.746-0.71876 12.293 0 17.614l-14.886 0.2481 1.2404-3.7214-2.9771-4.4656 1.4886-6.4504 4.7137-3.7214-4.9618-3.7214-0.9924-5.458 5.2099-6.9466-3.4733-3.2252-1.2404-6.2023 5.9541-8.187-4.4656-3.4733-1.7366-5.2099 3.2252-6.2023 3.2252-2.729 8.6833 0.7443 1.2404-0.7443z" fill="#808080"/>
 <path d="m209.38 302.76c3.2424 5.6283 5.9397 11.316 0 17.863 3.7308 5.1787 7.4385 10.361-0.24806 17.366 7.1803 6.7098 4.3677 11.754 0.49617 16.622 6.3739 10.746 0.71872 12.293 0 17.614l14.886 0.2481-1.2404-3.7214 2.9771-4.4657-1.4885-6.4504-4.7138-3.7214 4.9619-3.7214 0.9924-5.458-5.2099-6.9465 3.4733-3.2252 1.2404-6.2023-5.9542-8.187 4.4657-3.4733 1.7366-5.2099-3.2252-6.2023-3.2251-2.729-8.6832 0.7443-1.2405-0.7443z" fill="#fff" opacity=".63"/>
 <g stroke="#484848" stroke-linecap="round" stroke-linejoin="round" stroke-width="2">
  <g fill="none">
   <rect transform="matrix(-1.4034 0 0 1.4034 890.51 -241.21)" x="474.33" y="424.96" width="36.77" height="12.103" rx="6.0515" ry="6.0515"/>
   <rect transform="matrix(-1.4034 0 0 1.4034 890.51 -241.21)" x="474.33" y="413.08" width="36.77" height="11.978" rx="5.989" ry="5.989"/>
   <rect transform="matrix(-1.4034 0 0 1.4034 890.51 -241.21)" x="474.33" y="400.83" width="36.77" height="12.228" rx="6.114" ry="6.114"/>
   <rect transform="matrix(-1.4034 0 0 1.4034 890.51 -241.21)" x="473.98" y="387.96" width="36.77" height="12.728" rx="6.364" ry="6.364"/>
  </g>
  <path d="m172.72 397.61c5.4046 0.44183 86.57 1.4211 88.321-0.49618 0-19.045-20.626-34.485-46.068-34.485-14.467 0-32.283 2.5109-40.729 6.8457-1.4135 2.5948-1.5231 19.919-1.5231 28.135z" fill="#a4a4a4"/>
 </g>
 <path d="m260.79 393.64c-44.693-1.5781-87.698 5.2304-78.645-26.794l-8.6833 2.9771-0.7443 28.282 87.824-0.2481 0.2481-4.2176z" fill="#808080"/>
 <path d="m172.72 397.61c5.4046 0.44183 86.57 1.4211 88.321-0.49618 0-19.045-20.626-34.485-46.068-34.485-14.467 0-32.283 2.5109-40.729 6.8457-1.4135 2.5948-1.5231 19.919-1.5231 28.135z" fill="none" stroke="#484848" stroke-linecap="round" stroke-linejoin="round" stroke-width="2"/>
 <path d="m252.46 383.78c-9.9383-8.4386-19.979-15-44.187-17.039 18.05-3.0415 36.419 1.9562 44.187 17.039z" fill="#fff" opacity=".63"/>
 <rect x="254.59" y="97.592" width="18.075" height="39.695" fill="#a4a4a4" stroke="#484848" stroke-linecap="round" stroke-linejoin="round" stroke-width="2.807"/>
 <rect x="249.41" y="99.006" width="21.928" height="9.1222" fill="#00f"/>
 <rect x="249.34" y="126.77" width="21.928" height="9.1222" fill="#ff0" opacity=".35"/>
 <g fill="#a4a4a4" stroke="#484848" stroke-linecap="round" stroke-linejoin="round" stroke-width="2.807">
  <rect x="147.26" y="159.81" width="51.2" height="19.288"/>
  <rect x="143.13" y="179.18" width="59.829" height="19.145"/>
  <rect x="106.31" y="188.22" width="129.86" height="115.1"/>
  <rect x="69.343" y="97.592" width="18.075" height="39.695"/>
 </g>
 <rect x="70.452" y="98.874" width="21.928" height="9.1222" fill="#00f"/>
 <rect x="70.803" y="126.94" width="21.928" height="9.1222" opacity=".35"/>
 <rect x="86.052" y="72.834" width="169.31" height="87.084" fill="#a4a4a4" stroke="#484848" stroke-linecap="round" stroke-linejoin="round" stroke-width="2.807"/>
 <path d="m231.31 74.201h22.683v92.503h-22.683c6.5532-30.834 10.454-61.669 0-92.503z" opacity=".328"/>
 <g stroke="#484848">
  <path d="m78.599 126.15h23.16l21.683 21.542h92.639l24.636-21.542h23.16v44.409h-185.28v-44.409z" fill="#a4a4a4" stroke-linecap="round" stroke-linejoin="round" stroke-width="2.807"/>
  <g fill="#fff">
   <path d="m160.39 102.84c0 10.903-8.8383 19.741-19.741 19.741s-19.741-8.8383-19.741-19.741 8.8384-19.741 19.741-19.741 19.741 8.8383 19.741 19.741z"/>
   <path d="m219.58 101.77c0 10.903-8.8383 19.741-19.741 19.741s-19.741-8.8383-19.741-19.741 8.8384-19.741 19.741-19.741 19.741 8.8383 19.741 19.741z"/>
  </g>
 </g>
 <path d="m147.37 107.84c0 6.8659-5.5659 12.432-12.432 12.432-6.8659 0-12.432-5.566-12.432-12.432 0-6.8659 5.5659-12.432 12.432-12.432 6.866 0 12.432 5.566 12.432 12.432z"/>
 <path d="m206.56 107.13c0 6.8659-5.5659 12.432-12.432 12.432-6.8659 0-12.432-5.566-12.432-12.432 0-6.8659 5.5659-12.432 12.432-12.432 6.866 0 12.432 5.566 12.432 12.432z"/>
 <path d="m88.836 119.92l1.4177-42.884 74.073-1.0632-67.694 6.3795-7.7972 37.568z" fill="#e5e5e5"/>
 <path d="m238.13 124.53l24.374-0.0885v44.657h-38.998c3.3797-9.2476 5.412-19.083-0.20131-32.254l14.826-12.314v-9.2e-5z" opacity=".328"/>
 <path d="m81.418 134.05l0.1345 33.993 61.936 0.0556-56.331-5.333-5.7394-28.716v-3.1e-5z" fill="#e5e5e5"/>
 <path d="m164.68 29.686h6.4504l8.9313 43.168h-24.809l9.4275-43.168z" fill="#f00" stroke="#484848" stroke-width="2.807"/>
 <path d="m184.03 18.026c0 9.1802-6.9977 16.622-15.63 16.622-8.6321 0-15.63-7.442-15.63-16.622 0-9.1802 6.9977-16.622 15.63-16.622 8.6321 0 15.63 7.442 15.63 16.622z" fill="#604aff" stroke="#00054d" stroke-width="2"/>
 <path d="m156.99 11.482c7.074-4.2697 14.728-3.8463 22.81 0.03944-6.9815-8.2679-14.319-11.811-22.81-0.03944z" fill="#fff" opacity=".63"/>
 <path d="m154.66 22.651c10.233 6.9833 19.558 7.8809 27.454-0.78943-2.0082 11.642-20.576 18.209-27.454 0.78943z" opacity=".35"/>
 <g stroke-linecap="round" stroke-linejoin="round">
  <g stroke="#484848">
   <g fill="#484848" stroke-width="1.795">
    <rect x="142.57" y="272.57" width="57.149" height="6.9762" rx="3.3939" ry="3.3939"/>
    <rect x="143.27" y="285.9" width="57.149" height="6.9762" rx="3.3939" ry="3.3939"/>
   </g>
   <g fill="#f00" stroke-width="2">
    <path d="m133.09 282.98c0 4.9911-4.0461 9.0373-9.0373 9.0373-4.9911 0-9.0373-4.0462-9.0373-9.0373 0-4.9912 4.0462-9.0373 9.0373-9.0373s9.0373 4.0461 9.0373 9.0373z"/>
    <path d="m228.52 282.98c0 4.9911-4.0461 9.0373-9.0373 9.0373-4.9911 0-9.0373-4.0462-9.0373-9.0373 0-4.9912 4.0461-9.0373 9.0373-9.0373 4.9911 0 9.0373 4.0461 9.0373 9.0373z"/>
   </g>
   <rect x="113.61" y="196.59" width="114.73" height="70.171" rx="3.3939" ry="3.3939" fill="#dbfffc" stroke-width="2.807"/>
  </g>
  <path d="m114.31 237.29h13.332l9.8239-30.174 5.9645 30.524 7.368-13.332 11.227 29.823 6.6662-19.297 15.438-0.3509 6.3154-23.156 6.3154 37.542 6.3154-24.56 3.5085 12.631h20.35" fill="none" stroke="#00a799" stroke-width="2.807"/>
 </g>
 <path d="m117.01 263.52l0.0257-57.894c-0.1274-3.8256 2.9275-5.799 5.9573-5.9279l98.442-0.2484-94.573 5.7247c-3.3663 0.42555-4.7809 2.2452-4.8754 5.0078l-5.1521 43.339 1e-4 1e-4 0.1754 9.9994z" fill="#fff" opacity=".95"/>
 <rect x="113.61" y="196.59" width="114.73" height="70.171" rx="3.3939" ry="3.3939" fill="none" stroke="#484848" stroke-linecap="round" stroke-linejoin="round" stroke-width="2.807"/>
 <g fill="#fff">
  <path d="m117.18 280.56c4.2657-2.3168 8.881-2.087 13.754 0.021301-4.2099-4.4863-8.6343-6.4088-13.754-0.021301z" opacity=".63"/>
  <path d="m212.69 280.49c4.2657-2.3168 8.881-2.087 13.754 0.021301-4.2099-4.4863-8.6343-6.4088-13.754-0.021301z" opacity=".63"/>
 </g>
 <g fill="#a4a4a4" stroke="#484848" stroke-linecap="round" stroke-linejoin="round" stroke-width="2">
  <rect transform="matrix(1.4034 0 0 1.4034 -142.7 -240.72)" x="189.02" y="424.33" width="36.77" height="12.728" rx="6.364" ry="6.364"/>
  <rect transform="matrix(1.4034 0 0 1.4034 -142.7 -240.72)" x="189.02" y="412.33" width="36.77" height="12.728" rx="6.364" ry="6.364"/>
  <rect transform="matrix(1.4034 0 0 1.4034 -142.7 -240.72)" x="189.02" y="400.33" width="36.77" height="12.728" rx="6.364" ry="6.364"/>
  <rect transform="matrix(1.4034 0 0 1.4034 -142.7 -240.72)" x="188.67" y="387.96" width="36.77" height="12.728" rx="6.364" ry="6.364"/>
 </g>
 <path d="m158.05 303.08c3.2424 5.6283 5.9396 11.316 0 17.863 3.7308 5.1786 7.4384 10.361-0.24806 17.366 7.1802 6.7098 4.3677 11.754 0.49617 16.622 6.3739 10.746 0.71872 12.293 0 17.614l14.886 0.2481-1.2405-3.7214 2.9771-4.4656-1.4885-6.4504-4.7138-3.7214 4.9618-3.7214 0.9924-5.458-5.2099-6.9466 3.4733-3.2252 1.2404-6.2023-5.9542-8.187 4.4657-3.4733 1.7366-5.2099-3.2252-6.2023-3.2252-2.729-8.6832 0.7443-1.2405-0.7443z" fill="#808080"/>
 <path d="m138.01 303.26c-3.2424 5.6283-5.9397 11.316 0 17.863-3.7308 5.1787-7.4384 10.361 0.24806 17.366-7.1802 6.7099-4.3677 11.754-0.49617 16.622-6.3739 10.746-0.71872 12.293 0 17.614l-14.886 0.2481 1.2405-3.7214-2.9771-4.4657 1.4885-6.4504 4.7138-3.7214-4.9618-3.7214-0.9924-5.458 5.2099-6.9466-3.4733-3.2252-1.2405-6.2023 5.9542-8.187-4.4657-3.4733-1.7366-5.2099 3.2252-6.2023 3.2252-2.729 8.6832 0.7443 1.2405-0.7443z" fill="#fff" opacity=".63"/>
 <g stroke="#484848" stroke-linecap="round" stroke-linejoin="round" stroke-width="2">
  <g fill="none">
   <rect transform="matrix(1.4034 0 0 1.4034 -142.7 -240.72)" x="189.02" y="424.96" width="36.77" height="12.103" rx="6.0515" ry="6.0515"/>
   <rect transform="matrix(1.4034 0 0 1.4034 -142.7 -240.72)" x="189.02" y="413.08" width="36.77" height="11.978" rx="5.989" ry="5.989"/>
   <rect transform="matrix(1.4034 0 0 1.4034 -142.7 -240.72)" x="189.02" y="400.83" width="36.77" height="12.228" rx="6.114" ry="6.114"/>
   <rect transform="matrix(1.4034 0 0 1.4034 -142.7 -240.72)" x="188.67" y="387.96" width="36.77" height="12.728" rx="6.364" ry="6.364"/>
  </g>
  <path d="m174.67 398.1c-5.4046 0.44183-86.57 1.4211-88.321-0.49618 0-19.045 20.626-34.485 46.069-34.485 14.467 0 32.283 2.5108 40.729 6.8457 1.4135 2.5948 1.523 19.919 1.523 28.135z" fill="#a4a4a4"/>
 </g>
 <path d="m86.6 394.13c44.693-1.5781 87.698 5.2304 78.645-26.794l8.6832 2.9771 0.7443 28.282-87.824-0.2481-0.2481-4.2175z" fill="#808080"/>
 <path d="m174.67 398.1c-5.4046 0.44183-86.57 1.4211-88.321-0.49618 0-19.045 20.626-34.485 46.069-34.485 14.467 0 32.283 2.5108 40.729 6.8457 1.4135 2.5948 1.523 19.919 1.523 28.135z" fill="none" stroke="#484848" stroke-linecap="round" stroke-linejoin="round" stroke-width="2"/>
 <path d="m94.932 384.28c9.9383-8.4386 19.979-15 44.187-17.039-18.05-3.0415-36.419 1.9562-44.187 17.039z" fill="#fff" opacity=".63"/>
</svg>
