<?xml version="1.0" encoding="UTF-8"?>
<!DOCTYPE svg  PUBLIC '-//W3C//DTD SVG 1.0//EN'  'http://www.w3.org/TR/2001/REC-SVG-20010904/DTD/svg10.dtd'>
<svg width="574.92mm" height="597.38mm" clip-rule="evenodd" fill-rule="evenodd" image-rendering="optimizeQuality" shape-rendering="geometricPrecision" text-rendering="geometricPrecision" version="1.0" viewBox="0 0 119913 124597" xml:space="preserve" xmlns="http://www.w3.org/2000/svg">
 <defs>
  <style type="text/css">
   <![CDATA[
    .fil6 {fill:#2B2A29}
    .fil1 {fill:#86776F}
    .fil8 {fill:#EF7F1A}
    .fil5 {fill:#FFED00}
    .fil0 {fill:#46372C}
    .fil2 {fill:#4A3224}
    .fil4 {fill:#523321}
    .fil3 {fill:#695245}
    .fil7 {fill:#FEFEFE;fill-opacity:0.180392}
   ]]>
  </style>
 </defs>
     <ellipse class="fil0" transform="matrix(1.8038 .18488 -.15307 1.4934 45705 1.1183e5)" rx="1772" ry="4337"/>
     <ellipse class="fil0" transform="matrix(1.2404 .76893 -.85907 1.0938 40776 1.173e5)" rx="1772" ry="4337"/>
     <ellipse class="fil0" transform="matrix(-1.391 .4583 .56993 1.2625 48884 1.1812e5)" rx="1772" ry="4337"/>
     <ellipse class="fil0" transform="matrix(1.4928 .153 .13708 -1.3374 44752 1.1858e5)" rx="1772" ry="4337"/>
     <ellipse class="fil0" transform="matrix(-1.8038 .18488 .15307 1.4934 63293 1.1204e5)" rx="1772" ry="4337"/>
     <ellipse class="fil0" transform="matrix(-1.2404 .76893 .85907 1.0938 68221 1.1752e5)" rx="1772" ry="4337"/>
     <ellipse class="fil0" transform="matrix(1.391 .4583 -.56993 1.2625 60114 1.1833e5)" rx="1772" ry="4337"/>
     <ellipse class="fil0" transform="matrix(-1.4928 .153 -.13708 -1.3374 64245 1.1879e5)" rx="1772" ry="4337"/>
    <path class="fil1" d="m15001 59394c4519-1054 6977 1705 7818 6858s64 12700-1900 20185c-1965 7486-5117 14910-8520 14837-3403-74-7056-7646-9610-14078-2554-6431-4009-11723-1447-16802s9141-9946 13659-11000z"/>
    <path class="fil1" d="m84236 67682c-3544 2994-2798 6614 832 10366 3631 3752 10148 7636 17325 10531s15015 4801 16988 2027c1973-2773-1918-10225-5552-16115-3633-5890-7008-10216-12612-11195s-13437 1391-16981 4386z"/>
    <path class="fil1" d="m88720 33458c3741-3389 7887-8075 8603-13868 716-5792-1998-12691-4713-19590-4523 2488-9047 4976-12680 9125-3633 4150-6374 9960-6497 15554s2373 10971 5290 12614c2917 1644 6255-447 9997-3835z"/>
    <path class="fil1" d="m23301 33458c-3742-3389-7888-8075-8604-13868-716-5792 1999-12691 4713-19590 4524 2488 9048 4976 12680 9125 3633 4150 6375 9960 6497 15554 123 5594-2373 10971-5289 12614-2917 1644-6255-447-9997-3835z"/>
    <path class="fil2" d="m55170 8211c-56054 1857-54347 1.0344e5 1123 1.0344e5 50864 0 60138-1.0547e5 -1123-1.0344e5z"/>
    <path class="fil3" d="m55170 8211c-37976 0-45899 31078-40166 61750h81081c6768-30672-227-61750-40915-61750z"/>
    <ellipse class="fil1" cx="70409" cy="39410" rx="23212" ry="19339"/>
    <ellipse class="fil1" cx="43048" cy="39410" rx="23212" ry="19339"/>
     <path class="fil4" d="m62013 48585c1151-7871 9336-19842 15126-20279 5790-436 9242 440 11603 1207-8512-10121-35894-7255-26729 19072z"/>
     <path class="fil4" d="m74302 24169c-7642 0-13837 6195-13837 13837s6195 13837 13837 13837 13837-6195 13837-13837-6195-13837-13837-13837z"/>
     <circle class="fil5" cx="74302" cy="38006" r="13216"/>
     <circle class="fil6" cx="74302" cy="38006" r="10225"/>
     <path class="fil7" d="m74377 27631c-5394 0-9812 4177-10197 9473 2289-1641 5157-2880 8376-3475 4255-786 8342-305 11564 1116-1317-4126-5180-7114-9743-7114z"/>
     <path class="fil4" d="m51683 49325c-1152-7871-9337-19842-15126-20278-5790-437-9242 439-11604 1206 8513-10121 35894-7255 26730 19072z"/>
     <path class="fil4" d="m39394 24909c7641 0 13837 6195 13837 13837s-6196 13837-13837 13837c-7642 0-13838-6195-13838-13837s6196-13837 13838-13837z"/>
     <circle class="fil5" cx="39394" cy="38746" r="13216"/>
     <circle class="fil6" cx="39394" cy="38746" r="10225"/>
     <path class="fil7" d="m39318 28371c5395 0 9813 4177 10198 9473-2289-1641-5158-2879-8376-3474-4255-787-8343-306-11564 1115 1316-4126 5180-7114 9742-7114z"/>
    <path class="fil8" d="m64521 53271c-2561 6418-5123 12836-7480 12793s-4509-6547-6660-13051c2444-919 4888-1839 7244-1796 2357 43 4627 1049 6896 2054z"/>
     <path class="fil3" d="m95834 70328c-520 1527-1803 3422-3219 3134-1415-287-2962-2756-2443-4282 520-1527 3106-2112 4522-1825 1415 287 1659 1447 1140 2973z"/>
     <path class="fil3" d="m90830 70328c-520 1527-1803 3422-3219 3134-1415-287-2963-2756-2443-4282 519-1527 3106-2112 4521-1825 1416 287 1660 1447 1141 2973z"/>
     <path class="fil3" d="m85825 70328c-519 1527-1803 3422-3218 3134-1416-287-2963-2756-2444-4282 520-1527 3106-2112 4522-1825 1415 287 1660 1447 1140 2973z"/>
     <path class="fil3" d="m80821 70328c-520 1527-1803 3422-3219 3134-1415-287-2962-2756-2443-4282 520-1527 3106-2112 4521-1825 1416 287 1660 1447 1141 2973z"/>
     <path class="fil3" d="m75816 70328c-519 1527-1803 3422-3218 3134-1415-287-2963-2756-2443-4282 519-1527 3106-2112 4521-1825s1660 1447 1140 2973z"/>
     <path class="fil3" d="m70812 70328c-520 1527-1803 3422-3218 3134-1416-287-2963-2756-2444-4282 520-1527 3106-2112 4522-1825 1415 287 1659 1447 1140 2973z"/>
     <path class="fil3" d="m65808 70328c-520 1527-1803 3422-3219 3134-1415-287-2963-2756-2443-4282 519-1527 3106-2112 4521-1825 1416 287 1660 1447 1141 2973z"/>
     <path class="fil3" d="m55799 70328c-520 1527-1803 3422-3219 3134-1415-287-2962-2756-2443-4282 520-1527 3106-2112 4521-1825 1416 287 1660 1447 1141 2973z"/>
     <path class="fil3" d="m60803 70328c-519 1527-1803 3422-3218 3134-1416-287-2963-2756-2444-4282 520-1527 3106-2112 4522-1825 1415 287 1660 1447 1140 2973z"/>
     <path class="fil3" d="m50794 70328c-519 1527-1803 3422-3218 3134-1415-287-2963-2756-2443-4282 519-1527 3106-2112 4521-1825s1660 1447 1140 2973z"/>
     <path class="fil3" d="m45790 70328c-519 1527-1803 3422-3218 3134-1416-287-2963-2756-2444-4282 520-1527 3106-2112 4522-1825 1415 287 1660 1447 1140 2973z"/>
     <path class="fil3" d="m40786 70328c-520 1527-1803 3422-3219 3134-1415-287-2963-2756-2443-4282 519-1527 3106-2112 4521-1825 1416 287 1660 1447 1141 2973z"/>
     <path class="fil3" d="m35781 70328c-519 1527-1803 3422-3218 3134-1416-287-2963-2756-2443-4282 519-1527 3105-2112 4521-1825 1415 287 1660 1447 1140 2973z"/>
     <path class="fil3" d="m30777 70328c-520 1527-1803 3422-3219 3134-1415-287-2962-2756-2443-4282 520-1527 3106-2112 4521-1825 1416 287 1660 1447 1141 2973z"/>
     <path class="fil3" d="m25772 70328c-519 1527-1803 3422-3218 3134-1415-287-2963-2756-2443-4282 519-1527 3106-2112 4521-1825s1660 1447 1140 2973z"/>
     <path class="fil3" d="m20768 70328c-519 1527-1803 3422-3218 3134-1416-287-2963-2756-2444-4282 520-1527 3106-2112 4522-1825 1415 287 1660 1447 1140 2973z"/>
</svg>
