<?xml version="1.0" encoding="UTF-8"?>
<svg width="277.94" height="234.82" fill-rule="evenodd" image-rendering="optimizeQuality" shape-rendering="geometricPrecision" text-rendering="geometricPrecision" viewBox="0 0 7368.74 6225.47" xmlns="http://www.w3.org/2000/svg">
 <defs>
  <radialGradient id="a" cx="3331.8" cy="2240.9" r="1184.5" gradientUnits="userSpaceOnUse">
   <stop stop-color="#fefefe" offset="0"/>
   <stop stop-color="#fff212" offset="1"/>
  </radialGradient>
 </defs>
 <path d="m6012.5 3682.6c-62.715 681.24-500.54 1079.6-1073.8 1232.8-1652.5 441.84-3120.2-431.74-3320.6-1570.8-228.96-1301.3 1086.3-2503.7 2346.3-2207.1 1330.3 313.08 2162.8 1299.4 2048.1 2545.2z" fill="url(#a)" stroke="#373435" stroke-width="93.941"/>
 <path d="m5276.8 3026.4c-853.14 1474.2-2828.3 970.48-2823.5-914.66" fill="none" stroke="#373435" stroke-width="140.91"/>
 <path d="m4700.2 2350.3c-12.757-218.57-151.95-304.73-417.57-258.5" fill="none" stroke="#373435" stroke-width="93.941"/>
 <path d="m3805.4 2071.9c-69.478-203.24-235.18-276.15-497.1-218.72" fill="none" stroke="#373435" stroke-width="93.941"/>
 <path d="m861.82 3599-835.13 576.64" fill="none" stroke="#373435" stroke-width="93.941"/>
 <path d="m1100.4 2604.8h-835.13" fill="none" stroke="#373435" stroke-width="93.941"/>
 <path d="m1378.8 1670.3-974.32-218.72" fill="none" stroke="#373435" stroke-width="93.941"/>
 <path d="m2313.4 1034-437.45-596.53" fill="none" stroke="#373435" stroke-width="93.941"/>
 <path d="m3407 835.13v-835.13" fill="none" stroke="#373435" stroke-width="93.941"/>
 <path d="m4500.6 1053.8 715.83-755.59" fill="none" stroke="#373435" stroke-width="93.941"/>
 <path d="m5673.8 1570.8 695.95-457.34" fill="none" stroke="#373435" stroke-width="93.941"/>
 <path d="m6151 2386.1 1033.1-59.65" fill="none" stroke="#373435" stroke-width="93.941"/>
 <path d="m6449.3 3539.4 734.8 258.5" fill="none" stroke="#373435" stroke-width="93.941"/>
 <path d="m5733.4 4792.1 715.83 676.06" fill="none" stroke="#373435" stroke-width="93.941"/>
 <path d="m4997.7 5388.6 99.42 755.6" fill="none" stroke="#373435" stroke-width="93.941"/>
 <path d="m3804.7 5547.7-59.65 596.52" fill="none" stroke="#373435" stroke-width="93.941"/>
 <path d="m2671.3 5189.8-218.73 656.17" fill="none" stroke="#373435" stroke-width="93.941"/>
 <path d="m1657.2 4613.1-556.76 636.3" fill="none" stroke="#373435" stroke-width="93.941"/>
 <path d="m1030.9 3674.2-835.13 576.63" fill="none" stroke="#fff212" stroke-width="93.941"/>
 <path d="m1269.5 2680h-835.13" fill="none" stroke="#fff212" stroke-width="93.941"/>
 <path d="m1547.9 1745.4-974.33-218.73" fill="none" stroke="#fff212" stroke-width="93.941"/>
 <path d="m2482.5 1109.1-437.46-596.52" fill="none" stroke="#fff212" stroke-width="93.941"/>
 <path d="m3576.1 910.28v-835.13" fill="none" stroke="#fff212" stroke-width="93.941"/>
 <path d="m4669.7 1129 715.83-755.6" fill="none" stroke="#fff212" stroke-width="93.941"/>
 <path d="m5842.9 1646 695.95-457.34" fill="none" stroke="#fff212" stroke-width="93.941"/>
 <path d="m6320.1 2461.2 1033.1-59.65" fill="none" stroke="#fff212" stroke-width="93.941"/>
 <path d="m6618.4 3614.5 734.8 258.5" fill="none" stroke="#fff212" stroke-width="93.941"/>
 <path d="m5902.5 4867.2 715.83 676.06" fill="none" stroke="#fff212" stroke-width="93.941"/>
 <path d="m5166.8 5463.7 99.42 755.61" fill="none" stroke="#fff212" stroke-width="93.941"/>
 <path d="m3973.8 5622.8-59.65 596.53" fill="none" stroke="#fff212" stroke-width="93.941"/>
 <path d="m2840.4 5264.9-218.72 656.18" fill="none" stroke="#fff212" stroke-width="93.941"/>
 <path d="m1826.3 4688.3-556.76 636.29" fill="none" stroke="#fff212" stroke-width="93.941"/>
</svg>
