<?xml version="1.0" encoding="UTF-8"?>
<svg version="1.1" viewBox="0 0 1000 1000" xmlns="http://www.w3.org/2000/svg">
 <g transform="translate(0 -52.362)">
  <circle cx="500" cy="552.36" r="443.92" fill="#409fe2"/>
  <g transform="translate(-3 -3)">
   <path d="m506 304c-6.2375 0-12.473 2.3907-17.253 7.1697l-218.61 218.61c-4.7795 4.779-7.1727 11.014-7.1727 17.25 0 6.2378 0.41329 9.3683 7.1727 9.3683h56.882v230.34c0 14.4 11.596 25.995 25.998 25.995h79.618c11.831 0 21.357-9.5229 21.357-21.354v-82.39c0-13.859 11.158-25.019 25.017-25.019h53.988c13.859 0 25.017 11.16 25.017 25.019v82.39c0 11.832 9.5254 21.354 21.357 21.354h79.618c14.402 0 25.998-11.595 25.998-25.995v-230.34h56.882c6.7592 0 7.1727-3.1306 7.1727-9.3683 0-6.2354-2.3932-12.471-7.1727-17.25l-218.61-218.61c-4.7795-4.779-11.015-7.1697-17.253-7.1697z" fill-opacity=".13333"/>
   <path d="m500 298c-6.2375 0-12.473 2.3907-17.253 7.1697l-218.61 218.61c-4.7795 4.779-7.1727 11.014-7.1727 17.25 0 6.2378 0.41329 9.3683 7.1727 9.3683h56.882v230.34c0 14.4 11.596 25.995 25.998 25.995h79.618c11.831 0 21.357-9.5229 21.357-21.354v-82.39c0-13.859 11.158-25.019 25.017-25.019h53.988c13.859 0 25.017 11.16 25.017 25.019v82.39c0 11.832 9.5254 21.354 21.357 21.354h79.618c14.402 0 25.998-11.595 25.998-25.995v-230.34h56.882c6.7592 0 7.1727-3.1306 7.1727-9.3683 0-6.2354-2.3932-12.471-7.1727-17.25l-218.61-218.61c-4.7795-4.779-11.015-7.1697-17.253-7.1697z" fill="#e4ff1e"/>
  </g>
 </g>
</svg>
