<?xml version="1.0" encoding="UTF-8"?>
<svg version="1.1" viewBox="0 0 112.15625 103.59375" xmlns="http://www.w3.org/2000/svg">
 <path d="m62 6c-2.216 0-4 1.784-4 4v3.3438c0 2.216 1.784 4 4 4h1.25c-0.748 0.504-1.25 1.368-1.25 2.344v24.938c0-2.216-1.784-4-4-4h-20v-21.125c0-1.1957-0.96051-2.1562-2.1562-2.1562h-11.938c-1.195-1e-3 -2.156 0.959-2.156 2.155v21.125h-11.344c-2.216 0-4 1.784-4 4v20.719c0 2.216 1.784 4 4 4h-0.40625c-2.216 0-4 1.784-4 4v8c0 2.216 1.784 4 4 4h2.5c-4.6e-4 0.043 0 0.0819 0 0.125 0 6.5646 5.3104 11.906 11.875 11.906s11.906-5.3417 11.906-11.906c0-0.0431 4.6e-4 -0.082 0-0.125h3.75c-4.6e-4 0.043 0 0.0819 0 0.125 0 6.5646 5.3417 11.906 11.906 11.906 6.5646 0 11.875-5.3417 11.875-11.906 0-0.0431 4.6e-4 -0.082 0-0.125h4.125c1.276 6.9732 7.3787 12.25 14.719 12.25 7.34 0 13.443-5.2768 14.719-12.25h0.625c2.216 0 4-1.784 4-4v-8c0-2.216-1.784-4-4-4h0.34375c1.561 0 2.8125-1.2515 2.8125-2.8125v-46.844c0-0.97565-0.50225-1.8399-1.25-2.3438h2.25c2.216 0 4-1.784 4-4v-3.3438c0-2.216-1.784-4-4-4zm9.2188 19.344h21.062c0.98012 0 1.75 0.76988 1.75 1.75v20.25c0 0.98012-0.76988 1.7812-1.75 1.7812h-21.062c-0.98012 0-1.75-0.80113-1.75-1.7812v-20.25c0-0.98012 0.76988-1.75 1.75-1.75zm-9.2188 40v1.1875c0 1.561 1.2515 2.8125 2.8125 2.8125h-6.8125c2.216 0 4-1.784 4-4z" fill="#00f" fill-rule="evenodd" stroke="#000" stroke-linecap="round" stroke-linejoin="round" stroke-width="12"/>
 <path d="m38 19.502v47.484a2.1584 2.1584 0 0 1 -2.1584 2.1584h-11.943a2.1584 2.1584 0 0 1 -2.1584 -2.1584v-47.484a2.1584 2.1584 0 0 1 2.1584 -2.1584h11.943a2.1584 2.1584 0 0 1 2.158 2.158" fill="#00f" fill-rule="evenodd" stroke="#000" stroke-linecap="round" stroke-linejoin="round" stroke-width="3"/>
 <path d="m10 69.344h88a4 4 0 0 1 4 4v8a4 4 0 0 1 -4 4h-88a4 4 0 0 1 -4 -4v-8a4 4 0 0 1 4 -4" fill="#e9c6af" fill-rule="evenodd" stroke="#000" stroke-linecap="round" stroke-linejoin="round" stroke-width="3"/>
 <path d="m10.408 40.613h47.592a4 4 0 0 1 4 4v20.73a4 4 0 0 1 -4 4h-47.592a4 4 0 0 1 -4 -4v-20.73a4 4 0 0 1 4 -4" fill="#0f0" fill-rule="evenodd" stroke="#000" stroke-linecap="round" stroke-linejoin="round" stroke-width="3"/>
 <path d="m62 5.0036h40.157a4 4 0 0 1 4 4v3.3326a4 4 0 0 1 -4 4h-40.16a4 4 0 0 1 -4 -4v-3.3324a4 4 0 0 1 4 -4" fill="#f00" fill-rule="evenodd" stroke="#000" stroke-linecap="round" stroke-linejoin="round" stroke-width="3"/>
 <path d="m64.812 16.875c-1.561 0-2.812 1.251-2.812 2.813v46.844c0 1.561 1.2515 2.8125 2.8125 2.8125h33.531c1.561 0 2.8125-1.2515 2.8125-2.8125v-46.844c0-1.561-1.2514-2.8125-2.8125-2.8125h-33.536zm6.4062 8.4688h21.062c0.98012 0 1.75 0.76988 1.75 1.75v20.25c0 0.98012-0.76988 1.7812-1.75 1.7812h-21.062c-0.98012 0-1.75-0.80113-1.75-1.7812v-20.25c0-0.98012 0.76988-1.75 1.75-1.75z" fill="#ff0" fill-rule="evenodd" stroke="#000" stroke-linecap="round" stroke-linejoin="round" stroke-width="3"/>
 <path d="m97.629 82.626a14.973 14.973 0 0 1 -29.945 0 14.973 14.973 0 1 1 29.945 0z" fill="#f00" fill-rule="evenodd" stroke="#000" stroke-linecap="round" stroke-linejoin="round" stroke-width="4"/>
 <path d="m90.143 82.627a7.4864 7.4864 0 0 1 -14.973 0 7.4864 7.4864 0 1 1 14.973 0z" fill-rule="evenodd"/>
 <path d="m36.28 85.482a11.892 11.892 0 0 1 -23.785 0 11.892 11.892 0 1 1 23.785 0z" fill="#f00" fill-rule="evenodd" stroke="#000" stroke-linecap="round" stroke-linejoin="round" stroke-width="4"/>
 <path d="m30.334 85.481a5.9461 5.9461 0 0 1 -11.892 0 5.9461 5.9461 0 1 1 11.892 0z" fill-rule="evenodd"/>
 <path d="m63.819 85.482a11.892 11.892 0 0 1 -23.785 0 11.892 11.892 0 1 1 23.785 0z" fill="#f00" fill-rule="evenodd" stroke="#000" stroke-linecap="round" stroke-linejoin="round" stroke-width="4"/>
 <path d="m57.873 85.481a5.9461 5.9461 0 0 1 -11.892 0 5.9461 5.9461 0 1 1 11.892 0z" fill-rule="evenodd"/>
</svg>
